<?xml version="1.0" encoding="utf-8" standalone="no"?>
<!DOCTYPE svg PUBLIC "-//W3C//DTD SVG 1.1//EN"
  "http://www.w3.org/Graphics/SVG/1.1/DTD/svg11.dtd">
<svg xmlns:xlink="http://www.w3.org/1999/xlink" width="659.934375pt" height="341.3125pt" viewBox="0 0 659.934375 341.3125" xmlns="http://www.w3.org/2000/svg" version="1.1">
 <metadata>
  <rdf:RDF xmlns:dc="http://purl.org/dc/elements/1.1/" xmlns:cc="http://creativecommons.org/ns#" xmlns:rdf="http://www.w3.org/1999/02/22-rdf-syntax-ns#">
   <cc:Work>
    <dc:type rdf:resource="http://purl.org/dc/dcmitype/StillImage"/>
    <dc:date>2023-02-17T16:13:33.797546</dc:date>
    <dc:format>image/svg+xml</dc:format>
    <dc:creator>
     <cc:Agent>
      <dc:title>Matplotlib v3.7.0, https://matplotlib.org/</dc:title>
     </cc:Agent>
    </dc:creator>
   </cc:Work>
  </rdf:RDF>
 </metadata>
 <defs>
  <style type="text/css">*{stroke-linejoin: round; stroke-linecap: butt}</style>
 </defs>
 <g id="figure_1">
  <g id="patch_1">
   <path d="M 0 341.3125 
L 659.934375 341.3125 
L 659.934375 0 
L 0 0 
z
" style="fill: #ffffff"/>
  </g>
  <g id="axes_1">
   <g id="patch_2">
    <path d="M 94.734375 284.4 
L 652.734375 284.4 
L 652.734375 7.2 
L 94.734375 7.2 
z
" style="fill: #ffffff"/>
   </g>
   <g id="matplotlib.axis_1">
    <g id="xtick_1">
     <g id="line2d_1">
      <path d="M 122.847457 284.4 
L 122.847457 7.2 
" clip-path="url(#p929cca4206)" style="fill: none; stroke-dasharray: 1.85,0.8; stroke-dashoffset: 0; stroke: #b0b0b0; stroke-width: 0.5"/>
     </g>
     <g id="line2d_2">
      <defs>
       <path id="mb468917042" d="M 0 0 
L 0 3.5 
" style="stroke: #000000; stroke-width: 0.8"/>
      </defs>
      <g>
       <use xlink:href="#mb468917042" x="122.847457" y="284.4" style="stroke: #000000; stroke-width: 0.8"/>
      </g>
     </g>
     <g id="text_1">
      <text style="font: 20px 'DejaVu Sans', 'Bitstream Vera Sans', 'Computer Modern Sans Serif', 'Lucida Grande', 'Verdana', 'Geneva', 'Lucid', 'Arial', 'Helvetica', 'Avant Garde', sans-serif; text-anchor: middle" x="122.847457" y="306.596875" transform="rotate(-0 122.847457 306.596875)">0</text>
     </g>
    </g>
    <g id="xtick_2">
     <g id="line2d_3">
      <path d="M 191.583599 284.4 
L 191.583599 7.2 
" clip-path="url(#p929cca4206)" style="fill: none; stroke-dasharray: 1.85,0.8; stroke-dashoffset: 0; stroke: #b0b0b0; stroke-width: 0.5"/>
     </g>
     <g id="line2d_4">
      <g>
       <use xlink:href="#mb468917042" x="191.583599" y="284.4" style="stroke: #000000; stroke-width: 0.8"/>
      </g>
     </g>
     <g id="text_2">
      <text style="font: 20px 'DejaVu Sans', 'Bitstream Vera Sans', 'Computer Modern Sans Serif', 'Lucida Grande', 'Verdana', 'Geneva', 'Lucid', 'Arial', 'Helvetica', 'Avant Garde', sans-serif; text-anchor: middle" x="191.583599" y="306.596875" transform="rotate(-0 191.583599 306.596875)">10</text>
     </g>
    </g>
    <g id="xtick_3">
     <g id="line2d_5">
      <path d="M 260.319741 284.4 
L 260.319741 7.2 
" clip-path="url(#p929cca4206)" style="fill: none; stroke-dasharray: 1.85,0.8; stroke-dashoffset: 0; stroke: #b0b0b0; stroke-width: 0.5"/>
     </g>
     <g id="line2d_6">
      <g>
       <use xlink:href="#mb468917042" x="260.319741" y="284.4" style="stroke: #000000; stroke-width: 0.8"/>
      </g>
     </g>
     <g id="text_3">
      <text style="font: 20px 'DejaVu Sans', 'Bitstream Vera Sans', 'Computer Modern Sans Serif', 'Lucida Grande', 'Verdana', 'Geneva', 'Lucid', 'Arial', 'Helvetica', 'Avant Garde', sans-serif; text-anchor: middle" x="260.319741" y="306.596875" transform="rotate(-0 260.319741 306.596875)">20</text>
     </g>
    </g>
    <g id="xtick_4">
     <g id="line2d_7">
      <path d="M 329.055883 284.4 
L 329.055883 7.2 
" clip-path="url(#p929cca4206)" style="fill: none; stroke-dasharray: 1.85,0.8; stroke-dashoffset: 0; stroke: #b0b0b0; stroke-width: 0.5"/>
     </g>
     <g id="line2d_8">
      <g>
       <use xlink:href="#mb468917042" x="329.055883" y="284.4" style="stroke: #000000; stroke-width: 0.8"/>
      </g>
     </g>
     <g id="text_4">
      <text style="font: 20px 'DejaVu Sans', 'Bitstream Vera Sans', 'Computer Modern Sans Serif', 'Lucida Grande', 'Verdana', 'Geneva', 'Lucid', 'Arial', 'Helvetica', 'Avant Garde', sans-serif; text-anchor: middle" x="329.055883" y="306.596875" transform="rotate(-0 329.055883 306.596875)">30</text>
     </g>
    </g>
    <g id="xtick_5">
     <g id="line2d_9">
      <path d="M 397.792025 284.4 
L 397.792025 7.2 
" clip-path="url(#p929cca4206)" style="fill: none; stroke-dasharray: 1.85,0.8; stroke-dashoffset: 0; stroke: #b0b0b0; stroke-width: 0.5"/>
     </g>
     <g id="line2d_10">
      <g>
       <use xlink:href="#mb468917042" x="397.792025" y="284.4" style="stroke: #000000; stroke-width: 0.8"/>
      </g>
     </g>
     <g id="text_5">
      <text style="font: 20px 'DejaVu Sans', 'Bitstream Vera Sans', 'Computer Modern Sans Serif', 'Lucida Grande', 'Verdana', 'Geneva', 'Lucid', 'Arial', 'Helvetica', 'Avant Garde', sans-serif; text-anchor: middle" x="397.792025" y="306.596875" transform="rotate(-0 397.792025 306.596875)">40</text>
     </g>
    </g>
    <g id="xtick_6">
     <g id="line2d_11">
      <path d="M 466.528167 284.4 
L 466.528167 7.2 
" clip-path="url(#p929cca4206)" style="fill: none; stroke-dasharray: 1.85,0.8; stroke-dashoffset: 0; stroke: #b0b0b0; stroke-width: 0.5"/>
     </g>
     <g id="line2d_12">
      <g>
       <use xlink:href="#mb468917042" x="466.528167" y="284.4" style="stroke: #000000; stroke-width: 0.8"/>
      </g>
     </g>
     <g id="text_6">
      <text style="font: 20px 'DejaVu Sans', 'Bitstream Vera Sans', 'Computer Modern Sans Serif', 'Lucida Grande', 'Verdana', 'Geneva', 'Lucid', 'Arial', 'Helvetica', 'Avant Garde', sans-serif; text-anchor: middle" x="466.528167" y="306.596875" transform="rotate(-0 466.528167 306.596875)">50</text>
     </g>
    </g>
    <g id="xtick_7">
     <g id="line2d_13">
      <path d="M 535.264308 284.4 
L 535.264308 7.2 
" clip-path="url(#p929cca4206)" style="fill: none; stroke-dasharray: 1.85,0.8; stroke-dashoffset: 0; stroke: #b0b0b0; stroke-width: 0.5"/>
     </g>
     <g id="line2d_14">
      <g>
       <use xlink:href="#mb468917042" x="535.264308" y="284.4" style="stroke: #000000; stroke-width: 0.8"/>
      </g>
     </g>
     <g id="text_7">
      <text style="font: 20px 'DejaVu Sans', 'Bitstream Vera Sans', 'Computer Modern Sans Serif', 'Lucida Grande', 'Verdana', 'Geneva', 'Lucid', 'Arial', 'Helvetica', 'Avant Garde', sans-serif; text-anchor: middle" x="535.264308" y="306.596875" transform="rotate(-0 535.264308 306.596875)">60</text>
     </g>
    </g>
    <g id="xtick_8">
     <g id="line2d_15">
      <path d="M 604.00045 284.4 
L 604.00045 7.2 
" clip-path="url(#p929cca4206)" style="fill: none; stroke-dasharray: 1.85,0.8; stroke-dashoffset: 0; stroke: #b0b0b0; stroke-width: 0.5"/>
     </g>
     <g id="line2d_16">
      <g>
       <use xlink:href="#mb468917042" x="604.00045" y="284.4" style="stroke: #000000; stroke-width: 0.8"/>
      </g>
     </g>
     <g id="text_8">
      <text style="font: 20px 'DejaVu Sans', 'Bitstream Vera Sans', 'Computer Modern Sans Serif', 'Lucida Grande', 'Verdana', 'Geneva', 'Lucid', 'Arial', 'Helvetica', 'Avant Garde', sans-serif; text-anchor: middle" x="604.00045" y="306.596875" transform="rotate(-0 604.00045 306.596875)">70</text>
     </g>
    </g>
    <g id="text_9">
     <text style="font: 20px 'DejaVu Sans', 'Bitstream Vera Sans', 'Computer Modern Sans Serif', 'Lucida Grande', 'Verdana', 'Geneva', 'Lucid', 'Arial', 'Helvetica', 'Avant Garde', sans-serif; text-anchor: middle" x="373.734375" y="329.953125" transform="rotate(-0 373.734375 329.953125)">Rank (study)</text>
    </g>
   </g>
   <g id="matplotlib.axis_2">
    <g id="ytick_1">
     <g id="line2d_17">
      <path d="M 94.734375 284.4 
L 652.734375 284.4 
" clip-path="url(#p929cca4206)" style="fill: none; stroke-dasharray: 2.775,1.2; stroke-dashoffset: 0; stroke: #b0b0b0; stroke-width: 0.75"/>
     </g>
     <g id="line2d_18">
      <defs>
       <path id="me04960a1dc" d="M 0 0 
L -3.5 0 
" style="stroke: #000000; stroke-width: 0.8"/>
      </defs>
      <g>
       <use xlink:href="#me04960a1dc" x="94.734375" y="284.4" style="stroke: #000000; stroke-width: 0.8"/>
      </g>
     </g>
     <g id="text_10">
      <text style="font: 20px 'DejaVu Sans', 'Bitstream Vera Sans', 'Computer Modern Sans Serif', 'Lucida Grande', 'Verdana', 'Geneva', 'Lucid', 'Arial', 'Helvetica', 'Avant Garde', sans-serif; text-anchor: end" x="87.734375" y="291.998438" transform="rotate(-0 87.734375 291.998438)">0%</text>
     </g>
    </g>
    <g id="ytick_2">
     <g id="line2d_19">
      <path d="M 94.734375 258 
L 652.734375 258 
" clip-path="url(#p929cca4206)" style="fill: none; stroke-dasharray: 2.775,1.2; stroke-dashoffset: 0; stroke: #b0b0b0; stroke-width: 0.75"/>
     </g>
     <g id="line2d_20">
      <g>
       <use xlink:href="#me04960a1dc" x="94.734375" y="258" style="stroke: #000000; stroke-width: 0.8"/>
      </g>
     </g>
     <g id="text_11">
      <text style="font: 20px 'DejaVu Sans', 'Bitstream Vera Sans', 'Computer Modern Sans Serif', 'Lucida Grande', 'Verdana', 'Geneva', 'Lucid', 'Arial', 'Helvetica', 'Avant Garde', sans-serif; text-anchor: end" x="87.734375" y="265.598437" transform="rotate(-0 87.734375 265.598437)">10%</text>
     </g>
    </g>
    <g id="ytick_3">
     <g id="line2d_21">
      <path d="M 94.734375 231.6 
L 652.734375 231.6 
" clip-path="url(#p929cca4206)" style="fill: none; stroke-dasharray: 2.775,1.2; stroke-dashoffset: 0; stroke: #b0b0b0; stroke-width: 0.75"/>
     </g>
     <g id="line2d_22">
      <g>
       <use xlink:href="#me04960a1dc" x="94.734375" y="231.6" style="stroke: #000000; stroke-width: 0.8"/>
      </g>
     </g>
     <g id="text_12">
      <text style="font: 20px 'DejaVu Sans', 'Bitstream Vera Sans', 'Computer Modern Sans Serif', 'Lucida Grande', 'Verdana', 'Geneva', 'Lucid', 'Arial', 'Helvetica', 'Avant Garde', sans-serif; text-anchor: end" x="87.734375" y="239.198438" transform="rotate(-0 87.734375 239.198438)">20%</text>
     </g>
    </g>
    <g id="ytick_4">
     <g id="line2d_23">
      <path d="M 94.734375 205.2 
L 652.734375 205.2 
" clip-path="url(#p929cca4206)" style="fill: none; stroke-dasharray: 2.775,1.2; stroke-dashoffset: 0; stroke: #b0b0b0; stroke-width: 0.75"/>
     </g>
     <g id="line2d_24">
      <g>
       <use xlink:href="#me04960a1dc" x="94.734375" y="205.2" style="stroke: #000000; stroke-width: 0.8"/>
      </g>
     </g>
     <g id="text_13">
      <text style="font: 20px 'DejaVu Sans', 'Bitstream Vera Sans', 'Computer Modern Sans Serif', 'Lucida Grande', 'Verdana', 'Geneva', 'Lucid', 'Arial', 'Helvetica', 'Avant Garde', sans-serif; text-anchor: end" x="87.734375" y="212.798437" transform="rotate(-0 87.734375 212.798437)">30%</text>
     </g>
    </g>
    <g id="ytick_5">
     <g id="line2d_25">
      <path d="M 94.734375 178.8 
L 652.734375 178.8 
" clip-path="url(#p929cca4206)" style="fill: none; stroke-dasharray: 2.775,1.2; stroke-dashoffset: 0; stroke: #b0b0b0; stroke-width: 0.75"/>
     </g>
     <g id="line2d_26">
      <g>
       <use xlink:href="#me04960a1dc" x="94.734375" y="178.8" style="stroke: #000000; stroke-width: 0.8"/>
      </g>
     </g>
     <g id="text_14">
      <text style="font: 20px 'DejaVu Sans', 'Bitstream Vera Sans', 'Computer Modern Sans Serif', 'Lucida Grande', 'Verdana', 'Geneva', 'Lucid', 'Arial', 'Helvetica', 'Avant Garde', sans-serif; text-anchor: end" x="87.734375" y="186.398437" transform="rotate(-0 87.734375 186.398437)">40%</text>
     </g>
    </g>
    <g id="ytick_6">
     <g id="line2d_27">
      <path d="M 94.734375 152.4 
L 652.734375 152.4 
" clip-path="url(#p929cca4206)" style="fill: none; stroke-dasharray: 2.775,1.2; stroke-dashoffset: 0; stroke: #b0b0b0; stroke-width: 0.75"/>
     </g>
     <g id="line2d_28">
      <g>
       <use xlink:href="#me04960a1dc" x="94.734375" y="152.4" style="stroke: #000000; stroke-width: 0.8"/>
      </g>
     </g>
     <g id="text_15">
      <text style="font: 20px 'DejaVu Sans', 'Bitstream Vera Sans', 'Computer Modern Sans Serif', 'Lucida Grande', 'Verdana', 'Geneva', 'Lucid', 'Arial', 'Helvetica', 'Avant Garde', sans-serif; text-anchor: end" x="87.734375" y="159.998437" transform="rotate(-0 87.734375 159.998437)">50%</text>
     </g>
    </g>
    <g id="ytick_7">
     <g id="line2d_29">
      <path d="M 94.734375 126 
L 652.734375 126 
" clip-path="url(#p929cca4206)" style="fill: none; stroke-dasharray: 2.775,1.2; stroke-dashoffset: 0; stroke: #b0b0b0; stroke-width: 0.75"/>
     </g>
     <g id="line2d_30">
      <g>
       <use xlink:href="#me04960a1dc" x="94.734375" y="126" style="stroke: #000000; stroke-width: 0.8"/>
      </g>
     </g>
     <g id="text_16">
      <text style="font: 20px 'DejaVu Sans', 'Bitstream Vera Sans', 'Computer Modern Sans Serif', 'Lucida Grande', 'Verdana', 'Geneva', 'Lucid', 'Arial', 'Helvetica', 'Avant Garde', sans-serif; text-anchor: end" x="87.734375" y="133.598437" transform="rotate(-0 87.734375 133.598437)">60%</text>
     </g>
    </g>
    <g id="ytick_8">
     <g id="line2d_31">
      <path d="M 94.734375 99.6 
L 652.734375 99.6 
" clip-path="url(#p929cca4206)" style="fill: none; stroke-dasharray: 2.775,1.2; stroke-dashoffset: 0; stroke: #b0b0b0; stroke-width: 0.75"/>
     </g>
     <g id="line2d_32">
      <g>
       <use xlink:href="#me04960a1dc" x="94.734375" y="99.6" style="stroke: #000000; stroke-width: 0.8"/>
      </g>
     </g>
     <g id="text_17">
      <text style="font: 20px 'DejaVu Sans', 'Bitstream Vera Sans', 'Computer Modern Sans Serif', 'Lucida Grande', 'Verdana', 'Geneva', 'Lucid', 'Arial', 'Helvetica', 'Avant Garde', sans-serif; text-anchor: end" x="87.734375" y="107.198437" transform="rotate(-0 87.734375 107.198437)">70%</text>
     </g>
    </g>
    <g id="ytick_9">
     <g id="line2d_33">
      <path d="M 94.734375 73.2 
L 652.734375 73.2 
" clip-path="url(#p929cca4206)" style="fill: none; stroke-dasharray: 2.775,1.2; stroke-dashoffset: 0; stroke: #b0b0b0; stroke-width: 0.75"/>
     </g>
     <g id="line2d_34">
      <g>
       <use xlink:href="#me04960a1dc" x="94.734375" y="73.2" style="stroke: #000000; stroke-width: 0.8"/>
      </g>
     </g>
     <g id="text_18">
      <text style="font: 20px 'DejaVu Sans', 'Bitstream Vera Sans', 'Computer Modern Sans Serif', 'Lucida Grande', 'Verdana', 'Geneva', 'Lucid', 'Arial', 'Helvetica', 'Avant Garde', sans-serif; text-anchor: end" x="87.734375" y="80.798437" transform="rotate(-0 87.734375 80.798437)">80%</text>
     </g>
    </g>
    <g id="ytick_10">
     <g id="line2d_35">
      <path d="M 94.734375 46.8 
L 652.734375 46.8 
" clip-path="url(#p929cca4206)" style="fill: none; stroke-dasharray: 2.775,1.2; stroke-dashoffset: 0; stroke: #b0b0b0; stroke-width: 0.75"/>
     </g>
     <g id="line2d_36">
      <g>
       <use xlink:href="#me04960a1dc" x="94.734375" y="46.8" style="stroke: #000000; stroke-width: 0.8"/>
      </g>
     </g>
     <g id="text_19">
      <text style="font: 20px 'DejaVu Sans', 'Bitstream Vera Sans', 'Computer Modern Sans Serif', 'Lucida Grande', 'Verdana', 'Geneva', 'Lucid', 'Arial', 'Helvetica', 'Avant Garde', sans-serif; text-anchor: end" x="87.734375" y="54.398438" transform="rotate(-0 87.734375 54.398438)">90%</text>
     </g>
    </g>
    <g id="ytick_11">
     <g id="line2d_37">
      <path d="M 94.734375 20.4 
L 652.734375 20.4 
" clip-path="url(#p929cca4206)" style="fill: none; stroke-dasharray: 2.775,1.2; stroke-dashoffset: 0; stroke: #b0b0b0; stroke-width: 0.75"/>
     </g>
     <g id="line2d_38">
      <g>
       <use xlink:href="#me04960a1dc" x="94.734375" y="20.4" style="stroke: #000000; stroke-width: 0.8"/>
      </g>
     </g>
     <g id="text_20">
      <text style="font: 20px 'DejaVu Sans', 'Bitstream Vera Sans', 'Computer Modern Sans Serif', 'Lucida Grande', 'Verdana', 'Geneva', 'Lucid', 'Arial', 'Helvetica', 'Avant Garde', sans-serif; text-anchor: end" x="87.734375" y="27.998437" transform="rotate(-0 87.734375 27.998437)">100%</text>
     </g>
    </g>
    <g id="text_21">
     <text style="font: 20px 'DejaVu Sans', 'Bitstream Vera Sans', 'Computer Modern Sans Serif', 'Lucida Grande', 'Verdana', 'Geneva', 'Lucid', 'Arial', 'Helvetica', 'Avant Garde', sans-serif; text-anchor: middle" x="22.396875" y="145.8" transform="rotate(-90 22.396875 145.8)">Study Accuracy</text>
    </g>
   </g>
   <g id="patch_3">
    <path d="M 120.098011 284.4 
L 125.596903 284.4 
L 125.596903 20.4 
L 120.098011 20.4 
z
" clip-path="url(#p929cca4206)" style="fill: #4682b4"/>
   </g>
   <g id="patch_4">
    <path d="M 126.971626 284.4 
L 132.470517 284.4 
L 132.470517 20.4 
L 126.971626 20.4 
z
" clip-path="url(#p929cca4206)" style="fill: #008000"/>
   </g>
   <g id="patch_5">
    <path d="M 133.84524 284.4 
L 139.344131 284.4 
L 139.344131 20.4 
L 133.84524 20.4 
z
" clip-path="url(#p929cca4206)" style="fill: #4682b4"/>
   </g>
   <g id="patch_6">
    <path d="M 140.718854 284.4 
L 146.217745 284.4 
L 146.217745 26.839024 
L 140.718854 26.839024 
z
" clip-path="url(#p929cca4206)" style="fill: #4682b4"/>
   </g>
   <g id="patch_7">
    <path d="M 147.592468 284.4 
L 153.091359 284.4 
L 153.091359 26.891803 
L 147.592468 26.891803 
z
" clip-path="url(#p929cca4206)" style="fill: #4682b4"/>
   </g>
   <g id="patch_8">
    <path d="M 154.466082 284.4 
L 159.964974 284.4 
L 159.964974 27.733333 
L 154.466082 27.733333 
z
" clip-path="url(#p929cca4206)" style="fill: #4682b4"/>
   </g>
   <g id="patch_9">
    <path d="M 161.339697 284.4 
L 166.838588 284.4 
L 166.838588 27.997122 
L 161.339697 27.997122 
z
" clip-path="url(#p929cca4206)" style="fill: #4682b4"/>
   </g>
   <g id="patch_10">
    <path d="M 168.213311 284.4 
L 173.712202 284.4 
L 173.712202 28.65 
L 168.213311 28.65 
z
" clip-path="url(#p929cca4206)" style="fill: #008000"/>
   </g>
   <g id="patch_11">
    <path d="M 175.086925 284.4 
L 180.585816 284.4 
L 180.585816 30.457143 
L 175.086925 30.457143 
z
" clip-path="url(#p929cca4206)" style="fill: #008000"/>
   </g>
   <g id="patch_12">
    <path d="M 181.960539 284.4 
L 187.45943 284.4 
L 187.45943 31.102703 
L 181.960539 31.102703 
z
" clip-path="url(#p929cca4206)" style="fill: #008000"/>
   </g>
   <g id="patch_13">
    <path d="M 188.834153 284.4 
L 194.333045 284.4 
L 194.333045 32.265169 
L 188.834153 32.265169 
z
" clip-path="url(#p929cca4206)" style="fill: #008000"/>
   </g>
   <g id="patch_14">
    <path d="M 195.707767 284.4 
L 201.206659 284.4 
L 201.206659 33.669841 
L 195.707767 33.669841 
z
" clip-path="url(#p929cca4206)" style="fill: #4682b4"/>
   </g>
   <g id="patch_15">
    <path d="M 202.581382 284.4 
L 208.080273 284.4 
L 208.080273 35.665306 
L 202.581382 35.665306 
z
" clip-path="url(#p929cca4206)" style="fill: #4682b4"/>
   </g>
   <g id="patch_16">
    <path d="M 209.454996 284.4 
L 214.953887 284.4 
L 214.953887 37.141463 
L 209.454996 37.141463 
z
" clip-path="url(#p929cca4206)" style="fill: #ffa500"/>
   </g>
   <g id="patch_17">
    <path d="M 216.32861 284.4 
L 221.827501 284.4 
L 221.827501 39.484337 
L 216.32861 39.484337 
z
" clip-path="url(#p929cca4206)" style="fill: #4682b4"/>
   </g>
   <g id="patch_18">
    <path d="M 223.202224 284.4 
L 228.701116 284.4 
L 228.701116 42.520219 
L 223.202224 42.520219 
z
" clip-path="url(#p929cca4206)" style="fill: #4682b4"/>
   </g>
   <g id="patch_19">
    <path d="M 230.075838 284.4 
L 235.57473 284.4 
L 235.57473 42.605607 
L 230.075838 42.605607 
z
" clip-path="url(#p929cca4206)" style="fill: #4682b4"/>
   </g>
   <g id="patch_20">
    <path d="M 236.949453 284.4 
L 242.448344 284.4 
L 242.448344 42.631579 
L 236.949453 42.631579 
z
" clip-path="url(#p929cca4206)" style="fill: #4682b4"/>
   </g>
   <g id="patch_21">
    <path d="M 243.823067 284.4 
L 249.321958 284.4 
L 249.321958 42.631579 
L 243.823067 42.631579 
z
" clip-path="url(#p929cca4206)" style="fill: #008000"/>
   </g>
   <g id="patch_22">
    <path d="M 250.696681 284.4 
L 256.195572 284.4 
L 256.195572 43.694118 
L 250.696681 43.694118 
z
" clip-path="url(#p929cca4206)" style="fill: #4682b4"/>
   </g>
   <g id="patch_23">
    <path d="M 257.570295 284.4 
L 263.069187 284.4 
L 263.069187 45.542857 
L 257.570295 45.542857 
z
" clip-path="url(#p929cca4206)" style="fill: #008000"/>
   </g>
   <g id="patch_24">
    <path d="M 264.443909 284.4 
L 269.942801 284.4 
L 269.942801 47.134177 
L 264.443909 47.134177 
z
" clip-path="url(#p929cca4206)" style="fill: #9400d3"/>
   </g>
   <g id="patch_25">
    <path d="M 271.317524 284.4 
L 276.816415 284.4 
L 276.816415 52.4 
L 271.317524 52.4 
z
" clip-path="url(#p929cca4206)" style="fill: #9400d3"/>
   </g>
   <g id="patch_26">
    <path d="M 278.191138 284.4 
L 283.690029 284.4 
L 283.690029 52.726531 
L 278.191138 52.726531 
z
" clip-path="url(#p929cca4206)" style="fill: #008000"/>
   </g>
   <g id="patch_27">
    <path d="M 285.064752 284.4 
L 290.563643 284.4 
L 290.563643 52.777358 
L 285.064752 52.777358 
z
" clip-path="url(#p929cca4206)" style="fill: #4682b4"/>
   </g>
   <g id="patch_28">
    <path d="M 291.938366 284.4 
L 297.437257 284.4 
L 297.437257 53.588571 
L 291.938366 53.588571 
z
" clip-path="url(#p929cca4206)" style="fill: #008000"/>
   </g>
   <g id="patch_29">
    <path d="M 298.81198 284.4 
L 304.310872 284.4 
L 304.310872 56.167742 
L 298.81198 56.167742 
z
" clip-path="url(#p929cca4206)" style="fill: #4682b4"/>
   </g>
   <g id="patch_30">
    <path d="M 305.685595 284.4 
L 311.184486 284.4 
L 311.184486 56.4 
L 305.685595 56.4 
z
" clip-path="url(#p929cca4206)" style="fill: #9400d3"/>
   </g>
   <g id="patch_31">
    <path d="M 312.559209 284.4 
L 318.0581 284.4 
L 318.0581 60.141935 
L 312.559209 60.141935 
z
" clip-path="url(#p929cca4206)" style="fill: #4682b4"/>
   </g>
   <g id="patch_32">
    <path d="M 319.432823 284.4 
L 324.931714 284.4 
L 324.931714 60.851613 
L 319.432823 60.851613 
z
" clip-path="url(#p929cca4206)" style="fill: #4682b4"/>
   </g>
   <g id="patch_33">
    <path d="M 326.306437 284.4 
L 331.805328 284.4 
L 331.805328 62.4 
L 326.306437 62.4 
z
" clip-path="url(#p929cca4206)" style="fill: #4682b4"/>
   </g>
   <g id="patch_34">
    <path d="M 333.180051 284.4 
L 338.678943 284.4 
L 338.678943 66.092308 
L 333.180051 66.092308 
z
" clip-path="url(#p929cca4206)" style="fill: #9400d3"/>
   </g>
   <g id="patch_35">
    <path d="M 340.053665 284.4 
L 345.552557 284.4 
L 345.552557 66.6 
L 340.053665 66.6 
z
" clip-path="url(#p929cca4206)" style="fill: #4682b4"/>
   </g>
   <g id="patch_36">
    <path d="M 346.92728 284.4 
L 352.426171 284.4 
L 352.426171 68.4 
L 346.92728 68.4 
z
" clip-path="url(#p929cca4206)" style="fill: #4682b4"/>
   </g>
   <g id="patch_37">
    <path d="M 353.800894 284.4 
L 359.299785 284.4 
L 359.299785 69.9 
L 353.800894 69.9 
z
" clip-path="url(#p929cca4206)" style="fill: #ffa500"/>
   </g>
   <g id="patch_38">
    <path d="M 360.674508 284.4 
L 366.173399 284.4 
L 366.173399 73.2 
L 360.674508 73.2 
z
" clip-path="url(#p929cca4206)" style="fill: #9400d3"/>
   </g>
   <g id="patch_39">
    <path d="M 367.548122 284.4 
L 373.047014 284.4 
L 373.047014 80.012903 
L 367.548122 80.012903 
z
" clip-path="url(#p929cca4206)" style="fill: #008000"/>
   </g>
   <g id="patch_40">
    <path d="M 374.421736 284.4 
L 379.920628 284.4 
L 379.920628 86.4 
L 374.421736 86.4 
z
" clip-path="url(#p929cca4206)" style="fill: #9400d3"/>
   </g>
   <g id="patch_41">
    <path d="M 381.295351 284.4 
L 386.794242 284.4 
L 386.794242 87.518644 
L 381.295351 87.518644 
z
" clip-path="url(#p929cca4206)" style="fill: #ffa500"/>
   </g>
   <g id="patch_42">
    <path d="M 388.168965 284.4 
L 393.667856 284.4 
L 393.667856 87.934884 
L 388.168965 87.934884 
z
" clip-path="url(#p929cca4206)" style="fill: #9400d3"/>
   </g>
   <g id="patch_43">
    <path d="M 395.042579 284.4 
L 400.54147 284.4 
L 400.54147 88.844444 
L 395.042579 88.844444 
z
" clip-path="url(#p929cca4206)" style="fill: #9400d3"/>
   </g>
   <g id="patch_44">
    <path d="M 401.916193 284.4 
L 407.415085 284.4 
L 407.415085 95.828571 
L 401.916193 95.828571 
z
" clip-path="url(#p929cca4206)" style="fill: #ffa500"/>
   </g>
   <g id="patch_45">
    <path d="M 408.789807 284.4 
L 414.288699 284.4 
L 414.288699 99.136842 
L 408.789807 99.136842 
z
" clip-path="url(#p929cca4206)" style="fill: #4682b4"/>
   </g>
   <g id="patch_46">
    <path d="M 415.663422 284.4 
L 421.162313 284.4 
L 421.162313 99.6 
L 415.663422 99.6 
z
" clip-path="url(#p929cca4206)" style="fill: #008000"/>
   </g>
   <g id="patch_47">
    <path d="M 422.537036 284.4 
L 428.035927 284.4 
L 428.035927 103.436876 
L 422.537036 103.436876 
z
" clip-path="url(#p929cca4206)" style="fill: #4682b4"/>
   </g>
   <g id="patch_48">
    <path d="M 429.41065 284.4 
L 434.909541 284.4 
L 434.909541 108.70662 
L 429.41065 108.70662 
z
" clip-path="url(#p929cca4206)" style="fill: #4682b4"/>
   </g>
   <g id="patch_49">
    <path d="M 436.284264 284.4 
L 441.783155 284.4 
L 441.783155 109.326316 
L 436.284264 109.326316 
z
" clip-path="url(#p929cca4206)" style="fill: #008000"/>
   </g>
   <g id="patch_50">
    <path d="M 443.157878 284.4 
L 448.65677 284.4 
L 448.65677 114.077419 
L 443.157878 114.077419 
z
" clip-path="url(#p929cca4206)" style="fill: #9400d3"/>
   </g>
   <g id="patch_51">
    <path d="M 450.031493 284.4 
L 455.530384 284.4 
L 455.530384 117.663158 
L 450.031493 117.663158 
z
" clip-path="url(#p929cca4206)" style="fill: #4682b4"/>
   </g>
   <g id="patch_52">
    <path d="M 456.905107 284.4 
L 462.403998 284.4 
L 462.403998 119.4 
L 456.905107 119.4 
z
" clip-path="url(#p929cca4206)" style="fill: #008000"/>
   </g>
   <g id="patch_53">
    <path d="M 463.778721 284.4 
L 469.277612 284.4 
L 469.277612 124.114286 
L 463.778721 124.114286 
z
" clip-path="url(#p929cca4206)" style="fill: #008000"/>
   </g>
   <g id="patch_54">
    <path d="M 470.652335 284.4 
L 476.151226 284.4 
L 476.151226 125.363855 
L 470.652335 125.363855 
z
" clip-path="url(#p929cca4206)" style="fill: #ffa500"/>
   </g>
   <g id="patch_55">
    <path d="M 477.525949 284.4 
L 483.024841 284.4 
L 483.024841 127.257143 
L 477.525949 127.257143 
z
" clip-path="url(#p929cca4206)" style="fill: #008000"/>
   </g>
   <g id="patch_56">
    <path d="M 484.399563 284.4 
L 489.898455 284.4 
L 489.898455 128.707692 
L 484.399563 128.707692 
z
" clip-path="url(#p929cca4206)" style="fill: #4682b4"/>
   </g>
   <g id="patch_57">
    <path d="M 491.273178 284.4 
L 496.772069 284.4 
L 496.772069 134.193103 
L 491.273178 134.193103 
z
" clip-path="url(#p929cca4206)" style="fill: #008000"/>
   </g>
   <g id="patch_58">
    <path d="M 498.146792 284.4 
L 503.645683 284.4 
L 503.645683 141.580328 
L 498.146792 141.580328 
z
" clip-path="url(#p929cca4206)" style="fill: #008000"/>
   </g>
   <g id="patch_59">
    <path d="M 505.020406 284.4 
L 510.519297 284.4 
L 510.519297 143.190698 
L 505.020406 143.190698 
z
" clip-path="url(#p929cca4206)" style="fill: #ffa500"/>
   </g>
   <g id="patch_60">
    <path d="M 511.89402 284.4 
L 517.392912 284.4 
L 517.392912 145.147253 
L 511.89402 145.147253 
z
" clip-path="url(#p929cca4206)" style="fill: #9400d3"/>
   </g>
   <g id="patch_61">
    <path d="M 518.767634 284.4 
L 524.266526 284.4 
L 524.266526 152.4 
L 518.767634 152.4 
z
" clip-path="url(#p929cca4206)" style="fill: #ffa500"/>
   </g>
   <g id="patch_62">
    <path d="M 525.641249 284.4 
L 531.14014 284.4 
L 531.14014 155.784615 
L 525.641249 155.784615 
z
" clip-path="url(#p929cca4206)" style="fill: #4682b4"/>
   </g>
   <g id="patch_63">
    <path d="M 532.514863 284.4 
L 538.013754 284.4 
L 538.013754 161.828571 
L 532.514863 161.828571 
z
" clip-path="url(#p929cca4206)" style="fill: #9400d3"/>
   </g>
   <g id="patch_64">
    <path d="M 539.388477 284.4 
L 544.887368 284.4 
L 544.887368 163.586441 
L 539.388477 163.586441 
z
" clip-path="url(#p929cca4206)" style="fill: #9400d3"/>
   </g>
   <g id="patch_65">
    <path d="M 546.262091 284.4 
L 551.760983 284.4 
L 551.760983 164.4 
L 546.262091 164.4 
z
" clip-path="url(#p929cca4206)" style="fill: #008000"/>
   </g>
   <g id="patch_66">
    <path d="M 553.135705 284.4 
L 558.634597 284.4 
L 558.634597 165.6 
L 553.135705 165.6 
z
" clip-path="url(#p929cca4206)" style="fill: #008000"/>
   </g>
   <g id="patch_67">
    <path d="M 560.00932 284.4 
L 565.508211 284.4 
L 565.508211 170.733333 
L 560.00932 170.733333 
z
" clip-path="url(#p929cca4206)" style="fill: #008000"/>
   </g>
   <g id="patch_68">
    <path d="M 566.882934 284.4 
L 572.381825 284.4 
L 572.381825 195.376744 
L 566.882934 195.376744 
z
" clip-path="url(#p929cca4206)" style="fill: #9400d3"/>
   </g>
   <g id="patch_69">
    <path d="M 573.756548 284.4 
L 579.255439 284.4 
L 579.255439 205.663158 
L 573.756548 205.663158 
z
" clip-path="url(#p929cca4206)" style="fill: #9400d3"/>
   </g>
   <g id="patch_70">
    <path d="M 580.630162 284.4 
L 586.129053 284.4 
L 586.129053 215.330233 
L 580.630162 215.330233 
z
" clip-path="url(#p929cca4206)" style="fill: #9400d3"/>
   </g>
   <g id="patch_71">
    <path d="M 587.503776 284.4 
L 593.002668 284.4 
L 593.002668 221.04 
L 587.503776 221.04 
z
" clip-path="url(#p929cca4206)" style="fill: #ffa500"/>
   </g>
   <g id="patch_72">
    <path d="M 594.377391 284.4 
L 599.876282 284.4 
L 599.876282 242.715789 
L 594.377391 242.715789 
z
" clip-path="url(#p929cca4206)" style="fill: #9400d3"/>
   </g>
   <g id="patch_73">
    <path d="M 601.251005 284.4 
L 606.749896 284.4 
L 606.749896 246.685714 
L 601.251005 246.685714 
z
" clip-path="url(#p929cca4206)" style="fill: #9400d3"/>
   </g>
   <g id="patch_74">
    <path d="M 608.124619 284.4 
L 613.62351 284.4 
L 613.62351 249.2 
L 608.124619 249.2 
z
" clip-path="url(#p929cca4206)" style="fill: #9400d3"/>
   </g>
   <g id="patch_75">
    <path d="M 614.998233 284.4 
L 620.497124 284.4 
L 620.497124 249.663158 
L 614.998233 249.663158 
z
" clip-path="url(#p929cca4206)" style="fill: #9400d3"/>
   </g>
   <g id="patch_76">
    <path d="M 621.871847 284.4 
L 627.370739 284.4 
L 627.370739 249.965217 
L 621.871847 249.965217 
z
" clip-path="url(#p929cca4206)" style="fill: #9400d3"/>
   </g>
   <g id="line2d_39">
    <path d="M 94.734375 149.882276 
L 652.734375 149.882276 
" clip-path="url(#p929cca4206)" style="fill: none; stroke-dasharray: 5.55,2.4; stroke-dashoffset: 0; stroke: #9400d3; stroke-width: 1.5"/>
   </g>
   <g id="line2d_40">
    <path d="M 94.734375 88.679098 
L 652.734375 88.679098 
" clip-path="url(#p929cca4206)" style="fill: none; stroke-dasharray: 5.55,2.4; stroke-dashoffset: 0; stroke: #008000; stroke-width: 1.5"/>
   </g>
   <g id="line2d_41">
    <path d="M 94.734375 116.547904 
L 652.734375 116.547904 
" clip-path="url(#p929cca4206)" style="fill: none; stroke-dasharray: 5.55,2.4; stroke-dashoffset: 0; stroke: #ffa500; stroke-width: 1.5"/>
   </g>
   <g id="line2d_42">
    <path d="M 94.734375 60.434875 
L 652.734375 60.434875 
" clip-path="url(#p929cca4206)" style="fill: none; stroke-dasharray: 5.55,2.4; stroke-dashoffset: 0; stroke: #4682b4; stroke-width: 1.5"/>
   </g>
   <g id="line2d_43">
    <path d="M 94.734375 98.309695 
L 652.734375 98.309695 
" clip-path="url(#p929cca4206)" style="fill: none; stroke-dasharray: 5.55,2.4; stroke-dashoffset: 0; stroke: #000000; stroke-width: 1.5"/>
   </g>
   <g id="patch_77">
    <path d="M 94.734375 284.4 
L 94.734375 7.2 
" style="fill: none; stroke: #000000; stroke-width: 0.8; stroke-linejoin: miter; stroke-linecap: square"/>
   </g>
   <g id="patch_78">
    <path d="M 652.734375 284.4 
L 652.734375 7.2 
" style="fill: none; stroke: #000000; stroke-width: 0.8; stroke-linejoin: miter; stroke-linecap: square"/>
   </g>
   <g id="patch_79">
    <path d="M 94.734375 284.4 
L 652.734375 284.4 
" style="fill: none; stroke: #000000; stroke-width: 0.8; stroke-linejoin: miter; stroke-linecap: square"/>
   </g>
   <g id="patch_80">
    <path d="M 94.734375 7.2 
L 652.734375 7.2 
" style="fill: none; stroke: #000000; stroke-width: 0.8; stroke-linejoin: miter; stroke-linecap: square"/>
   </g>
   <g id="legend_1">
    <g id="patch_81">
     <path d="M 489.037188 111.08 
L 642.934375 111.08 
Q 645.734375 111.08 645.734375 108.28 
L 645.734375 17 
Q 645.734375 14.2 642.934375 14.2 
L 489.037188 14.2 
Q 486.237188 14.2 486.237188 17 
L 486.237188 108.28 
Q 486.237188 111.08 489.037188 111.08 
z
" style="fill: #ffffff; opacity: 0.8; stroke: #cccccc; stroke-linejoin: miter"/>
    </g>
    <g id="patch_82">
     <path d="M 491.837188 35.97 
L 511.437188 35.97 
L 511.437188 19.8 
L 491.837188 19.8 
z
" style="fill: #4682b4; stroke: #000000; stroke-linejoin: miter"/>
    </g>
    <g id="text_22">
     <text style="font: 14px 'DejaVu Sans', 'Bitstream Vera Sans', 'Computer Modern Sans Serif', 'Lucida Grande', 'Verdana', 'Geneva', 'Lucid', 'Arial', 'Helvetica', 'Avant Garde', sans-serif; text-anchor: start" x="522.637187" y="32.54" transform="rotate(-0 522.637187 32.54)">Healthy</text>
    </g>
    <g id="patch_83">
     <path d="M 491.837188 59.14 
L 511.437188 59.14 
L 511.437188 42.97 
L 491.837188 42.97 
z
" style="fill: #ffa500; stroke: #000000; stroke-linejoin: miter"/>
    </g>
    <g id="text_23">
     <text style="font: 14px 'DejaVu Sans', 'Bitstream Vera Sans', 'Computer Modern Sans Serif', 'Lucida Grande', 'Verdana', 'Geneva', 'Lucid', 'Arial', 'Helvetica', 'Avant Garde', sans-serif; text-anchor: start" x="522.637187" y="55.71" transform="rotate(-0 522.637187 55.71)">Nonhealthy</text>
    </g>
    <g id="patch_84">
     <path d="M 491.837188 82.31 
L 511.437188 82.31 
L 511.437188 66.14 
L 491.837188 66.14 
z
" style="fill: #9400d3; stroke: #000000; stroke-linejoin: miter"/>
    </g>
    <g id="text_24">
     <text style="font: 14px 'DejaVu Sans', 'Bitstream Vera Sans', 'Computer Modern Sans Serif', 'Lucida Grande', 'Verdana', 'Geneva', 'Lucid', 'Arial', 'Helvetica', 'Avant Garde', sans-serif; text-anchor: start" x="522.637187" y="78.88" transform="rotate(-0 522.637187 78.88)">Healthy Both</text>
    </g>
    <g id="patch_85">
     <path d="M 491.837188 105.48 
L 511.437188 105.48 
L 511.437188 89.31 
L 491.837188 89.31 
z
" style="fill: #008000; stroke: #000000; stroke-linejoin: miter"/>
    </g>
    <g id="text_25">
     <text style="font: 14px 'DejaVu Sans', 'Bitstream Vera Sans', 'Computer Modern Sans Serif', 'Lucida Grande', 'Verdana', 'Geneva', 'Lucid', 'Arial', 'Helvetica', 'Avant Garde', sans-serif; text-anchor: start" x="522.637187" y="102.05" transform="rotate(-0 522.637187 102.05)">Nonhealthy Both</text>
    </g>
   </g>
  </g>
 </g>
 <defs>
  <clipPath id="p929cca4206">
   <rect x="94.734375" y="7.2" width="558" height="277.2"/>
  </clipPath>
 </defs>
</svg>
