<?xml version="1.0" encoding="utf-8" standalone="no"?>
<!DOCTYPE svg PUBLIC "-//W3C//DTD SVG 1.1//EN"
  "http://www.w3.org/Graphics/SVG/1.1/DTD/svg11.dtd">
<svg height="334.803296pt" version="1.1" viewBox="0 0 643.910832 334.803296" width="643.910832pt" xmlns="http://www.w3.org/2000/svg" xmlns:xlink="http://www.w3.org/1999/xlink">
 <metadata>
  <rdf:RDF xmlns:cc="http://creativecommons.org/ns#" xmlns:dc="http://purl.org/dc/elements/1.1/" xmlns:rdf="http://www.w3.org/1999/02/22-rdf-syntax-ns#">
   <cc:Work>
    <dc:type rdf:resource="http://purl.org/dc/dcmitype/StillImage"/>
    <dc:date>2022-08-15T15:11:05.570745</dc:date>
    <dc:format>image/svg+xml</dc:format>
    <dc:creator>
     <cc:Agent>
      <dc:title>Matplotlib v3.4.3, https://matplotlib.org/</dc:title>
     </cc:Agent>
    </dc:creator>
   </cc:Work>
  </rdf:RDF>
 </metadata>
 <defs>
  <style type="text/css">*{stroke-linecap:butt;stroke-linejoin:round;}</style>
 </defs>
 <g id="figure_1">
  <g id="patch_1">
   <path d="M 0 334.803296 
L 643.910832 334.803296 
L 643.910832 0 
L 0 0 
z
" style="fill:none;"/>
  </g>
  <g id="axes_1">
   <g id="patch_2">
    <path d="M 78.710832 279 
L 636.710832 279 
L 636.710832 7.2 
L 78.710832 7.2 
z
" style="fill:#ffffff;"/>
   </g>
   <g id="matplotlib.axis_1">
    <g id="xtick_1">
     <g id="line2d_1">
      <path clip-path="url(#p5147b5e670)" d="M 107.646811 279 
L 107.646811 7.2 
" style="fill:none;stroke:#b0b0b0;stroke-dasharray:1.85,0.8;stroke-dashoffset:0;stroke-width:0.5;"/>
     </g>
     <g id="line2d_2">
      <defs>
       <path d="M 0 0 
L 0 3.5 
" id="m8a2aae481c" style="stroke:#000000;stroke-width:0.8;"/>
      </defs>
      <g>
       <use style="stroke:#000000;stroke-width:0.8;" x="107.646811" xlink:href="#m8a2aae481c" y="279"/>
      </g>
     </g>
     <g id="text_1">
      <!-- $\mathdefault{0}$ -->
      <g transform="translate(103.077763 299.836997)scale(0.2 -0.2)">
       <defs>
        <path d="M 2688 2038 
C 2688 2430 2682 3099 2413 3613 
C 2176 4063 1798 4224 1466 4224 
C 1158 4224 768 4082 525 3620 
C 269 3137 243 2539 243 2038 
C 243 1671 250 1112 448 623 
C 723 -39 1216 -128 1466 -128 
C 1760 -128 2208 -7 2470 604 
C 2662 1048 2688 1568 2688 2038 
z
M 1466 -26 
C 1056 -26 813 328 723 816 
C 653 1196 653 1749 653 2109 
C 653 2604 653 3015 736 3407 
C 858 3954 1216 4121 1466 4121 
C 1728 4121 2067 3947 2189 3420 
C 2272 3054 2278 2623 2278 2109 
C 2278 1691 2278 1176 2202 797 
C 2067 96 1690 -26 1466 -26 
z
" id="CMR17-30" transform="scale(0.015625)"/>
       </defs>
       <use transform="scale(0.996264)" xlink:href="#CMR17-30"/>
      </g>
     </g>
    </g>
    <g id="xtick_2">
     <g id="line2d_3">
      <path clip-path="url(#p5147b5e670)" d="M 196.95539 279 
L 196.95539 7.2 
" style="fill:none;stroke:#b0b0b0;stroke-dasharray:1.85,0.8;stroke-dashoffset:0;stroke-width:0.5;"/>
     </g>
     <g id="line2d_4">
      <g>
       <use style="stroke:#000000;stroke-width:0.8;" x="196.95539" xlink:href="#m8a2aae481c" y="279"/>
      </g>
     </g>
     <g id="text_2">
      <!-- $\mathdefault{10}$ -->
      <g transform="translate(187.817294 299.836997)scale(0.2 -0.2)">
       <defs>
        <path d="M 1702 4083 
C 1702 4217 1696 4224 1606 4224 
C 1357 3927 979 3833 621 3820 
C 602 3820 570 3820 563 3808 
C 557 3795 557 3782 557 3648 
C 755 3648 1088 3686 1344 3839 
L 1344 467 
C 1344 243 1331 166 781 166 
L 589 166 
L 589 0 
C 896 6 1216 12 1523 12 
C 1830 12 2150 6 2458 0 
L 2458 166 
L 2266 166 
C 1715 166 1702 236 1702 467 
L 1702 4083 
z
" id="CMR17-31" transform="scale(0.015625)"/>
       </defs>
       <use transform="scale(0.996264)" xlink:href="#CMR17-31"/>
       <use transform="translate(45.690477 0)scale(0.996264)" xlink:href="#CMR17-30"/>
      </g>
     </g>
    </g>
    <g id="xtick_3">
     <g id="line2d_5">
      <path clip-path="url(#p5147b5e670)" d="M 286.263969 279 
L 286.263969 7.2 
" style="fill:none;stroke:#b0b0b0;stroke-dasharray:1.85,0.8;stroke-dashoffset:0;stroke-width:0.5;"/>
     </g>
     <g id="line2d_6">
      <g>
       <use style="stroke:#000000;stroke-width:0.8;" x="286.263969" xlink:href="#m8a2aae481c" y="279"/>
      </g>
     </g>
     <g id="text_3">
      <!-- $\mathdefault{20}$ -->
      <g transform="translate(277.125873 299.836997)scale(0.2 -0.2)">
       <defs>
        <path d="M 2669 990 
L 2554 990 
C 2490 537 2438 460 2413 422 
C 2381 371 1920 371 1830 371 
L 602 371 
C 832 620 1280 1073 1824 1596 
C 2214 1966 2669 2400 2669 3033 
C 2669 3788 2067 4224 1395 4224 
C 691 4224 262 3603 262 3027 
C 262 2777 448 2745 525 2745 
C 589 2745 781 2783 781 3007 
C 781 3206 614 3264 525 3264 
C 486 3264 448 3257 422 3244 
C 544 3788 915 4057 1306 4057 
C 1862 4057 2227 3616 2227 3033 
C 2227 2477 1901 1998 1536 1583 
L 262 147 
L 262 0 
L 2515 0 
L 2669 990 
z
" id="CMR17-32" transform="scale(0.015625)"/>
       </defs>
       <use transform="scale(0.996264)" xlink:href="#CMR17-32"/>
       <use transform="translate(45.690477 0)scale(0.996264)" xlink:href="#CMR17-30"/>
      </g>
     </g>
    </g>
    <g id="xtick_4">
     <g id="line2d_7">
      <path clip-path="url(#p5147b5e670)" d="M 375.572547 279 
L 375.572547 7.2 
" style="fill:none;stroke:#b0b0b0;stroke-dasharray:1.85,0.8;stroke-dashoffset:0;stroke-width:0.5;"/>
     </g>
     <g id="line2d_8">
      <g>
       <use style="stroke:#000000;stroke-width:0.8;" x="375.572547" xlink:href="#m8a2aae481c" y="279"/>
      </g>
     </g>
     <g id="text_4">
      <!-- $\mathdefault{30}$ -->
      <g transform="translate(366.434452 299.836997)scale(0.2 -0.2)">
       <defs>
        <path d="M 1414 2176 
C 1984 2176 2234 1673 2234 1094 
C 2234 322 1824 25 1453 25 
C 1114 25 563 193 390 691 
C 422 678 454 678 486 678 
C 640 678 755 780 755 947 
C 755 1132 614 1216 486 1216 
C 378 1216 211 1164 211 927 
C 211 335 787 -128 1466 -128 
C 2176 -128 2720 432 2720 1087 
C 2720 1718 2208 2176 1600 2246 
C 2086 2347 2554 2776 2554 3353 
C 2554 3856 2048 4224 1472 4224 
C 890 4224 378 3862 378 3347 
C 378 3123 544 3084 627 3084 
C 762 3084 877 3167 877 3334 
C 877 3500 762 3584 627 3584 
C 602 3584 570 3584 544 3571 
C 730 3999 1235 4076 1459 4076 
C 1683 4076 2106 3966 2106 3347 
C 2106 3167 2080 2851 1862 2574 
C 1670 2329 1453 2316 1242 2297 
C 1210 2297 1062 2284 1037 2284 
C 992 2278 966 2272 966 2227 
C 966 2182 973 2176 1101 2176 
L 1414 2176 
z
" id="CMR17-33" transform="scale(0.015625)"/>
       </defs>
       <use transform="scale(0.996264)" xlink:href="#CMR17-33"/>
       <use transform="translate(45.690477 0)scale(0.996264)" xlink:href="#CMR17-30"/>
      </g>
     </g>
    </g>
    <g id="xtick_5">
     <g id="line2d_9">
      <path clip-path="url(#p5147b5e670)" d="M 464.881126 279 
L 464.881126 7.2 
" style="fill:none;stroke:#b0b0b0;stroke-dasharray:1.85,0.8;stroke-dashoffset:0;stroke-width:0.5;"/>
     </g>
     <g id="line2d_10">
      <g>
       <use style="stroke:#000000;stroke-width:0.8;" x="464.881126" xlink:href="#m8a2aae481c" y="279"/>
      </g>
     </g>
     <g id="text_5">
      <!-- $\mathdefault{40}$ -->
      <g transform="translate(455.743031 299.836997)scale(0.2 -0.2)">
       <defs>
        <path d="M 2150 4147 
C 2150 4281 2144 4288 2029 4288 
L 128 1254 
L 128 1088 
L 1779 1088 
L 1779 460 
C 1779 230 1766 166 1318 166 
L 1197 166 
L 1197 0 
C 1402 12 1747 12 1965 12 
C 2182 12 2528 12 2733 0 
L 2733 166 
L 2611 166 
C 2163 166 2150 230 2150 460 
L 2150 1088 
L 2803 1088 
L 2803 1254 
L 2150 1254 
L 2150 4147 
z
M 1798 3723 
L 1798 1254 
L 256 1254 
L 1798 3723 
z
" id="CMR17-34" transform="scale(0.015625)"/>
       </defs>
       <use transform="scale(0.996264)" xlink:href="#CMR17-34"/>
       <use transform="translate(45.690477 0)scale(0.996264)" xlink:href="#CMR17-30"/>
      </g>
     </g>
    </g>
    <g id="xtick_6">
     <g id="line2d_11">
      <path clip-path="url(#p5147b5e670)" d="M 554.189705 279 
L 554.189705 7.2 
" style="fill:none;stroke:#b0b0b0;stroke-dasharray:1.85,0.8;stroke-dashoffset:0;stroke-width:0.5;"/>
     </g>
     <g id="line2d_12">
      <g>
       <use style="stroke:#000000;stroke-width:0.8;" x="554.189705" xlink:href="#m8a2aae481c" y="279"/>
      </g>
     </g>
     <g id="text_6">
      <!-- $\mathdefault{50}$ -->
      <g transform="translate(545.051609 299.836997)scale(0.2 -0.2)">
       <defs>
        <path d="M 730 3750 
C 794 3724 1056 3641 1325 3641 
C 1920 3641 2246 3961 2432 4140 
C 2432 4191 2432 4224 2394 4224 
C 2387 4224 2374 4224 2323 4198 
C 2099 4102 1837 4032 1517 4032 
C 1325 4032 1037 4055 723 4191 
C 653 4224 640 4224 634 4224 
C 602 4224 595 4217 595 4090 
L 595 2231 
C 595 2113 595 2080 659 2080 
C 691 2080 704 2093 736 2139 
C 941 2435 1222 2560 1542 2560 
C 1766 2560 2246 2415 2246 1293 
C 2246 1087 2246 716 2054 422 
C 1894 159 1645 25 1370 25 
C 947 25 518 319 403 812 
C 429 806 480 793 506 793 
C 589 793 749 838 749 1036 
C 749 1209 627 1280 506 1280 
C 358 1280 262 1190 262 1011 
C 262 454 704 -128 1382 -128 
C 2042 -128 2669 441 2669 1267 
C 2669 2054 2170 2662 1549 2662 
C 1222 2662 947 2540 730 2304 
L 730 3750 
z
" id="CMR17-35" transform="scale(0.015625)"/>
       </defs>
       <use transform="scale(0.996264)" xlink:href="#CMR17-35"/>
       <use transform="translate(45.690477 0)scale(0.996264)" xlink:href="#CMR17-30"/>
      </g>
     </g>
    </g>
    <g id="text_7">
     <!-- Rank (study) -->
     <g transform="translate(304.263546 322.638652)scale(0.2 -0.2)">
      <defs>
       <path d="M 2509 2156 
C 3117 2278 3629 2689 3629 3203 
C 3629 3806 2950 4352 2054 4352 
L 333 4352 
L 333 4185 
C 774 4185 845 4185 845 3896 
L 845 428 
C 845 140 774 140 333 140 
L 333 -26 
C 518 -13 851 -13 1050 -13 
C 1248 -13 1581 -13 1766 -26 
L 1766 140 
C 1325 140 1254 140 1254 428 
L 1254 2112 
L 2003 2112 
C 2368 2112 2573 1964 2662 1881 
C 2918 1632 2918 1459 2918 1024 
C 2918 595 2918 377 3110 160 
C 3354 -103 3680 -128 3821 -128 
C 4294 -128 4365 403 4365 512 
C 4365 550 4365 595 4307 595 
C 4256 595 4250 556 4250 531 
C 4218 115 4032 -26 3834 -26 
C 3482 -26 3443 377 3405 768 
C 3386 902 3373 998 3360 1139 
C 3322 1459 3270 1926 2509 2156 
z
M 1984 2214 
L 1254 2214 
L 1254 3935 
C 1254 4153 1267 4185 1523 4185 
L 1990 4185 
C 2522 4185 3142 3999 3142 3203 
C 3142 2374 2464 2214 1984 2214 
z
" id="CMR17-52" transform="scale(0.015625)"/>
       <path d="M 2304 1656 
C 2304 2048 2304 2275 2035 2534 
C 1798 2751 1523 2816 1306 2816 
C 800 2816 435 2408 435 1977 
C 435 1740 627 1728 666 1728 
C 749 1728 896 1779 896 1958 
C 896 2118 774 2188 666 2188 
C 640 2188 608 2182 589 2176 
C 723 2594 1069 2713 1293 2713 
C 1613 2713 1965 2421 1965 1875 
L 1965 1632 
C 1587 1619 1133 1568 774 1373 
C 371 1147 256 822 256 576 
C 256 77 832 -64 1171 -64 
C 1523 -64 1850 135 1990 505 
C 2003 219 2182 -39 2464 -39 
C 2598 -39 2938 51 2938 563 
L 2938 926 
L 2822 926 
L 2822 557 
C 2822 161 2650 109 2566 109 
C 2304 109 2304 446 2304 732 
L 2304 1656 
z
M 1965 887 
C 1965 323 1568 38 1216 38 
C 896 38 646 278 646 576 
C 646 771 730 1114 1101 1322 
C 1408 1497 1760 1523 1965 1536 
L 1965 887 
z
" id="CMR17-61" transform="scale(0.015625)"/>
       <path d="M 2656 1954 
C 2656 2282 2592 2816 1837 2816 
C 1331 2816 1069 2424 973 2166 
L 966 2166 
L 966 2816 
L 211 2745 
L 211 2578 
C 589 2578 646 2540 646 2231 
L 646 443 
C 646 198 621 166 211 166 
L 211 0 
C 365 12 646 12 813 12 
C 979 12 1267 12 1421 0 
L 1421 166 
C 1011 166 986 192 986 443 
L 986 1678 
C 986 2269 1344 2713 1792 2713 
C 2266 2713 2317 2289 2317 1980 
L 2317 443 
C 2317 198 2291 166 1882 166 
L 1882 0 
C 2035 12 2317 12 2483 12 
C 2650 12 2938 12 3091 0 
L 3091 166 
C 2682 166 2656 192 2656 443 
L 2656 1954 
z
" id="CMR17-6e" transform="scale(0.015625)"/>
       <path d="M 1670 1679 
C 1664 1692 1632 1730 1632 1749 
C 1632 1762 2086 2175 2144 2226 
C 2509 2532 2739 2563 2906 2570 
L 2906 2735 
C 2867 2735 2854 2735 2848 2729 
L 2534 2722 
C 2355 2722 2080 2722 1907 2735 
L 1907 2570 
C 1997 2563 2061 2513 2061 2423 
C 2061 2296 1933 2175 1926 2175 
L 960 1298 
L 960 4416 
L 198 4345 
L 198 4179 
C 576 4179 634 4141 634 3835 
L 634 439 
C 634 198 608 166 198 166 
L 198 0 
C 352 12 634 12 794 12 
C 954 12 1235 12 1389 0 
L 1389 166 
C 979 166 954 191 954 439 
L 954 1139 
L 1395 1540 
L 2042 586 
C 2118 471 2182 382 2182 299 
C 2182 185 2067 166 1990 166 
L 1990 0 
C 2144 12 2419 12 2579 12 
C 2694 12 2931 6 3040 0 
L 3040 166 
C 2739 166 2669 223 2477 503 
L 1670 1679 
z
" id="CMR17-6b" transform="scale(0.015625)"/>
       <path d="M 1958 -1562 
C 1958 -1556 1958 -1543 1939 -1524 
C 1645 -1223 858 -403 858 1596 
C 858 3595 1632 4408 1946 4729 
C 1946 4735 1958 4748 1958 4767 
C 1958 4787 1939 4800 1914 4800 
C 1843 4800 1299 4325 986 3620 
C 666 2909 576 2218 576 1603 
C 576 1141 621 360 1005 -467 
C 1312 -1133 1837 -1600 1914 -1600 
C 1946 -1600 1958 -1588 1958 -1562 
z
" id="CMR17-28" transform="scale(0.015625)"/>
       <path d="M 1978 2688 
C 1978 2803 1971 2809 1933 2809 
C 1907 2809 1901 2803 1824 2707 
C 1805 2681 1747 2617 1728 2592 
C 1523 2809 1235 2816 1126 2816 
C 416 2816 160 2444 160 2073 
C 160 1497 813 1363 998 1324 
C 1402 1241 1542 1216 1677 1100 
C 1760 1024 1901 883 1901 652 
C 1901 384 1747 38 1158 38 
C 602 38 403 460 288 1024 
C 269 1113 269 1120 218 1120 
C 166 1120 160 1113 160 985 
L 160 64 
C 160 -52 166 -58 205 -58 
C 237 -58 243 -52 275 0 
C 314 57 410 211 448 275 
C 576 102 800 -64 1158 -64 
C 1792 -64 2131 281 2131 780 
C 2131 1107 1958 1280 1875 1356 
C 1683 1555 1459 1600 1190 1651 
C 838 1728 390 1817 390 2208 
C 390 2374 480 2726 1126 2726 
C 1811 2726 1850 2086 1862 1881 
C 1869 1849 1901 1843 1920 1843 
C 1978 1843 1978 1862 1978 1971 
L 1978 2688 
z
" id="CMR17-73" transform="scale(0.015625)"/>
       <path d="M 966 2585 
L 1862 2585 
L 1862 2752 
L 966 2752 
L 966 3968 
L 851 3968 
C 838 3292 614 2700 70 2687 
L 70 2585 
L 627 2585 
L 627 778 
C 627 655 627 -64 1370 -64 
C 1747 -64 1965 308 1965 784 
L 1965 1151 
L 1850 1151 
L 1850 790 
C 1850 347 1677 51 1408 51 
C 1222 51 966 179 966 765 
L 966 2585 
z
" id="CMR17-74" transform="scale(0.015625)"/>
       <path d="M 1882 2745 
L 1882 2579 
C 2259 2579 2317 2540 2317 2229 
L 2317 1053 
C 2317 510 2029 38 1555 38 
C 1030 38 986 355 986 691 
L 986 2816 
L 211 2745 
L 211 2579 
C 467 2579 640 2579 646 2320 
L 646 1079 
C 646 646 646 368 813 187 
C 896 103 1056 -64 1517 -64 
C 2061 -64 2272 400 2323 536 
L 2330 536 
L 2330 -64 
L 3091 -13 
L 3091 154 
C 2714 154 2656 193 2656 503 
L 2656 2816 
L 1882 2745 
z
" id="CMR17-75" transform="scale(0.015625)"/>
       <path d="M 1869 4345 
L 1869 4179 
C 2246 4179 2304 4141 2304 3843 
L 2304 2371 
C 2278 2403 2016 2816 1498 2816 
C 845 2816 211 2228 211 1376 
C 211 529 806 -64 1434 -64 
C 1978 -64 2259 361 2291 406 
L 2291 -64 
L 3066 -13 
L 3066 154 
C 2688 154 2630 193 2630 503 
L 2630 4416 
L 1869 4345 
z
M 2291 762 
C 2291 568 2176 393 2029 264 
C 1811 70 1594 38 1472 38 
C 1286 38 621 135 621 1369 
C 621 2636 1363 2713 1530 2713 
C 1824 2713 2061 2545 2208 2313 
C 2291 2177 2291 2157 2291 2041 
L 2291 762 
z
" id="CMR17-64" transform="scale(0.015625)"/>
       <path d="M 2496 2183 
C 2656 2579 2944 2585 3034 2585 
L 3034 2752 
C 2912 2745 2752 2739 2630 2739 
C 2496 2739 2285 2739 2157 2752 
L 2157 2585 
C 2400 2566 2406 2384 2406 2332 
C 2406 2268 2394 2235 2362 2158 
L 1664 409 
L 902 2300 
C 870 2378 870 2423 870 2430 
C 870 2572 1018 2585 1171 2585 
L 1171 2752 
C 1018 2739 742 2739 582 2739 
C 410 2739 205 2739 64 2752 
L 64 2585 
C 410 2585 448 2553 531 2345 
L 1485 -31 
C 1197 -795 1030 -1242 627 -1242 
C 557 -1242 397 -1223 282 -1106 
C 429 -1093 493 -1002 493 -892 
C 493 -782 416 -685 288 -685 
C 147 -685 77 -782 77 -899 
C 77 -1158 339 -1344 627 -1344 
C 998 -1344 1229 -983 1357 -659 
L 2496 2183 
z
" id="CMR17-79" transform="scale(0.015625)"/>
       <path d="M 1683 1596 
C 1683 2057 1638 2839 1254 3665 
C 947 4332 422 4800 346 4800 
C 326 4800 301 4793 301 4761 
C 301 4748 307 4742 314 4729 
C 621 4408 1402 3595 1402 1603 
C 1402 -396 627 -1210 314 -1530 
C 307 -1543 301 -1549 301 -1562 
C 301 -1594 326 -1600 346 -1600 
C 416 -1600 960 -1127 1274 -422 
C 1594 289 1683 981 1683 1596 
z
" id="CMR17-29" transform="scale(0.015625)"/>
      </defs>
      <use transform="scale(0.996264)" xlink:href="#CMR17-52"/>
      <use transform="translate(67.791102 0)scale(0.996264)" xlink:href="#CMR17-61"/>
      <use transform="translate(113.481579 0)scale(0.996264)" xlink:href="#CMR17-6e"/>
      <use transform="translate(164.376949 0)scale(0.996264)" xlink:href="#CMR17-6b"/>
      <use transform="translate(242.745831 0)scale(0.996264)" xlink:href="#CMR17-28"/>
      <use transform="translate(278.026599 0)scale(0.996264)" xlink:href="#CMR17-73"/>
      <use transform="translate(313.827936 0)scale(0.996264)" xlink:href="#CMR17-74"/>
      <use transform="translate(349.108704 0)scale(0.996264)" xlink:href="#CMR17-75"/>
      <use transform="translate(400.004074 0)scale(0.996264)" xlink:href="#CMR17-64"/>
      <use transform="translate(450.899444 0)scale(0.996264)" xlink:href="#CMR17-79"/>
      <use transform="translate(499.19236 0)scale(0.996264)" xlink:href="#CMR17-29"/>
     </g>
    </g>
   </g>
   <g id="matplotlib.axis_2">
    <g id="ytick_1">
     <g id="line2d_13">
      <path clip-path="url(#p5147b5e670)" d="M 78.710832 279 
L 636.710832 279 
" style="fill:none;stroke:#b0b0b0;stroke-dasharray:2.775,1.2;stroke-dashoffset:0;stroke-width:0.75;"/>
     </g>
     <g id="line2d_14">
      <defs>
       <path d="M 0 0 
L -3.5 0 
" id="m55bc8293e8" style="stroke:#000000;stroke-width:0.8;"/>
      </defs>
      <g>
       <use style="stroke:#000000;stroke-width:0.8;" x="78.710832" xlink:href="#m55bc8293e8" y="279"/>
      </g>
     </g>
     <g id="text_8">
      <!-- 0\% -->
      <g transform="translate(47.188821 285.918498)scale(0.2 -0.2)">
       <defs>
        <path d="M 4640 928 
C 4640 1670 4275 2214 3846 2214 
C 3411 2214 2970 1708 2970 928 
C 2970 147 3405 -359 3846 -359 
C 4275 -359 4640 179 4640 928 
z
M 3853 -256 
C 3686 -256 3270 -103 3270 928 
C 3270 1964 3686 2112 3853 2112 
C 4205 2112 4525 1606 4525 928 
C 4525 249 4205 -256 3853 -256 
z
M 4083 4572 
C 4128 4644 4134 4651 4134 4684 
C 4134 4761 4077 4800 4026 4800 
C 3962 4800 3936 4755 3891 4703 
C 3520 4155 3008 4096 2746 4096 
C 2106 4096 1715 4479 1594 4598 
C 1510 4677 1389 4800 1171 4800 
C 736 4800 294 4281 294 3496 
C 294 2718 730 2214 1171 2214 
C 1600 2214 1965 2750 1965 3496 
C 1965 3936 1830 4241 1811 4281 
C 2202 4025 2586 3993 2752 3993 
C 3162 3993 3456 4148 3616 4261 
L 3622 4254 
L 858 -122 
C 800 -212 800 -224 800 -244 
C 800 -314 858 -359 915 -359 
C 973 -359 992 -327 1037 -256 
L 4083 4572 
z
M 1178 2316 
C 1011 2316 595 2469 595 3496 
C 595 4545 1011 4697 1178 4697 
C 1530 4697 1850 4175 1850 3496 
C 1850 2820 1530 2316 1178 2316 
z
" id="CMR17-25" transform="scale(0.015625)"/>
       </defs>
       <use transform="scale(0.996264)" xlink:href="#CMR17-30"/>
       <use transform="translate(45.690477 0)scale(0.996264)" xlink:href="#CMR17-25"/>
      </g>
     </g>
    </g>
    <g id="ytick_2">
     <g id="line2d_15">
      <path clip-path="url(#p5147b5e670)" d="M 78.710832 253.114286 
L 636.710832 253.114286 
" style="fill:none;stroke:#b0b0b0;stroke-dasharray:2.775,1.2;stroke-dashoffset:0;stroke-width:0.75;"/>
     </g>
     <g id="line2d_16">
      <g>
       <use style="stroke:#000000;stroke-width:0.8;" x="78.710832" xlink:href="#m55bc8293e8" y="253.114286"/>
      </g>
     </g>
     <g id="text_9">
      <!-- 10\% -->
      <g transform="translate(38.050726 260.032784)scale(0.2 -0.2)">
       <use transform="scale(0.996264)" xlink:href="#CMR17-31"/>
       <use transform="translate(45.690477 0)scale(0.996264)" xlink:href="#CMR17-30"/>
       <use transform="translate(91.380954 0)scale(0.996264)" xlink:href="#CMR17-25"/>
      </g>
     </g>
    </g>
    <g id="ytick_3">
     <g id="line2d_17">
      <path clip-path="url(#p5147b5e670)" d="M 78.710832 227.228571 
L 636.710832 227.228571 
" style="fill:none;stroke:#b0b0b0;stroke-dasharray:2.775,1.2;stroke-dashoffset:0;stroke-width:0.75;"/>
     </g>
     <g id="line2d_18">
      <g>
       <use style="stroke:#000000;stroke-width:0.8;" x="78.710832" xlink:href="#m55bc8293e8" y="227.228571"/>
      </g>
     </g>
     <g id="text_10">
      <!-- 20\% -->
      <g transform="translate(38.050726 234.14707)scale(0.2 -0.2)">
       <use transform="scale(0.996264)" xlink:href="#CMR17-32"/>
       <use transform="translate(45.690477 0)scale(0.996264)" xlink:href="#CMR17-30"/>
       <use transform="translate(91.380954 0)scale(0.996264)" xlink:href="#CMR17-25"/>
      </g>
     </g>
    </g>
    <g id="ytick_4">
     <g id="line2d_19">
      <path clip-path="url(#p5147b5e670)" d="M 78.710832 201.342857 
L 636.710832 201.342857 
" style="fill:none;stroke:#b0b0b0;stroke-dasharray:2.775,1.2;stroke-dashoffset:0;stroke-width:0.75;"/>
     </g>
     <g id="line2d_20">
      <g>
       <use style="stroke:#000000;stroke-width:0.8;" x="78.710832" xlink:href="#m55bc8293e8" y="201.342857"/>
      </g>
     </g>
     <g id="text_11">
      <!-- 30\% -->
      <g transform="translate(38.050726 208.261356)scale(0.2 -0.2)">
       <use transform="scale(0.996264)" xlink:href="#CMR17-33"/>
       <use transform="translate(45.690477 0)scale(0.996264)" xlink:href="#CMR17-30"/>
       <use transform="translate(91.380954 0)scale(0.996264)" xlink:href="#CMR17-25"/>
      </g>
     </g>
    </g>
    <g id="ytick_5">
     <g id="line2d_21">
      <path clip-path="url(#p5147b5e670)" d="M 78.710832 175.457143 
L 636.710832 175.457143 
" style="fill:none;stroke:#b0b0b0;stroke-dasharray:2.775,1.2;stroke-dashoffset:0;stroke-width:0.75;"/>
     </g>
     <g id="line2d_22">
      <g>
       <use style="stroke:#000000;stroke-width:0.8;" x="78.710832" xlink:href="#m55bc8293e8" y="175.457143"/>
      </g>
     </g>
     <g id="text_12">
      <!-- 40\% -->
      <g transform="translate(38.050726 182.375641)scale(0.2 -0.2)">
       <use transform="scale(0.996264)" xlink:href="#CMR17-34"/>
       <use transform="translate(45.690477 0)scale(0.996264)" xlink:href="#CMR17-30"/>
       <use transform="translate(91.380954 0)scale(0.996264)" xlink:href="#CMR17-25"/>
      </g>
     </g>
    </g>
    <g id="ytick_6">
     <g id="line2d_23">
      <path clip-path="url(#p5147b5e670)" d="M 78.710832 149.571429 
L 636.710832 149.571429 
" style="fill:none;stroke:#b0b0b0;stroke-dasharray:2.775,1.2;stroke-dashoffset:0;stroke-width:0.75;"/>
     </g>
     <g id="line2d_24">
      <g>
       <use style="stroke:#000000;stroke-width:0.8;" x="78.710832" xlink:href="#m55bc8293e8" y="149.571429"/>
      </g>
     </g>
     <g id="text_13">
      <!-- 50\% -->
      <g transform="translate(38.050726 156.489927)scale(0.2 -0.2)">
       <use transform="scale(0.996264)" xlink:href="#CMR17-35"/>
       <use transform="translate(45.690477 0)scale(0.996264)" xlink:href="#CMR17-30"/>
       <use transform="translate(91.380954 0)scale(0.996264)" xlink:href="#CMR17-25"/>
      </g>
     </g>
    </g>
    <g id="ytick_7">
     <g id="line2d_25">
      <path clip-path="url(#p5147b5e670)" d="M 78.710832 123.685714 
L 636.710832 123.685714 
" style="fill:none;stroke:#b0b0b0;stroke-dasharray:2.775,1.2;stroke-dashoffset:0;stroke-width:0.75;"/>
     </g>
     <g id="line2d_26">
      <g>
       <use style="stroke:#000000;stroke-width:0.8;" x="78.710832" xlink:href="#m55bc8293e8" y="123.685714"/>
      </g>
     </g>
     <g id="text_14">
      <!-- 60\% -->
      <g transform="translate(38.050726 130.604213)scale(0.2 -0.2)">
       <defs>
        <path d="M 678 2198 
C 678 3712 1395 4076 1811 4076 
C 1946 4076 2272 4049 2400 3782 
C 2298 3782 2106 3782 2106 3558 
C 2106 3385 2246 3328 2336 3328 
C 2394 3328 2566 3353 2566 3571 
C 2566 3987 2246 4224 1805 4224 
C 1043 4224 243 3411 243 2011 
C 243 257 966 -128 1478 -128 
C 2099 -128 2688 431 2688 1295 
C 2688 2101 2170 2688 1517 2688 
C 1126 2688 838 2430 678 1979 
L 678 2198 
z
M 1478 25 
C 691 25 691 1212 691 1450 
C 691 1914 909 2585 1504 2585 
C 1613 2585 1926 2585 2138 2140 
C 2253 1889 2253 1624 2253 1302 
C 2253 954 2253 696 2118 438 
C 1978 173 1773 25 1478 25 
z
" id="CMR17-36" transform="scale(0.015625)"/>
       </defs>
       <use transform="scale(0.996264)" xlink:href="#CMR17-36"/>
       <use transform="translate(45.690477 0)scale(0.996264)" xlink:href="#CMR17-30"/>
       <use transform="translate(91.380954 0)scale(0.996264)" xlink:href="#CMR17-25"/>
      </g>
     </g>
    </g>
    <g id="ytick_8">
     <g id="line2d_27">
      <path clip-path="url(#p5147b5e670)" d="M 78.710832 97.8 
L 636.710832 97.8 
" style="fill:none;stroke:#b0b0b0;stroke-dasharray:2.775,1.2;stroke-dashoffset:0;stroke-width:0.75;"/>
     </g>
     <g id="line2d_28">
      <g>
       <use style="stroke:#000000;stroke-width:0.8;" x="78.710832" xlink:href="#m55bc8293e8" y="97.8"/>
      </g>
     </g>
     <g id="text_15">
      <!-- 70\% -->
      <g transform="translate(38.050726 104.718498)scale(0.2 -0.2)">
       <defs>
        <path d="M 2886 3955 
L 2886 4096 
L 1382 4096 
C 634 4096 621 4166 595 4288 
L 480 4288 
L 294 3104 
L 410 3104 
C 429 3226 474 3552 550 3673 
C 589 3724 1062 3724 1171 3724 
L 2579 3724 
L 1869 2670 
C 1395 1961 1069 1003 1069 166 
C 1069 89 1069 -128 1299 -128 
C 1530 -128 1530 89 1530 172 
L 1530 466 
C 1530 1514 1709 2204 2003 2644 
L 2886 3955 
z
" id="CMR17-37" transform="scale(0.015625)"/>
       </defs>
       <use transform="scale(0.996264)" xlink:href="#CMR17-37"/>
       <use transform="translate(45.690477 0)scale(0.996264)" xlink:href="#CMR17-30"/>
       <use transform="translate(91.380954 0)scale(0.996264)" xlink:href="#CMR17-25"/>
      </g>
     </g>
    </g>
    <g id="ytick_9">
     <g id="line2d_29">
      <path clip-path="url(#p5147b5e670)" d="M 78.710832 71.914286 
L 636.710832 71.914286 
" style="fill:none;stroke:#b0b0b0;stroke-dasharray:2.775,1.2;stroke-dashoffset:0;stroke-width:0.75;"/>
     </g>
     <g id="line2d_30">
      <g>
       <use style="stroke:#000000;stroke-width:0.8;" x="78.710832" xlink:href="#m55bc8293e8" y="71.914286"/>
      </g>
     </g>
     <g id="text_16">
      <!-- 80\% -->
      <g transform="translate(38.050726 78.832784)scale(0.2 -0.2)">
       <defs>
        <path d="M 1741 2289 
C 2144 2494 2554 2803 2554 3298 
C 2554 3884 1990 4224 1472 4224 
C 890 4224 378 3800 378 3215 
C 378 3054 416 2777 666 2533 
C 730 2469 998 2276 1171 2154 
C 883 2006 211 1652 211 945 
C 211 282 838 -128 1459 -128 
C 2144 -128 2720 366 2720 1022 
C 2720 1607 2330 1877 2074 2051 
L 1741 2289 
z
M 902 2855 
C 851 2887 595 3086 595 3388 
C 595 3781 998 4076 1459 4076 
C 1965 4076 2336 3716 2336 3298 
C 2336 2700 1670 2359 1638 2359 
C 1632 2359 1626 2359 1574 2398 
L 902 2855 
z
M 2080 1536 
C 2176 1466 2483 1253 2483 861 
C 2483 385 2010 25 1472 25 
C 890 25 448 443 448 951 
C 448 1459 838 1884 1280 2083 
L 2080 1536 
z
" id="CMR17-38" transform="scale(0.015625)"/>
       </defs>
       <use transform="scale(0.996264)" xlink:href="#CMR17-38"/>
       <use transform="translate(45.690477 0)scale(0.996264)" xlink:href="#CMR17-30"/>
       <use transform="translate(91.380954 0)scale(0.996264)" xlink:href="#CMR17-25"/>
      </g>
     </g>
    </g>
    <g id="ytick_10">
     <g id="line2d_31">
      <path clip-path="url(#p5147b5e670)" d="M 78.710832 46.028571 
L 636.710832 46.028571 
" style="fill:none;stroke:#b0b0b0;stroke-dasharray:2.775,1.2;stroke-dashoffset:0;stroke-width:0.75;"/>
     </g>
     <g id="line2d_32">
      <g>
       <use style="stroke:#000000;stroke-width:0.8;" x="78.710832" xlink:href="#m55bc8293e8" y="46.028571"/>
      </g>
     </g>
     <g id="text_17">
      <!-- 90\% -->
      <g transform="translate(38.050726 52.94707)scale(0.2 -0.2)">
       <defs>
        <path d="M 2253 1871 
C 2253 448 1670 25 1190 25 
C 1043 25 685 43 538 281 
C 704 256 826 345 826 505 
C 826 678 685 736 595 736 
C 538 736 365 710 365 492 
C 365 68 742 -128 1203 -128 
C 1939 -128 2688 665 2688 2090 
C 2688 3857 1971 4224 1485 4224 
C 851 4224 243 3664 243 2800 
C 243 2000 762 1408 1414 1408 
C 1952 1408 2189 1910 2253 2122 
L 2253 1871 
z
M 1427 1510 
C 1254 1510 1011 1542 813 1929 
C 678 2181 678 2477 678 2793 
C 678 3174 678 3438 858 3722 
C 947 3857 1114 4076 1485 4076 
C 2240 4076 2240 2909 2240 2651 
C 2240 2193 2035 1510 1427 1510 
z
" id="CMR17-39" transform="scale(0.015625)"/>
       </defs>
       <use transform="scale(0.996264)" xlink:href="#CMR17-39"/>
       <use transform="translate(45.690477 0)scale(0.996264)" xlink:href="#CMR17-30"/>
       <use transform="translate(91.380954 0)scale(0.996264)" xlink:href="#CMR17-25"/>
      </g>
     </g>
    </g>
    <g id="ytick_11">
     <g id="line2d_33">
      <path clip-path="url(#p5147b5e670)" d="M 78.710832 20.142857 
L 636.710832 20.142857 
" style="fill:none;stroke:#b0b0b0;stroke-dasharray:2.775,1.2;stroke-dashoffset:0;stroke-width:0.75;"/>
     </g>
     <g id="line2d_34">
      <g>
       <use style="stroke:#000000;stroke-width:0.8;" x="78.710832" xlink:href="#m55bc8293e8" y="20.142857"/>
      </g>
     </g>
     <g id="text_18">
      <!-- 100\% -->
      <g transform="translate(28.91263 27.061356)scale(0.2 -0.2)">
       <use transform="scale(0.996264)" xlink:href="#CMR17-31"/>
       <use transform="translate(45.690477 0)scale(0.996264)" xlink:href="#CMR17-30"/>
       <use transform="translate(91.380954 0)scale(0.996264)" xlink:href="#CMR17-30"/>
       <use transform="translate(137.071431 0)scale(0.996264)" xlink:href="#CMR17-25"/>
      </g>
     </g>
    </g>
    <g id="text_19">
     <!-- Study Accuracy -->
     <g transform="translate(21.036997 206.802431)rotate(-90)scale(0.2 -0.2)">
      <defs>
       <path d="M 2803 4351 
C 2803 4467 2797 4473 2758 4473 
C 2720 4473 2707 4447 2682 4390 
L 2490 3965 
C 2246 4320 1875 4480 1472 4480 
C 819 4480 294 3958 294 3301 
C 294 3101 339 2817 557 2546 
C 794 2250 1018 2198 1530 2063 
C 1722 2011 2042 1927 2106 1901 
C 2470 1747 2662 1360 2662 999 
C 2662 534 2336 38 1779 38 
C 1094 38 454 425 410 1328 
C 403 1431 397 1437 352 1437 
C 301 1437 294 1431 294 1302 
L 294 0 
C 294 -116 301 -122 339 -122 
C 384 -122 397 -90 486 109 
C 493 128 493 141 614 386 
C 934 -39 1472 -128 1779 -128 
C 2477 -128 2970 457 2970 1141 
C 2970 1476 2848 1734 2778 1850 
C 2509 2263 2221 2340 1914 2417 
C 1869 2437 1856 2437 1498 2527 
C 1152 2617 1005 2662 845 2836 
C 666 3036 602 3243 602 3449 
C 602 3868 934 4326 1478 4326 
C 2157 4326 2579 3842 2675 3036 
C 2694 2920 2701 2914 2746 2914 
C 2803 2914 2803 2933 2803 3043 
L 2803 4351 
z
" id="CMR17-53" transform="scale(0.015625)"/>
       <path d="M 2323 4441 
C 2291 4524 2278 4544 2214 4544 
C 2150 4544 2138 4524 2106 4441 
L 749 580 
C 627 236 371 166 147 166 
L 147 0 
C 262 12 518 12 640 12 
C 800 12 1056 12 1210 0 
L 1210 166 
C 909 179 864 382 864 459 
C 864 516 877 548 890 586 
L 1229 1536 
L 2906 1536 
L 3290 453 
C 3322 376 3322 363 3322 338 
C 3322 166 3046 166 2925 166 
L 2925 0 
C 3110 12 3443 12 3642 12 
C 3808 12 4128 12 4282 0 
L 4282 166 
C 3942 166 3827 166 3744 402 
L 2323 4441 
z
M 2067 3924 
L 2848 1702 
L 1286 1702 
L 2067 3924 
z
" id="CMR17-41" transform="scale(0.015625)"/>
       <path d="M 2234 2240 
C 2112 2240 1933 2240 1933 2015 
C 1933 1836 2080 1785 2163 1785 
C 2208 1785 2394 1804 2394 2028 
C 2394 2476 1958 2816 1466 2816 
C 787 2816 211 2201 211 1379 
C 211 521 813 -64 1466 -64 
C 2259 -64 2458 676 2458 747 
C 2458 773 2451 792 2406 792 
C 2362 792 2355 786 2330 702 
C 2163 180 1798 51 1523 51 
C 1114 51 621 431 621 1385 
C 621 2358 1094 2700 1472 2700 
C 1722 2700 2093 2582 2234 2240 
z
" id="CMR17-63" transform="scale(0.015625)"/>
       <path d="M 960 1517 
C 960 2134 1222 2713 1702 2713 
C 1747 2713 1792 2707 1837 2687 
C 1837 2687 1696 2642 1696 2475 
C 1696 2321 1818 2257 1914 2257 
C 1990 2257 2131 2302 2131 2482 
C 2131 2687 1926 2816 1709 2816 
C 1222 2816 1011 2340 947 2115 
L 941 2115 
L 941 2816 
L 198 2745 
L 198 2578 
C 576 2578 634 2540 634 2231 
L 634 443 
C 634 198 608 166 198 166 
L 198 0 
C 352 12 646 12 813 12 
C 998 12 1325 12 1498 0 
L 1498 166 
C 1037 166 960 166 960 455 
L 960 1517 
z
" id="CMR17-72" transform="scale(0.015625)"/>
      </defs>
      <use transform="scale(0.996264)" xlink:href="#CMR17-53"/>
      <use transform="translate(50.89537 0)scale(0.996264)" xlink:href="#CMR17-74"/>
      <use transform="translate(86.176138 0)scale(0.996264)" xlink:href="#CMR17-75"/>
      <use transform="translate(137.071507 0)scale(0.996264)" xlink:href="#CMR17-64"/>
      <use transform="translate(187.966877 0)scale(0.996264)" xlink:href="#CMR17-79"/>
      <use transform="translate(266.335759 0)scale(0.996264)" xlink:href="#CMR17-41"/>
      <use transform="translate(335.408189 0)scale(0.996264)" xlink:href="#CMR17-63"/>
      <use transform="translate(375.89385 0)scale(0.996264)" xlink:href="#CMR17-63"/>
      <use transform="translate(416.37951 0)scale(0.996264)" xlink:href="#CMR17-75"/>
      <use transform="translate(467.27488 0)scale(0.996264)" xlink:href="#CMR17-72"/>
      <use transform="translate(502.555648 0)scale(0.996264)" xlink:href="#CMR17-61"/>
      <use transform="translate(548.246125 0)scale(0.996264)" xlink:href="#CMR17-63"/>
      <use transform="translate(588.731785 0)scale(0.996264)" xlink:href="#CMR17-79"/>
     </g>
    </g>
   </g>
   <g id="patch_3">
    <path clip-path="url(#p5147b5e670)" d="M 104.074468 279 
L 111.219154 279 
L 111.219154 20.142857 
L 104.074468 20.142857 
z
" style="fill:#4682b4;"/>
   </g>
   <g id="patch_4">
    <path clip-path="url(#p5147b5e670)" d="M 113.005326 279 
L 120.150012 279 
L 120.150012 25.895238 
L 113.005326 25.895238 
z
" style="fill:#4682b4;"/>
   </g>
   <g id="patch_5">
    <path clip-path="url(#p5147b5e670)" d="M 121.936184 279 
L 129.08087 279 
L 129.08087 33.085714 
L 121.936184 33.085714 
z
" style="fill:#4682b4;"/>
   </g>
   <g id="patch_6">
    <path clip-path="url(#p5147b5e670)" d="M 130.867042 279 
L 138.011728 279 
L 138.011728 34.299107 
L 130.867042 34.299107 
z
" style="fill:#4682b4;"/>
   </g>
   <g id="patch_7">
    <path clip-path="url(#p5147b5e670)" d="M 139.797899 279 
L 146.942586 279 
L 146.942586 36.321429 
L 139.797899 36.321429 
z
" style="fill:#4682b4;"/>
   </g>
   <g id="patch_8">
    <path clip-path="url(#p5147b5e670)" d="M 148.728757 279 
L 155.873444 279 
L 155.873444 37.633205 
L 148.728757 37.633205 
z
" style="fill:#4682b4;"/>
   </g>
   <g id="patch_9">
    <path clip-path="url(#p5147b5e670)" d="M 157.659615 279 
L 164.804301 279 
L 164.804301 38.838095 
L 157.659615 38.838095 
z
" style="fill:#4682b4;"/>
   </g>
   <g id="patch_10">
    <path clip-path="url(#p5147b5e670)" d="M 166.590473 279 
L 173.735159 279 
L 173.735159 38.968831 
L 166.590473 38.968831 
z
" style="fill:#4682b4;"/>
   </g>
   <g id="patch_11">
    <path clip-path="url(#p5147b5e670)" d="M 175.521331 279 
L 182.666017 279 
L 182.666017 42.330612 
L 175.521331 42.330612 
z
" style="fill:#4682b4;"/>
   </g>
   <g id="patch_12">
    <path clip-path="url(#p5147b5e670)" d="M 184.452189 279 
L 191.596875 279 
L 191.596875 43.675325 
L 184.452189 43.675325 
z
" style="fill:#4682b4;"/>
   </g>
   <g id="patch_13">
    <path clip-path="url(#p5147b5e670)" d="M 193.383047 279 
L 200.527733 279 
L 200.527733 45.208249 
L 193.383047 45.208249 
z
" style="fill:#4682b4;"/>
   </g>
   <g id="patch_14">
    <path clip-path="url(#p5147b5e670)" d="M 202.313905 279 
L 209.458591 279 
L 209.458591 48.299248 
L 202.313905 48.299248 
z
" style="fill:#ffa500;"/>
   </g>
   <g id="patch_15">
    <path clip-path="url(#p5147b5e670)" d="M 211.244762 279 
L 218.389449 279 
L 218.389449 61.56 
L 211.244762 61.56 
z
" style="fill:#4682b4;"/>
   </g>
   <g id="patch_16">
    <path clip-path="url(#p5147b5e670)" d="M 220.17562 279 
L 227.320307 279 
L 227.320307 63.285714 
L 220.17562 63.285714 
z
" style="fill:#4682b4;"/>
   </g>
   <g id="patch_17">
    <path clip-path="url(#p5147b5e670)" d="M 229.106478 279 
L 236.251164 279 
L 236.251164 66.737143 
L 229.106478 66.737143 
z
" style="fill:#4682b4;"/>
   </g>
   <g id="patch_18">
    <path clip-path="url(#p5147b5e670)" d="M 238.037336 279 
L 245.182022 279 
L 245.182022 66.957447 
L 238.037336 66.957447 
z
" style="fill:#ffa500;"/>
   </g>
   <g id="patch_19">
    <path clip-path="url(#p5147b5e670)" d="M 246.968194 279 
L 254.11288 279 
L 254.11288 67.207792 
L 246.968194 67.207792 
z
" style="fill:#4682b4;"/>
   </g>
   <g id="patch_20">
    <path clip-path="url(#p5147b5e670)" d="M 255.899052 279 
L 263.043738 279 
L 263.043738 69.168831 
L 255.899052 69.168831 
z
" style="fill:#ff00ff;"/>
   </g>
   <g id="patch_21">
    <path clip-path="url(#p5147b5e670)" d="M 264.82991 279 
L 271.974596 279 
L 271.974596 71.275132 
L 264.82991 71.275132 
z
" style="fill:#ff00ff;"/>
   </g>
   <g id="patch_22">
    <path clip-path="url(#p5147b5e670)" d="M 273.760768 279 
L 280.905454 279 
L 280.905454 73.436975 
L 273.760768 73.436975 
z
" style="fill:#4682b4;"/>
   </g>
   <g id="patch_23">
    <path clip-path="url(#p5147b5e670)" d="M 282.691625 279 
L 289.836312 279 
L 289.836312 75.896703 
L 282.691625 75.896703 
z
" style="fill:#4682b4;"/>
   </g>
   <g id="patch_24">
    <path clip-path="url(#p5147b5e670)" d="M 291.622483 279 
L 298.76717 279 
L 298.76717 77.091429 
L 291.622483 77.091429 
z
" style="fill:#4682b4;"/>
   </g>
   <g id="patch_25">
    <path clip-path="url(#p5147b5e670)" d="M 300.553341 279 
L 307.698027 279 
L 307.698027 80.542857 
L 300.553341 80.542857 
z
" style="fill:#4682b4;"/>
   </g>
   <g id="patch_26">
    <path clip-path="url(#p5147b5e670)" d="M 309.484199 279 
L 316.628885 279 
L 316.628885 80.654917 
L 309.484199 80.654917 
z
" style="fill:#ffa500;"/>
   </g>
   <g id="patch_27">
    <path clip-path="url(#p5147b5e670)" d="M 318.415057 279 
L 325.559743 279 
L 325.559743 81.327273 
L 318.415057 81.327273 
z
" style="fill:#ff00ff;"/>
   </g>
   <g id="patch_28">
    <path clip-path="url(#p5147b5e670)" d="M 327.345915 279 
L 334.490601 279 
L 334.490601 83.970646 
L 327.345915 83.970646 
z
" style="fill:#ff00ff;"/>
   </g>
   <g id="patch_29">
    <path clip-path="url(#p5147b5e670)" d="M 336.276773 279 
L 343.421459 279 
L 343.421459 84.857143 
L 336.276773 84.857143 
z
" style="fill:#ff00ff;"/>
   </g>
   <g id="patch_30">
    <path clip-path="url(#p5147b5e670)" d="M 345.207631 279 
L 352.352317 279 
L 352.352317 97.317657 
L 345.207631 97.317657 
z
" style="fill:#ff00ff;"/>
   </g>
   <g id="patch_31">
    <path clip-path="url(#p5147b5e670)" d="M 354.138488 279 
L 361.283175 279 
L 361.283175 98.925466 
L 354.138488 98.925466 
z
" style="fill:#4682b4;"/>
   </g>
   <g id="patch_32">
    <path clip-path="url(#p5147b5e670)" d="M 363.069346 279 
L 370.214033 279 
L 370.214033 102.263054 
L 363.069346 102.263054 
z
" style="fill:#ff00ff;"/>
   </g>
   <g id="patch_33">
    <path clip-path="url(#p5147b5e670)" d="M 372.000204 279 
L 379.14489 279 
L 379.14489 102.506494 
L 372.000204 102.506494 
z
" style="fill:#4682b4;"/>
   </g>
   <g id="patch_34">
    <path clip-path="url(#p5147b5e670)" d="M 380.931062 279 
L 388.075748 279 
L 388.075748 105.857143 
L 380.931062 105.857143 
z
" style="fill:#4682b4;"/>
   </g>
   <g id="patch_35">
    <path clip-path="url(#p5147b5e670)" d="M 389.86192 279 
L 397.006606 279 
L 397.006606 111.147321 
L 389.86192 111.147321 
z
" style="fill:#ff00ff;"/>
   </g>
   <g id="patch_36">
    <path clip-path="url(#p5147b5e670)" d="M 398.792778 279 
L 405.937464 279 
L 405.937464 112.820106 
L 398.792778 112.820106 
z
" style="fill:#ff00ff;"/>
   </g>
   <g id="patch_37">
    <path clip-path="url(#p5147b5e670)" d="M 407.723636 279 
L 414.868322 279 
L 414.868322 114.272727 
L 407.723636 114.272727 
z
" style="fill:#ff00ff;"/>
   </g>
   <g id="patch_38">
    <path clip-path="url(#p5147b5e670)" d="M 416.654494 279 
L 423.79918 279 
L 423.79918 114.272727 
L 416.654494 114.272727 
z
" style="fill:#ffa500;"/>
   </g>
   <g id="patch_39">
    <path clip-path="url(#p5147b5e670)" d="M 425.585351 279 
L 432.730038 279 
L 432.730038 115.486188 
L 425.585351 115.486188 
z
" style="fill:#4682b4;"/>
   </g>
   <g id="patch_40">
    <path clip-path="url(#p5147b5e670)" d="M 434.516209 279 
L 441.660896 279 
L 441.660896 115.511278 
L 434.516209 115.511278 
z
" style="fill:#ff00ff;"/>
   </g>
   <g id="patch_41">
    <path clip-path="url(#p5147b5e670)" d="M 443.447067 279 
L 450.591753 279 
L 450.591753 116.123596 
L 443.447067 116.123596 
z
" style="fill:#ff00ff;"/>
   </g>
   <g id="patch_42">
    <path clip-path="url(#p5147b5e670)" d="M 452.377925 279 
L 459.522611 279 
L 459.522611 117.534653 
L 452.377925 117.534653 
z
" style="fill:#ff00ff;"/>
   </g>
   <g id="patch_43">
    <path clip-path="url(#p5147b5e670)" d="M 461.308783 279 
L 468.453469 279 
L 468.453469 118.917293 
L 461.308783 118.917293 
z
" style="fill:#ff00ff;"/>
   </g>
   <g id="patch_44">
    <path clip-path="url(#p5147b5e670)" d="M 470.239641 279 
L 477.384327 279 
L 477.384327 119.471761 
L 470.239641 119.471761 
z
" style="fill:#ffa500;"/>
   </g>
   <g id="patch_45">
    <path clip-path="url(#p5147b5e670)" d="M 479.170499 279 
L 486.315185 279 
L 486.315185 121.160279 
L 479.170499 121.160279 
z
" style="fill:#ff00ff;"/>
   </g>
   <g id="patch_46">
    <path clip-path="url(#p5147b5e670)" d="M 488.101357 279 
L 495.246043 279 
L 495.246043 124.23356 
L 488.101357 124.23356 
z
" style="fill:#ff00ff;"/>
   </g>
   <g id="patch_47">
    <path clip-path="url(#p5147b5e670)" d="M 497.032214 279 
L 504.176901 279 
L 504.176901 127.34632 
L 497.032214 127.34632 
z
" style="fill:#ff00ff;"/>
   </g>
   <g id="patch_48">
    <path clip-path="url(#p5147b5e670)" d="M 505.963072 279 
L 513.107759 279 
L 513.107759 129.609808 
L 505.963072 129.609808 
z
" style="fill:#ff00ff;"/>
   </g>
   <g id="patch_49">
    <path clip-path="url(#p5147b5e670)" d="M 514.89393 279 
L 522.038616 279 
L 522.038616 132.081081 
L 514.89393 132.081081 
z
" style="fill:#ff00ff;"/>
   </g>
   <g id="patch_50">
    <path clip-path="url(#p5147b5e670)" d="M 523.824788 279 
L 530.969474 279 
L 530.969474 133.574639 
L 523.824788 133.574639 
z
" style="fill:#ff00ff;"/>
   </g>
   <g id="patch_51">
    <path clip-path="url(#p5147b5e670)" d="M 532.755646 279 
L 539.900332 279 
L 539.900332 134.484663 
L 532.755646 134.484663 
z
" style="fill:#ff00ff;"/>
   </g>
   <g id="patch_52">
    <path clip-path="url(#p5147b5e670)" d="M 541.686504 279 
L 548.83119 279 
L 548.83119 134.521595 
L 541.686504 134.521595 
z
" style="fill:#4682b4;"/>
   </g>
   <g id="patch_53">
    <path clip-path="url(#p5147b5e670)" d="M 550.617362 279 
L 557.762048 279 
L 557.762048 136.364431 
L 550.617362 136.364431 
z
" style="fill:#ffa500;"/>
   </g>
   <g id="patch_54">
    <path clip-path="url(#p5147b5e670)" d="M 559.54822 279 
L 566.692906 279 
L 566.692906 136.628571 
L 559.54822 136.628571 
z
" style="fill:#ff00ff;"/>
   </g>
   <g id="patch_55">
    <path clip-path="url(#p5147b5e670)" d="M 568.479077 279 
L 575.623764 279 
L 575.623764 143.206089 
L 568.479077 143.206089 
z
" style="fill:#4682b4;"/>
   </g>
   <g id="patch_56">
    <path clip-path="url(#p5147b5e670)" d="M 577.409935 279 
L 584.554622 279 
L 584.554622 154.437164 
L 577.409935 154.437164 
z
" style="fill:#ff00ff;"/>
   </g>
   <g id="patch_57">
    <path clip-path="url(#p5147b5e670)" d="M 586.340793 279 
L 593.485479 279 
L 593.485479 165.25974 
L 586.340793 165.25974 
z
" style="fill:#ff00ff;"/>
   </g>
   <g id="patch_58">
    <path clip-path="url(#p5147b5e670)" d="M 595.271651 279 
L 602.416337 279 
L 602.416337 182.681063 
L 595.271651 182.681063 
z
" style="fill:#4682b4;"/>
   </g>
   <g id="patch_59">
    <path clip-path="url(#p5147b5e670)" d="M 604.202509 279 
L 611.347195 279 
L 611.347195 186.242857 
L 604.202509 186.242857 
z
" style="fill:#ff00ff;"/>
   </g>
   <g id="line2d_35">
    <path clip-path="url(#p5147b5e670)" d="M 78.710832 117.662616 
L 636.710832 117.662616 
" style="fill:none;stroke:#ff00ff;stroke-dasharray:5.55,2.4;stroke-dashoffset:0;stroke-width:1.5;"/>
   </g>
   <g id="line2d_36">
    <path clip-path="url(#p5147b5e670)" d="M 78.710832 94.336755 
L 636.710832 94.336755 
" style="fill:none;stroke:#ffa500;stroke-dasharray:5.55,2.4;stroke-dashoffset:0;stroke-width:1.5;"/>
   </g>
   <g id="line2d_37">
    <path clip-path="url(#p5147b5e670)" d="M 78.710832 70.974666 
L 636.710832 70.974666 
" style="fill:none;stroke:#4682b4;stroke-dasharray:5.55,2.4;stroke-dashoffset:0;stroke-width:1.5;"/>
   </g>
   <g id="line2d_38">
    <path clip-path="url(#p5147b5e670)" d="M 78.710832 93.911004 
L 636.710832 93.911004 
" style="fill:none;stroke:#000000;stroke-dasharray:5.55,2.4;stroke-dashoffset:0;stroke-width:1.5;"/>
   </g>
   <g id="patch_60">
    <path d="M 78.710832 279 
L 78.710832 7.2 
" style="fill:none;stroke:#000000;stroke-linecap:square;stroke-linejoin:miter;stroke-width:0.8;"/>
   </g>
   <g id="patch_61">
    <path d="M 636.710832 279 
L 636.710832 7.2 
" style="fill:none;stroke:#000000;stroke-linecap:square;stroke-linejoin:miter;stroke-width:0.8;"/>
   </g>
   <g id="patch_62">
    <path d="M 78.710832 279 
L 636.710832 279 
" style="fill:none;stroke:#000000;stroke-linecap:square;stroke-linejoin:miter;stroke-width:0.8;"/>
   </g>
   <g id="patch_63">
    <path d="M 78.710832 7.2 
L 636.710832 7.2 
" style="fill:none;stroke:#000000;stroke-linecap:square;stroke-linejoin:miter;stroke-width:0.8;"/>
   </g>
   <g id="legend_1">
    <g id="patch_64">
     <path d="M 521.851419 87.91 
L 626.910832 87.91 
Q 629.710832 87.91 629.710832 85.11 
L 629.710832 17 
Q 629.710832 14.2 626.910832 14.2 
L 521.851419 14.2 
Q 519.051419 14.2 519.051419 17 
L 519.051419 85.11 
Q 519.051419 87.91 521.851419 87.91 
z
" style="fill:#ffffff;opacity:0.8;stroke:#cccccc;stroke-linejoin:miter;"/>
    </g>
    <g id="patch_65">
     <path d="M 524.651419 35.97 
L 544.251419 35.97 
L 544.251419 19.8 
L 524.651419 19.8 
z
" style="fill:#4682b4;stroke:#000000;stroke-linejoin:miter;"/>
    </g>
    <g id="text_20">
     <!-- Healthy -->
     <g transform="translate(555.451419 32.54)scale(0.14 -0.14)">
      <defs>
       <path d="M 3590 3898 
C 3590 4185 3661 4185 4102 4185 
L 4102 4352 
C 3917 4339 3578 4339 3379 4339 
C 3181 4339 2842 4339 2656 4352 
L 2656 4185 
C 3098 4185 3168 4185 3168 3898 
L 3168 2342 
L 1261 2342 
L 1261 3898 
C 1261 4185 1331 4185 1773 4185 
L 1773 4352 
C 1587 4339 1248 4339 1050 4339 
C 851 4339 512 4339 326 4352 
L 326 4185 
C 768 4185 838 4185 838 3898 
L 838 452 
C 838 166 768 166 326 166 
L 326 0 
C 512 12 851 12 1050 12 
C 1248 12 1587 12 1773 0 
L 1773 166 
C 1331 166 1261 166 1261 452 
L 1261 2176 
L 3168 2176 
L 3168 452 
C 3168 166 3098 166 2656 166 
L 2656 0 
C 2842 12 3181 12 3379 12 
C 3578 12 3917 12 4102 0 
L 4102 166 
C 3661 166 3590 166 3590 452 
L 3590 3898 
z
" id="CMR17-48" transform="scale(0.015625)"/>
       <path d="M 2438 1503 
C 2464 1529 2464 1542 2464 1606 
C 2464 2251 2118 2816 1389 2816 
C 710 2816 173 2175 173 1394 
C 173 554 781 -64 1459 -64 
C 2176 -64 2458 619 2458 755 
C 2458 800 2419 800 2406 800 
C 2362 800 2355 787 2330 709 
C 2189 270 1837 51 1504 51 
C 1229 51 954 206 781 490 
C 582 819 582 1200 582 1503 
L 2438 1503 
z
M 589 1600 
C 634 2511 1126 2713 1382 2713 
C 1818 2713 2112 2308 2118 1600 
L 589 1600 
z
" id="CMR17-65" transform="scale(0.015625)"/>
       <path d="M 979 4416 
L 218 4345 
L 218 4179 
C 595 4179 653 4141 653 3835 
L 653 439 
C 653 198 627 166 218 166 
L 218 0 
C 371 12 653 12 813 12 
C 979 12 1261 12 1414 0 
L 1414 166 
C 1005 166 979 191 979 439 
L 979 4416 
z
" id="CMR17-6c" transform="scale(0.015625)"/>
       <path d="M 2656 1954 
C 2656 2282 2592 2816 1837 2816 
C 1312 2816 1056 2392 979 2179 
L 973 2179 
L 973 4416 
L 211 4345 
L 211 4179 
C 589 4179 646 4141 646 3843 
L 646 443 
C 646 198 621 166 211 166 
L 211 0 
C 365 12 646 12 813 12 
C 979 12 1267 12 1421 0 
L 1421 166 
C 1011 166 986 192 986 443 
L 986 1678 
C 986 2269 1344 2713 1792 2713 
C 2266 2713 2317 2289 2317 1980 
L 2317 443 
C 2317 198 2291 166 1882 166 
L 1882 0 
C 2035 12 2317 12 2483 12 
C 2650 12 2938 12 3091 0 
L 3091 166 
C 2682 166 2656 192 2656 443 
L 2656 1954 
z
" id="CMR17-68" transform="scale(0.015625)"/>
      </defs>
      <use transform="scale(0.996264)" xlink:href="#CMR17-48"/>
      <use transform="translate(69.07243 0)scale(0.996264)" xlink:href="#CMR17-65"/>
      <use transform="translate(109.55809 0)scale(0.996264)" xlink:href="#CMR17-61"/>
      <use transform="translate(155.248567 0)scale(0.996264)" xlink:href="#CMR17-6c"/>
      <use transform="translate(180.119626 0)scale(0.996264)" xlink:href="#CMR17-74"/>
      <use transform="translate(215.400394 0)scale(0.996264)" xlink:href="#CMR17-68"/>
      <use transform="translate(263.69331 0)scale(0.996264)" xlink:href="#CMR17-79"/>
     </g>
    </g>
    <g id="patch_66">
     <path d="M 524.651419 59.14 
L 544.251419 59.14 
L 544.251419 42.97 
L 524.651419 42.97 
z
" style="fill:#ffa500;stroke:#000000;stroke-linejoin:miter;"/>
    </g>
    <g id="text_21">
     <!-- Nonhealthy -->
     <g transform="translate(555.451419 55.71)scale(0.14 -0.14)">
      <defs>
       <path d="M 1312 4275 
C 1267 4345 1261 4352 1139 4352 
L 326 4352 
L 326 4185 
L 448 4185 
C 704 4185 819 4153 838 4147 
L 838 624 
C 838 465 838 166 326 166 
L 326 0 
C 474 12 742 12 902 12 
C 1062 12 1331 12 1478 0 
L 1478 166 
C 966 166 966 465 966 624 
L 966 4057 
C 1011 4019 1011 4007 1056 3943 
L 3430 76 
C 3475 0 3494 0 3526 0 
C 3590 0 3590 19 3590 140 
L 3590 3726 
C 3590 3885 3590 4185 4102 4185 
L 4102 4352 
C 3955 4339 3686 4339 3526 4339 
C 3366 4339 3098 4339 2950 4352 
L 2950 4185 
C 3462 4185 3462 3885 3462 3726 
L 3462 777 
L 1312 4275 
z
" id="CMR17-4e" transform="scale(0.015625)"/>
       <path d="M 2758 1356 
C 2758 2176 2163 2816 1466 2816 
C 768 2816 173 2176 173 1356 
C 173 550 768 -64 1466 -64 
C 2163 -64 2758 550 2758 1356 
z
M 1466 51 
C 1165 51 909 230 762 480 
C 602 768 582 1126 582 1408 
C 582 1676 595 2009 762 2297 
C 890 2508 1139 2713 1466 2713 
C 1754 2713 1997 2553 2150 2329 
C 2349 2028 2349 1606 2349 1408 
C 2349 1158 2336 774 2163 467 
C 1984 172 1709 51 1466 51 
z
" id="CMR17-6f" transform="scale(0.015625)"/>
      </defs>
      <use transform="scale(0.996264)" xlink:href="#CMR17-4e"/>
      <use transform="translate(69.07243 0)scale(0.996264)" xlink:href="#CMR17-6f"/>
      <use transform="translate(114.762907 0)scale(0.996264)" xlink:href="#CMR17-6e"/>
      <use transform="translate(165.658277 0)scale(0.996264)" xlink:href="#CMR17-68"/>
      <use transform="translate(216.553646 0)scale(0.996264)" xlink:href="#CMR17-65"/>
      <use transform="translate(257.039307 0)scale(0.996264)" xlink:href="#CMR17-61"/>
      <use transform="translate(302.729784 0)scale(0.996264)" xlink:href="#CMR17-6c"/>
      <use transform="translate(327.600843 0)scale(0.996264)" xlink:href="#CMR17-74"/>
      <use transform="translate(362.88161 0)scale(0.996264)" xlink:href="#CMR17-68"/>
      <use transform="translate(411.174526 0)scale(0.996264)" xlink:href="#CMR17-79"/>
     </g>
    </g>
    <g id="patch_67">
     <path d="M 524.651419 82.31 
L 544.251419 82.31 
L 544.251419 66.14 
L 524.651419 66.14 
z
" style="fill:#ff00ff;stroke:#000000;stroke-linejoin:miter;"/>
    </g>
    <g id="text_22">
     <!-- Both -->
     <g transform="translate(555.451419 78.88)scale(0.14 -0.14)">
      <defs>
       <path d="M 333 4352 
L 333 4185 
C 774 4185 845 4185 845 3897 
L 845 451 
C 845 166 774 166 333 166 
L 333 0 
L 2534 0 
C 3354 0 3885 578 3885 1155 
C 3885 1726 3360 2214 2675 2259 
C 3290 2380 3718 2790 3718 3276 
C 3718 3808 3194 4352 2368 4352 
L 333 4352 
z
M 1248 2304 
L 1248 3936 
C 1248 4153 1261 4185 1517 4185 
L 2336 4185 
C 2970 4185 3251 3673 3251 3276 
C 3251 2790 2861 2304 2170 2304 
L 1248 2304 
z
M 1517 166 
C 1261 166 1248 198 1248 413 
L 1248 2201 
L 2432 2201 
C 3091 2201 3411 1624 3411 1161 
C 3411 698 3046 166 2349 166 
L 1517 166 
z
" id="CMR17-42" transform="scale(0.015625)"/>
      </defs>
      <use transform="scale(0.996264)" xlink:href="#CMR17-42"/>
      <use transform="translate(65.188754 0)scale(0.996264)" xlink:href="#CMR17-6f"/>
      <use transform="translate(110.879232 0)scale(0.996264)" xlink:href="#CMR17-74"/>
      <use transform="translate(146.159999 0)scale(0.996264)" xlink:href="#CMR17-68"/>
     </g>
    </g>
   </g>
  </g>
 </g>
 <defs>
  <clipPath id="p5147b5e670">
   <rect height="271.8" width="558" x="78.710832" y="7.2"/>
  </clipPath>
 </defs>
</svg>
