<?xml version="1.0" encoding="utf-8" standalone="no"?>
<!DOCTYPE svg PUBLIC "-//W3C//DTD SVG 1.1//EN"
  "http://www.w3.org/Graphics/SVG/1.1/DTD/svg11.dtd">
<svg height="335.9125pt" version="1.1" viewBox="0 0 659.934375 335.9125" width="659.934375pt" xmlns="http://www.w3.org/2000/svg" xmlns:xlink="http://www.w3.org/1999/xlink">
 <metadata>
  <rdf:RDF xmlns:cc="http://creativecommons.org/ns#" xmlns:dc="http://purl.org/dc/elements/1.1/" xmlns:rdf="http://www.w3.org/1999/02/22-rdf-syntax-ns#">
   <cc:Work>
    <dc:type rdf:resource="http://purl.org/dc/dcmitype/StillImage"/>
    <dc:date>2022-11-19T15:10:57.305189</dc:date>
    <dc:format>image/svg+xml</dc:format>
    <dc:creator>
     <cc:Agent>
      <dc:title>Matplotlib v3.4.3, https://matplotlib.org/</dc:title>
     </cc:Agent>
    </dc:creator>
   </cc:Work>
  </rdf:RDF>
 </metadata>
 <defs>
  <style type="text/css">*{stroke-linecap:butt;stroke-linejoin:round;}</style>
 </defs>
 <g id="figure_1">
  <g id="patch_1">
   <path d="M 0 335.9125 
L 659.934375 335.9125 
L 659.934375 0 
L 0 0 
z
" style="fill:none;"/>
  </g>
  <g id="axes_1">
   <g id="patch_2">
    <path d="M 94.734375 279 
L 652.734375 279 
L 652.734375 7.2 
L 94.734375 7.2 
z
" style="fill:#ffffff;"/>
   </g>
   <g id="matplotlib.axis_1">
    <g id="xtick_1">
     <g id="line2d_1">
      <path clip-path="url(#pf80b5dd43b)" d="M 123.670355 279 
L 123.670355 7.2 
" style="fill:none;stroke:#b0b0b0;stroke-dasharray:1.85,0.8;stroke-dashoffset:0;stroke-width:0.5;"/>
     </g>
     <g id="line2d_2">
      <defs>
       <path d="M 0 0 
L 0 3.5 
" id="maedb448a66" style="stroke:#000000;stroke-width:0.8;"/>
      </defs>
      <g>
       <use style="stroke:#000000;stroke-width:0.8;" x="123.670355" xlink:href="#maedb448a66" y="279"/>
      </g>
     </g>
     <g id="text_1">
      <text style="font-family:DejaVu Sans;font-size:20px;font-stretch:normal;font-style:normal;font-weight:normal;text-anchor:middle;" transform="rotate(-0, 123.670355, 301.196875)" x="123.670355" y="301.196875">0</text>
     </g>
    </g>
    <g id="xtick_2">
     <g id="line2d_3">
      <path clip-path="url(#pf80b5dd43b)" d="M 212.978933 279 
L 212.978933 7.2 
" style="fill:none;stroke:#b0b0b0;stroke-dasharray:1.85,0.8;stroke-dashoffset:0;stroke-width:0.5;"/>
     </g>
     <g id="line2d_4">
      <g>
       <use style="stroke:#000000;stroke-width:0.8;" x="212.978933" xlink:href="#maedb448a66" y="279"/>
      </g>
     </g>
     <g id="text_2">
      <text style="font-family:DejaVu Sans;font-size:20px;font-stretch:normal;font-style:normal;font-weight:normal;text-anchor:middle;" transform="rotate(-0, 212.978933, 301.196875)" x="212.978933" y="301.196875">10</text>
     </g>
    </g>
    <g id="xtick_3">
     <g id="line2d_5">
      <path clip-path="url(#pf80b5dd43b)" d="M 302.287512 279 
L 302.287512 7.2 
" style="fill:none;stroke:#b0b0b0;stroke-dasharray:1.85,0.8;stroke-dashoffset:0;stroke-width:0.5;"/>
     </g>
     <g id="line2d_6">
      <g>
       <use style="stroke:#000000;stroke-width:0.8;" x="302.287512" xlink:href="#maedb448a66" y="279"/>
      </g>
     </g>
     <g id="text_3">
      <text style="font-family:DejaVu Sans;font-size:20px;font-stretch:normal;font-style:normal;font-weight:normal;text-anchor:middle;" transform="rotate(-0, 302.287512, 301.196875)" x="302.287512" y="301.196875">20</text>
     </g>
    </g>
    <g id="xtick_4">
     <g id="line2d_7">
      <path clip-path="url(#pf80b5dd43b)" d="M 391.596091 279 
L 391.596091 7.2 
" style="fill:none;stroke:#b0b0b0;stroke-dasharray:1.85,0.8;stroke-dashoffset:0;stroke-width:0.5;"/>
     </g>
     <g id="line2d_8">
      <g>
       <use style="stroke:#000000;stroke-width:0.8;" x="391.596091" xlink:href="#maedb448a66" y="279"/>
      </g>
     </g>
     <g id="text_4">
      <text style="font-family:DejaVu Sans;font-size:20px;font-stretch:normal;font-style:normal;font-weight:normal;text-anchor:middle;" transform="rotate(-0, 391.596091, 301.196875)" x="391.596091" y="301.196875">30</text>
     </g>
    </g>
    <g id="xtick_5">
     <g id="line2d_9">
      <path clip-path="url(#pf80b5dd43b)" d="M 480.904669 279 
L 480.904669 7.2 
" style="fill:none;stroke:#b0b0b0;stroke-dasharray:1.85,0.8;stroke-dashoffset:0;stroke-width:0.5;"/>
     </g>
     <g id="line2d_10">
      <g>
       <use style="stroke:#000000;stroke-width:0.8;" x="480.904669" xlink:href="#maedb448a66" y="279"/>
      </g>
     </g>
     <g id="text_5">
      <text style="font-family:DejaVu Sans;font-size:20px;font-stretch:normal;font-style:normal;font-weight:normal;text-anchor:middle;" transform="rotate(-0, 480.904669, 301.196875)" x="480.904669" y="301.196875">40</text>
     </g>
    </g>
    <g id="xtick_6">
     <g id="line2d_11">
      <path clip-path="url(#pf80b5dd43b)" d="M 570.213248 279 
L 570.213248 7.2 
" style="fill:none;stroke:#b0b0b0;stroke-dasharray:1.85,0.8;stroke-dashoffset:0;stroke-width:0.5;"/>
     </g>
     <g id="line2d_12">
      <g>
       <use style="stroke:#000000;stroke-width:0.8;" x="570.213248" xlink:href="#maedb448a66" y="279"/>
      </g>
     </g>
     <g id="text_6">
      <text style="font-family:DejaVu Sans;font-size:20px;font-stretch:normal;font-style:normal;font-weight:normal;text-anchor:middle;" transform="rotate(-0, 570.213248, 301.196875)" x="570.213248" y="301.196875">50</text>
     </g>
    </g>
    <g id="text_7">
     <text style="font-family:DejaVu Sans;font-size:20px;font-stretch:normal;font-style:normal;font-weight:normal;text-anchor:middle;" transform="rotate(-0, 373.734375, 324.553125)" x="373.734375" y="324.553125">Rank (study)</text>
    </g>
   </g>
   <g id="matplotlib.axis_2">
    <g id="ytick_1">
     <g id="line2d_13">
      <path clip-path="url(#pf80b5dd43b)" d="M 94.734375 279 
L 652.734375 279 
" style="fill:none;stroke:#b0b0b0;stroke-dasharray:2.775,1.2;stroke-dashoffset:0;stroke-width:0.75;"/>
     </g>
     <g id="line2d_14">
      <defs>
       <path d="M 0 0 
L -3.5 0 
" id="mfc490017b5" style="stroke:#000000;stroke-width:0.8;"/>
      </defs>
      <g>
       <use style="stroke:#000000;stroke-width:0.8;" x="94.734375" xlink:href="#mfc490017b5" y="279"/>
      </g>
     </g>
     <g id="text_8">
      <text style="font-family:DejaVu Sans;font-size:20px;font-stretch:normal;font-style:normal;font-weight:normal;text-anchor:end;" transform="rotate(-0, 87.734375, 286.598438)" x="87.734375" y="286.598438">0%</text>
     </g>
    </g>
    <g id="ytick_2">
     <g id="line2d_15">
      <path clip-path="url(#pf80b5dd43b)" d="M 94.734375 253.114286 
L 652.734375 253.114286 
" style="fill:none;stroke:#b0b0b0;stroke-dasharray:2.775,1.2;stroke-dashoffset:0;stroke-width:0.75;"/>
     </g>
     <g id="line2d_16">
      <g>
       <use style="stroke:#000000;stroke-width:0.8;" x="94.734375" xlink:href="#mfc490017b5" y="253.114286"/>
      </g>
     </g>
     <g id="text_9">
      <text style="font-family:DejaVu Sans;font-size:20px;font-stretch:normal;font-style:normal;font-weight:normal;text-anchor:end;" transform="rotate(-0, 87.734375, 260.712723)" x="87.734375" y="260.712723">10%</text>
     </g>
    </g>
    <g id="ytick_3">
     <g id="line2d_17">
      <path clip-path="url(#pf80b5dd43b)" d="M 94.734375 227.228571 
L 652.734375 227.228571 
" style="fill:none;stroke:#b0b0b0;stroke-dasharray:2.775,1.2;stroke-dashoffset:0;stroke-width:0.75;"/>
     </g>
     <g id="line2d_18">
      <g>
       <use style="stroke:#000000;stroke-width:0.8;" x="94.734375" xlink:href="#mfc490017b5" y="227.228571"/>
      </g>
     </g>
     <g id="text_10">
      <text style="font-family:DejaVu Sans;font-size:20px;font-stretch:normal;font-style:normal;font-weight:normal;text-anchor:end;" transform="rotate(-0, 87.734375, 234.827009)" x="87.734375" y="234.827009">20%</text>
     </g>
    </g>
    <g id="ytick_4">
     <g id="line2d_19">
      <path clip-path="url(#pf80b5dd43b)" d="M 94.734375 201.342857 
L 652.734375 201.342857 
" style="fill:none;stroke:#b0b0b0;stroke-dasharray:2.775,1.2;stroke-dashoffset:0;stroke-width:0.75;"/>
     </g>
     <g id="line2d_20">
      <g>
       <use style="stroke:#000000;stroke-width:0.8;" x="94.734375" xlink:href="#mfc490017b5" y="201.342857"/>
      </g>
     </g>
     <g id="text_11">
      <text style="font-family:DejaVu Sans;font-size:20px;font-stretch:normal;font-style:normal;font-weight:normal;text-anchor:end;" transform="rotate(-0, 87.734375, 208.941295)" x="87.734375" y="208.941295">30%</text>
     </g>
    </g>
    <g id="ytick_5">
     <g id="line2d_21">
      <path clip-path="url(#pf80b5dd43b)" d="M 94.734375 175.457143 
L 652.734375 175.457143 
" style="fill:none;stroke:#b0b0b0;stroke-dasharray:2.775,1.2;stroke-dashoffset:0;stroke-width:0.75;"/>
     </g>
     <g id="line2d_22">
      <g>
       <use style="stroke:#000000;stroke-width:0.8;" x="94.734375" xlink:href="#mfc490017b5" y="175.457143"/>
      </g>
     </g>
     <g id="text_12">
      <text style="font-family:DejaVu Sans;font-size:20px;font-stretch:normal;font-style:normal;font-weight:normal;text-anchor:end;" transform="rotate(-0, 87.734375, 183.05558)" x="87.734375" y="183.05558">40%</text>
     </g>
    </g>
    <g id="ytick_6">
     <g id="line2d_23">
      <path clip-path="url(#pf80b5dd43b)" d="M 94.734375 149.571429 
L 652.734375 149.571429 
" style="fill:none;stroke:#b0b0b0;stroke-dasharray:2.775,1.2;stroke-dashoffset:0;stroke-width:0.75;"/>
     </g>
     <g id="line2d_24">
      <g>
       <use style="stroke:#000000;stroke-width:0.8;" x="94.734375" xlink:href="#mfc490017b5" y="149.571429"/>
      </g>
     </g>
     <g id="text_13">
      <text style="font-family:DejaVu Sans;font-size:20px;font-stretch:normal;font-style:normal;font-weight:normal;text-anchor:end;" transform="rotate(-0, 87.734375, 157.169866)" x="87.734375" y="157.169866">50%</text>
     </g>
    </g>
    <g id="ytick_7">
     <g id="line2d_25">
      <path clip-path="url(#pf80b5dd43b)" d="M 94.734375 123.685714 
L 652.734375 123.685714 
" style="fill:none;stroke:#b0b0b0;stroke-dasharray:2.775,1.2;stroke-dashoffset:0;stroke-width:0.75;"/>
     </g>
     <g id="line2d_26">
      <g>
       <use style="stroke:#000000;stroke-width:0.8;" x="94.734375" xlink:href="#mfc490017b5" y="123.685714"/>
      </g>
     </g>
     <g id="text_14">
      <text style="font-family:DejaVu Sans;font-size:20px;font-stretch:normal;font-style:normal;font-weight:normal;text-anchor:end;" transform="rotate(-0, 87.734375, 131.284152)" x="87.734375" y="131.284152">60%</text>
     </g>
    </g>
    <g id="ytick_8">
     <g id="line2d_27">
      <path clip-path="url(#pf80b5dd43b)" d="M 94.734375 97.8 
L 652.734375 97.8 
" style="fill:none;stroke:#b0b0b0;stroke-dasharray:2.775,1.2;stroke-dashoffset:0;stroke-width:0.75;"/>
     </g>
     <g id="line2d_28">
      <g>
       <use style="stroke:#000000;stroke-width:0.8;" x="94.734375" xlink:href="#mfc490017b5" y="97.8"/>
      </g>
     </g>
     <g id="text_15">
      <text style="font-family:DejaVu Sans;font-size:20px;font-stretch:normal;font-style:normal;font-weight:normal;text-anchor:end;" transform="rotate(-0, 87.734375, 105.398438)" x="87.734375" y="105.398438">70%</text>
     </g>
    </g>
    <g id="ytick_9">
     <g id="line2d_29">
      <path clip-path="url(#pf80b5dd43b)" d="M 94.734375 71.914286 
L 652.734375 71.914286 
" style="fill:none;stroke:#b0b0b0;stroke-dasharray:2.775,1.2;stroke-dashoffset:0;stroke-width:0.75;"/>
     </g>
     <g id="line2d_30">
      <g>
       <use style="stroke:#000000;stroke-width:0.8;" x="94.734375" xlink:href="#mfc490017b5" y="71.914286"/>
      </g>
     </g>
     <g id="text_16">
      <text style="font-family:DejaVu Sans;font-size:20px;font-stretch:normal;font-style:normal;font-weight:normal;text-anchor:end;" transform="rotate(-0, 87.734375, 79.512723)" x="87.734375" y="79.512723">80%</text>
     </g>
    </g>
    <g id="ytick_10">
     <g id="line2d_31">
      <path clip-path="url(#pf80b5dd43b)" d="M 94.734375 46.028571 
L 652.734375 46.028571 
" style="fill:none;stroke:#b0b0b0;stroke-dasharray:2.775,1.2;stroke-dashoffset:0;stroke-width:0.75;"/>
     </g>
     <g id="line2d_32">
      <g>
       <use style="stroke:#000000;stroke-width:0.8;" x="94.734375" xlink:href="#mfc490017b5" y="46.028571"/>
      </g>
     </g>
     <g id="text_17">
      <text style="font-family:DejaVu Sans;font-size:20px;font-stretch:normal;font-style:normal;font-weight:normal;text-anchor:end;" transform="rotate(-0, 87.734375, 53.627009)" x="87.734375" y="53.627009">90%</text>
     </g>
    </g>
    <g id="ytick_11">
     <g id="line2d_33">
      <path clip-path="url(#pf80b5dd43b)" d="M 94.734375 20.142857 
L 652.734375 20.142857 
" style="fill:none;stroke:#b0b0b0;stroke-dasharray:2.775,1.2;stroke-dashoffset:0;stroke-width:0.75;"/>
     </g>
     <g id="line2d_34">
      <g>
       <use style="stroke:#000000;stroke-width:0.8;" x="94.734375" xlink:href="#mfc490017b5" y="20.142857"/>
      </g>
     </g>
     <g id="text_18">
      <text style="font-family:DejaVu Sans;font-size:20px;font-stretch:normal;font-style:normal;font-weight:normal;text-anchor:end;" transform="rotate(-0, 87.734375, 27.741295)" x="87.734375" y="27.741295">100%</text>
     </g>
    </g>
    <g id="text_19">
     <text style="font-family:DejaVu Sans;font-size:20px;font-stretch:normal;font-style:normal;font-weight:normal;text-anchor:middle;" transform="rotate(-90, 22.396875, 143.1)" x="22.396875" y="143.1">Study Accuracy</text>
    </g>
   </g>
   <g id="patch_3">
    <path clip-path="url(#pf80b5dd43b)" d="M 120.098011 279 
L 127.242698 279 
L 127.242698 20.142857 
L 120.098011 20.142857 
z
" style="fill:#4682b4;"/>
   </g>
   <g id="patch_4">
    <path clip-path="url(#pf80b5dd43b)" d="M 129.028869 279 
L 136.173556 279 
L 136.173556 25.895238 
L 129.028869 25.895238 
z
" style="fill:#4682b4;"/>
   </g>
   <g id="patch_5">
    <path clip-path="url(#pf80b5dd43b)" d="M 137.959727 279 
L 145.104413 279 
L 145.104413 33.085714 
L 137.959727 33.085714 
z
" style="fill:#4682b4;"/>
   </g>
   <g id="patch_6">
    <path clip-path="url(#pf80b5dd43b)" d="M 146.890585 279 
L 154.035271 279 
L 154.035271 34.299107 
L 146.890585 34.299107 
z
" style="fill:#4682b4;"/>
   </g>
   <g id="patch_7">
    <path clip-path="url(#pf80b5dd43b)" d="M 155.821443 279 
L 162.966129 279 
L 162.966129 36.321429 
L 155.821443 36.321429 
z
" style="fill:#4682b4;"/>
   </g>
   <g id="patch_8">
    <path clip-path="url(#pf80b5dd43b)" d="M 164.752301 279 
L 171.896987 279 
L 171.896987 37.633205 
L 164.752301 37.633205 
z
" style="fill:#4682b4;"/>
   </g>
   <g id="patch_9">
    <path clip-path="url(#pf80b5dd43b)" d="M 173.683159 279 
L 180.827845 279 
L 180.827845 38.838095 
L 173.683159 38.838095 
z
" style="fill:#4682b4;"/>
   </g>
   <g id="patch_10">
    <path clip-path="url(#pf80b5dd43b)" d="M 182.614016 279 
L 189.758703 279 
L 189.758703 38.968831 
L 182.614016 38.968831 
z
" style="fill:#4682b4;"/>
   </g>
   <g id="patch_11">
    <path clip-path="url(#pf80b5dd43b)" d="M 191.544874 279 
L 198.689561 279 
L 198.689561 42.330612 
L 191.544874 42.330612 
z
" style="fill:#4682b4;"/>
   </g>
   <g id="patch_12">
    <path clip-path="url(#pf80b5dd43b)" d="M 200.475732 279 
L 207.620419 279 
L 207.620419 43.675325 
L 200.475732 43.675325 
z
" style="fill:#4682b4;"/>
   </g>
   <g id="patch_13">
    <path clip-path="url(#pf80b5dd43b)" d="M 209.40659 279 
L 216.551276 279 
L 216.551276 45.208249 
L 209.40659 45.208249 
z
" style="fill:#4682b4;"/>
   </g>
   <g id="patch_14">
    <path clip-path="url(#pf80b5dd43b)" d="M 218.337448 279 
L 225.482134 279 
L 225.482134 48.299248 
L 218.337448 48.299248 
z
" style="fill:#ffa500;"/>
   </g>
   <g id="patch_15">
    <path clip-path="url(#pf80b5dd43b)" d="M 227.268306 279 
L 234.412992 279 
L 234.412992 61.56 
L 227.268306 61.56 
z
" style="fill:#4682b4;"/>
   </g>
   <g id="patch_16">
    <path clip-path="url(#pf80b5dd43b)" d="M 236.199164 279 
L 243.34385 279 
L 243.34385 63.285714 
L 236.199164 63.285714 
z
" style="fill:#4682b4;"/>
   </g>
   <g id="patch_17">
    <path clip-path="url(#pf80b5dd43b)" d="M 245.130022 279 
L 252.274708 279 
L 252.274708 66.737143 
L 245.130022 66.737143 
z
" style="fill:#4682b4;"/>
   </g>
   <g id="patch_18">
    <path clip-path="url(#pf80b5dd43b)" d="M 254.060879 279 
L 261.205566 279 
L 261.205566 66.957447 
L 254.060879 66.957447 
z
" style="fill:#ffa500;"/>
   </g>
   <g id="patch_19">
    <path clip-path="url(#pf80b5dd43b)" d="M 262.991737 279 
L 270.136424 279 
L 270.136424 67.207792 
L 262.991737 67.207792 
z
" style="fill:#4682b4;"/>
   </g>
   <g id="patch_20">
    <path clip-path="url(#pf80b5dd43b)" d="M 271.922595 279 
L 279.067282 279 
L 279.067282 69.168831 
L 271.922595 69.168831 
z
" style="fill:#9400d3;"/>
   </g>
   <g id="patch_21">
    <path clip-path="url(#pf80b5dd43b)" d="M 280.853453 279 
L 287.998139 279 
L 287.998139 71.275132 
L 280.853453 71.275132 
z
" style="fill:#9400d3;"/>
   </g>
   <g id="patch_22">
    <path clip-path="url(#pf80b5dd43b)" d="M 289.784311 279 
L 296.928997 279 
L 296.928997 73.436975 
L 289.784311 73.436975 
z
" style="fill:#4682b4;"/>
   </g>
   <g id="patch_23">
    <path clip-path="url(#pf80b5dd43b)" d="M 298.715169 279 
L 305.859855 279 
L 305.859855 75.896703 
L 298.715169 75.896703 
z
" style="fill:#4682b4;"/>
   </g>
   <g id="patch_24">
    <path clip-path="url(#pf80b5dd43b)" d="M 307.646027 279 
L 314.790713 279 
L 314.790713 77.091429 
L 307.646027 77.091429 
z
" style="fill:#4682b4;"/>
   </g>
   <g id="patch_25">
    <path clip-path="url(#pf80b5dd43b)" d="M 316.576885 279 
L 323.721571 279 
L 323.721571 80.542857 
L 316.576885 80.542857 
z
" style="fill:#4682b4;"/>
   </g>
   <g id="patch_26">
    <path clip-path="url(#pf80b5dd43b)" d="M 325.507742 279 
L 332.652429 279 
L 332.652429 80.654917 
L 325.507742 80.654917 
z
" style="fill:#ffa500;"/>
   </g>
   <g id="patch_27">
    <path clip-path="url(#pf80b5dd43b)" d="M 334.4386 279 
L 341.583287 279 
L 341.583287 81.327273 
L 334.4386 81.327273 
z
" style="fill:#9400d3;"/>
   </g>
   <g id="patch_28">
    <path clip-path="url(#pf80b5dd43b)" d="M 343.369458 279 
L 350.514145 279 
L 350.514145 83.970646 
L 343.369458 83.970646 
z
" style="fill:#9400d3;"/>
   </g>
   <g id="patch_29">
    <path clip-path="url(#pf80b5dd43b)" d="M 352.300316 279 
L 359.445002 279 
L 359.445002 84.857143 
L 352.300316 84.857143 
z
" style="fill:#9400d3;"/>
   </g>
   <g id="patch_30">
    <path clip-path="url(#pf80b5dd43b)" d="M 361.231174 279 
L 368.37586 279 
L 368.37586 97.317657 
L 361.231174 97.317657 
z
" style="fill:#9400d3;"/>
   </g>
   <g id="patch_31">
    <path clip-path="url(#pf80b5dd43b)" d="M 370.162032 279 
L 377.306718 279 
L 377.306718 98.925466 
L 370.162032 98.925466 
z
" style="fill:#4682b4;"/>
   </g>
   <g id="patch_32">
    <path clip-path="url(#pf80b5dd43b)" d="M 379.09289 279 
L 386.237576 279 
L 386.237576 102.263054 
L 379.09289 102.263054 
z
" style="fill:#9400d3;"/>
   </g>
   <g id="patch_33">
    <path clip-path="url(#pf80b5dd43b)" d="M 388.023748 279 
L 395.168434 279 
L 395.168434 102.506494 
L 388.023748 102.506494 
z
" style="fill:#4682b4;"/>
   </g>
   <g id="patch_34">
    <path clip-path="url(#pf80b5dd43b)" d="M 396.954605 279 
L 404.099292 279 
L 404.099292 105.857143 
L 396.954605 105.857143 
z
" style="fill:#4682b4;"/>
   </g>
   <g id="patch_35">
    <path clip-path="url(#pf80b5dd43b)" d="M 405.885463 279 
L 413.03015 279 
L 413.03015 111.147321 
L 405.885463 111.147321 
z
" style="fill:#9400d3;"/>
   </g>
   <g id="patch_36">
    <path clip-path="url(#pf80b5dd43b)" d="M 414.816321 279 
L 421.961008 279 
L 421.961008 112.820106 
L 414.816321 112.820106 
z
" style="fill:#9400d3;"/>
   </g>
   <g id="patch_37">
    <path clip-path="url(#pf80b5dd43b)" d="M 423.747179 279 
L 430.891865 279 
L 430.891865 114.272727 
L 423.747179 114.272727 
z
" style="fill:#9400d3;"/>
   </g>
   <g id="patch_38">
    <path clip-path="url(#pf80b5dd43b)" d="M 432.678037 279 
L 439.822723 279 
L 439.822723 114.272727 
L 432.678037 114.272727 
z
" style="fill:#ffa500;"/>
   </g>
   <g id="patch_39">
    <path clip-path="url(#pf80b5dd43b)" d="M 441.608895 279 
L 448.753581 279 
L 448.753581 115.486188 
L 441.608895 115.486188 
z
" style="fill:#4682b4;"/>
   </g>
   <g id="patch_40">
    <path clip-path="url(#pf80b5dd43b)" d="M 450.539753 279 
L 457.684439 279 
L 457.684439 115.511278 
L 450.539753 115.511278 
z
" style="fill:#9400d3;"/>
   </g>
   <g id="patch_41">
    <path clip-path="url(#pf80b5dd43b)" d="M 459.470611 279 
L 466.615297 279 
L 466.615297 116.123596 
L 459.470611 116.123596 
z
" style="fill:#9400d3;"/>
   </g>
   <g id="patch_42">
    <path clip-path="url(#pf80b5dd43b)" d="M 468.401468 279 
L 475.546155 279 
L 475.546155 117.534653 
L 468.401468 117.534653 
z
" style="fill:#9400d3;"/>
   </g>
   <g id="patch_43">
    <path clip-path="url(#pf80b5dd43b)" d="M 477.332326 279 
L 484.477013 279 
L 484.477013 118.917293 
L 477.332326 118.917293 
z
" style="fill:#9400d3;"/>
   </g>
   <g id="patch_44">
    <path clip-path="url(#pf80b5dd43b)" d="M 486.263184 279 
L 493.407871 279 
L 493.407871 119.471761 
L 486.263184 119.471761 
z
" style="fill:#ffa500;"/>
   </g>
   <g id="patch_45">
    <path clip-path="url(#pf80b5dd43b)" d="M 495.194042 279 
L 502.338728 279 
L 502.338728 121.160279 
L 495.194042 121.160279 
z
" style="fill:#9400d3;"/>
   </g>
   <g id="patch_46">
    <path clip-path="url(#pf80b5dd43b)" d="M 504.1249 279 
L 511.269586 279 
L 511.269586 124.23356 
L 504.1249 124.23356 
z
" style="fill:#9400d3;"/>
   </g>
   <g id="patch_47">
    <path clip-path="url(#pf80b5dd43b)" d="M 513.055758 279 
L 520.200444 279 
L 520.200444 127.34632 
L 513.055758 127.34632 
z
" style="fill:#9400d3;"/>
   </g>
   <g id="patch_48">
    <path clip-path="url(#pf80b5dd43b)" d="M 521.986616 279 
L 529.131302 279 
L 529.131302 129.609808 
L 521.986616 129.609808 
z
" style="fill:#9400d3;"/>
   </g>
   <g id="patch_49">
    <path clip-path="url(#pf80b5dd43b)" d="M 530.917474 279 
L 538.06216 279 
L 538.06216 132.081081 
L 530.917474 132.081081 
z
" style="fill:#9400d3;"/>
   </g>
   <g id="patch_50">
    <path clip-path="url(#pf80b5dd43b)" d="M 539.848331 279 
L 546.993018 279 
L 546.993018 133.574639 
L 539.848331 133.574639 
z
" style="fill:#9400d3;"/>
   </g>
   <g id="patch_51">
    <path clip-path="url(#pf80b5dd43b)" d="M 548.779189 279 
L 555.923876 279 
L 555.923876 134.484663 
L 548.779189 134.484663 
z
" style="fill:#9400d3;"/>
   </g>
   <g id="patch_52">
    <path clip-path="url(#pf80b5dd43b)" d="M 557.710047 279 
L 564.854734 279 
L 564.854734 134.521595 
L 557.710047 134.521595 
z
" style="fill:#4682b4;"/>
   </g>
   <g id="patch_53">
    <path clip-path="url(#pf80b5dd43b)" d="M 566.640905 279 
L 573.785591 279 
L 573.785591 136.364431 
L 566.640905 136.364431 
z
" style="fill:#ffa500;"/>
   </g>
   <g id="patch_54">
    <path clip-path="url(#pf80b5dd43b)" d="M 575.571763 279 
L 582.716449 279 
L 582.716449 136.628571 
L 575.571763 136.628571 
z
" style="fill:#9400d3;"/>
   </g>
   <g id="patch_55">
    <path clip-path="url(#pf80b5dd43b)" d="M 584.502621 279 
L 591.647307 279 
L 591.647307 143.206089 
L 584.502621 143.206089 
z
" style="fill:#4682b4;"/>
   </g>
   <g id="patch_56">
    <path clip-path="url(#pf80b5dd43b)" d="M 593.433479 279 
L 600.578165 279 
L 600.578165 154.437164 
L 593.433479 154.437164 
z
" style="fill:#9400d3;"/>
   </g>
   <g id="patch_57">
    <path clip-path="url(#pf80b5dd43b)" d="M 602.364337 279 
L 609.509023 279 
L 609.509023 165.25974 
L 602.364337 165.25974 
z
" style="fill:#9400d3;"/>
   </g>
   <g id="patch_58">
    <path clip-path="url(#pf80b5dd43b)" d="M 611.295194 279 
L 618.439881 279 
L 618.439881 182.681063 
L 611.295194 182.681063 
z
" style="fill:#4682b4;"/>
   </g>
   <g id="patch_59">
    <path clip-path="url(#pf80b5dd43b)" d="M 620.226052 279 
L 627.370739 279 
L 627.370739 186.242857 
L 620.226052 186.242857 
z
" style="fill:#9400d3;"/>
   </g>
   <g id="line2d_35">
    <path clip-path="url(#pf80b5dd43b)" d="M 94.734375 117.662616 
L 652.734375 117.662616 
" style="fill:none;stroke:#9400d3;stroke-dasharray:5.55,2.4;stroke-dashoffset:0;stroke-width:1.5;"/>
   </g>
   <g id="line2d_36">
    <path clip-path="url(#pf80b5dd43b)" d="M 94.734375 94.336755 
L 652.734375 94.336755 
" style="fill:none;stroke:#ffa500;stroke-dasharray:5.55,2.4;stroke-dashoffset:0;stroke-width:1.5;"/>
   </g>
   <g id="line2d_37">
    <path clip-path="url(#pf80b5dd43b)" d="M 94.734375 70.974666 
L 652.734375 70.974666 
" style="fill:none;stroke:#4682b4;stroke-dasharray:5.55,2.4;stroke-dashoffset:0;stroke-width:1.5;"/>
   </g>
   <g id="line2d_38">
    <path clip-path="url(#pf80b5dd43b)" d="M 94.734375 93.911004 
L 652.734375 93.911004 
" style="fill:none;stroke:#000000;stroke-dasharray:5.55,2.4;stroke-dashoffset:0;stroke-width:1.5;"/>
   </g>
   <g id="patch_60">
    <path d="M 94.734375 279 
L 94.734375 7.2 
" style="fill:none;stroke:#000000;stroke-linecap:square;stroke-linejoin:miter;stroke-width:0.8;"/>
   </g>
   <g id="patch_61">
    <path d="M 652.734375 279 
L 652.734375 7.2 
" style="fill:none;stroke:#000000;stroke-linecap:square;stroke-linejoin:miter;stroke-width:0.8;"/>
   </g>
   <g id="patch_62">
    <path d="M 94.734375 279 
L 652.734375 279 
" style="fill:none;stroke:#000000;stroke-linecap:square;stroke-linejoin:miter;stroke-width:0.8;"/>
   </g>
   <g id="patch_63">
    <path d="M 94.734375 7.2 
L 652.734375 7.2 
" style="fill:none;stroke:#000000;stroke-linecap:square;stroke-linejoin:miter;stroke-width:0.8;"/>
   </g>
   <g id="legend_1">
    <g id="patch_64">
     <path d="M 526.019063 87.91 
L 642.934375 87.91 
Q 645.734375 87.91 645.734375 85.11 
L 645.734375 17 
Q 645.734375 14.2 642.934375 14.2 
L 526.019063 14.2 
Q 523.219063 14.2 523.219063 17 
L 523.219063 85.11 
Q 523.219063 87.91 526.019063 87.91 
z
" style="fill:#ffffff;opacity:0.8;stroke:#cccccc;stroke-linejoin:miter;"/>
    </g>
    <g id="patch_65">
     <path d="M 528.819063 35.97 
L 548.419063 35.97 
L 548.419063 19.8 
L 528.819063 19.8 
z
" style="fill:#4682b4;stroke:#000000;stroke-linejoin:miter;"/>
    </g>
    <g id="text_20">
     <text style="font-family:DejaVu Sans;font-size:14px;font-stretch:normal;font-style:normal;font-weight:normal;text-anchor:start;" transform="rotate(-0, 559.619063, 32.54)" x="559.619063" y="32.54">Healthy</text>
    </g>
    <g id="patch_66">
     <path d="M 528.819063 59.14 
L 548.419063 59.14 
L 548.419063 42.97 
L 528.819063 42.97 
z
" style="fill:#ffa500;stroke:#000000;stroke-linejoin:miter;"/>
    </g>
    <g id="text_21">
     <text style="font-family:DejaVu Sans;font-size:14px;font-stretch:normal;font-style:normal;font-weight:normal;text-anchor:start;" transform="rotate(-0, 559.619063, 55.71)" x="559.619063" y="55.71">Nonhealthy</text>
    </g>
    <g id="patch_67">
     <path d="M 528.819063 82.31 
L 548.419063 82.31 
L 548.419063 66.14 
L 528.819063 66.14 
z
" style="fill:#9400d3;stroke:#000000;stroke-linejoin:miter;"/>
    </g>
    <g id="text_22">
     <text style="font-family:DejaVu Sans;font-size:14px;font-stretch:normal;font-style:normal;font-weight:normal;text-anchor:start;" transform="rotate(-0, 559.619063, 78.88)" x="559.619063" y="78.88">Both</text>
    </g>
   </g>
  </g>
 </g>
 <defs>
  <clipPath id="pf80b5dd43b">
   <rect height="271.8" width="558" x="94.734375" y="7.2"/>
  </clipPath>
 </defs>
</svg>
