<?xml version="1.0" encoding="utf-8" standalone="no"?>
<!DOCTYPE svg PUBLIC "-//W3C//DTD SVG 1.1//EN"
  "http://www.w3.org/Graphics/SVG/1.1/DTD/svg11.dtd">
<svg height="335.9125pt" version="1.1" viewBox="0 0 659.934375 335.9125" width="659.934375pt" xmlns="http://www.w3.org/2000/svg" xmlns:xlink="http://www.w3.org/1999/xlink">
 <metadata>
  <rdf:RDF xmlns:cc="http://creativecommons.org/ns#" xmlns:dc="http://purl.org/dc/elements/1.1/" xmlns:rdf="http://www.w3.org/1999/02/22-rdf-syntax-ns#">
   <cc:Work>
    <dc:type rdf:resource="http://purl.org/dc/dcmitype/StillImage"/>
    <dc:date>2022-09-25T19:37:45.978371</dc:date>
    <dc:format>image/svg+xml</dc:format>
    <dc:creator>
     <cc:Agent>
      <dc:title>Matplotlib v3.4.3, https://matplotlib.org/</dc:title>
     </cc:Agent>
    </dc:creator>
   </cc:Work>
  </rdf:RDF>
 </metadata>
 <defs>
  <style type="text/css">*{stroke-linecap:butt;stroke-linejoin:round;}</style>
 </defs>
 <g id="figure_1">
  <g id="patch_1">
   <path d="M 0 335.9125 
L 659.934375 335.9125 
L 659.934375 0 
L 0 0 
z
" style="fill:none;"/>
  </g>
  <g id="axes_1">
   <g id="patch_2">
    <path d="M 94.734375 279 
L 652.734375 279 
L 652.734375 7.2 
L 94.734375 7.2 
z
" style="fill:#ffffff;"/>
   </g>
   <g id="matplotlib.axis_1">
    <g id="xtick_1">
     <g id="line2d_1">
      <path clip-path="url(#p09169034f2)" d="M 123.670355 279 
L 123.670355 7.2 
" style="fill:none;stroke:#b0b0b0;stroke-dasharray:1.85,0.8;stroke-dashoffset:0;stroke-width:0.5;"/>
     </g>
     <g id="line2d_2">
      <defs>
       <path d="M 0 0 
L 0 3.5 
" id="m9d8561924c" style="stroke:#000000;stroke-width:0.8;"/>
      </defs>
      <g>
       <use style="stroke:#000000;stroke-width:0.8;" x="123.670355" xlink:href="#m9d8561924c" y="279"/>
      </g>
     </g>
     <g id="text_1">
      <text style="font-family:DejaVu Sans;font-size:20px;font-stretch:normal;font-style:normal;font-weight:normal;text-anchor:middle;" transform="rotate(-0, 123.670355, 301.196875)" x="123.670355" y="301.196875">0</text>
     </g>
    </g>
    <g id="xtick_2">
     <g id="line2d_3">
      <path clip-path="url(#p09169034f2)" d="M 212.978933 279 
L 212.978933 7.2 
" style="fill:none;stroke:#b0b0b0;stroke-dasharray:1.85,0.8;stroke-dashoffset:0;stroke-width:0.5;"/>
     </g>
     <g id="line2d_4">
      <g>
       <use style="stroke:#000000;stroke-width:0.8;" x="212.978933" xlink:href="#m9d8561924c" y="279"/>
      </g>
     </g>
     <g id="text_2">
      <text style="font-family:DejaVu Sans;font-size:20px;font-stretch:normal;font-style:normal;font-weight:normal;text-anchor:middle;" transform="rotate(-0, 212.978933, 301.196875)" x="212.978933" y="301.196875">10</text>
     </g>
    </g>
    <g id="xtick_3">
     <g id="line2d_5">
      <path clip-path="url(#p09169034f2)" d="M 302.287512 279 
L 302.287512 7.2 
" style="fill:none;stroke:#b0b0b0;stroke-dasharray:1.85,0.8;stroke-dashoffset:0;stroke-width:0.5;"/>
     </g>
     <g id="line2d_6">
      <g>
       <use style="stroke:#000000;stroke-width:0.8;" x="302.287512" xlink:href="#m9d8561924c" y="279"/>
      </g>
     </g>
     <g id="text_3">
      <text style="font-family:DejaVu Sans;font-size:20px;font-stretch:normal;font-style:normal;font-weight:normal;text-anchor:middle;" transform="rotate(-0, 302.287512, 301.196875)" x="302.287512" y="301.196875">20</text>
     </g>
    </g>
    <g id="xtick_4">
     <g id="line2d_7">
      <path clip-path="url(#p09169034f2)" d="M 391.596091 279 
L 391.596091 7.2 
" style="fill:none;stroke:#b0b0b0;stroke-dasharray:1.85,0.8;stroke-dashoffset:0;stroke-width:0.5;"/>
     </g>
     <g id="line2d_8">
      <g>
       <use style="stroke:#000000;stroke-width:0.8;" x="391.596091" xlink:href="#m9d8561924c" y="279"/>
      </g>
     </g>
     <g id="text_4">
      <text style="font-family:DejaVu Sans;font-size:20px;font-stretch:normal;font-style:normal;font-weight:normal;text-anchor:middle;" transform="rotate(-0, 391.596091, 301.196875)" x="391.596091" y="301.196875">30</text>
     </g>
    </g>
    <g id="xtick_5">
     <g id="line2d_9">
      <path clip-path="url(#p09169034f2)" d="M 480.904669 279 
L 480.904669 7.2 
" style="fill:none;stroke:#b0b0b0;stroke-dasharray:1.85,0.8;stroke-dashoffset:0;stroke-width:0.5;"/>
     </g>
     <g id="line2d_10">
      <g>
       <use style="stroke:#000000;stroke-width:0.8;" x="480.904669" xlink:href="#m9d8561924c" y="279"/>
      </g>
     </g>
     <g id="text_5">
      <text style="font-family:DejaVu Sans;font-size:20px;font-stretch:normal;font-style:normal;font-weight:normal;text-anchor:middle;" transform="rotate(-0, 480.904669, 301.196875)" x="480.904669" y="301.196875">40</text>
     </g>
    </g>
    <g id="xtick_6">
     <g id="line2d_11">
      <path clip-path="url(#p09169034f2)" d="M 570.213248 279 
L 570.213248 7.2 
" style="fill:none;stroke:#b0b0b0;stroke-dasharray:1.85,0.8;stroke-dashoffset:0;stroke-width:0.5;"/>
     </g>
     <g id="line2d_12">
      <g>
       <use style="stroke:#000000;stroke-width:0.8;" x="570.213248" xlink:href="#m9d8561924c" y="279"/>
      </g>
     </g>
     <g id="text_6">
      <text style="font-family:DejaVu Sans;font-size:20px;font-stretch:normal;font-style:normal;font-weight:normal;text-anchor:middle;" transform="rotate(-0, 570.213248, 301.196875)" x="570.213248" y="301.196875">50</text>
     </g>
    </g>
    <g id="text_7">
     <text style="font-family:DejaVu Sans;font-size:20px;font-stretch:normal;font-style:normal;font-weight:normal;text-anchor:middle;" transform="rotate(-0, 373.734375, 324.553125)" x="373.734375" y="324.553125">Rank (study)</text>
    </g>
   </g>
   <g id="matplotlib.axis_2">
    <g id="ytick_1">
     <g id="line2d_13">
      <path clip-path="url(#p09169034f2)" d="M 94.734375 279 
L 652.734375 279 
" style="fill:none;stroke:#b0b0b0;stroke-dasharray:2.775,1.2;stroke-dashoffset:0;stroke-width:0.75;"/>
     </g>
     <g id="line2d_14">
      <defs>
       <path d="M 0 0 
L -3.5 0 
" id="m0ac4f3ff62" style="stroke:#000000;stroke-width:0.8;"/>
      </defs>
      <g>
       <use style="stroke:#000000;stroke-width:0.8;" x="94.734375" xlink:href="#m0ac4f3ff62" y="279"/>
      </g>
     </g>
     <g id="text_8">
      <text style="font-family:DejaVu Sans;font-size:20px;font-stretch:normal;font-style:normal;font-weight:normal;text-anchor:end;" transform="rotate(-0, 87.734375, 286.598438)" x="87.734375" y="286.598438">0%</text>
     </g>
    </g>
    <g id="ytick_2">
     <g id="line2d_15">
      <path clip-path="url(#p09169034f2)" d="M 94.734375 253.114286 
L 652.734375 253.114286 
" style="fill:none;stroke:#b0b0b0;stroke-dasharray:2.775,1.2;stroke-dashoffset:0;stroke-width:0.75;"/>
     </g>
     <g id="line2d_16">
      <g>
       <use style="stroke:#000000;stroke-width:0.8;" x="94.734375" xlink:href="#m0ac4f3ff62" y="253.114286"/>
      </g>
     </g>
     <g id="text_9">
      <text style="font-family:DejaVu Sans;font-size:20px;font-stretch:normal;font-style:normal;font-weight:normal;text-anchor:end;" transform="rotate(-0, 87.734375, 260.712723)" x="87.734375" y="260.712723">10%</text>
     </g>
    </g>
    <g id="ytick_3">
     <g id="line2d_17">
      <path clip-path="url(#p09169034f2)" d="M 94.734375 227.228571 
L 652.734375 227.228571 
" style="fill:none;stroke:#b0b0b0;stroke-dasharray:2.775,1.2;stroke-dashoffset:0;stroke-width:0.75;"/>
     </g>
     <g id="line2d_18">
      <g>
       <use style="stroke:#000000;stroke-width:0.8;" x="94.734375" xlink:href="#m0ac4f3ff62" y="227.228571"/>
      </g>
     </g>
     <g id="text_10">
      <text style="font-family:DejaVu Sans;font-size:20px;font-stretch:normal;font-style:normal;font-weight:normal;text-anchor:end;" transform="rotate(-0, 87.734375, 234.827009)" x="87.734375" y="234.827009">20%</text>
     </g>
    </g>
    <g id="ytick_4">
     <g id="line2d_19">
      <path clip-path="url(#p09169034f2)" d="M 94.734375 201.342857 
L 652.734375 201.342857 
" style="fill:none;stroke:#b0b0b0;stroke-dasharray:2.775,1.2;stroke-dashoffset:0;stroke-width:0.75;"/>
     </g>
     <g id="line2d_20">
      <g>
       <use style="stroke:#000000;stroke-width:0.8;" x="94.734375" xlink:href="#m0ac4f3ff62" y="201.342857"/>
      </g>
     </g>
     <g id="text_11">
      <text style="font-family:DejaVu Sans;font-size:20px;font-stretch:normal;font-style:normal;font-weight:normal;text-anchor:end;" transform="rotate(-0, 87.734375, 208.941295)" x="87.734375" y="208.941295">30%</text>
     </g>
    </g>
    <g id="ytick_5">
     <g id="line2d_21">
      <path clip-path="url(#p09169034f2)" d="M 94.734375 175.457143 
L 652.734375 175.457143 
" style="fill:none;stroke:#b0b0b0;stroke-dasharray:2.775,1.2;stroke-dashoffset:0;stroke-width:0.75;"/>
     </g>
     <g id="line2d_22">
      <g>
       <use style="stroke:#000000;stroke-width:0.8;" x="94.734375" xlink:href="#m0ac4f3ff62" y="175.457143"/>
      </g>
     </g>
     <g id="text_12">
      <text style="font-family:DejaVu Sans;font-size:20px;font-stretch:normal;font-style:normal;font-weight:normal;text-anchor:end;" transform="rotate(-0, 87.734375, 183.05558)" x="87.734375" y="183.05558">40%</text>
     </g>
    </g>
    <g id="ytick_6">
     <g id="line2d_23">
      <path clip-path="url(#p09169034f2)" d="M 94.734375 149.571429 
L 652.734375 149.571429 
" style="fill:none;stroke:#b0b0b0;stroke-dasharray:2.775,1.2;stroke-dashoffset:0;stroke-width:0.75;"/>
     </g>
     <g id="line2d_24">
      <g>
       <use style="stroke:#000000;stroke-width:0.8;" x="94.734375" xlink:href="#m0ac4f3ff62" y="149.571429"/>
      </g>
     </g>
     <g id="text_13">
      <text style="font-family:DejaVu Sans;font-size:20px;font-stretch:normal;font-style:normal;font-weight:normal;text-anchor:end;" transform="rotate(-0, 87.734375, 157.169866)" x="87.734375" y="157.169866">50%</text>
     </g>
    </g>
    <g id="ytick_7">
     <g id="line2d_25">
      <path clip-path="url(#p09169034f2)" d="M 94.734375 123.685714 
L 652.734375 123.685714 
" style="fill:none;stroke:#b0b0b0;stroke-dasharray:2.775,1.2;stroke-dashoffset:0;stroke-width:0.75;"/>
     </g>
     <g id="line2d_26">
      <g>
       <use style="stroke:#000000;stroke-width:0.8;" x="94.734375" xlink:href="#m0ac4f3ff62" y="123.685714"/>
      </g>
     </g>
     <g id="text_14">
      <text style="font-family:DejaVu Sans;font-size:20px;font-stretch:normal;font-style:normal;font-weight:normal;text-anchor:end;" transform="rotate(-0, 87.734375, 131.284152)" x="87.734375" y="131.284152">60%</text>
     </g>
    </g>
    <g id="ytick_8">
     <g id="line2d_27">
      <path clip-path="url(#p09169034f2)" d="M 94.734375 97.8 
L 652.734375 97.8 
" style="fill:none;stroke:#b0b0b0;stroke-dasharray:2.775,1.2;stroke-dashoffset:0;stroke-width:0.75;"/>
     </g>
     <g id="line2d_28">
      <g>
       <use style="stroke:#000000;stroke-width:0.8;" x="94.734375" xlink:href="#m0ac4f3ff62" y="97.8"/>
      </g>
     </g>
     <g id="text_15">
      <text style="font-family:DejaVu Sans;font-size:20px;font-stretch:normal;font-style:normal;font-weight:normal;text-anchor:end;" transform="rotate(-0, 87.734375, 105.398438)" x="87.734375" y="105.398438">70%</text>
     </g>
    </g>
    <g id="ytick_9">
     <g id="line2d_29">
      <path clip-path="url(#p09169034f2)" d="M 94.734375 71.914286 
L 652.734375 71.914286 
" style="fill:none;stroke:#b0b0b0;stroke-dasharray:2.775,1.2;stroke-dashoffset:0;stroke-width:0.75;"/>
     </g>
     <g id="line2d_30">
      <g>
       <use style="stroke:#000000;stroke-width:0.8;" x="94.734375" xlink:href="#m0ac4f3ff62" y="71.914286"/>
      </g>
     </g>
     <g id="text_16">
      <text style="font-family:DejaVu Sans;font-size:20px;font-stretch:normal;font-style:normal;font-weight:normal;text-anchor:end;" transform="rotate(-0, 87.734375, 79.512723)" x="87.734375" y="79.512723">80%</text>
     </g>
    </g>
    <g id="ytick_10">
     <g id="line2d_31">
      <path clip-path="url(#p09169034f2)" d="M 94.734375 46.028571 
L 652.734375 46.028571 
" style="fill:none;stroke:#b0b0b0;stroke-dasharray:2.775,1.2;stroke-dashoffset:0;stroke-width:0.75;"/>
     </g>
     <g id="line2d_32">
      <g>
       <use style="stroke:#000000;stroke-width:0.8;" x="94.734375" xlink:href="#m0ac4f3ff62" y="46.028571"/>
      </g>
     </g>
     <g id="text_17">
      <text style="font-family:DejaVu Sans;font-size:20px;font-stretch:normal;font-style:normal;font-weight:normal;text-anchor:end;" transform="rotate(-0, 87.734375, 53.627009)" x="87.734375" y="53.627009">90%</text>
     </g>
    </g>
    <g id="ytick_11">
     <g id="line2d_33">
      <path clip-path="url(#p09169034f2)" d="M 94.734375 20.142857 
L 652.734375 20.142857 
" style="fill:none;stroke:#b0b0b0;stroke-dasharray:2.775,1.2;stroke-dashoffset:0;stroke-width:0.75;"/>
     </g>
     <g id="line2d_34">
      <g>
       <use style="stroke:#000000;stroke-width:0.8;" x="94.734375" xlink:href="#m0ac4f3ff62" y="20.142857"/>
      </g>
     </g>
     <g id="text_18">
      <text style="font-family:DejaVu Sans;font-size:20px;font-stretch:normal;font-style:normal;font-weight:normal;text-anchor:end;" transform="rotate(-0, 87.734375, 27.741295)" x="87.734375" y="27.741295">100%</text>
     </g>
    </g>
    <g id="text_19">
     <text style="font-family:DejaVu Sans;font-size:20px;font-stretch:normal;font-style:normal;font-weight:normal;text-anchor:middle;" transform="rotate(-90, 22.396875, 143.1)" x="22.396875" y="143.1">Study Balanced Accuracy</text>
    </g>
   </g>
   <g id="patch_3">
    <path clip-path="url(#p09169034f2)" d="M 120.098011 279 
L 127.242698 279 
L 127.242698 20.142857 
L 120.098011 20.142857 
z
" style="fill:#4682b4;"/>
   </g>
   <g id="patch_4">
    <path clip-path="url(#p09169034f2)" d="M 129.028869 279 
L 136.173556 279 
L 136.173556 20.142857 
L 129.028869 20.142857 
z
" style="fill:#4682b4;"/>
   </g>
   <g id="patch_5">
    <path clip-path="url(#p09169034f2)" d="M 137.959727 279 
L 145.104413 279 
L 145.104413 20.142857 
L 137.959727 20.142857 
z
" style="fill:#4682b4;"/>
   </g>
   <g id="patch_6">
    <path clip-path="url(#p09169034f2)" d="M 146.890585 279 
L 154.035271 279 
L 154.035271 20.142857 
L 146.890585 20.142857 
z
" style="fill:#ffa500;"/>
   </g>
   <g id="patch_7">
    <path clip-path="url(#p09169034f2)" d="M 155.821443 279 
L 162.966129 279 
L 162.966129 20.142857 
L 155.821443 20.142857 
z
" style="fill:#4682b4;"/>
   </g>
   <g id="patch_8">
    <path clip-path="url(#p09169034f2)" d="M 164.752301 279 
L 171.896987 279 
L 171.896987 20.142857 
L 164.752301 20.142857 
z
" style="fill:#4682b4;"/>
   </g>
   <g id="patch_9">
    <path clip-path="url(#p09169034f2)" d="M 173.683159 279 
L 180.827845 279 
L 180.827845 20.142857 
L 173.683159 20.142857 
z
" style="fill:#4682b4;"/>
   </g>
   <g id="patch_10">
    <path clip-path="url(#p09169034f2)" d="M 182.614016 279 
L 189.758703 279 
L 189.758703 20.142857 
L 182.614016 20.142857 
z
" style="fill:#4682b4;"/>
   </g>
   <g id="patch_11">
    <path clip-path="url(#p09169034f2)" d="M 191.544874 279 
L 198.689561 279 
L 198.689561 22.608163 
L 191.544874 22.608163 
z
" style="fill:#4682b4;"/>
   </g>
   <g id="patch_12">
    <path clip-path="url(#p09169034f2)" d="M 200.475732 279 
L 207.620419 279 
L 207.620419 23.338624 
L 200.475732 23.338624 
z
" style="fill:#4682b4;"/>
   </g>
   <g id="patch_13">
    <path clip-path="url(#p09169034f2)" d="M 209.40659 279 
L 216.551276 279 
L 216.551276 23.461538 
L 209.40659 23.461538 
z
" style="fill:#4682b4;"/>
   </g>
   <g id="patch_14">
    <path clip-path="url(#p09169034f2)" d="M 218.337448 279 
L 225.482134 279 
L 225.482134 24.580408 
L 218.337448 24.580408 
z
" style="fill:#4682b4;"/>
   </g>
   <g id="patch_15">
    <path clip-path="url(#p09169034f2)" d="M 227.268306 279 
L 234.412992 279 
L 234.412992 25.045455 
L 227.268306 25.045455 
z
" style="fill:#4682b4;"/>
   </g>
   <g id="patch_16">
    <path clip-path="url(#p09169034f2)" d="M 236.199164 279 
L 243.34385 279 
L 243.34385 28.771429 
L 236.199164 28.771429 
z
" style="fill:#4682b4;"/>
   </g>
   <g id="patch_17">
    <path clip-path="url(#p09169034f2)" d="M 245.130022 279 
L 252.274708 279 
L 252.274708 29.499139 
L 245.130022 29.499139 
z
" style="fill:#ffa500;"/>
   </g>
   <g id="patch_18">
    <path clip-path="url(#p09169034f2)" d="M 254.060879 279 
L 261.205566 279 
L 261.205566 30.928571 
L 254.060879 30.928571 
z
" style="fill:#ffa500;"/>
   </g>
   <g id="patch_19">
    <path clip-path="url(#p09169034f2)" d="M 262.991737 279 
L 270.136424 279 
L 270.136424 31.733475 
L 262.991737 31.733475 
z
" style="fill:#4682b4;"/>
   </g>
   <g id="patch_20">
    <path clip-path="url(#p09169034f2)" d="M 271.922595 279 
L 279.067282 279 
L 279.067282 32.469388 
L 271.922595 32.469388 
z
" style="fill:#4682b4;"/>
   </g>
   <g id="patch_21">
    <path clip-path="url(#p09169034f2)" d="M 280.853453 279 
L 287.998139 279 
L 287.998139 33.766917 
L 280.853453 33.766917 
z
" style="fill:#4682b4;"/>
   </g>
   <g id="patch_22">
    <path clip-path="url(#p09169034f2)" d="M 289.784311 279 
L 296.928997 279 
L 296.928997 38.308271 
L 289.784311 38.308271 
z
" style="fill:#4682b4;"/>
   </g>
   <g id="patch_23">
    <path clip-path="url(#p09169034f2)" d="M 298.715169 279 
L 305.859855 279 
L 305.859855 40.687075 
L 298.715169 40.687075 
z
" style="fill:#9400d3;"/>
   </g>
   <g id="patch_24">
    <path clip-path="url(#p09169034f2)" d="M 307.646027 279 
L 314.790713 279 
L 314.790713 40.851429 
L 307.646027 40.851429 
z
" style="fill:#4682b4;"/>
   </g>
   <g id="patch_25">
    <path clip-path="url(#p09169034f2)" d="M 316.576885 279 
L 323.721571 279 
L 323.721571 41.974182 
L 316.576885 41.974182 
z
" style="fill:#4682b4;"/>
   </g>
   <g id="patch_26">
    <path clip-path="url(#p09169034f2)" d="M 325.507742 279 
L 332.652429 279 
L 332.652429 54.331536 
L 325.507742 54.331536 
z
" style="fill:#4682b4;"/>
   </g>
   <g id="patch_27">
    <path clip-path="url(#p09169034f2)" d="M 334.4386 279 
L 341.583287 279 
L 341.583287 63.285714 
L 334.4386 63.285714 
z
" style="fill:#4682b4;"/>
   </g>
   <g id="patch_28">
    <path clip-path="url(#p09169034f2)" d="M 343.369458 279 
L 350.514145 279 
L 350.514145 73.436975 
L 343.369458 73.436975 
z
" style="fill:#ffa500;"/>
   </g>
   <g id="patch_29">
    <path clip-path="url(#p09169034f2)" d="M 352.300316 279 
L 359.445002 279 
L 359.445002 74.071429 
L 352.300316 74.071429 
z
" style="fill:#9400d3;"/>
   </g>
   <g id="patch_30">
    <path clip-path="url(#p09169034f2)" d="M 361.231174 279 
L 368.37586 279 
L 368.37586 74.124042 
L 361.231174 74.124042 
z
" style="fill:#9400d3;"/>
   </g>
   <g id="patch_31">
    <path clip-path="url(#p09169034f2)" d="M 370.162032 279 
L 377.306718 279 
L 377.306718 78.974026 
L 370.162032 78.974026 
z
" style="fill:#9400d3;"/>
   </g>
   <g id="patch_32">
    <path clip-path="url(#p09169034f2)" d="M 379.09289 279 
L 386.237576 279 
L 386.237576 80.075299 
L 379.09289 80.075299 
z
" style="fill:#9400d3;"/>
   </g>
   <g id="patch_33">
    <path clip-path="url(#p09169034f2)" d="M 388.023748 279 
L 395.168434 279 
L 395.168434 84.857143 
L 388.023748 84.857143 
z
" style="fill:#9400d3;"/>
   </g>
   <g id="patch_34">
    <path clip-path="url(#p09169034f2)" d="M 396.954605 279 
L 404.099292 279 
L 404.099292 87.253968 
L 396.954605 87.253968 
z
" style="fill:#ffa500;"/>
   </g>
   <g id="patch_35">
    <path clip-path="url(#p09169034f2)" d="M 405.885463 279 
L 413.03015 279 
L 413.03015 92.047619 
L 405.885463 92.047619 
z
" style="fill:#9400d3;"/>
   </g>
   <g id="patch_36">
    <path clip-path="url(#p09169034f2)" d="M 414.816321 279 
L 421.961008 279 
L 421.961008 92.047619 
L 414.816321 92.047619 
z
" style="fill:#4682b4;"/>
   </g>
   <g id="patch_37">
    <path clip-path="url(#p09169034f2)" d="M 423.747179 279 
L 430.891865 279 
L 430.891865 95.221221 
L 423.747179 95.221221 
z
" style="fill:#9400d3;"/>
   </g>
   <g id="patch_38">
    <path clip-path="url(#p09169034f2)" d="M 432.678037 279 
L 439.822723 279 
L 439.822723 97.8 
L 432.678037 97.8 
z
" style="fill:#4682b4;"/>
   </g>
   <g id="patch_39">
    <path clip-path="url(#p09169034f2)" d="M 441.608895 279 
L 448.753581 279 
L 448.753581 100.388571 
L 441.608895 100.388571 
z
" style="fill:#9400d3;"/>
   </g>
   <g id="patch_40">
    <path clip-path="url(#p09169034f2)" d="M 450.539753 279 
L 457.684439 279 
L 457.684439 102.201737 
L 450.539753 102.201737 
z
" style="fill:#9400d3;"/>
   </g>
   <g id="patch_41">
    <path clip-path="url(#p09169034f2)" d="M 459.470611 279 
L 466.615297 279 
L 466.615297 104.597969 
L 459.470611 104.597969 
z
" style="fill:#9400d3;"/>
   </g>
   <g id="patch_42">
    <path clip-path="url(#p09169034f2)" d="M 468.401468 279 
L 475.546155 279 
L 475.546155 106.233355 
L 468.401468 106.233355 
z
" style="fill:#9400d3;"/>
   </g>
   <g id="patch_43">
    <path clip-path="url(#p09169034f2)" d="M 477.332326 279 
L 484.477013 279 
L 484.477013 106.428571 
L 477.332326 106.428571 
z
" style="fill:#4682b4;"/>
   </g>
   <g id="patch_44">
    <path clip-path="url(#p09169034f2)" d="M 486.263184 279 
L 493.407871 279 
L 493.407871 107.063025 
L 486.263184 107.063025 
z
" style="fill:#9400d3;"/>
   </g>
   <g id="patch_45">
    <path clip-path="url(#p09169034f2)" d="M 495.194042 279 
L 502.338728 279 
L 502.338728 120.266846 
L 495.194042 120.266846 
z
" style="fill:#9400d3;"/>
   </g>
   <g id="patch_46">
    <path clip-path="url(#p09169034f2)" d="M 504.1249 279 
L 511.269586 279 
L 511.269586 125.891515 
L 504.1249 125.891515 
z
" style="fill:#9400d3;"/>
   </g>
   <g id="patch_47">
    <path clip-path="url(#p09169034f2)" d="M 513.055758 279 
L 520.200444 279 
L 520.200444 126.530298 
L 513.055758 126.530298 
z
" style="fill:#9400d3;"/>
   </g>
   <g id="patch_48">
    <path clip-path="url(#p09169034f2)" d="M 521.986616 279 
L 529.131302 279 
L 529.131302 128 
L 521.986616 128 
z
" style="fill:#9400d3;"/>
   </g>
   <g id="patch_49">
    <path clip-path="url(#p09169034f2)" d="M 530.917474 279 
L 538.06216 279 
L 538.06216 128 
L 530.917474 128 
z
" style="fill:#9400d3;"/>
   </g>
   <g id="patch_50">
    <path clip-path="url(#p09169034f2)" d="M 539.848331 279 
L 546.993018 279 
L 546.993018 129.135338 
L 539.848331 129.135338 
z
" style="fill:#4682b4;"/>
   </g>
   <g id="patch_51">
    <path clip-path="url(#p09169034f2)" d="M 548.779189 279 
L 555.923876 279 
L 555.923876 135.395918 
L 548.779189 135.395918 
z
" style="fill:#9400d3;"/>
   </g>
   <g id="patch_52">
    <path clip-path="url(#p09169034f2)" d="M 557.710047 279 
L 564.854734 279 
L 564.854734 136.628571 
L 557.710047 136.628571 
z
" style="fill:#9400d3;"/>
   </g>
   <g id="patch_53">
    <path clip-path="url(#p09169034f2)" d="M 566.640905 279 
L 573.785591 279 
L 573.785591 141.805714 
L 566.640905 141.805714 
z
" style="fill:#9400d3;"/>
   </g>
   <g id="patch_54">
    <path clip-path="url(#p09169034f2)" d="M 575.571763 279 
L 582.716449 279 
L 582.716449 143.3991 
L 575.571763 143.3991 
z
" style="fill:#9400d3;"/>
   </g>
   <g id="patch_55">
    <path clip-path="url(#p09169034f2)" d="M 584.502621 279 
L 591.647307 279 
L 591.647307 147.513628 
L 584.502621 147.513628 
z
" style="fill:#9400d3;"/>
   </g>
   <g id="patch_56">
    <path clip-path="url(#p09169034f2)" d="M 593.433479 279 
L 600.578165 279 
L 600.578165 149.571429 
L 593.433479 149.571429 
z
" style="fill:#9400d3;"/>
   </g>
   <g id="patch_57">
    <path clip-path="url(#p09169034f2)" d="M 602.364337 279 
L 609.509023 279 
L 609.509023 151.728571 
L 602.364337 151.728571 
z
" style="fill:#9400d3;"/>
   </g>
   <g id="patch_58">
    <path clip-path="url(#p09169034f2)" d="M 611.295194 279 
L 618.439881 279 
L 618.439881 168.061224 
L 611.295194 168.061224 
z
" style="fill:#ffa500;"/>
   </g>
   <g id="patch_59">
    <path clip-path="url(#p09169034f2)" d="M 620.226052 279 
L 627.370739 279 
L 627.370739 205.040816 
L 620.226052 205.040816 
z
" style="fill:#4682b4;"/>
   </g>
   <g id="line2d_35">
    <path clip-path="url(#p09169034f2)" d="M 94.734375 111.010964 
L 652.734375 111.010964 
" style="fill:none;stroke:#9400d3;stroke-dasharray:5.55,2.4;stroke-dashoffset:0;stroke-width:1.5;"/>
   </g>
   <g id="line2d_36">
    <path clip-path="url(#p09169034f2)" d="M 94.734375 68.220456 
L 652.734375 68.220456 
" style="fill:none;stroke:#ffa500;stroke-dasharray:5.55,2.4;stroke-dashoffset:0;stroke-width:1.5;"/>
   </g>
   <g id="line2d_37">
    <path clip-path="url(#p09169034f2)" d="M 94.734375 48.30688 
L 652.734375 48.30688 
" style="fill:none;stroke:#4682b4;stroke-dasharray:5.55,2.4;stroke-dashoffset:0;stroke-width:1.5;"/>
   </g>
   <g id="line2d_38">
    <path clip-path="url(#p09169034f2)" d="M 94.734375 77.904837 
L 652.734375 77.904837 
" style="fill:none;stroke:#000000;stroke-dasharray:5.55,2.4;stroke-dashoffset:0;stroke-width:1.5;"/>
   </g>
   <g id="patch_60">
    <path d="M 94.734375 279 
L 94.734375 7.2 
" style="fill:none;stroke:#000000;stroke-linecap:square;stroke-linejoin:miter;stroke-width:0.8;"/>
   </g>
   <g id="patch_61">
    <path d="M 652.734375 279 
L 652.734375 7.2 
" style="fill:none;stroke:#000000;stroke-linecap:square;stroke-linejoin:miter;stroke-width:0.8;"/>
   </g>
   <g id="patch_62">
    <path d="M 94.734375 279 
L 652.734375 279 
" style="fill:none;stroke:#000000;stroke-linecap:square;stroke-linejoin:miter;stroke-width:0.8;"/>
   </g>
   <g id="patch_63">
    <path d="M 94.734375 7.2 
L 652.734375 7.2 
" style="fill:none;stroke:#000000;stroke-linecap:square;stroke-linejoin:miter;stroke-width:0.8;"/>
   </g>
   <g id="legend_1">
    <g id="patch_64">
     <path d="M 526.019063 87.91 
L 642.934375 87.91 
Q 645.734375 87.91 645.734375 85.11 
L 645.734375 17 
Q 645.734375 14.2 642.934375 14.2 
L 526.019063 14.2 
Q 523.219063 14.2 523.219063 17 
L 523.219063 85.11 
Q 523.219063 87.91 526.019063 87.91 
z
" style="fill:#ffffff;opacity:0.8;stroke:#cccccc;stroke-linejoin:miter;"/>
    </g>
    <g id="patch_65">
     <path d="M 528.819063 35.97 
L 548.419063 35.97 
L 548.419063 19.8 
L 528.819063 19.8 
z
" style="fill:#4682b4;stroke:#000000;stroke-linejoin:miter;"/>
    </g>
    <g id="text_20">
     <text style="font-family:DejaVu Sans;font-size:14px;font-stretch:normal;font-style:normal;font-weight:normal;text-anchor:start;" transform="rotate(-0, 559.619063, 32.54)" x="559.619063" y="32.54">Healthy</text>
    </g>
    <g id="patch_66">
     <path d="M 528.819063 59.14 
L 548.419063 59.14 
L 548.419063 42.97 
L 528.819063 42.97 
z
" style="fill:#ffa500;stroke:#000000;stroke-linejoin:miter;"/>
    </g>
    <g id="text_21">
     <text style="font-family:DejaVu Sans;font-size:14px;font-stretch:normal;font-style:normal;font-weight:normal;text-anchor:start;" transform="rotate(-0, 559.619063, 55.71)" x="559.619063" y="55.71">Nonhealthy</text>
    </g>
    <g id="patch_67">
     <path d="M 528.819063 82.31 
L 548.419063 82.31 
L 548.419063 66.14 
L 528.819063 66.14 
z
" style="fill:#9400d3;stroke:#000000;stroke-linejoin:miter;"/>
    </g>
    <g id="text_22">
     <text style="font-family:DejaVu Sans;font-size:14px;font-stretch:normal;font-style:normal;font-weight:normal;text-anchor:start;" transform="rotate(-0, 559.619063, 78.88)" x="559.619063" y="78.88">Both</text>
    </g>
   </g>
  </g>
 </g>
 <defs>
  <clipPath id="p09169034f2">
   <rect height="271.8" width="558" x="94.734375" y="7.2"/>
  </clipPath>
 </defs>
</svg>
