<?xml version="1.0" encoding="utf-8" standalone="no"?>
<!DOCTYPE svg PUBLIC "-//W3C//DTD SVG 1.1//EN"
  "http://www.w3.org/Graphics/SVG/1.1/DTD/svg11.dtd">
<svg height="720pt" version="1.1" viewBox="0 0 720 720" width="720pt" xmlns="http://www.w3.org/2000/svg" xmlns:xlink="http://www.w3.org/1999/xlink">
 <metadata>
  <rdf:RDF xmlns:cc="http://creativecommons.org/ns#" xmlns:dc="http://purl.org/dc/elements/1.1/" xmlns:rdf="http://www.w3.org/1999/02/22-rdf-syntax-ns#">
   <cc:Work>
    <dc:type rdf:resource="http://purl.org/dc/dcmitype/StillImage"/>
    <dc:date>2022-08-25T14:49:08.590892</dc:date>
    <dc:format>image/svg+xml</dc:format>
    <dc:creator>
     <cc:Agent>
      <dc:title>Matplotlib v3.4.3, https://matplotlib.org/</dc:title>
     </cc:Agent>
    </dc:creator>
   </cc:Work>
  </rdf:RDF>
 </metadata>
 <defs>
  <style type="text/css">*{stroke-linecap:butt;stroke-linejoin:round;}</style>
 </defs>
 <g id="figure_1">
  <g id="patch_1">
   <path d="M 0 720 
L 720 720 
L 720 0 
L 0 0 
z
" style="fill:none;"/>
  </g>
  <g id="axes_1">
   <g id="patch_2">
    <path d="M 90 630 
L 648 630 
L 648 86.4 
L 90 86.4 
z
" style="fill:#ffffff;"/>
   </g>
   <g id="line2d_1">
    <path clip-path="url(#p982391bd17)" d="M 229.5 218.39396 
L 508.5 348.632463 
" style="fill:none;stroke:#808080;stroke-linecap:square;stroke-width:1.5;"/>
   </g>
   <g id="line2d_2">
    <path clip-path="url(#p982391bd17)" d="M 229.5 487.037773 
L 508.5 521.295895 
" style="fill:none;stroke:#808080;stroke-linecap:square;stroke-width:1.5;"/>
   </g>
   <g id="line2d_3">
    <path clip-path="url(#p982391bd17)" d="M 229.5 348.441599 
L 508.5 342.815525 
" style="fill:none;stroke:#808080;stroke-linecap:square;stroke-width:1.5;"/>
   </g>
   <g id="line2d_4">
    <path clip-path="url(#p982391bd17)" d="M 229.5 433.982829 
L 508.5 439.903371 
" style="fill:none;stroke:#808080;stroke-linecap:square;stroke-width:1.5;"/>
   </g>
   <g id="line2d_5">
    <path clip-path="url(#p982391bd17)" d="M 229.5 311.170297 
L 508.5 555.779909 
" style="fill:none;stroke:#808080;stroke-linecap:square;stroke-width:1.5;"/>
   </g>
   <g id="line2d_6">
    <path clip-path="url(#p982391bd17)" d="M 229.5 428.101845 
L 508.5 345.44167 
" style="fill:none;stroke:#808080;stroke-linecap:square;stroke-width:1.5;"/>
   </g>
   <g id="line2d_7">
    <path clip-path="url(#p982391bd17)" d="M 229.5 331.642687 
L 508.5 265.682088 
" style="fill:none;stroke:#808080;stroke-linecap:square;stroke-width:1.5;"/>
   </g>
   <g id="line2d_8">
    <path clip-path="url(#p982391bd17)" d="M 229.5 340.921728 
L 508.5 219.551569 
" style="fill:none;stroke:#808080;stroke-linecap:square;stroke-width:1.5;"/>
   </g>
   <g id="line2d_9">
    <path clip-path="url(#p982391bd17)" d="M 229.5 192.506988 
L 508.5 186.354408 
" style="fill:none;stroke:#808080;stroke-linecap:square;stroke-width:1.5;"/>
   </g>
   <g id="line2d_10">
    <path clip-path="url(#p982391bd17)" d="M 229.5 239.528413 
L 508.5 316.091186 
" style="fill:none;stroke:#808080;stroke-linecap:square;stroke-width:1.5;"/>
   </g>
   <g id="line2d_11">
    <path clip-path="url(#p982391bd17)" d="M 229.5 113.136439 
L 508.5 328.448142 
" style="fill:none;stroke:#808080;stroke-linecap:square;stroke-width:1.5;"/>
   </g>
   <g id="line2d_12">
    <path clip-path="url(#p982391bd17)" d="M 229.5 375.59964 
L 508.5 535.837268 
" style="fill:none;stroke:#808080;stroke-linecap:square;stroke-width:1.5;"/>
   </g>
   <g id="line2d_13">
    <path clip-path="url(#p982391bd17)" d="M 229.5 221.498217 
L 508.5 439.637362 
" style="fill:none;stroke:#808080;stroke-linecap:square;stroke-width:1.5;"/>
   </g>
   <g id="line2d_14">
    <path clip-path="url(#p982391bd17)" d="M 229.5 365.787818 
L 508.5 445.411483 
" style="fill:none;stroke:#808080;stroke-linecap:square;stroke-width:1.5;"/>
   </g>
   <g id="line2d_15">
    <path clip-path="url(#p982391bd17)" d="M 229.5 327.131862 
L 508.5 330.203168 
" style="fill:none;stroke:#808080;stroke-linecap:square;stroke-width:1.5;"/>
   </g>
   <g id="line2d_16">
    <path clip-path="url(#p982391bd17)" d="M 229.5 140.61164 
L 508.5 269.064683 
" style="fill:none;stroke:#808080;stroke-linecap:square;stroke-width:1.5;"/>
   </g>
   <g id="line2d_17">
    <path clip-path="url(#p982391bd17)" d="M 229.5 136.557 
L 508.5 193.369075 
" style="fill:none;stroke:#808080;stroke-linecap:square;stroke-width:1.5;"/>
   </g>
   <g id="line2d_18">
    <path clip-path="url(#p982391bd17)" d="M 229.5 296.477013 
L 508.5 322.790506 
" style="fill:none;stroke:#808080;stroke-linecap:square;stroke-width:1.5;"/>
   </g>
   <g id="line2d_19">
    <path clip-path="url(#p982391bd17)" d="M 229.5 348.726434 
L 508.5 430.147806 
" style="fill:none;stroke:#808080;stroke-linecap:square;stroke-width:1.5;"/>
   </g>
   <g id="line2d_20">
    <path clip-path="url(#p982391bd17)" d="M 229.5 602.998679 
L 508.5 605.387449 
" style="fill:none;stroke:#808080;stroke-linecap:square;stroke-width:1.5;"/>
   </g>
   <g id="line2d_21">
    <path clip-path="url(#p982391bd17)" d="M 229.5 229.702015 
L 508.5 374.353412 
" style="fill:none;stroke:#808080;stroke-linecap:square;stroke-width:1.5;"/>
   </g>
   <g id="line2d_22">
    <path clip-path="url(#p982391bd17)" d="M 229.5 386.481045 
L 508.5 417.042273 
" style="fill:none;stroke:#808080;stroke-linecap:square;stroke-width:1.5;"/>
   </g>
   <g id="line2d_23">
    <path clip-path="url(#p982391bd17)" d="M 229.5 417.744561 
L 508.5 370.73705 
" style="fill:none;stroke:#808080;stroke-linecap:square;stroke-width:1.5;"/>
   </g>
   <g id="line2d_24">
    <path clip-path="url(#p982391bd17)" d="M 229.5 307.226076 
L 508.5 362.240314 
" style="fill:none;stroke:#808080;stroke-linecap:square;stroke-width:1.5;"/>
   </g>
   <g id="line2d_25">
    <path clip-path="url(#p982391bd17)" d="M 229.5 594.568167 
L 508.5 313.523701 
" style="fill:none;stroke:#808080;stroke-linecap:square;stroke-width:1.5;"/>
   </g>
   <g id="line2d_26">
    <path clip-path="url(#p982391bd17)" d="M 229.5 294.023033 
L 508.5 328.670581 
" style="fill:none;stroke:#808080;stroke-linecap:square;stroke-width:1.5;"/>
   </g>
   <g id="line2d_27">
    <path clip-path="url(#p982391bd17)" d="M 229.5 352.230445 
L 508.5 413.685442 
" style="fill:none;stroke:#808080;stroke-linecap:square;stroke-width:1.5;"/>
   </g>
   <g id="line2d_28">
    <path clip-path="url(#p982391bd17)" d="M 229.5 164.278045 
L 508.5 195.983465 
" style="fill:none;stroke:#808080;stroke-linecap:square;stroke-width:1.5;"/>
   </g>
   <g id="line2d_29">
    <path clip-path="url(#p982391bd17)" d="M 229.5 125.409083 
L 508.5 138.880564 
" style="fill:none;stroke:#808080;stroke-linecap:square;stroke-width:1.5;"/>
   </g>
   <g id="line2d_30">
    <path clip-path="url(#p982391bd17)" d="M 229.5 368.436246 
L 508.5 279.037906 
" style="fill:none;stroke:#808080;stroke-linecap:square;stroke-width:1.5;"/>
   </g>
   <g id="line2d_31">
    <path clip-path="url(#p982391bd17)" d="M 229.5 294.668789 
L 508.5 567.567511 
" style="fill:none;stroke:#808080;stroke-linecap:square;stroke-width:1.5;"/>
   </g>
   <g id="PathCollection_1">
    <defs>
     <path d="M 0 3 
C 0.795609 3 1.55874 2.683901 2.12132 2.12132 
C 2.683901 1.55874 3 0.795609 3 0 
C 3 -0.795609 2.683901 -1.55874 2.12132 -2.12132 
C 1.55874 -2.683901 0.795609 -3 0 -3 
C -0.795609 -3 -1.55874 -2.683901 -2.12132 -2.12132 
C -2.683901 -1.55874 -3 -0.795609 -3 0 
C -3 0.795609 -2.683901 1.55874 -2.12132 2.12132 
C -1.55874 2.683901 -0.795609 3 0 3 
z
" id="m941b25e9b3" style="stroke:#1f77b4;"/>
    </defs>
    <g clip-path="url(#p982391bd17)">
     <use style="fill:#1f77b4;stroke:#1f77b4;" x="229.5" xlink:href="#m941b25e9b3" y="375.59964"/>
     <use style="fill:#1f77b4;stroke:#1f77b4;" x="229.5" xlink:href="#m941b25e9b3" y="327.131862"/>
     <use style="fill:#1f77b4;stroke:#1f77b4;" x="229.5" xlink:href="#m941b25e9b3" y="365.787818"/>
     <use style="fill:#1f77b4;stroke:#1f77b4;" x="229.5" xlink:href="#m941b25e9b3" y="386.481045"/>
     <use style="fill:#1f77b4;stroke:#1f77b4;" x="229.5" xlink:href="#m941b25e9b3" y="140.61164"/>
     <use style="fill:#1f77b4;stroke:#1f77b4;" x="229.5" xlink:href="#m941b25e9b3" y="417.744561"/>
     <use style="fill:#1f77b4;stroke:#1f77b4;" x="229.5" xlink:href="#m941b25e9b3" y="311.170297"/>
     <use style="fill:#1f77b4;stroke:#1f77b4;" x="229.5" xlink:href="#m941b25e9b3" y="433.982829"/>
     <use style="fill:#1f77b4;stroke:#1f77b4;" x="229.5" xlink:href="#m941b25e9b3" y="348.441599"/>
     <use style="fill:#1f77b4;stroke:#1f77b4;" x="229.5" xlink:href="#m941b25e9b3" y="487.037773"/>
     <use style="fill:#1f77b4;stroke:#1f77b4;" x="229.5" xlink:href="#m941b25e9b3" y="331.642687"/>
     <use style="fill:#1f77b4;stroke:#1f77b4;" x="229.5" xlink:href="#m941b25e9b3" y="428.101845"/>
     <use style="fill:#1f77b4;stroke:#1f77b4;" x="229.5" xlink:href="#m941b25e9b3" y="594.568167"/>
     <use style="fill:#1f77b4;stroke:#1f77b4;" x="229.5" xlink:href="#m941b25e9b3" y="294.023033"/>
     <use style="fill:#1f77b4;stroke:#1f77b4;" x="229.5" xlink:href="#m941b25e9b3" y="125.409083"/>
     <use style="fill:#1f77b4;stroke:#1f77b4;" x="229.5" xlink:href="#m941b25e9b3" y="368.436246"/>
     <use style="fill:#1f77b4;stroke:#1f77b4;" x="229.5" xlink:href="#m941b25e9b3" y="352.230445"/>
     <use style="fill:#1f77b4;stroke:#1f77b4;" x="229.5" xlink:href="#m941b25e9b3" y="164.278045"/>
     <use style="fill:#1f77b4;stroke:#1f77b4;" x="229.5" xlink:href="#m941b25e9b3" y="294.668789"/>
     <use style="fill:#1f77b4;stroke:#1f77b4;" x="229.5" xlink:href="#m941b25e9b3" y="218.39396"/>
     <use style="fill:#1f77b4;stroke:#1f77b4;" x="229.5" xlink:href="#m941b25e9b3" y="221.498217"/>
     <use style="fill:#1f77b4;stroke:#1f77b4;" x="229.5" xlink:href="#m941b25e9b3" y="296.477013"/>
     <use style="fill:#1f77b4;stroke:#1f77b4;" x="229.5" xlink:href="#m941b25e9b3" y="348.726434"/>
     <use style="fill:#1f77b4;stroke:#1f77b4;" x="229.5" xlink:href="#m941b25e9b3" y="136.557"/>
     <use style="fill:#1f77b4;stroke:#1f77b4;" x="229.5" xlink:href="#m941b25e9b3" y="602.998679"/>
     <use style="fill:#1f77b4;stroke:#1f77b4;" x="229.5" xlink:href="#m941b25e9b3" y="229.702015"/>
     <use style="fill:#1f77b4;stroke:#1f77b4;" x="229.5" xlink:href="#m941b25e9b3" y="340.921728"/>
     <use style="fill:#1f77b4;stroke:#1f77b4;" x="229.5" xlink:href="#m941b25e9b3" y="192.506988"/>
     <use style="fill:#1f77b4;stroke:#1f77b4;" x="229.5" xlink:href="#m941b25e9b3" y="239.528413"/>
     <use style="fill:#1f77b4;stroke:#1f77b4;" x="229.5" xlink:href="#m941b25e9b3" y="113.136439"/>
     <use style="fill:#1f77b4;stroke:#1f77b4;" x="229.5" xlink:href="#m941b25e9b3" y="307.226076"/>
    </g>
   </g>
   <g id="PathCollection_2">
    <defs>
     <path d="M 0 3 
C 0.795609 3 1.55874 2.683901 2.12132 2.12132 
C 2.683901 1.55874 3 0.795609 3 0 
C 3 -0.795609 2.683901 -1.55874 2.12132 -2.12132 
C 1.55874 -2.683901 0.795609 -3 0 -3 
C -0.795609 -3 -1.55874 -2.683901 -2.12132 -2.12132 
C -2.683901 -1.55874 -3 -0.795609 -3 0 
C -3 0.795609 -2.683901 1.55874 -2.12132 2.12132 
C -1.55874 2.683901 -0.795609 3 0 3 
z
" id="m809df57259" style="stroke:#ff7f0e;"/>
    </defs>
    <g clip-path="url(#p982391bd17)">
     <use style="fill:#ff7f0e;stroke:#ff7f0e;" x="508.5" xlink:href="#m809df57259" y="269.064683"/>
     <use style="fill:#ff7f0e;stroke:#ff7f0e;" x="508.5" xlink:href="#m809df57259" y="374.353412"/>
     <use style="fill:#ff7f0e;stroke:#ff7f0e;" x="508.5" xlink:href="#m809df57259" y="342.815525"/>
     <use style="fill:#ff7f0e;stroke:#ff7f0e;" x="508.5" xlink:href="#m809df57259" y="313.523701"/>
     <use style="fill:#ff7f0e;stroke:#ff7f0e;" x="508.5" xlink:href="#m809df57259" y="328.670581"/>
     <use style="fill:#ff7f0e;stroke:#ff7f0e;" x="508.5" xlink:href="#m809df57259" y="413.685442"/>
     <use style="fill:#ff7f0e;stroke:#ff7f0e;" x="508.5" xlink:href="#m809df57259" y="195.983465"/>
     <use style="fill:#ff7f0e;stroke:#ff7f0e;" x="508.5" xlink:href="#m809df57259" y="138.880564"/>
     <use style="fill:#ff7f0e;stroke:#ff7f0e;" x="508.5" xlink:href="#m809df57259" y="279.037906"/>
     <use style="fill:#ff7f0e;stroke:#ff7f0e;" x="508.5" xlink:href="#m809df57259" y="521.295895"/>
     <use style="fill:#ff7f0e;stroke:#ff7f0e;" x="508.5" xlink:href="#m809df57259" y="348.632463"/>
     <use style="fill:#ff7f0e;stroke:#ff7f0e;" x="508.5" xlink:href="#m809df57259" y="328.448142"/>
     <use style="fill:#ff7f0e;stroke:#ff7f0e;" x="508.5" xlink:href="#m809df57259" y="316.091186"/>
     <use style="fill:#ff7f0e;stroke:#ff7f0e;" x="508.5" xlink:href="#m809df57259" y="567.567511"/>
     <use style="fill:#ff7f0e;stroke:#ff7f0e;" x="508.5" xlink:href="#m809df57259" y="445.411483"/>
     <use style="fill:#ff7f0e;stroke:#ff7f0e;" x="508.5" xlink:href="#m809df57259" y="417.042273"/>
     <use style="fill:#ff7f0e;stroke:#ff7f0e;" x="508.5" xlink:href="#m809df57259" y="370.73705"/>
     <use style="fill:#ff7f0e;stroke:#ff7f0e;" x="508.5" xlink:href="#m809df57259" y="430.147806"/>
     <use style="fill:#ff7f0e;stroke:#ff7f0e;" x="508.5" xlink:href="#m809df57259" y="605.387449"/>
     <use style="fill:#ff7f0e;stroke:#ff7f0e;" x="508.5" xlink:href="#m809df57259" y="362.240314"/>
     <use style="fill:#ff7f0e;stroke:#ff7f0e;" x="508.5" xlink:href="#m809df57259" y="193.369075"/>
     <use style="fill:#ff7f0e;stroke:#ff7f0e;" x="508.5" xlink:href="#m809df57259" y="322.790506"/>
     <use style="fill:#ff7f0e;stroke:#ff7f0e;" x="508.5" xlink:href="#m809df57259" y="219.551569"/>
     <use style="fill:#ff7f0e;stroke:#ff7f0e;" x="508.5" xlink:href="#m809df57259" y="186.354408"/>
     <use style="fill:#ff7f0e;stroke:#ff7f0e;" x="508.5" xlink:href="#m809df57259" y="439.637362"/>
     <use style="fill:#ff7f0e;stroke:#ff7f0e;" x="508.5" xlink:href="#m809df57259" y="330.203168"/>
     <use style="fill:#ff7f0e;stroke:#ff7f0e;" x="508.5" xlink:href="#m809df57259" y="439.903371"/>
     <use style="fill:#ff7f0e;stroke:#ff7f0e;" x="508.5" xlink:href="#m809df57259" y="555.779909"/>
     <use style="fill:#ff7f0e;stroke:#ff7f0e;" x="508.5" xlink:href="#m809df57259" y="345.44167"/>
     <use style="fill:#ff7f0e;stroke:#ff7f0e;" x="508.5" xlink:href="#m809df57259" y="265.682088"/>
     <use style="fill:#ff7f0e;stroke:#ff7f0e;" x="508.5" xlink:href="#m809df57259" y="535.837268"/>
    </g>
   </g>
   <g id="matplotlib.axis_1">
    <g id="xtick_1">
     <g id="line2d_32">
      <defs>
       <path d="M 0 0 
L 0 3.5 
" id="me4b8eb0982" style="stroke:#000000;stroke-width:0.8;"/>
      </defs>
      <g>
       <use style="stroke:#000000;stroke-width:0.8;" x="229.5" xlink:href="#me4b8eb0982" y="630"/>
      </g>
     </g>
     <g id="text_1">
      <!-- 1 -->
      <g transform="translate(225.04625 647.637812)scale(0.14 -0.14)">
       <defs>
        <path d="M 794 531 
L 1825 531 
L 1825 4091 
L 703 3866 
L 703 4441 
L 1819 4666 
L 2450 4666 
L 2450 531 
L 3481 531 
L 3481 0 
L 794 0 
L 794 531 
z
" id="DejaVuSans-31" transform="scale(0.015625)"/>
       </defs>
       <use xlink:href="#DejaVuSans-31"/>
      </g>
     </g>
    </g>
    <g id="xtick_2">
     <g id="line2d_33">
      <g>
       <use style="stroke:#000000;stroke-width:0.8;" x="508.5" xlink:href="#me4b8eb0982" y="630"/>
      </g>
     </g>
     <g id="text_2">
      <!-- 2 -->
      <g transform="translate(504.04625 647.637812)scale(0.14 -0.14)">
       <defs>
        <path d="M 1228 531 
L 3431 531 
L 3431 0 
L 469 0 
L 469 531 
Q 828 903 1448 1529 
Q 2069 2156 2228 2338 
Q 2531 2678 2651 2914 
Q 2772 3150 2772 3378 
Q 2772 3750 2511 3984 
Q 2250 4219 1831 4219 
Q 1534 4219 1204 4116 
Q 875 4013 500 3803 
L 500 4441 
Q 881 4594 1212 4672 
Q 1544 4750 1819 4750 
Q 2544 4750 2975 4387 
Q 3406 4025 3406 3419 
Q 3406 3131 3298 2873 
Q 3191 2616 2906 2266 
Q 2828 2175 2409 1742 
Q 1991 1309 1228 531 
z
" id="DejaVuSans-32" transform="scale(0.015625)"/>
       </defs>
       <use xlink:href="#DejaVuSans-32"/>
      </g>
     </g>
    </g>
    <g id="text_3">
     <!-- Time point -->
     <g transform="translate(321.166406 668.226562)scale(0.18 -0.18)">
      <defs>
       <path d="M -19 4666 
L 3928 4666 
L 3928 4134 
L 2272 4134 
L 2272 0 
L 1638 0 
L 1638 4134 
L -19 4134 
L -19 4666 
z
" id="DejaVuSans-54" transform="scale(0.015625)"/>
       <path d="M 603 3500 
L 1178 3500 
L 1178 0 
L 603 0 
L 603 3500 
z
M 603 4863 
L 1178 4863 
L 1178 4134 
L 603 4134 
L 603 4863 
z
" id="DejaVuSans-69" transform="scale(0.015625)"/>
       <path d="M 3328 2828 
Q 3544 3216 3844 3400 
Q 4144 3584 4550 3584 
Q 5097 3584 5394 3201 
Q 5691 2819 5691 2113 
L 5691 0 
L 5113 0 
L 5113 2094 
Q 5113 2597 4934 2840 
Q 4756 3084 4391 3084 
Q 3944 3084 3684 2787 
Q 3425 2491 3425 1978 
L 3425 0 
L 2847 0 
L 2847 2094 
Q 2847 2600 2669 2842 
Q 2491 3084 2119 3084 
Q 1678 3084 1418 2786 
Q 1159 2488 1159 1978 
L 1159 0 
L 581 0 
L 581 3500 
L 1159 3500 
L 1159 2956 
Q 1356 3278 1631 3431 
Q 1906 3584 2284 3584 
Q 2666 3584 2933 3390 
Q 3200 3197 3328 2828 
z
" id="DejaVuSans-6d" transform="scale(0.015625)"/>
       <path d="M 3597 1894 
L 3597 1613 
L 953 1613 
Q 991 1019 1311 708 
Q 1631 397 2203 397 
Q 2534 397 2845 478 
Q 3156 559 3463 722 
L 3463 178 
Q 3153 47 2828 -22 
Q 2503 -91 2169 -91 
Q 1331 -91 842 396 
Q 353 884 353 1716 
Q 353 2575 817 3079 
Q 1281 3584 2069 3584 
Q 2775 3584 3186 3129 
Q 3597 2675 3597 1894 
z
M 3022 2063 
Q 3016 2534 2758 2815 
Q 2500 3097 2075 3097 
Q 1594 3097 1305 2825 
Q 1016 2553 972 2059 
L 3022 2063 
z
" id="DejaVuSans-65" transform="scale(0.015625)"/>
       <path id="DejaVuSans-20" transform="scale(0.015625)"/>
       <path d="M 1159 525 
L 1159 -1331 
L 581 -1331 
L 581 3500 
L 1159 3500 
L 1159 2969 
Q 1341 3281 1617 3432 
Q 1894 3584 2278 3584 
Q 2916 3584 3314 3078 
Q 3713 2572 3713 1747 
Q 3713 922 3314 415 
Q 2916 -91 2278 -91 
Q 1894 -91 1617 61 
Q 1341 213 1159 525 
z
M 3116 1747 
Q 3116 2381 2855 2742 
Q 2594 3103 2138 3103 
Q 1681 3103 1420 2742 
Q 1159 2381 1159 1747 
Q 1159 1113 1420 752 
Q 1681 391 2138 391 
Q 2594 391 2855 752 
Q 3116 1113 3116 1747 
z
" id="DejaVuSans-70" transform="scale(0.015625)"/>
       <path d="M 1959 3097 
Q 1497 3097 1228 2736 
Q 959 2375 959 1747 
Q 959 1119 1226 758 
Q 1494 397 1959 397 
Q 2419 397 2687 759 
Q 2956 1122 2956 1747 
Q 2956 2369 2687 2733 
Q 2419 3097 1959 3097 
z
M 1959 3584 
Q 2709 3584 3137 3096 
Q 3566 2609 3566 1747 
Q 3566 888 3137 398 
Q 2709 -91 1959 -91 
Q 1206 -91 779 398 
Q 353 888 353 1747 
Q 353 2609 779 3096 
Q 1206 3584 1959 3584 
z
" id="DejaVuSans-6f" transform="scale(0.015625)"/>
       <path d="M 3513 2113 
L 3513 0 
L 2938 0 
L 2938 2094 
Q 2938 2591 2744 2837 
Q 2550 3084 2163 3084 
Q 1697 3084 1428 2787 
Q 1159 2491 1159 1978 
L 1159 0 
L 581 0 
L 581 3500 
L 1159 3500 
L 1159 2956 
Q 1366 3272 1645 3428 
Q 1925 3584 2291 3584 
Q 2894 3584 3203 3211 
Q 3513 2838 3513 2113 
z
" id="DejaVuSans-6e" transform="scale(0.015625)"/>
       <path d="M 1172 4494 
L 1172 3500 
L 2356 3500 
L 2356 3053 
L 1172 3053 
L 1172 1153 
Q 1172 725 1289 603 
Q 1406 481 1766 481 
L 2356 481 
L 2356 0 
L 1766 0 
Q 1100 0 847 248 
Q 594 497 594 1153 
L 594 3053 
L 172 3053 
L 172 3500 
L 594 3500 
L 594 4494 
L 1172 4494 
z
" id="DejaVuSans-74" transform="scale(0.015625)"/>
      </defs>
      <use xlink:href="#DejaVuSans-54"/>
      <use x="57.958984" xlink:href="#DejaVuSans-69"/>
      <use x="85.742188" xlink:href="#DejaVuSans-6d"/>
      <use x="183.154297" xlink:href="#DejaVuSans-65"/>
      <use x="244.677734" xlink:href="#DejaVuSans-20"/>
      <use x="276.464844" xlink:href="#DejaVuSans-70"/>
      <use x="339.941406" xlink:href="#DejaVuSans-6f"/>
      <use x="401.123047" xlink:href="#DejaVuSans-69"/>
      <use x="428.90625" xlink:href="#DejaVuSans-6e"/>
      <use x="492.285156" xlink:href="#DejaVuSans-74"/>
     </g>
    </g>
   </g>
   <g id="matplotlib.axis_2">
    <g id="ytick_1">
     <g id="line2d_34">
      <defs>
       <path d="M 0 0 
L -3.5 0 
" id="m8a66b43c3a" style="stroke:#000000;stroke-width:0.8;"/>
      </defs>
      <g>
       <use style="stroke:#000000;stroke-width:0.8;" x="90" xlink:href="#m8a66b43c3a" y="614.40334"/>
      </g>
     </g>
     <g id="text_4">
      <!-- −3.5 -->
      <g transform="translate(49.004062 619.722246)scale(0.14 -0.14)">
       <defs>
        <path d="M 678 2272 
L 4684 2272 
L 4684 1741 
L 678 1741 
L 678 2272 
z
" id="DejaVuSans-2212" transform="scale(0.015625)"/>
        <path d="M 2597 2516 
Q 3050 2419 3304 2112 
Q 3559 1806 3559 1356 
Q 3559 666 3084 287 
Q 2609 -91 1734 -91 
Q 1441 -91 1130 -33 
Q 819 25 488 141 
L 488 750 
Q 750 597 1062 519 
Q 1375 441 1716 441 
Q 2309 441 2620 675 
Q 2931 909 2931 1356 
Q 2931 1769 2642 2001 
Q 2353 2234 1838 2234 
L 1294 2234 
L 1294 2753 
L 1863 2753 
Q 2328 2753 2575 2939 
Q 2822 3125 2822 3475 
Q 2822 3834 2567 4026 
Q 2313 4219 1838 4219 
Q 1578 4219 1281 4162 
Q 984 4106 628 3988 
L 628 4550 
Q 988 4650 1302 4700 
Q 1616 4750 1894 4750 
Q 2613 4750 3031 4423 
Q 3450 4097 3450 3541 
Q 3450 3153 3228 2886 
Q 3006 2619 2597 2516 
z
" id="DejaVuSans-33" transform="scale(0.015625)"/>
        <path d="M 684 794 
L 1344 794 
L 1344 0 
L 684 0 
L 684 794 
z
" id="DejaVuSans-2e" transform="scale(0.015625)"/>
        <path d="M 691 4666 
L 3169 4666 
L 3169 4134 
L 1269 4134 
L 1269 2991 
Q 1406 3038 1543 3061 
Q 1681 3084 1819 3084 
Q 2600 3084 3056 2656 
Q 3513 2228 3513 1497 
Q 3513 744 3044 326 
Q 2575 -91 1722 -91 
Q 1428 -91 1123 -41 
Q 819 9 494 109 
L 494 744 
Q 775 591 1075 516 
Q 1375 441 1709 441 
Q 2250 441 2565 725 
Q 2881 1009 2881 1497 
Q 2881 1984 2565 2268 
Q 2250 2553 1709 2553 
Q 1456 2553 1204 2497 
Q 953 2441 691 2322 
L 691 4666 
z
" id="DejaVuSans-35" transform="scale(0.015625)"/>
       </defs>
       <use xlink:href="#DejaVuSans-2212"/>
       <use x="83.789062" xlink:href="#DejaVuSans-33"/>
       <use x="147.412109" xlink:href="#DejaVuSans-2e"/>
       <use x="179.199219" xlink:href="#DejaVuSans-35"/>
      </g>
     </g>
    </g>
    <g id="ytick_2">
     <g id="line2d_35">
      <g>
       <use style="stroke:#000000;stroke-width:0.8;" x="90" xlink:href="#m8a66b43c3a" y="545.345957"/>
      </g>
     </g>
     <g id="text_5">
      <!-- −3.0 -->
      <g transform="translate(49.004062 550.664863)scale(0.14 -0.14)">
       <defs>
        <path d="M 2034 4250 
Q 1547 4250 1301 3770 
Q 1056 3291 1056 2328 
Q 1056 1369 1301 889 
Q 1547 409 2034 409 
Q 2525 409 2770 889 
Q 3016 1369 3016 2328 
Q 3016 3291 2770 3770 
Q 2525 4250 2034 4250 
z
M 2034 4750 
Q 2819 4750 3233 4129 
Q 3647 3509 3647 2328 
Q 3647 1150 3233 529 
Q 2819 -91 2034 -91 
Q 1250 -91 836 529 
Q 422 1150 422 2328 
Q 422 3509 836 4129 
Q 1250 4750 2034 4750 
z
" id="DejaVuSans-30" transform="scale(0.015625)"/>
       </defs>
       <use xlink:href="#DejaVuSans-2212"/>
       <use x="83.789062" xlink:href="#DejaVuSans-33"/>
       <use x="147.412109" xlink:href="#DejaVuSans-2e"/>
       <use x="179.199219" xlink:href="#DejaVuSans-30"/>
      </g>
     </g>
    </g>
    <g id="ytick_3">
     <g id="line2d_36">
      <g>
       <use style="stroke:#000000;stroke-width:0.8;" x="90" xlink:href="#m8a66b43c3a" y="476.288574"/>
      </g>
     </g>
     <g id="text_6">
      <!-- −2.5 -->
      <g transform="translate(49.004062 481.60748)scale(0.14 -0.14)">
       <use xlink:href="#DejaVuSans-2212"/>
       <use x="83.789062" xlink:href="#DejaVuSans-32"/>
       <use x="147.412109" xlink:href="#DejaVuSans-2e"/>
       <use x="179.199219" xlink:href="#DejaVuSans-35"/>
      </g>
     </g>
    </g>
    <g id="ytick_4">
     <g id="line2d_37">
      <g>
       <use style="stroke:#000000;stroke-width:0.8;" x="90" xlink:href="#m8a66b43c3a" y="407.231191"/>
      </g>
     </g>
     <g id="text_7">
      <!-- −2.0 -->
      <g transform="translate(49.004062 412.550097)scale(0.14 -0.14)">
       <use xlink:href="#DejaVuSans-2212"/>
       <use x="83.789062" xlink:href="#DejaVuSans-32"/>
       <use x="147.412109" xlink:href="#DejaVuSans-2e"/>
       <use x="179.199219" xlink:href="#DejaVuSans-30"/>
      </g>
     </g>
    </g>
    <g id="ytick_5">
     <g id="line2d_38">
      <g>
       <use style="stroke:#000000;stroke-width:0.8;" x="90" xlink:href="#m8a66b43c3a" y="338.173808"/>
      </g>
     </g>
     <g id="text_8">
      <!-- −1.5 -->
      <g transform="translate(49.004062 343.492714)scale(0.14 -0.14)">
       <use xlink:href="#DejaVuSans-2212"/>
       <use x="83.789062" xlink:href="#DejaVuSans-31"/>
       <use x="147.412109" xlink:href="#DejaVuSans-2e"/>
       <use x="179.199219" xlink:href="#DejaVuSans-35"/>
      </g>
     </g>
    </g>
    <g id="ytick_6">
     <g id="line2d_39">
      <g>
       <use style="stroke:#000000;stroke-width:0.8;" x="90" xlink:href="#m8a66b43c3a" y="269.116425"/>
      </g>
     </g>
     <g id="text_9">
      <!-- −1.0 -->
      <g transform="translate(49.004062 274.435331)scale(0.14 -0.14)">
       <use xlink:href="#DejaVuSans-2212"/>
       <use x="83.789062" xlink:href="#DejaVuSans-31"/>
       <use x="147.412109" xlink:href="#DejaVuSans-2e"/>
       <use x="179.199219" xlink:href="#DejaVuSans-30"/>
      </g>
     </g>
    </g>
    <g id="ytick_7">
     <g id="line2d_40">
      <g>
       <use style="stroke:#000000;stroke-width:0.8;" x="90" xlink:href="#m8a66b43c3a" y="200.059042"/>
      </g>
     </g>
     <g id="text_10">
      <!-- −0.5 -->
      <g transform="translate(49.004062 205.377948)scale(0.14 -0.14)">
       <use xlink:href="#DejaVuSans-2212"/>
       <use x="83.789062" xlink:href="#DejaVuSans-30"/>
       <use x="147.412109" xlink:href="#DejaVuSans-2e"/>
       <use x="179.199219" xlink:href="#DejaVuSans-35"/>
      </g>
     </g>
    </g>
    <g id="ytick_8">
     <g id="line2d_41">
      <g>
       <use style="stroke:#000000;stroke-width:0.8;" x="90" xlink:href="#m8a66b43c3a" y="131.001659"/>
      </g>
     </g>
     <g id="text_11">
      <!-- 0.0 -->
      <g transform="translate(60.735625 136.320565)scale(0.14 -0.14)">
       <use xlink:href="#DejaVuSans-30"/>
       <use x="63.623047" xlink:href="#DejaVuSans-2e"/>
       <use x="95.410156" xlink:href="#DejaVuSans-30"/>
      </g>
     </g>
    </g>
    <g id="text_12">
     <!-- GMHI2 -->
     <g transform="translate(41.260625 388.088437)rotate(-90)scale(0.18 -0.18)">
      <defs>
       <path d="M 3809 666 
L 3809 1919 
L 2778 1919 
L 2778 2438 
L 4434 2438 
L 4434 434 
Q 4069 175 3628 42 
Q 3188 -91 2688 -91 
Q 1594 -91 976 548 
Q 359 1188 359 2328 
Q 359 3472 976 4111 
Q 1594 4750 2688 4750 
Q 3144 4750 3555 4637 
Q 3966 4525 4313 4306 
L 4313 3634 
Q 3963 3931 3569 4081 
Q 3175 4231 2741 4231 
Q 1884 4231 1454 3753 
Q 1025 3275 1025 2328 
Q 1025 1384 1454 906 
Q 1884 428 2741 428 
Q 3075 428 3337 486 
Q 3600 544 3809 666 
z
" id="DejaVuSans-47" transform="scale(0.015625)"/>
       <path d="M 628 4666 
L 1569 4666 
L 2759 1491 
L 3956 4666 
L 4897 4666 
L 4897 0 
L 4281 0 
L 4281 4097 
L 3078 897 
L 2444 897 
L 1241 4097 
L 1241 0 
L 628 0 
L 628 4666 
z
" id="DejaVuSans-4d" transform="scale(0.015625)"/>
       <path d="M 628 4666 
L 1259 4666 
L 1259 2753 
L 3553 2753 
L 3553 4666 
L 4184 4666 
L 4184 0 
L 3553 0 
L 3553 2222 
L 1259 2222 
L 1259 0 
L 628 0 
L 628 4666 
z
" id="DejaVuSans-48" transform="scale(0.015625)"/>
       <path d="M 628 4666 
L 1259 4666 
L 1259 0 
L 628 0 
L 628 4666 
z
" id="DejaVuSans-49" transform="scale(0.015625)"/>
      </defs>
      <use xlink:href="#DejaVuSans-47"/>
      <use x="77.490234" xlink:href="#DejaVuSans-4d"/>
      <use x="163.769531" xlink:href="#DejaVuSans-48"/>
      <use x="238.964844" xlink:href="#DejaVuSans-49"/>
      <use x="268.457031" xlink:href="#DejaVuSans-32"/>
     </g>
    </g>
   </g>
   <g id="line2d_42">
    <path clip-path="url(#p982391bd17)" d="M 229.5 372.017943 
L 229.5 487.037773 
" style="fill:none;stroke:#1f77b4;stroke-linecap:square;stroke-width:3;"/>
   </g>
   <g id="line2d_43">
    <path clip-path="url(#p982391bd17)" d="M 229.5 225.600116 
L 229.5 113.136439 
" style="fill:none;stroke:#1f77b4;stroke-linecap:square;stroke-width:3;"/>
   </g>
   <g id="line2d_44">
    <path clip-path="url(#p982391bd17)" d="M 194.625 487.037773 
L 264.375 487.037773 
" style="fill:none;"/>
   </g>
   <g id="line2d_45">
    <path clip-path="url(#p982391bd17)" d="M 194.625 113.136439 
L 264.375 113.136439 
" style="fill:none;"/>
   </g>
   <g id="line2d_46">
    <defs>
     <path d="M 0 3 
C 0.795609 3 1.55874 2.683901 2.12132 2.12132 
C 2.683901 1.55874 3 0.795609 3 0 
C 3 -0.795609 2.683901 -1.55874 2.12132 -2.12132 
C 1.55874 -2.683901 0.795609 -3 0 -3 
C -0.795609 -3 -1.55874 -2.683901 -2.12132 -2.12132 
C -2.683901 -1.55874 -3 -0.795609 -3 0 
C -3 0.795609 -2.683901 1.55874 -2.12132 2.12132 
C -1.55874 2.683901 -0.795609 3 0 3 
z
" id="ma19b3576b9" style="stroke:#1f77b4;"/>
    </defs>
    <g clip-path="url(#p982391bd17)">
     <use style="fill-opacity:0;stroke:#1f77b4;" x="229.5" xlink:href="#ma19b3576b9" y="594.568167"/>
     <use style="fill-opacity:0;stroke:#1f77b4;" x="229.5" xlink:href="#ma19b3576b9" y="602.998679"/>
    </g>
   </g>
   <g id="line2d_47">
    <path clip-path="url(#p982391bd17)" d="M 508.5 434.892584 
L 508.5 605.387449 
" style="fill:none;stroke:#ff7f0e;stroke-linecap:square;stroke-width:3;"/>
   </g>
   <g id="line2d_48">
    <path clip-path="url(#p982391bd17)" d="M 508.5 296.280804 
L 508.5 138.880564 
" style="fill:none;stroke:#ff7f0e;stroke-linecap:square;stroke-width:3;"/>
   </g>
   <g id="line2d_49">
    <path clip-path="url(#p982391bd17)" d="M 473.625 605.387449 
L 543.375 605.387449 
" style="fill:none;"/>
   </g>
   <g id="line2d_50">
    <path clip-path="url(#p982391bd17)" d="M 473.625 138.880564 
L 543.375 138.880564 
" style="fill:none;"/>
   </g>
   <g id="line2d_51"/>
   <g id="patch_3">
    <path clip-path="url(#p982391bd17)" d="M 159.75 372.017943 
L 299.25 372.017943 
L 299.25 225.600116 
L 159.75 225.600116 
L 159.75 372.017943 
z
" style="fill:none;stroke:#1f77b4;stroke-linejoin:miter;stroke-width:3;"/>
   </g>
   <g id="patch_4">
    <path clip-path="url(#p982391bd17)" d="M 438.75 434.892584 
L 578.25 434.892584 
L 578.25 296.280804 
L 438.75 296.280804 
L 438.75 434.892584 
z
" style="fill:none;stroke:#ff7f0e;stroke-linejoin:miter;stroke-width:3;"/>
   </g>
   <g id="line2d_52">
    <path clip-path="url(#p982391bd17)" d="M 159.75 327.131862 
L 299.25 327.131862 
" style="fill:none;stroke:#1f77b4;stroke-linecap:square;stroke-width:3;"/>
   </g>
   <g id="line2d_53">
    <path clip-path="url(#p982391bd17)" d="M 438.75 345.44167 
L 578.25 345.44167 
" style="fill:none;stroke:#ff7f0e;stroke-linecap:square;stroke-width:3;"/>
   </g>
   <g id="patch_5">
    <path d="M 90 630 
L 90 86.4 
" style="fill:none;stroke:#000000;stroke-linecap:square;stroke-linejoin:miter;stroke-width:0.8;"/>
   </g>
   <g id="patch_6">
    <path d="M 648 630 
L 648 86.4 
" style="fill:none;stroke:#000000;stroke-linecap:square;stroke-linejoin:miter;stroke-width:0.8;"/>
   </g>
   <g id="patch_7">
    <path d="M 90 630 
L 648 630 
" style="fill:none;stroke:#000000;stroke-linecap:square;stroke-linejoin:miter;stroke-width:0.8;"/>
   </g>
   <g id="patch_8">
    <path d="M 90 86.4 
L 648 86.4 
" style="fill:none;stroke:#000000;stroke-linecap:square;stroke-linejoin:miter;stroke-width:0.8;"/>
   </g>
   <g id="text_13">
    <!-- $P = 0.021$ -->
    <g transform="translate(480.3 112.243178)scale(0.12 -0.12)">
     <defs>
      <path d="M 1081 4666 
L 2541 4666 
Q 3178 4666 3512 4369 
Q 3847 4072 3847 3500 
Q 3847 2731 3353 2303 
Q 2859 1875 1966 1875 
L 1172 1875 
L 806 0 
L 172 0 
L 1081 4666 
z
M 1613 4147 
L 1275 2394 
L 2069 2394 
Q 2606 2394 2893 2669 
Q 3181 2944 3181 3456 
Q 3181 3784 2986 3965 
Q 2791 4147 2438 4147 
L 1613 4147 
z
" id="DejaVuSans-Oblique-50" transform="scale(0.015625)"/>
      <path d="M 678 2906 
L 4684 2906 
L 4684 2381 
L 678 2381 
L 678 2906 
z
M 678 1631 
L 4684 1631 
L 4684 1100 
L 678 1100 
L 678 1631 
z
" id="DejaVuSans-3d" transform="scale(0.015625)"/>
     </defs>
     <use transform="translate(0 0.78125)" xlink:href="#DejaVuSans-Oblique-50"/>
     <use transform="translate(79.785156 0.78125)" xlink:href="#DejaVuSans-3d"/>
     <use transform="translate(183.056641 0.78125)" xlink:href="#DejaVuSans-30"/>
     <use transform="translate(246.679688 0.78125)" xlink:href="#DejaVuSans-2e"/>
     <use transform="translate(278.466797 0.78125)" xlink:href="#DejaVuSans-30"/>
     <use transform="translate(342.089844 0.78125)" xlink:href="#DejaVuSans-32"/>
     <use transform="translate(405.712891 0.78125)" xlink:href="#DejaVuSans-31"/>
    </g>
   </g>
  </g>
 </g>
 <defs>
  <clipPath id="p982391bd17">
   <rect height="543.6" width="558" x="90" y="86.4"/>
  </clipPath>
 </defs>
</svg>
