<?xml version="1.0" encoding="utf-8" standalone="no"?>
<!DOCTYPE svg PUBLIC "-//W3C//DTD SVG 1.1//EN"
  "http://www.w3.org/Graphics/SVG/1.1/DTD/svg11.dtd">
<svg height="720pt" version="1.1" viewBox="0 0 720 720" width="720pt" xmlns="http://www.w3.org/2000/svg" xmlns:xlink="http://www.w3.org/1999/xlink">
 <metadata>
  <rdf:RDF xmlns:cc="http://creativecommons.org/ns#" xmlns:dc="http://purl.org/dc/elements/1.1/" xmlns:rdf="http://www.w3.org/1999/02/22-rdf-syntax-ns#">
   <cc:Work>
    <dc:type rdf:resource="http://purl.org/dc/dcmitype/StillImage"/>
    <dc:date>2022-08-25T14:49:09.568350</dc:date>
    <dc:format>image/svg+xml</dc:format>
    <dc:creator>
     <cc:Agent>
      <dc:title>Matplotlib v3.4.3, https://matplotlib.org/</dc:title>
     </cc:Agent>
    </dc:creator>
   </cc:Work>
  </rdf:RDF>
 </metadata>
 <defs>
  <style type="text/css">*{stroke-linecap:butt;stroke-linejoin:round;}</style>
 </defs>
 <g id="figure_1">
  <g id="patch_1">
   <path d="M 0 720 
L 720 720 
L 720 0 
L 0 0 
z
" style="fill:none;"/>
  </g>
  <g id="axes_1">
   <g id="patch_2">
    <path d="M 90 630 
L 648 630 
L 648 86.4 
L 90 86.4 
z
" style="fill:#ffffff;"/>
   </g>
   <g id="line2d_1">
    <path clip-path="url(#pfc1f1c30b1)" d="M 229.5 351.549535 
L 508.5 205.821286 
" style="fill:none;stroke:#808080;stroke-linecap:square;stroke-width:1.5;"/>
   </g>
   <g id="line2d_2">
    <path clip-path="url(#pfc1f1c30b1)" d="M 229.5 368.45894 
L 508.5 466.526039 
" style="fill:none;stroke:#808080;stroke-linecap:square;stroke-width:1.5;"/>
   </g>
   <g id="line2d_3">
    <path clip-path="url(#pfc1f1c30b1)" d="M 229.5 229.23877 
L 508.5 312.886345 
" style="fill:none;stroke:#808080;stroke-linecap:square;stroke-width:1.5;"/>
   </g>
   <g id="line2d_4">
    <path clip-path="url(#pfc1f1c30b1)" d="M 229.5 175.379737 
L 508.5 217.743131 
" style="fill:none;stroke:#808080;stroke-linecap:square;stroke-width:1.5;"/>
   </g>
   <g id="line2d_5">
    <path clip-path="url(#pfc1f1c30b1)" d="M 229.5 249.331895 
L 508.5 333.877304 
" style="fill:none;stroke:#808080;stroke-linecap:square;stroke-width:1.5;"/>
   </g>
   <g id="line2d_6">
    <path clip-path="url(#pfc1f1c30b1)" d="M 229.5 607.006098 
L 508.5 463.675923 
" style="fill:none;stroke:#808080;stroke-linecap:square;stroke-width:1.5;"/>
   </g>
   <g id="line2d_7">
    <path clip-path="url(#pfc1f1c30b1)" d="M 229.5 517.19708 
L 508.5 558.525986 
" style="fill:none;stroke:#808080;stroke-linecap:square;stroke-width:1.5;"/>
   </g>
   <g id="line2d_8">
    <path clip-path="url(#pfc1f1c30b1)" d="M 229.5 297.898701 
L 508.5 385.386259 
" style="fill:none;stroke:#808080;stroke-linecap:square;stroke-width:1.5;"/>
   </g>
   <g id="line2d_9">
    <path clip-path="url(#pfc1f1c30b1)" d="M 229.5 230.859382 
L 508.5 185.549171 
" style="fill:none;stroke:#808080;stroke-linecap:square;stroke-width:1.5;"/>
   </g>
   <g id="line2d_10">
    <path clip-path="url(#pfc1f1c30b1)" d="M 229.5 535.391106 
L 508.5 458.04207 
" style="fill:none;stroke:#808080;stroke-linecap:square;stroke-width:1.5;"/>
   </g>
   <g id="line2d_11">
    <path clip-path="url(#pfc1f1c30b1)" d="M 229.5 224.096071 
L 508.5 147.128051 
" style="fill:none;stroke:#808080;stroke-linecap:square;stroke-width:1.5;"/>
   </g>
   <g id="line2d_12">
    <path clip-path="url(#pfc1f1c30b1)" d="M 229.5 356.79061 
L 508.5 203.279081 
" style="fill:none;stroke:#808080;stroke-linecap:square;stroke-width:1.5;"/>
   </g>
   <g id="line2d_13">
    <path clip-path="url(#pfc1f1c30b1)" d="M 229.5 491.590152 
L 508.5 516.850023 
" style="fill:none;stroke:#808080;stroke-linecap:square;stroke-width:1.5;"/>
   </g>
   <g id="line2d_14">
    <path clip-path="url(#pfc1f1c30b1)" d="M 229.5 427.464578 
L 508.5 309.878968 
" style="fill:none;stroke:#808080;stroke-linecap:square;stroke-width:1.5;"/>
   </g>
   <g id="line2d_15">
    <path clip-path="url(#pfc1f1c30b1)" d="M 229.5 348.30099 
L 508.5 378.358133 
" style="fill:none;stroke:#808080;stroke-linecap:square;stroke-width:1.5;"/>
   </g>
   <g id="line2d_16">
    <path clip-path="url(#pfc1f1c30b1)" d="M 229.5 257.592556 
L 508.5 207.675661 
" style="fill:none;stroke:#808080;stroke-linecap:square;stroke-width:1.5;"/>
   </g>
   <g id="line2d_17">
    <path clip-path="url(#pfc1f1c30b1)" d="M 229.5 571.609869 
L 508.5 431.381837 
" style="fill:none;stroke:#808080;stroke-linecap:square;stroke-width:1.5;"/>
   </g>
   <g id="line2d_18">
    <path clip-path="url(#pfc1f1c30b1)" d="M 229.5 215.53204 
L 508.5 313.979548 
" style="fill:none;stroke:#808080;stroke-linecap:square;stroke-width:1.5;"/>
   </g>
   <g id="line2d_19">
    <path clip-path="url(#pfc1f1c30b1)" d="M 229.5 339.127393 
L 508.5 269.811004 
" style="fill:none;stroke:#808080;stroke-linecap:square;stroke-width:1.5;"/>
   </g>
   <g id="line2d_20">
    <path clip-path="url(#pfc1f1c30b1)" d="M 229.5 346.636344 
L 508.5 522.474257 
" style="fill:none;stroke:#808080;stroke-linecap:square;stroke-width:1.5;"/>
   </g>
   <g id="line2d_21">
    <path clip-path="url(#pfc1f1c30b1)" d="M 229.5 260.982424 
L 508.5 202.569167 
" style="fill:none;stroke:#808080;stroke-linecap:square;stroke-width:1.5;"/>
   </g>
   <g id="line2d_22">
    <path clip-path="url(#pfc1f1c30b1)" d="M 229.5 478.341874 
L 508.5 424.752904 
" style="fill:none;stroke:#808080;stroke-linecap:square;stroke-width:1.5;"/>
   </g>
   <g id="line2d_23">
    <path clip-path="url(#pfc1f1c30b1)" d="M 229.5 363.917941 
L 508.5 386.233978 
" style="fill:none;stroke:#808080;stroke-linecap:square;stroke-width:1.5;"/>
   </g>
   <g id="line2d_24">
    <path clip-path="url(#pfc1f1c30b1)" d="M 229.5 508.834959 
L 508.5 444.511227 
" style="fill:none;stroke:#808080;stroke-linecap:square;stroke-width:1.5;"/>
   </g>
   <g id="line2d_25">
    <path clip-path="url(#pfc1f1c30b1)" d="M 229.5 564.927759 
L 508.5 287.410769 
" style="fill:none;stroke:#808080;stroke-linecap:square;stroke-width:1.5;"/>
   </g>
   <g id="line2d_26">
    <path clip-path="url(#pfc1f1c30b1)" d="M 229.5 399.947594 
L 508.5 294.668654 
" style="fill:none;stroke:#808080;stroke-linecap:square;stroke-width:1.5;"/>
   </g>
   <g id="line2d_27">
    <path clip-path="url(#pfc1f1c30b1)" d="M 229.5 335.926193 
L 508.5 299.107554 
" style="fill:none;stroke:#808080;stroke-linecap:square;stroke-width:1.5;"/>
   </g>
   <g id="line2d_28">
    <path clip-path="url(#pfc1f1c30b1)" d="M 229.5 205.562424 
L 508.5 272.097989 
" style="fill:none;stroke:#808080;stroke-linecap:square;stroke-width:1.5;"/>
   </g>
   <g id="line2d_29">
    <path clip-path="url(#pfc1f1c30b1)" d="M 229.5 269.750806 
L 508.5 226.641341 
" style="fill:none;stroke:#808080;stroke-linecap:square;stroke-width:1.5;"/>
   </g>
   <g id="line2d_30">
    <path clip-path="url(#pfc1f1c30b1)" d="M 229.5 512.247599 
L 508.5 433.58387 
" style="fill:none;stroke:#808080;stroke-linecap:square;stroke-width:1.5;"/>
   </g>
   <g id="line2d_31">
    <path clip-path="url(#pfc1f1c30b1)" d="M 229.5 528.136208 
L 508.5 362.70787 
" style="fill:none;stroke:#808080;stroke-linecap:square;stroke-width:1.5;"/>
   </g>
   <g id="PathCollection_1">
    <defs>
     <path d="M 0 3 
C 0.795609 3 1.55874 2.683901 2.12132 2.12132 
C 2.683901 1.55874 3 0.795609 3 0 
C 3 -0.795609 2.683901 -1.55874 2.12132 -2.12132 
C 1.55874 -2.683901 0.795609 -3 0 -3 
C -0.795609 -3 -1.55874 -2.683901 -2.12132 -2.12132 
C -2.683901 -1.55874 -3 -0.795609 -3 0 
C -3 0.795609 -2.683901 1.55874 -2.12132 2.12132 
C -1.55874 2.683901 -0.795609 3 0 3 
z
" id="mbc7cbf65b1" style="stroke:#1f77b4;"/>
    </defs>
    <g clip-path="url(#pfc1f1c30b1)">
     <use style="fill:#1f77b4;stroke:#1f77b4;" x="229.5" xlink:href="#mbc7cbf65b1" y="356.79061"/>
     <use style="fill:#1f77b4;stroke:#1f77b4;" x="229.5" xlink:href="#mbc7cbf65b1" y="348.30099"/>
     <use style="fill:#1f77b4;stroke:#1f77b4;" x="229.5" xlink:href="#mbc7cbf65b1" y="427.464578"/>
     <use style="fill:#1f77b4;stroke:#1f77b4;" x="229.5" xlink:href="#mbc7cbf65b1" y="478.341874"/>
     <use style="fill:#1f77b4;stroke:#1f77b4;" x="229.5" xlink:href="#mbc7cbf65b1" y="257.592556"/>
     <use style="fill:#1f77b4;stroke:#1f77b4;" x="229.5" xlink:href="#mbc7cbf65b1" y="363.917941"/>
     <use style="fill:#1f77b4;stroke:#1f77b4;" x="229.5" xlink:href="#mbc7cbf65b1" y="249.331895"/>
     <use style="fill:#1f77b4;stroke:#1f77b4;" x="229.5" xlink:href="#mbc7cbf65b1" y="175.379737"/>
     <use style="fill:#1f77b4;stroke:#1f77b4;" x="229.5" xlink:href="#mbc7cbf65b1" y="229.23877"/>
     <use style="fill:#1f77b4;stroke:#1f77b4;" x="229.5" xlink:href="#mbc7cbf65b1" y="368.45894"/>
     <use style="fill:#1f77b4;stroke:#1f77b4;" x="229.5" xlink:href="#mbc7cbf65b1" y="517.19708"/>
     <use style="fill:#1f77b4;stroke:#1f77b4;" x="229.5" xlink:href="#mbc7cbf65b1" y="607.006098"/>
     <use style="fill:#1f77b4;stroke:#1f77b4;" x="229.5" xlink:href="#mbc7cbf65b1" y="564.927759"/>
     <use style="fill:#1f77b4;stroke:#1f77b4;" x="229.5" xlink:href="#mbc7cbf65b1" y="399.947594"/>
     <use style="fill:#1f77b4;stroke:#1f77b4;" x="229.5" xlink:href="#mbc7cbf65b1" y="269.750806"/>
     <use style="fill:#1f77b4;stroke:#1f77b4;" x="229.5" xlink:href="#mbc7cbf65b1" y="512.247599"/>
     <use style="fill:#1f77b4;stroke:#1f77b4;" x="229.5" xlink:href="#mbc7cbf65b1" y="335.926193"/>
     <use style="fill:#1f77b4;stroke:#1f77b4;" x="229.5" xlink:href="#mbc7cbf65b1" y="205.562424"/>
     <use style="fill:#1f77b4;stroke:#1f77b4;" x="229.5" xlink:href="#mbc7cbf65b1" y="528.136208"/>
     <use style="fill:#1f77b4;stroke:#1f77b4;" x="229.5" xlink:href="#mbc7cbf65b1" y="351.549535"/>
     <use style="fill:#1f77b4;stroke:#1f77b4;" x="229.5" xlink:href="#mbc7cbf65b1" y="491.590152"/>
     <use style="fill:#1f77b4;stroke:#1f77b4;" x="229.5" xlink:href="#mbc7cbf65b1" y="215.53204"/>
     <use style="fill:#1f77b4;stroke:#1f77b4;" x="229.5" xlink:href="#mbc7cbf65b1" y="339.127393"/>
     <use style="fill:#1f77b4;stroke:#1f77b4;" x="229.5" xlink:href="#mbc7cbf65b1" y="571.609869"/>
     <use style="fill:#1f77b4;stroke:#1f77b4;" x="229.5" xlink:href="#mbc7cbf65b1" y="346.636344"/>
     <use style="fill:#1f77b4;stroke:#1f77b4;" x="229.5" xlink:href="#mbc7cbf65b1" y="260.982424"/>
     <use style="fill:#1f77b4;stroke:#1f77b4;" x="229.5" xlink:href="#mbc7cbf65b1" y="297.898701"/>
     <use style="fill:#1f77b4;stroke:#1f77b4;" x="229.5" xlink:href="#mbc7cbf65b1" y="230.859382"/>
     <use style="fill:#1f77b4;stroke:#1f77b4;" x="229.5" xlink:href="#mbc7cbf65b1" y="535.391106"/>
     <use style="fill:#1f77b4;stroke:#1f77b4;" x="229.5" xlink:href="#mbc7cbf65b1" y="224.096071"/>
     <use style="fill:#1f77b4;stroke:#1f77b4;" x="229.5" xlink:href="#mbc7cbf65b1" y="508.834959"/>
    </g>
   </g>
   <g id="PathCollection_2">
    <defs>
     <path d="M 0 3 
C 0.795609 3 1.55874 2.683901 2.12132 2.12132 
C 2.683901 1.55874 3 0.795609 3 0 
C 3 -0.795609 2.683901 -1.55874 2.12132 -2.12132 
C 1.55874 -2.683901 0.795609 -3 0 -3 
C -0.795609 -3 -1.55874 -2.683901 -2.12132 -2.12132 
C -2.683901 -1.55874 -3 -0.795609 -3 0 
C -3 0.795609 -2.683901 1.55874 -2.12132 2.12132 
C -1.55874 2.683901 -0.795609 3 0 3 
z
" id="m8a6f3fb65a" style="stroke:#ff7f0e;"/>
    </defs>
    <g clip-path="url(#pfc1f1c30b1)">
     <use style="fill:#ff7f0e;stroke:#ff7f0e;" x="508.5" xlink:href="#m8a6f3fb65a" y="207.675661"/>
     <use style="fill:#ff7f0e;stroke:#ff7f0e;" x="508.5" xlink:href="#m8a6f3fb65a" y="202.569167"/>
     <use style="fill:#ff7f0e;stroke:#ff7f0e;" x="508.5" xlink:href="#m8a6f3fb65a" y="312.886345"/>
     <use style="fill:#ff7f0e;stroke:#ff7f0e;" x="508.5" xlink:href="#m8a6f3fb65a" y="287.410769"/>
     <use style="fill:#ff7f0e;stroke:#ff7f0e;" x="508.5" xlink:href="#m8a6f3fb65a" y="294.668654"/>
     <use style="fill:#ff7f0e;stroke:#ff7f0e;" x="508.5" xlink:href="#m8a6f3fb65a" y="299.107554"/>
     <use style="fill:#ff7f0e;stroke:#ff7f0e;" x="508.5" xlink:href="#m8a6f3fb65a" y="272.097989"/>
     <use style="fill:#ff7f0e;stroke:#ff7f0e;" x="508.5" xlink:href="#m8a6f3fb65a" y="226.641341"/>
     <use style="fill:#ff7f0e;stroke:#ff7f0e;" x="508.5" xlink:href="#m8a6f3fb65a" y="433.58387"/>
     <use style="fill:#ff7f0e;stroke:#ff7f0e;" x="508.5" xlink:href="#m8a6f3fb65a" y="466.526039"/>
     <use style="fill:#ff7f0e;stroke:#ff7f0e;" x="508.5" xlink:href="#m8a6f3fb65a" y="205.821286"/>
     <use style="fill:#ff7f0e;stroke:#ff7f0e;" x="508.5" xlink:href="#m8a6f3fb65a" y="147.128051"/>
     <use style="fill:#ff7f0e;stroke:#ff7f0e;" x="508.5" xlink:href="#m8a6f3fb65a" y="458.04207"/>
     <use style="fill:#ff7f0e;stroke:#ff7f0e;" x="508.5" xlink:href="#m8a6f3fb65a" y="362.70787"/>
     <use style="fill:#ff7f0e;stroke:#ff7f0e;" x="508.5" xlink:href="#m8a6f3fb65a" y="309.878968"/>
     <use style="fill:#ff7f0e;stroke:#ff7f0e;" x="508.5" xlink:href="#m8a6f3fb65a" y="424.752904"/>
     <use style="fill:#ff7f0e;stroke:#ff7f0e;" x="508.5" xlink:href="#m8a6f3fb65a" y="386.233978"/>
     <use style="fill:#ff7f0e;stroke:#ff7f0e;" x="508.5" xlink:href="#m8a6f3fb65a" y="269.811004"/>
     <use style="fill:#ff7f0e;stroke:#ff7f0e;" x="508.5" xlink:href="#m8a6f3fb65a" y="522.474257"/>
     <use style="fill:#ff7f0e;stroke:#ff7f0e;" x="508.5" xlink:href="#m8a6f3fb65a" y="444.511227"/>
     <use style="fill:#ff7f0e;stroke:#ff7f0e;" x="508.5" xlink:href="#m8a6f3fb65a" y="431.381837"/>
     <use style="fill:#ff7f0e;stroke:#ff7f0e;" x="508.5" xlink:href="#m8a6f3fb65a" y="313.979548"/>
     <use style="fill:#ff7f0e;stroke:#ff7f0e;" x="508.5" xlink:href="#m8a6f3fb65a" y="385.386259"/>
     <use style="fill:#ff7f0e;stroke:#ff7f0e;" x="508.5" xlink:href="#m8a6f3fb65a" y="185.549171"/>
     <use style="fill:#ff7f0e;stroke:#ff7f0e;" x="508.5" xlink:href="#m8a6f3fb65a" y="516.850023"/>
     <use style="fill:#ff7f0e;stroke:#ff7f0e;" x="508.5" xlink:href="#m8a6f3fb65a" y="378.358133"/>
     <use style="fill:#ff7f0e;stroke:#ff7f0e;" x="508.5" xlink:href="#m8a6f3fb65a" y="217.743131"/>
     <use style="fill:#ff7f0e;stroke:#ff7f0e;" x="508.5" xlink:href="#m8a6f3fb65a" y="333.877304"/>
     <use style="fill:#ff7f0e;stroke:#ff7f0e;" x="508.5" xlink:href="#m8a6f3fb65a" y="463.675923"/>
     <use style="fill:#ff7f0e;stroke:#ff7f0e;" x="508.5" xlink:href="#m8a6f3fb65a" y="558.525986"/>
     <use style="fill:#ff7f0e;stroke:#ff7f0e;" x="508.5" xlink:href="#m8a6f3fb65a" y="203.279081"/>
    </g>
   </g>
   <g id="matplotlib.axis_1">
    <g id="xtick_1">
     <g id="line2d_32">
      <defs>
       <path d="M 0 0 
L 0 3.5 
" id="mb1e6cd5d1d" style="stroke:#000000;stroke-width:0.8;"/>
      </defs>
      <g>
       <use style="stroke:#000000;stroke-width:0.8;" x="229.5" xlink:href="#mb1e6cd5d1d" y="630"/>
      </g>
     </g>
     <g id="text_1">
      <!-- 1 -->
      <g transform="translate(225.04625 647.637812)scale(0.14 -0.14)">
       <defs>
        <path d="M 794 531 
L 1825 531 
L 1825 4091 
L 703 3866 
L 703 4441 
L 1819 4666 
L 2450 4666 
L 2450 531 
L 3481 531 
L 3481 0 
L 794 0 
L 794 531 
z
" id="DejaVuSans-31" transform="scale(0.015625)"/>
       </defs>
       <use xlink:href="#DejaVuSans-31"/>
      </g>
     </g>
    </g>
    <g id="xtick_2">
     <g id="line2d_33">
      <g>
       <use style="stroke:#000000;stroke-width:0.8;" x="508.5" xlink:href="#mb1e6cd5d1d" y="630"/>
      </g>
     </g>
     <g id="text_2">
      <!-- 2 -->
      <g transform="translate(504.04625 647.637812)scale(0.14 -0.14)">
       <defs>
        <path d="M 1228 531 
L 3431 531 
L 3431 0 
L 469 0 
L 469 531 
Q 828 903 1448 1529 
Q 2069 2156 2228 2338 
Q 2531 2678 2651 2914 
Q 2772 3150 2772 3378 
Q 2772 3750 2511 3984 
Q 2250 4219 1831 4219 
Q 1534 4219 1204 4116 
Q 875 4013 500 3803 
L 500 4441 
Q 881 4594 1212 4672 
Q 1544 4750 1819 4750 
Q 2544 4750 2975 4387 
Q 3406 4025 3406 3419 
Q 3406 3131 3298 2873 
Q 3191 2616 2906 2266 
Q 2828 2175 2409 1742 
Q 1991 1309 1228 531 
z
" id="DejaVuSans-32" transform="scale(0.015625)"/>
       </defs>
       <use xlink:href="#DejaVuSans-32"/>
      </g>
     </g>
    </g>
    <g id="text_3">
     <!-- Time point -->
     <g transform="translate(321.166406 668.226562)scale(0.18 -0.18)">
      <defs>
       <path d="M -19 4666 
L 3928 4666 
L 3928 4134 
L 2272 4134 
L 2272 0 
L 1638 0 
L 1638 4134 
L -19 4134 
L -19 4666 
z
" id="DejaVuSans-54" transform="scale(0.015625)"/>
       <path d="M 603 3500 
L 1178 3500 
L 1178 0 
L 603 0 
L 603 3500 
z
M 603 4863 
L 1178 4863 
L 1178 4134 
L 603 4134 
L 603 4863 
z
" id="DejaVuSans-69" transform="scale(0.015625)"/>
       <path d="M 3328 2828 
Q 3544 3216 3844 3400 
Q 4144 3584 4550 3584 
Q 5097 3584 5394 3201 
Q 5691 2819 5691 2113 
L 5691 0 
L 5113 0 
L 5113 2094 
Q 5113 2597 4934 2840 
Q 4756 3084 4391 3084 
Q 3944 3084 3684 2787 
Q 3425 2491 3425 1978 
L 3425 0 
L 2847 0 
L 2847 2094 
Q 2847 2600 2669 2842 
Q 2491 3084 2119 3084 
Q 1678 3084 1418 2786 
Q 1159 2488 1159 1978 
L 1159 0 
L 581 0 
L 581 3500 
L 1159 3500 
L 1159 2956 
Q 1356 3278 1631 3431 
Q 1906 3584 2284 3584 
Q 2666 3584 2933 3390 
Q 3200 3197 3328 2828 
z
" id="DejaVuSans-6d" transform="scale(0.015625)"/>
       <path d="M 3597 1894 
L 3597 1613 
L 953 1613 
Q 991 1019 1311 708 
Q 1631 397 2203 397 
Q 2534 397 2845 478 
Q 3156 559 3463 722 
L 3463 178 
Q 3153 47 2828 -22 
Q 2503 -91 2169 -91 
Q 1331 -91 842 396 
Q 353 884 353 1716 
Q 353 2575 817 3079 
Q 1281 3584 2069 3584 
Q 2775 3584 3186 3129 
Q 3597 2675 3597 1894 
z
M 3022 2063 
Q 3016 2534 2758 2815 
Q 2500 3097 2075 3097 
Q 1594 3097 1305 2825 
Q 1016 2553 972 2059 
L 3022 2063 
z
" id="DejaVuSans-65" transform="scale(0.015625)"/>
       <path id="DejaVuSans-20" transform="scale(0.015625)"/>
       <path d="M 1159 525 
L 1159 -1331 
L 581 -1331 
L 581 3500 
L 1159 3500 
L 1159 2969 
Q 1341 3281 1617 3432 
Q 1894 3584 2278 3584 
Q 2916 3584 3314 3078 
Q 3713 2572 3713 1747 
Q 3713 922 3314 415 
Q 2916 -91 2278 -91 
Q 1894 -91 1617 61 
Q 1341 213 1159 525 
z
M 3116 1747 
Q 3116 2381 2855 2742 
Q 2594 3103 2138 3103 
Q 1681 3103 1420 2742 
Q 1159 2381 1159 1747 
Q 1159 1113 1420 752 
Q 1681 391 2138 391 
Q 2594 391 2855 752 
Q 3116 1113 3116 1747 
z
" id="DejaVuSans-70" transform="scale(0.015625)"/>
       <path d="M 1959 3097 
Q 1497 3097 1228 2736 
Q 959 2375 959 1747 
Q 959 1119 1226 758 
Q 1494 397 1959 397 
Q 2419 397 2687 759 
Q 2956 1122 2956 1747 
Q 2956 2369 2687 2733 
Q 2419 3097 1959 3097 
z
M 1959 3584 
Q 2709 3584 3137 3096 
Q 3566 2609 3566 1747 
Q 3566 888 3137 398 
Q 2709 -91 1959 -91 
Q 1206 -91 779 398 
Q 353 888 353 1747 
Q 353 2609 779 3096 
Q 1206 3584 1959 3584 
z
" id="DejaVuSans-6f" transform="scale(0.015625)"/>
       <path d="M 3513 2113 
L 3513 0 
L 2938 0 
L 2938 2094 
Q 2938 2591 2744 2837 
Q 2550 3084 2163 3084 
Q 1697 3084 1428 2787 
Q 1159 2491 1159 1978 
L 1159 0 
L 581 0 
L 581 3500 
L 1159 3500 
L 1159 2956 
Q 1366 3272 1645 3428 
Q 1925 3584 2291 3584 
Q 2894 3584 3203 3211 
Q 3513 2838 3513 2113 
z
" id="DejaVuSans-6e" transform="scale(0.015625)"/>
       <path d="M 1172 4494 
L 1172 3500 
L 2356 3500 
L 2356 3053 
L 1172 3053 
L 1172 1153 
Q 1172 725 1289 603 
Q 1406 481 1766 481 
L 2356 481 
L 2356 0 
L 1766 0 
Q 1100 0 847 248 
Q 594 497 594 1153 
L 594 3053 
L 172 3053 
L 172 3500 
L 594 3500 
L 594 4494 
L 1172 4494 
z
" id="DejaVuSans-74" transform="scale(0.015625)"/>
      </defs>
      <use xlink:href="#DejaVuSans-54"/>
      <use x="57.958984" xlink:href="#DejaVuSans-69"/>
      <use x="85.742188" xlink:href="#DejaVuSans-6d"/>
      <use x="183.154297" xlink:href="#DejaVuSans-65"/>
      <use x="244.677734" xlink:href="#DejaVuSans-20"/>
      <use x="276.464844" xlink:href="#DejaVuSans-70"/>
      <use x="339.941406" xlink:href="#DejaVuSans-6f"/>
      <use x="401.123047" xlink:href="#DejaVuSans-69"/>
      <use x="428.90625" xlink:href="#DejaVuSans-6e"/>
      <use x="492.285156" xlink:href="#DejaVuSans-74"/>
     </g>
    </g>
   </g>
   <g id="matplotlib.axis_2">
    <g id="ytick_1">
     <g id="line2d_34">
      <defs>
       <path d="M 0 0 
L -3.5 0 
" id="ma624e2f4e3" style="stroke:#000000;stroke-width:0.8;"/>
      </defs>
      <g>
       <use style="stroke:#000000;stroke-width:0.8;" x="90" xlink:href="#ma624e2f4e3" y="541.077046"/>
      </g>
     </g>
     <g id="text_4">
      <!-- 1.5 -->
      <g transform="translate(60.735625 546.395952)scale(0.14 -0.14)">
       <defs>
        <path d="M 684 794 
L 1344 794 
L 1344 0 
L 684 0 
L 684 794 
z
" id="DejaVuSans-2e" transform="scale(0.015625)"/>
        <path d="M 691 4666 
L 3169 4666 
L 3169 4134 
L 1269 4134 
L 1269 2991 
Q 1406 3038 1543 3061 
Q 1681 3084 1819 3084 
Q 2600 3084 3056 2656 
Q 3513 2228 3513 1497 
Q 3513 744 3044 326 
Q 2575 -91 1722 -91 
Q 1428 -91 1123 -41 
Q 819 9 494 109 
L 494 744 
Q 775 591 1075 516 
Q 1375 441 1709 441 
Q 2250 441 2565 725 
Q 2881 1009 2881 1497 
Q 2881 1984 2565 2268 
Q 2250 2553 1709 2553 
Q 1456 2553 1204 2497 
Q 953 2441 691 2322 
L 691 4666 
z
" id="DejaVuSans-35" transform="scale(0.015625)"/>
       </defs>
       <use xlink:href="#DejaVuSans-31"/>
       <use x="63.623047" xlink:href="#DejaVuSans-2e"/>
       <use x="95.410156" xlink:href="#DejaVuSans-35"/>
      </g>
     </g>
    </g>
    <g id="ytick_2">
     <g id="line2d_35">
      <g>
       <use style="stroke:#000000;stroke-width:0.8;" x="90" xlink:href="#ma624e2f4e3" y="428.497017"/>
      </g>
     </g>
     <g id="text_5">
      <!-- 2.0 -->
      <g transform="translate(60.735625 433.815923)scale(0.14 -0.14)">
       <defs>
        <path d="M 2034 4250 
Q 1547 4250 1301 3770 
Q 1056 3291 1056 2328 
Q 1056 1369 1301 889 
Q 1547 409 2034 409 
Q 2525 409 2770 889 
Q 3016 1369 3016 2328 
Q 3016 3291 2770 3770 
Q 2525 4250 2034 4250 
z
M 2034 4750 
Q 2819 4750 3233 4129 
Q 3647 3509 3647 2328 
Q 3647 1150 3233 529 
Q 2819 -91 2034 -91 
Q 1250 -91 836 529 
Q 422 1150 422 2328 
Q 422 3509 836 4129 
Q 1250 4750 2034 4750 
z
" id="DejaVuSans-30" transform="scale(0.015625)"/>
       </defs>
       <use xlink:href="#DejaVuSans-32"/>
       <use x="63.623047" xlink:href="#DejaVuSans-2e"/>
       <use x="95.410156" xlink:href="#DejaVuSans-30"/>
      </g>
     </g>
    </g>
    <g id="ytick_3">
     <g id="line2d_36">
      <g>
       <use style="stroke:#000000;stroke-width:0.8;" x="90" xlink:href="#ma624e2f4e3" y="315.916989"/>
      </g>
     </g>
     <g id="text_6">
      <!-- 2.5 -->
      <g transform="translate(60.735625 321.235895)scale(0.14 -0.14)">
       <use xlink:href="#DejaVuSans-32"/>
       <use x="63.623047" xlink:href="#DejaVuSans-2e"/>
       <use x="95.410156" xlink:href="#DejaVuSans-35"/>
      </g>
     </g>
    </g>
    <g id="ytick_4">
     <g id="line2d_37">
      <g>
       <use style="stroke:#000000;stroke-width:0.8;" x="90" xlink:href="#ma624e2f4e3" y="203.33696"/>
      </g>
     </g>
     <g id="text_7">
      <!-- 3.0 -->
      <g transform="translate(60.735625 208.655866)scale(0.14 -0.14)">
       <defs>
        <path d="M 2597 2516 
Q 3050 2419 3304 2112 
Q 3559 1806 3559 1356 
Q 3559 666 3084 287 
Q 2609 -91 1734 -91 
Q 1441 -91 1130 -33 
Q 819 25 488 141 
L 488 750 
Q 750 597 1062 519 
Q 1375 441 1716 441 
Q 2309 441 2620 675 
Q 2931 909 2931 1356 
Q 2931 1769 2642 2001 
Q 2353 2234 1838 2234 
L 1294 2234 
L 1294 2753 
L 1863 2753 
Q 2328 2753 2575 2939 
Q 2822 3125 2822 3475 
Q 2822 3834 2567 4026 
Q 2313 4219 1838 4219 
Q 1578 4219 1281 4162 
Q 984 4106 628 3988 
L 628 4550 
Q 988 4650 1302 4700 
Q 1616 4750 1894 4750 
Q 2613 4750 3031 4423 
Q 3450 4097 3450 3541 
Q 3450 3153 3228 2886 
Q 3006 2619 2597 2516 
z
" id="DejaVuSans-33" transform="scale(0.015625)"/>
       </defs>
       <use xlink:href="#DejaVuSans-33"/>
       <use x="63.623047" xlink:href="#DejaVuSans-2e"/>
       <use x="95.410156" xlink:href="#DejaVuSans-30"/>
      </g>
     </g>
    </g>
    <g id="ytick_5">
     <g id="line2d_38">
      <g>
       <use style="stroke:#000000;stroke-width:0.8;" x="90" xlink:href="#ma624e2f4e3" y="90.756931"/>
      </g>
     </g>
     <g id="text_8">
      <!-- 3.5 -->
      <g transform="translate(60.735625 96.075838)scale(0.14 -0.14)">
       <use xlink:href="#DejaVuSans-33"/>
       <use x="63.623047" xlink:href="#DejaVuSans-2e"/>
       <use x="95.410156" xlink:href="#DejaVuSans-35"/>
      </g>
     </g>
    </g>
    <g id="text_9">
     <!-- Shannon Diversity -->
     <g transform="translate(52.992188 440.649844)rotate(-90)scale(0.18 -0.18)">
      <defs>
       <path d="M 3425 4513 
L 3425 3897 
Q 3066 4069 2747 4153 
Q 2428 4238 2131 4238 
Q 1616 4238 1336 4038 
Q 1056 3838 1056 3469 
Q 1056 3159 1242 3001 
Q 1428 2844 1947 2747 
L 2328 2669 
Q 3034 2534 3370 2195 
Q 3706 1856 3706 1288 
Q 3706 609 3251 259 
Q 2797 -91 1919 -91 
Q 1588 -91 1214 -16 
Q 841 59 441 206 
L 441 856 
Q 825 641 1194 531 
Q 1563 422 1919 422 
Q 2459 422 2753 634 
Q 3047 847 3047 1241 
Q 3047 1584 2836 1778 
Q 2625 1972 2144 2069 
L 1759 2144 
Q 1053 2284 737 2584 
Q 422 2884 422 3419 
Q 422 4038 858 4394 
Q 1294 4750 2059 4750 
Q 2388 4750 2728 4690 
Q 3069 4631 3425 4513 
z
" id="DejaVuSans-53" transform="scale(0.015625)"/>
       <path d="M 3513 2113 
L 3513 0 
L 2938 0 
L 2938 2094 
Q 2938 2591 2744 2837 
Q 2550 3084 2163 3084 
Q 1697 3084 1428 2787 
Q 1159 2491 1159 1978 
L 1159 0 
L 581 0 
L 581 4863 
L 1159 4863 
L 1159 2956 
Q 1366 3272 1645 3428 
Q 1925 3584 2291 3584 
Q 2894 3584 3203 3211 
Q 3513 2838 3513 2113 
z
" id="DejaVuSans-68" transform="scale(0.015625)"/>
       <path d="M 2194 1759 
Q 1497 1759 1228 1600 
Q 959 1441 959 1056 
Q 959 750 1161 570 
Q 1363 391 1709 391 
Q 2188 391 2477 730 
Q 2766 1069 2766 1631 
L 2766 1759 
L 2194 1759 
z
M 3341 1997 
L 3341 0 
L 2766 0 
L 2766 531 
Q 2569 213 2275 61 
Q 1981 -91 1556 -91 
Q 1019 -91 701 211 
Q 384 513 384 1019 
Q 384 1609 779 1909 
Q 1175 2209 1959 2209 
L 2766 2209 
L 2766 2266 
Q 2766 2663 2505 2880 
Q 2244 3097 1772 3097 
Q 1472 3097 1187 3025 
Q 903 2953 641 2809 
L 641 3341 
Q 956 3463 1253 3523 
Q 1550 3584 1831 3584 
Q 2591 3584 2966 3190 
Q 3341 2797 3341 1997 
z
" id="DejaVuSans-61" transform="scale(0.015625)"/>
       <path d="M 1259 4147 
L 1259 519 
L 2022 519 
Q 2988 519 3436 956 
Q 3884 1394 3884 2338 
Q 3884 3275 3436 3711 
Q 2988 4147 2022 4147 
L 1259 4147 
z
M 628 4666 
L 1925 4666 
Q 3281 4666 3915 4102 
Q 4550 3538 4550 2338 
Q 4550 1131 3912 565 
Q 3275 0 1925 0 
L 628 0 
L 628 4666 
z
" id="DejaVuSans-44" transform="scale(0.015625)"/>
       <path d="M 191 3500 
L 800 3500 
L 1894 563 
L 2988 3500 
L 3597 3500 
L 2284 0 
L 1503 0 
L 191 3500 
z
" id="DejaVuSans-76" transform="scale(0.015625)"/>
       <path d="M 2631 2963 
Q 2534 3019 2420 3045 
Q 2306 3072 2169 3072 
Q 1681 3072 1420 2755 
Q 1159 2438 1159 1844 
L 1159 0 
L 581 0 
L 581 3500 
L 1159 3500 
L 1159 2956 
Q 1341 3275 1631 3429 
Q 1922 3584 2338 3584 
Q 2397 3584 2469 3576 
Q 2541 3569 2628 3553 
L 2631 2963 
z
" id="DejaVuSans-72" transform="scale(0.015625)"/>
       <path d="M 2834 3397 
L 2834 2853 
Q 2591 2978 2328 3040 
Q 2066 3103 1784 3103 
Q 1356 3103 1142 2972 
Q 928 2841 928 2578 
Q 928 2378 1081 2264 
Q 1234 2150 1697 2047 
L 1894 2003 
Q 2506 1872 2764 1633 
Q 3022 1394 3022 966 
Q 3022 478 2636 193 
Q 2250 -91 1575 -91 
Q 1294 -91 989 -36 
Q 684 19 347 128 
L 347 722 
Q 666 556 975 473 
Q 1284 391 1588 391 
Q 1994 391 2212 530 
Q 2431 669 2431 922 
Q 2431 1156 2273 1281 
Q 2116 1406 1581 1522 
L 1381 1569 
Q 847 1681 609 1914 
Q 372 2147 372 2553 
Q 372 3047 722 3315 
Q 1072 3584 1716 3584 
Q 2034 3584 2315 3537 
Q 2597 3491 2834 3397 
z
" id="DejaVuSans-73" transform="scale(0.015625)"/>
       <path d="M 2059 -325 
Q 1816 -950 1584 -1140 
Q 1353 -1331 966 -1331 
L 506 -1331 
L 506 -850 
L 844 -850 
Q 1081 -850 1212 -737 
Q 1344 -625 1503 -206 
L 1606 56 
L 191 3500 
L 800 3500 
L 1894 763 
L 2988 3500 
L 3597 3500 
L 2059 -325 
z
" id="DejaVuSans-79" transform="scale(0.015625)"/>
      </defs>
      <use xlink:href="#DejaVuSans-53"/>
      <use x="63.476562" xlink:href="#DejaVuSans-68"/>
      <use x="126.855469" xlink:href="#DejaVuSans-61"/>
      <use x="188.134766" xlink:href="#DejaVuSans-6e"/>
      <use x="251.513672" xlink:href="#DejaVuSans-6e"/>
      <use x="314.892578" xlink:href="#DejaVuSans-6f"/>
      <use x="376.074219" xlink:href="#DejaVuSans-6e"/>
      <use x="439.453125" xlink:href="#DejaVuSans-20"/>
      <use x="471.240234" xlink:href="#DejaVuSans-44"/>
      <use x="548.242188" xlink:href="#DejaVuSans-69"/>
      <use x="576.025391" xlink:href="#DejaVuSans-76"/>
      <use x="635.205078" xlink:href="#DejaVuSans-65"/>
      <use x="696.728516" xlink:href="#DejaVuSans-72"/>
      <use x="737.841797" xlink:href="#DejaVuSans-73"/>
      <use x="789.941406" xlink:href="#DejaVuSans-69"/>
      <use x="817.724609" xlink:href="#DejaVuSans-74"/>
      <use x="856.933594" xlink:href="#DejaVuSans-79"/>
     </g>
    </g>
   </g>
   <g id="line2d_39">
    <path clip-path="url(#pfc1f1c30b1)" d="M 229.5 500.212556 
L 229.5 607.006098 
" style="fill:none;stroke:#1f77b4;stroke-linecap:square;stroke-width:3;"/>
   </g>
   <g id="line2d_40">
    <path clip-path="url(#pfc1f1c30b1)" d="M 229.5 259.28749 
L 229.5 175.379737 
" style="fill:none;stroke:#1f77b4;stroke-linecap:square;stroke-width:3;"/>
   </g>
   <g id="line2d_41">
    <path clip-path="url(#pfc1f1c30b1)" d="M 194.625 607.006098 
L 264.375 607.006098 
" style="fill:none;"/>
   </g>
   <g id="line2d_42">
    <path clip-path="url(#pfc1f1c30b1)" d="M 194.625 175.379737 
L 264.375 175.379737 
" style="fill:none;"/>
   </g>
   <g id="line2d_43"/>
   <g id="line2d_44">
    <path clip-path="url(#pfc1f1c30b1)" d="M 508.5 432.482854 
L 508.5 558.525986 
" style="fill:none;stroke:#ff7f0e;stroke-linecap:square;stroke-width:3;"/>
   </g>
   <g id="line2d_45">
    <path clip-path="url(#pfc1f1c30b1)" d="M 508.5 248.226173 
L 508.5 147.128051 
" style="fill:none;stroke:#ff7f0e;stroke-linecap:square;stroke-width:3;"/>
   </g>
   <g id="line2d_46">
    <path clip-path="url(#pfc1f1c30b1)" d="M 473.625 558.525986 
L 543.375 558.525986 
" style="fill:none;"/>
   </g>
   <g id="line2d_47">
    <path clip-path="url(#pfc1f1c30b1)" d="M 473.625 147.128051 
L 543.375 147.128051 
" style="fill:none;"/>
   </g>
   <g id="line2d_48"/>
   <g id="patch_3">
    <path clip-path="url(#pfc1f1c30b1)" d="M 159.75 500.212556 
L 299.25 500.212556 
L 299.25 259.28749 
L 159.75 259.28749 
L 159.75 500.212556 
z
" style="fill:none;stroke:#1f77b4;stroke-linejoin:miter;stroke-width:3;"/>
   </g>
   <g id="patch_4">
    <path clip-path="url(#pfc1f1c30b1)" d="M 438.75 432.482854 
L 578.25 432.482854 
L 578.25 248.226173 
L 438.75 248.226173 
L 438.75 432.482854 
z
" style="fill:none;stroke:#ff7f0e;stroke-linejoin:miter;stroke-width:3;"/>
   </g>
   <g id="line2d_49">
    <path clip-path="url(#pfc1f1c30b1)" d="M 159.75 351.549535 
L 299.25 351.549535 
" style="fill:none;stroke:#1f77b4;stroke-linecap:square;stroke-width:3;"/>
   </g>
   <g id="line2d_50">
    <path clip-path="url(#pfc1f1c30b1)" d="M 438.75 313.979548 
L 578.25 313.979548 
" style="fill:none;stroke:#ff7f0e;stroke-linecap:square;stroke-width:3;"/>
   </g>
   <g id="patch_5">
    <path d="M 90 630 
L 90 86.4 
" style="fill:none;stroke:#000000;stroke-linecap:square;stroke-linejoin:miter;stroke-width:0.8;"/>
   </g>
   <g id="patch_6">
    <path d="M 648 630 
L 648 86.4 
" style="fill:none;stroke:#000000;stroke-linecap:square;stroke-linejoin:miter;stroke-width:0.8;"/>
   </g>
   <g id="patch_7">
    <path d="M 90 630 
L 648 630 
" style="fill:none;stroke:#000000;stroke-linecap:square;stroke-linejoin:miter;stroke-width:0.8;"/>
   </g>
   <g id="patch_8">
    <path d="M 90 86.4 
L 648 86.4 
" style="fill:none;stroke:#000000;stroke-linecap:square;stroke-linejoin:miter;stroke-width:0.8;"/>
   </g>
   <g id="text_10">
    <!-- n.s. -->
    <g transform="translate(497.758125 110.543597)scale(0.12 -0.12)">
     <use xlink:href="#DejaVuSans-6e"/>
     <use x="63.378906" xlink:href="#DejaVuSans-2e"/>
     <use x="95.166016" xlink:href="#DejaVuSans-73"/>
     <use x="147.265625" xlink:href="#DejaVuSans-2e"/>
    </g>
   </g>
  </g>
 </g>
 <defs>
  <clipPath id="pfc1f1c30b1">
   <rect height="543.6" width="558" x="90" y="86.4"/>
  </clipPath>
 </defs>
</svg>
