<?xml version="1.0" encoding="utf-8" standalone="no"?>
<!DOCTYPE svg PUBLIC "-//W3C//DTD SVG 1.1//EN"
  "http://www.w3.org/Graphics/SVG/1.1/DTD/svg11.dtd">
<svg height="720pt" version="1.1" viewBox="0 0 720 720" width="720pt" xmlns="http://www.w3.org/2000/svg" xmlns:xlink="http://www.w3.org/1999/xlink">
 <metadata>
  <rdf:RDF xmlns:cc="http://creativecommons.org/ns#" xmlns:dc="http://purl.org/dc/elements/1.1/" xmlns:rdf="http://www.w3.org/1999/02/22-rdf-syntax-ns#">
   <cc:Work>
    <dc:type rdf:resource="http://purl.org/dc/dcmitype/StillImage"/>
    <dc:date>2022-08-26T09:56:34.762080</dc:date>
    <dc:format>image/svg+xml</dc:format>
    <dc:creator>
     <cc:Agent>
      <dc:title>Matplotlib v3.4.3, https://matplotlib.org/</dc:title>
     </cc:Agent>
    </dc:creator>
   </cc:Work>
  </rdf:RDF>
 </metadata>
 <defs>
  <style type="text/css">*{stroke-linecap:butt;stroke-linejoin:round;}</style>
 </defs>
 <g id="figure_1">
  <g id="patch_1">
   <path d="M 0 720 
L 720 720 
L 720 0 
L 0 0 
z
" style="fill:none;"/>
  </g>
  <g id="axes_1">
   <g id="patch_2">
    <path d="M 90 630 
L 648 630 
L 648 86.4 
L 90 86.4 
z
" style="fill:#ffffff;"/>
   </g>
   <g id="line2d_1">
    <path clip-path="url(#pc8ee49ebc8)" d="M 136.5 431.525499 
L 229.5 472.737835 
L 322.5 543.613409 
L 415.5 452.183309 
L 508.5 505.467817 
L 601.5 435.516482 
" style="fill:none;stroke:#808080;stroke-linecap:square;stroke-width:1.5;"/>
   </g>
   <g id="line2d_2">
    <path clip-path="url(#pc8ee49ebc8)" d="M 136.5 308.468892 
L 229.5 427.196826 
L 322.5 488.180363 
L 415.5 315.716457 
L 508.5 316.640752 
L 601.5 330.751557 
" style="fill:none;stroke:#808080;stroke-linecap:square;stroke-width:1.5;"/>
   </g>
   <g id="line2d_3">
    <path clip-path="url(#pc8ee49ebc8)" d="M 136.5 280.876806 
L 229.5 224.934475 
L 322.5 130.850295 
L 415.5 200.356149 
L 508.5 262.643592 
L 601.5 216.104679 
" style="fill:none;stroke:#808080;stroke-linecap:square;stroke-width:1.5;"/>
   </g>
   <g id="line2d_4">
    <path clip-path="url(#pc8ee49ebc8)" d="M 136.5 255.474579 
L 229.5 135.205707 
L 322.5 451.812039 
L 415.5 304.53656 
L 508.5 213.281147 
L 601.5 316.931141 
" style="fill:none;stroke:#808080;stroke-linecap:square;stroke-width:1.5;"/>
   </g>
   <g id="line2d_5">
    <path clip-path="url(#pc8ee49ebc8)" d="M 136.5 253.049268 
L 229.5 297.716859 
L 322.5 424.741969 
L 415.5 445.408901 
L 508.5 175.891292 
L 601.5 401.833226 
" style="fill:none;stroke:#808080;stroke-linecap:square;stroke-width:1.5;"/>
   </g>
   <g id="line2d_6">
    <path clip-path="url(#pc8ee49ebc8)" d="M 136.5 296.651814 
L 229.5 261.608986 
L 322.5 574.007309 
L 415.5 289.889046 
L 508.5 198.78268 
L 601.5 410.311194 
" style="fill:none;stroke:#808080;stroke-linecap:square;stroke-width:1.5;"/>
   </g>
   <g id="line2d_7">
    <path clip-path="url(#pc8ee49ebc8)" d="M 136.5 318.28753 
L 229.5 606.230966 
L 322.5 567.546925 
L 415.5 468.470342 
L 508.5 594.755608 
L 601.5 572.4818 
" style="fill:none;stroke:#808080;stroke-linecap:square;stroke-width:1.5;"/>
   </g>
   <g id="line2d_8">
    <path clip-path="url(#pc8ee49ebc8)" d="M 136.5 393.264858 
L 229.5 508.316082 
L 322.5 475.864109 
L 415.5 502.893348 
L 508.5 446.848342 
L 601.5 459.37262 
" style="fill:none;stroke:#808080;stroke-linecap:square;stroke-width:1.5;"/>
   </g>
   <g id="line2d_9">
    <path clip-path="url(#pc8ee49ebc8)" d="M 136.5 194.552925 
L 229.5 350.899508 
L 322.5 434.993499 
L 415.5 356.382364 
L 508.5 301.657192 
L 601.5 279.433312 
" style="fill:none;stroke:#808080;stroke-linecap:square;stroke-width:1.5;"/>
   </g>
   <g id="line2d_10">
    <path clip-path="url(#pc8ee49ebc8)" d="M 136.5 519.099281 
L 229.5 568.339596 
L 415.5 567.522415 
L 508.5 483.135959 
L 601.5 505.402469 
" style="fill:none;stroke:#808080;stroke-linecap:square;stroke-width:1.5;"/>
   </g>
   <g id="PathCollection_1">
    <defs>
     <path d="M 0 3 
C 0.795609 3 1.55874 2.683901 2.12132 2.12132 
C 2.683901 1.55874 3 0.795609 3 0 
C 3 -0.795609 2.683901 -1.55874 2.12132 -2.12132 
C 1.55874 -2.683901 0.795609 -3 0 -3 
C -0.795609 -3 -1.55874 -2.683901 -2.12132 -2.12132 
C -2.683901 -1.55874 -3 -0.795609 -3 0 
C -3 0.795609 -2.683901 1.55874 -2.12132 2.12132 
C -1.55874 2.683901 -0.795609 3 0 3 
z
" id="m8a17c78639" style="stroke:#1f77b4;"/>
    </defs>
    <g clip-path="url(#pc8ee49ebc8)">
     <use style="fill:#1f77b4;stroke:#1f77b4;" x="136.5" xlink:href="#m8a17c78639" y="431.525499"/>
     <use style="fill:#1f77b4;stroke:#1f77b4;" x="136.5" xlink:href="#m8a17c78639" y="308.468892"/>
     <use style="fill:#1f77b4;stroke:#1f77b4;" x="136.5" xlink:href="#m8a17c78639" y="519.099281"/>
     <use style="fill:#1f77b4;stroke:#1f77b4;" x="136.5" xlink:href="#m8a17c78639" y="194.552925"/>
     <use style="fill:#1f77b4;stroke:#1f77b4;" x="136.5" xlink:href="#m8a17c78639" y="393.264858"/>
     <use style="fill:#1f77b4;stroke:#1f77b4;" x="136.5" xlink:href="#m8a17c78639" y="318.28753"/>
     <use style="fill:#1f77b4;stroke:#1f77b4;" x="136.5" xlink:href="#m8a17c78639" y="296.651814"/>
     <use style="fill:#1f77b4;stroke:#1f77b4;" x="136.5" xlink:href="#m8a17c78639" y="253.049268"/>
     <use style="fill:#1f77b4;stroke:#1f77b4;" x="136.5" xlink:href="#m8a17c78639" y="255.474579"/>
     <use style="fill:#1f77b4;stroke:#1f77b4;" x="136.5" xlink:href="#m8a17c78639" y="280.876806"/>
    </g>
   </g>
   <g id="PathCollection_2">
    <defs>
     <path d="M 0 3 
C 0.795609 3 1.55874 2.683901 2.12132 2.12132 
C 2.683901 1.55874 3 0.795609 3 0 
C 3 -0.795609 2.683901 -1.55874 2.12132 -2.12132 
C 1.55874 -2.683901 0.795609 -3 0 -3 
C -0.795609 -3 -1.55874 -2.683901 -2.12132 -2.12132 
C -2.683901 -1.55874 -3 -0.795609 -3 0 
C -3 0.795609 -2.683901 1.55874 -2.12132 2.12132 
C -1.55874 2.683901 -0.795609 3 0 3 
z
" id="m08186e3e2a" style="stroke:#ff7f0e;"/>
    </defs>
    <g clip-path="url(#pc8ee49ebc8)">
     <use style="fill:#ff7f0e;stroke:#ff7f0e;" x="229.5" xlink:href="#m08186e3e2a" y="472.737835"/>
     <use style="fill:#ff7f0e;stroke:#ff7f0e;" x="229.5" xlink:href="#m08186e3e2a" y="427.196826"/>
     <use style="fill:#ff7f0e;stroke:#ff7f0e;" x="229.5" xlink:href="#m08186e3e2a" y="568.339596"/>
     <use style="fill:#ff7f0e;stroke:#ff7f0e;" x="229.5" xlink:href="#m08186e3e2a" y="350.899508"/>
     <use style="fill:#ff7f0e;stroke:#ff7f0e;" x="229.5" xlink:href="#m08186e3e2a" y="508.316082"/>
     <use style="fill:#ff7f0e;stroke:#ff7f0e;" x="229.5" xlink:href="#m08186e3e2a" y="606.230966"/>
     <use style="fill:#ff7f0e;stroke:#ff7f0e;" x="229.5" xlink:href="#m08186e3e2a" y="261.608986"/>
     <use style="fill:#ff7f0e;stroke:#ff7f0e;" x="229.5" xlink:href="#m08186e3e2a" y="297.716859"/>
     <use style="fill:#ff7f0e;stroke:#ff7f0e;" x="229.5" xlink:href="#m08186e3e2a" y="135.205707"/>
     <use style="fill:#ff7f0e;stroke:#ff7f0e;" x="229.5" xlink:href="#m08186e3e2a" y="224.934475"/>
    </g>
   </g>
   <g id="PathCollection_3">
    <defs>
     <path d="M 0 3 
C 0.795609 3 1.55874 2.683901 2.12132 2.12132 
C 2.683901 1.55874 3 0.795609 3 0 
C 3 -0.795609 2.683901 -1.55874 2.12132 -2.12132 
C 1.55874 -2.683901 0.795609 -3 0 -3 
C -0.795609 -3 -1.55874 -2.683901 -2.12132 -2.12132 
C -2.683901 -1.55874 -3 -0.795609 -3 0 
C -3 0.795609 -2.683901 1.55874 -2.12132 2.12132 
C -1.55874 2.683901 -0.795609 3 0 3 
z
" id="m70f68362b9" style="stroke:#2ca02c;"/>
    </defs>
    <g clip-path="url(#pc8ee49ebc8)">
     <use style="fill:#2ca02c;stroke:#2ca02c;" x="322.5" xlink:href="#m70f68362b9" y="488.180363"/>
     <use style="fill:#2ca02c;stroke:#2ca02c;" x="322.5" xlink:href="#m70f68362b9" y="434.993499"/>
     <use style="fill:#2ca02c;stroke:#2ca02c;" x="322.5" xlink:href="#m70f68362b9" y="475.864109"/>
     <use style="fill:#2ca02c;stroke:#2ca02c;" x="322.5" xlink:href="#m70f68362b9" y="567.546925"/>
     <use style="fill:#2ca02c;stroke:#2ca02c;" x="322.5" xlink:href="#m70f68362b9" y="574.007309"/>
     <use style="fill:#2ca02c;stroke:#2ca02c;" x="322.5" xlink:href="#m70f68362b9" y="424.741969"/>
     <use style="fill:#2ca02c;stroke:#2ca02c;" x="322.5" xlink:href="#m70f68362b9" y="451.812039"/>
     <use style="fill:#2ca02c;stroke:#2ca02c;" x="322.5" xlink:href="#m70f68362b9" y="543.613409"/>
     <use style="fill:#2ca02c;stroke:#2ca02c;" x="322.5" xlink:href="#m70f68362b9" y="130.850295"/>
    </g>
   </g>
   <g id="PathCollection_4">
    <defs>
     <path d="M 0 3 
C 0.795609 3 1.55874 2.683901 2.12132 2.12132 
C 2.683901 1.55874 3 0.795609 3 0 
C 3 -0.795609 2.683901 -1.55874 2.12132 -2.12132 
C 1.55874 -2.683901 0.795609 -3 0 -3 
C -0.795609 -3 -1.55874 -2.683901 -2.12132 -2.12132 
C -2.683901 -1.55874 -3 -0.795609 -3 0 
C -3 0.795609 -2.683901 1.55874 -2.12132 2.12132 
C -1.55874 2.683901 -0.795609 3 0 3 
z
" id="m6330b882c3" style="stroke:#d62728;"/>
    </defs>
    <g clip-path="url(#pc8ee49ebc8)">
     <use style="fill:#d62728;stroke:#d62728;" x="415.5" xlink:href="#m6330b882c3" y="315.716457"/>
     <use style="fill:#d62728;stroke:#d62728;" x="415.5" xlink:href="#m6330b882c3" y="567.522415"/>
     <use style="fill:#d62728;stroke:#d62728;" x="415.5" xlink:href="#m6330b882c3" y="356.382364"/>
     <use style="fill:#d62728;stroke:#d62728;" x="415.5" xlink:href="#m6330b882c3" y="502.893348"/>
     <use style="fill:#d62728;stroke:#d62728;" x="415.5" xlink:href="#m6330b882c3" y="468.470342"/>
     <use style="fill:#d62728;stroke:#d62728;" x="415.5" xlink:href="#m6330b882c3" y="289.889046"/>
     <use style="fill:#d62728;stroke:#d62728;" x="415.5" xlink:href="#m6330b882c3" y="452.183309"/>
     <use style="fill:#d62728;stroke:#d62728;" x="415.5" xlink:href="#m6330b882c3" y="445.408901"/>
     <use style="fill:#d62728;stroke:#d62728;" x="415.5" xlink:href="#m6330b882c3" y="304.53656"/>
     <use style="fill:#d62728;stroke:#d62728;" x="415.5" xlink:href="#m6330b882c3" y="200.356149"/>
    </g>
   </g>
   <g id="PathCollection_5">
    <defs>
     <path d="M 0 3 
C 0.795609 3 1.55874 2.683901 2.12132 2.12132 
C 2.683901 1.55874 3 0.795609 3 0 
C 3 -0.795609 2.683901 -1.55874 2.12132 -2.12132 
C 1.55874 -2.683901 0.795609 -3 0 -3 
C -0.795609 -3 -1.55874 -2.683901 -2.12132 -2.12132 
C -2.683901 -1.55874 -3 -0.795609 -3 0 
C -3 0.795609 -2.683901 1.55874 -2.12132 2.12132 
C -1.55874 2.683901 -0.795609 3 0 3 
z
" id="m3b371f680e" style="stroke:#9467bd;"/>
    </defs>
    <g clip-path="url(#pc8ee49ebc8)">
     <use style="fill:#9467bd;stroke:#9467bd;" x="508.5" xlink:href="#m3b371f680e" y="316.640752"/>
     <use style="fill:#9467bd;stroke:#9467bd;" x="508.5" xlink:href="#m3b371f680e" y="483.135959"/>
     <use style="fill:#9467bd;stroke:#9467bd;" x="508.5" xlink:href="#m3b371f680e" y="301.657192"/>
     <use style="fill:#9467bd;stroke:#9467bd;" x="508.5" xlink:href="#m3b371f680e" y="446.848342"/>
     <use style="fill:#9467bd;stroke:#9467bd;" x="508.5" xlink:href="#m3b371f680e" y="594.755608"/>
     <use style="fill:#9467bd;stroke:#9467bd;" x="508.5" xlink:href="#m3b371f680e" y="505.467817"/>
     <use style="fill:#9467bd;stroke:#9467bd;" x="508.5" xlink:href="#m3b371f680e" y="198.78268"/>
     <use style="fill:#9467bd;stroke:#9467bd;" x="508.5" xlink:href="#m3b371f680e" y="175.891292"/>
     <use style="fill:#9467bd;stroke:#9467bd;" x="508.5" xlink:href="#m3b371f680e" y="213.281147"/>
     <use style="fill:#9467bd;stroke:#9467bd;" x="508.5" xlink:href="#m3b371f680e" y="262.643592"/>
    </g>
   </g>
   <g id="PathCollection_6">
    <defs>
     <path d="M 0 3 
C 0.795609 3 1.55874 2.683901 2.12132 2.12132 
C 2.683901 1.55874 3 0.795609 3 0 
C 3 -0.795609 2.683901 -1.55874 2.12132 -2.12132 
C 1.55874 -2.683901 0.795609 -3 0 -3 
C -0.795609 -3 -1.55874 -2.683901 -2.12132 -2.12132 
C -2.683901 -1.55874 -3 -0.795609 -3 0 
C -3 0.795609 -2.683901 1.55874 -2.12132 2.12132 
C -1.55874 2.683901 -0.795609 3 0 3 
z
" id="m13ab905aad" style="stroke:#8c564b;"/>
    </defs>
    <g clip-path="url(#pc8ee49ebc8)">
     <use style="fill:#8c564b;stroke:#8c564b;" x="601.5" xlink:href="#m13ab905aad" y="330.751557"/>
     <use style="fill:#8c564b;stroke:#8c564b;" x="601.5" xlink:href="#m13ab905aad" y="505.402469"/>
     <use style="fill:#8c564b;stroke:#8c564b;" x="601.5" xlink:href="#m13ab905aad" y="279.433312"/>
     <use style="fill:#8c564b;stroke:#8c564b;" x="601.5" xlink:href="#m13ab905aad" y="435.516482"/>
     <use style="fill:#8c564b;stroke:#8c564b;" x="601.5" xlink:href="#m13ab905aad" y="459.37262"/>
     <use style="fill:#8c564b;stroke:#8c564b;" x="601.5" xlink:href="#m13ab905aad" y="572.4818"/>
     <use style="fill:#8c564b;stroke:#8c564b;" x="601.5" xlink:href="#m13ab905aad" y="410.311194"/>
     <use style="fill:#8c564b;stroke:#8c564b;" x="601.5" xlink:href="#m13ab905aad" y="401.833226"/>
     <use style="fill:#8c564b;stroke:#8c564b;" x="601.5" xlink:href="#m13ab905aad" y="316.931141"/>
     <use style="fill:#8c564b;stroke:#8c564b;" x="601.5" xlink:href="#m13ab905aad" y="216.104679"/>
    </g>
   </g>
   <g id="matplotlib.axis_1">
    <g id="xtick_1">
     <g id="line2d_11">
      <defs>
       <path d="M 0 0 
L 0 3.5 
" id="m7b0655dd76" style="stroke:#000000;stroke-width:0.8;"/>
      </defs>
      <g>
       <use style="stroke:#000000;stroke-width:0.8;" x="136.5" xlink:href="#m7b0655dd76" y="630"/>
      </g>
     </g>
     <g id="text_1">
      <!-- T1 -->
      <g transform="translate(128.154069 646.685876)scale(0.14 -0.14)">
       <defs>
        <path d="M 3981 4332 
L 288 4332 
L 179 2924 
L 294 2924 
C 378 3981 467 4166 1453 4166 
C 1568 4166 1754 4166 1805 4159 
C 1926 4140 1926 4064 1926 3917 
L 1926 465 
C 1926 236 1907 166 1376 166 
L 1197 166 
L 1197 0 
C 1504 6 1824 12 2138 12 
C 2451 12 2771 6 3078 0 
L 3078 166 
L 2899 166 
C 2368 166 2349 236 2349 465 
L 2349 3917 
C 2349 4057 2349 4134 2464 4159 
C 2515 4166 2701 4166 2816 4166 
C 3795 4166 3891 3981 3974 2924 
L 4090 2924 
L 3981 4332 
z
" id="CMR17-54" transform="scale(0.015625)"/>
        <path d="M 1702 4083 
C 1702 4217 1696 4224 1606 4224 
C 1357 3927 979 3833 621 3820 
C 602 3820 570 3820 563 3808 
C 557 3795 557 3782 557 3648 
C 755 3648 1088 3686 1344 3839 
L 1344 467 
C 1344 243 1331 166 781 166 
L 589 166 
L 589 0 
C 896 6 1216 12 1523 12 
C 1830 12 2150 6 2458 0 
L 2458 166 
L 2266 166 
C 1715 166 1702 236 1702 467 
L 1702 4083 
z
" id="CMR17-31" transform="scale(0.015625)"/>
       </defs>
       <use transform="scale(0.996264)" xlink:href="#CMR17-54"/>
       <use transform="translate(66.509881 0)scale(0.996264)" xlink:href="#CMR17-31"/>
      </g>
     </g>
    </g>
    <g id="xtick_2">
     <g id="line2d_12">
      <g>
       <use style="stroke:#000000;stroke-width:0.8;" x="229.5" xlink:href="#m7b0655dd76" y="630"/>
      </g>
     </g>
     <g id="text_2">
      <!-- T2 -->
      <g transform="translate(221.154069 646.685876)scale(0.14 -0.14)">
       <defs>
        <path d="M 2669 990 
L 2554 990 
C 2490 537 2438 460 2413 422 
C 2381 371 1920 371 1830 371 
L 602 371 
C 832 620 1280 1073 1824 1596 
C 2214 1966 2669 2400 2669 3033 
C 2669 3788 2067 4224 1395 4224 
C 691 4224 262 3603 262 3027 
C 262 2777 448 2745 525 2745 
C 589 2745 781 2783 781 3007 
C 781 3206 614 3264 525 3264 
C 486 3264 448 3257 422 3244 
C 544 3788 915 4057 1306 4057 
C 1862 4057 2227 3616 2227 3033 
C 2227 2477 1901 1998 1536 1583 
L 262 147 
L 262 0 
L 2515 0 
L 2669 990 
z
" id="CMR17-32" transform="scale(0.015625)"/>
       </defs>
       <use transform="scale(0.996264)" xlink:href="#CMR17-54"/>
       <use transform="translate(66.509881 0)scale(0.996264)" xlink:href="#CMR17-32"/>
      </g>
     </g>
    </g>
    <g id="xtick_3">
     <g id="line2d_13">
      <g>
       <use style="stroke:#000000;stroke-width:0.8;" x="322.5" xlink:href="#m7b0655dd76" y="630"/>
      </g>
     </g>
     <g id="text_3">
      <!-- T3 -->
      <g transform="translate(314.154069 646.685876)scale(0.14 -0.14)">
       <defs>
        <path d="M 1414 2176 
C 1984 2176 2234 1673 2234 1094 
C 2234 322 1824 25 1453 25 
C 1114 25 563 193 390 691 
C 422 678 454 678 486 678 
C 640 678 755 780 755 947 
C 755 1132 614 1216 486 1216 
C 378 1216 211 1164 211 927 
C 211 335 787 -128 1466 -128 
C 2176 -128 2720 432 2720 1087 
C 2720 1718 2208 2176 1600 2246 
C 2086 2347 2554 2776 2554 3353 
C 2554 3856 2048 4224 1472 4224 
C 890 4224 378 3862 378 3347 
C 378 3123 544 3084 627 3084 
C 762 3084 877 3167 877 3334 
C 877 3500 762 3584 627 3584 
C 602 3584 570 3584 544 3571 
C 730 3999 1235 4076 1459 4076 
C 1683 4076 2106 3966 2106 3347 
C 2106 3167 2080 2851 1862 2574 
C 1670 2329 1453 2316 1242 2297 
C 1210 2297 1062 2284 1037 2284 
C 992 2278 966 2272 966 2227 
C 966 2182 973 2176 1101 2176 
L 1414 2176 
z
" id="CMR17-33" transform="scale(0.015625)"/>
       </defs>
       <use transform="scale(0.996264)" xlink:href="#CMR17-54"/>
       <use transform="translate(66.509881 0)scale(0.996264)" xlink:href="#CMR17-33"/>
      </g>
     </g>
    </g>
    <g id="xtick_4">
     <g id="line2d_14">
      <g>
       <use style="stroke:#000000;stroke-width:0.8;" x="415.5" xlink:href="#m7b0655dd76" y="630"/>
      </g>
     </g>
     <g id="text_4">
      <!-- T4 -->
      <g transform="translate(407.154069 646.685876)scale(0.14 -0.14)">
       <defs>
        <path d="M 2150 4147 
C 2150 4281 2144 4288 2029 4288 
L 128 1254 
L 128 1088 
L 1779 1088 
L 1779 460 
C 1779 230 1766 166 1318 166 
L 1197 166 
L 1197 0 
C 1402 12 1747 12 1965 12 
C 2182 12 2528 12 2733 0 
L 2733 166 
L 2611 166 
C 2163 166 2150 230 2150 460 
L 2150 1088 
L 2803 1088 
L 2803 1254 
L 2150 1254 
L 2150 4147 
z
M 1798 3723 
L 1798 1254 
L 256 1254 
L 1798 3723 
z
" id="CMR17-34" transform="scale(0.015625)"/>
       </defs>
       <use transform="scale(0.996264)" xlink:href="#CMR17-54"/>
       <use transform="translate(66.509881 0)scale(0.996264)" xlink:href="#CMR17-34"/>
      </g>
     </g>
    </g>
    <g id="xtick_5">
     <g id="line2d_15">
      <g>
       <use style="stroke:#000000;stroke-width:0.8;" x="508.5" xlink:href="#m7b0655dd76" y="630"/>
      </g>
     </g>
     <g id="text_5">
      <!-- T5 -->
      <g transform="translate(500.154069 646.685876)scale(0.14 -0.14)">
       <defs>
        <path d="M 730 3750 
C 794 3724 1056 3641 1325 3641 
C 1920 3641 2246 3961 2432 4140 
C 2432 4191 2432 4224 2394 4224 
C 2387 4224 2374 4224 2323 4198 
C 2099 4102 1837 4032 1517 4032 
C 1325 4032 1037 4055 723 4191 
C 653 4224 640 4224 634 4224 
C 602 4224 595 4217 595 4090 
L 595 2231 
C 595 2113 595 2080 659 2080 
C 691 2080 704 2093 736 2139 
C 941 2435 1222 2560 1542 2560 
C 1766 2560 2246 2415 2246 1293 
C 2246 1087 2246 716 2054 422 
C 1894 159 1645 25 1370 25 
C 947 25 518 319 403 812 
C 429 806 480 793 506 793 
C 589 793 749 838 749 1036 
C 749 1209 627 1280 506 1280 
C 358 1280 262 1190 262 1011 
C 262 454 704 -128 1382 -128 
C 2042 -128 2669 441 2669 1267 
C 2669 2054 2170 2662 1549 2662 
C 1222 2662 947 2540 730 2304 
L 730 3750 
z
" id="CMR17-35" transform="scale(0.015625)"/>
       </defs>
       <use transform="scale(0.996264)" xlink:href="#CMR17-54"/>
       <use transform="translate(66.509881 0)scale(0.996264)" xlink:href="#CMR17-35"/>
      </g>
     </g>
    </g>
    <g id="xtick_6">
     <g id="line2d_16">
      <g>
       <use style="stroke:#000000;stroke-width:0.8;" x="601.5" xlink:href="#m7b0655dd76" y="630"/>
      </g>
     </g>
     <g id="text_6">
      <!-- T6 -->
      <g transform="translate(593.154069 646.685876)scale(0.14 -0.14)">
       <defs>
        <path d="M 678 2198 
C 678 3712 1395 4076 1811 4076 
C 1946 4076 2272 4049 2400 3782 
C 2298 3782 2106 3782 2106 3558 
C 2106 3385 2246 3328 2336 3328 
C 2394 3328 2566 3353 2566 3571 
C 2566 3987 2246 4224 1805 4224 
C 1043 4224 243 3411 243 2011 
C 243 257 966 -128 1478 -128 
C 2099 -128 2688 431 2688 1295 
C 2688 2101 2170 2688 1517 2688 
C 1126 2688 838 2430 678 1979 
L 678 2198 
z
M 1478 25 
C 691 25 691 1212 691 1450 
C 691 1914 909 2585 1504 2585 
C 1613 2585 1926 2585 2138 2140 
C 2253 1889 2253 1624 2253 1302 
C 2253 954 2253 696 2118 438 
C 1978 173 1773 25 1478 25 
z
" id="CMR17-36" transform="scale(0.015625)"/>
       </defs>
       <use transform="scale(0.996264)" xlink:href="#CMR17-54"/>
       <use transform="translate(66.509881 0)scale(0.996264)" xlink:href="#CMR17-36"/>
      </g>
     </g>
    </g>
    <g id="text_7">
     <!-- Time point -->
     <g transform="translate(328.815464 665.851205)scale(0.18 -0.18)">
      <defs>
       <path d="M 992 3961 
C 992 4102 877 4224 730 4224 
C 589 4224 467 4108 467 3961 
C 467 3820 582 3699 730 3699 
C 870 3699 992 3814 992 3961 
z
M 243 2745 
L 243 2579 
C 602 2579 653 2540 653 2231 
L 653 443 
C 653 198 627 166 218 166 
L 218 0 
C 371 12 646 12 806 12 
C 960 12 1222 12 1370 0 
L 1370 166 
C 992 166 979 205 979 436 
L 979 2816 
L 243 2745 
z
" id="CMR17-69" transform="scale(0.015625)"/>
       <path d="M 4326 1954 
C 4326 2276 4269 2816 3507 2816 
C 3072 2816 2771 2520 2656 2173 
L 2650 2173 
C 2573 2700 2195 2816 1837 2816 
C 1331 2816 1069 2424 973 2166 
L 966 2166 
L 966 2816 
L 211 2745 
L 211 2578 
C 589 2578 646 2540 646 2231 
L 646 443 
C 646 198 621 166 211 166 
L 211 0 
C 365 12 646 12 813 12 
C 979 12 1267 12 1421 0 
L 1421 166 
C 1011 166 986 192 986 443 
L 986 1678 
C 986 2269 1344 2713 1792 2713 
C 2266 2713 2317 2289 2317 1980 
L 2317 443 
C 2317 198 2291 166 1882 166 
L 1882 0 
C 2035 12 2317 12 2483 12 
C 2650 12 2938 12 3091 0 
L 3091 166 
C 2682 166 2656 192 2656 443 
L 2656 1678 
C 2656 2269 3014 2713 3462 2713 
C 3936 2713 3987 2289 3987 1980 
L 3987 443 
C 3987 198 3962 166 3552 166 
L 3552 0 
C 3706 12 3987 12 4154 12 
C 4320 12 4608 12 4762 0 
L 4762 166 
C 4352 166 4326 192 4326 443 
L 4326 1954 
z
" id="CMR17-6d" transform="scale(0.015625)"/>
       <path d="M 2438 1503 
C 2464 1529 2464 1542 2464 1606 
C 2464 2251 2118 2816 1389 2816 
C 710 2816 173 2175 173 1394 
C 173 554 781 -64 1459 -64 
C 2176 -64 2458 619 2458 755 
C 2458 800 2419 800 2406 800 
C 2362 800 2355 787 2330 709 
C 2189 270 1837 51 1504 51 
C 1229 51 954 206 781 490 
C 582 819 582 1200 582 1503 
L 2438 1503 
z
M 589 1600 
C 634 2511 1126 2713 1382 2713 
C 1818 2713 2112 2308 2118 1600 
L 589 1600 
z
" id="CMR17-65" transform="scale(0.015625)"/>
       <path d="M 1408 -1114 
C 998 -1114 973 -1088 973 -834 
L 973 380 
C 1158 109 1427 -64 1766 -64 
C 2406 -64 3053 503 3053 1382 
C 3053 2196 2496 2816 1837 2816 
C 1453 2816 1139 2603 960 2345 
L 960 2816 
L 198 2745 
L 198 2577 
C 576 2577 634 2539 634 2228 
L 634 -834 
C 634 -1081 608 -1114 198 -1114 
L 198 -1280 
C 352 -1268 634 -1268 800 -1268 
C 966 -1268 1254 -1268 1408 -1280 
L 1408 -1114 
z
M 973 2015 
C 973 2106 973 2241 1222 2481 
C 1254 2506 1472 2700 1792 2700 
C 2259 2700 2643 2112 2643 1376 
C 2643 639 2234 38 1728 38 
C 1498 38 1248 148 1056 451 
C 973 594 973 632 973 736 
L 973 2015 
z
" id="CMR17-70" transform="scale(0.015625)"/>
       <path d="M 2758 1356 
C 2758 2176 2163 2816 1466 2816 
C 768 2816 173 2176 173 1356 
C 173 550 768 -64 1466 -64 
C 2163 -64 2758 550 2758 1356 
z
M 1466 51 
C 1165 51 909 230 762 480 
C 602 768 582 1126 582 1408 
C 582 1676 595 2009 762 2297 
C 890 2508 1139 2713 1466 2713 
C 1754 2713 1997 2553 2150 2329 
C 2349 2028 2349 1606 2349 1408 
C 2349 1158 2336 774 2163 467 
C 1984 172 1709 51 1466 51 
z
" id="CMR17-6f" transform="scale(0.015625)"/>
       <path d="M 2656 1954 
C 2656 2282 2592 2816 1837 2816 
C 1331 2816 1069 2424 973 2166 
L 966 2166 
L 966 2816 
L 211 2745 
L 211 2578 
C 589 2578 646 2540 646 2231 
L 646 443 
C 646 198 621 166 211 166 
L 211 0 
C 365 12 646 12 813 12 
C 979 12 1267 12 1421 0 
L 1421 166 
C 1011 166 986 192 986 443 
L 986 1678 
C 986 2269 1344 2713 1792 2713 
C 2266 2713 2317 2289 2317 1980 
L 2317 443 
C 2317 198 2291 166 1882 166 
L 1882 0 
C 2035 12 2317 12 2483 12 
C 2650 12 2938 12 3091 0 
L 3091 166 
C 2682 166 2656 192 2656 443 
L 2656 1954 
z
" id="CMR17-6e" transform="scale(0.015625)"/>
       <path d="M 966 2585 
L 1862 2585 
L 1862 2752 
L 966 2752 
L 966 3968 
L 851 3968 
C 838 3292 614 2700 70 2687 
L 70 2585 
L 627 2585 
L 627 778 
C 627 655 627 -64 1370 -64 
C 1747 -64 1965 308 1965 784 
L 1965 1151 
L 1850 1151 
L 1850 790 
C 1850 347 1677 51 1408 51 
C 1222 51 966 179 966 765 
L 966 2585 
z
" id="CMR17-74" transform="scale(0.015625)"/>
      </defs>
      <use transform="scale(0.996264)" xlink:href="#CMR17-54"/>
      <use transform="translate(66.509881 0)scale(0.996264)" xlink:href="#CMR17-69"/>
      <use transform="translate(91.380939 0)scale(0.996264)" xlink:href="#CMR17-6d"/>
      <use transform="translate(168.300529 0)scale(0.996264)" xlink:href="#CMR17-65"/>
      <use transform="translate(238.862156 0)scale(0.996264)" xlink:href="#CMR17-70"/>
      <use transform="translate(292.359964 0)scale(0.996264)" xlink:href="#CMR17-6f"/>
      <use transform="translate(338.050441 0)scale(0.996264)" xlink:href="#CMR17-69"/>
      <use transform="translate(362.9215 0)scale(0.996264)" xlink:href="#CMR17-6e"/>
      <use transform="translate(411.214416 0)scale(0.996264)" xlink:href="#CMR17-74"/>
     </g>
    </g>
   </g>
   <g id="matplotlib.axis_2">
    <g id="ytick_1">
     <g id="line2d_17">
      <defs>
       <path d="M 0 0 
L -3.5 0 
" id="mcfcc188336" style="stroke:#000000;stroke-width:0.8;"/>
      </defs>
      <g>
       <use style="stroke:#000000;stroke-width:0.8;" x="90" xlink:href="#mcfcc188336" y="629.906615"/>
      </g>
     </g>
     <g id="text_8">
      <!-- $\mathdefault{−1}$ -->
      <g transform="translate(65.323276 634.749553)scale(0.14 -0.14)">
       <defs>
        <path d="M 4218 1472 
C 4326 1472 4442 1472 4442 1600 
C 4442 1728 4326 1728 4218 1728 
L 755 1728 
C 646 1728 531 1728 531 1600 
C 531 1472 646 1472 755 1472 
L 4218 1472 
z
" id="CMSY10-0" transform="scale(0.015625)"/>
       </defs>
       <use transform="scale(0.996264)" xlink:href="#CMSY10-0"/>
       <use transform="translate(77.487468 0)scale(0.996264)" xlink:href="#CMR17-31"/>
      </g>
     </g>
    </g>
    <g id="ytick_2">
     <g id="line2d_18">
      <g>
       <use style="stroke:#000000;stroke-width:0.8;" x="90" xlink:href="#mcfcc188336" y="520.706493"/>
      </g>
     </g>
     <g id="text_9">
      <!-- $\mathdefault{0}$ -->
      <g transform="translate(76.171511 525.549431)scale(0.14 -0.14)">
       <defs>
        <path d="M 2688 2038 
C 2688 2430 2682 3099 2413 3613 
C 2176 4063 1798 4224 1466 4224 
C 1158 4224 768 4082 525 3620 
C 269 3137 243 2539 243 2038 
C 243 1671 250 1112 448 623 
C 723 -39 1216 -128 1466 -128 
C 1760 -128 2208 -7 2470 604 
C 2662 1048 2688 1568 2688 2038 
z
M 1466 -26 
C 1056 -26 813 328 723 816 
C 653 1196 653 1749 653 2109 
C 653 2604 653 3015 736 3407 
C 858 3954 1216 4121 1466 4121 
C 1728 4121 2067 3947 2189 3420 
C 2272 3054 2278 2623 2278 2109 
C 2278 1691 2278 1176 2202 797 
C 2067 96 1690 -26 1466 -26 
z
" id="CMR17-30" transform="scale(0.015625)"/>
       </defs>
       <use transform="scale(0.996264)" xlink:href="#CMR17-30"/>
      </g>
     </g>
    </g>
    <g id="ytick_3">
     <g id="line2d_19">
      <g>
       <use style="stroke:#000000;stroke-width:0.8;" x="90" xlink:href="#mcfcc188336" y="411.50637"/>
      </g>
     </g>
     <g id="text_10">
      <!-- $\mathdefault{1}$ -->
      <g transform="translate(76.171511 416.349309)scale(0.14 -0.14)">
       <use transform="scale(0.996264)" xlink:href="#CMR17-31"/>
      </g>
     </g>
    </g>
    <g id="ytick_4">
     <g id="line2d_20">
      <g>
       <use style="stroke:#000000;stroke-width:0.8;" x="90" xlink:href="#mcfcc188336" y="302.306248"/>
      </g>
     </g>
     <g id="text_11">
      <!-- $\mathdefault{2}$ -->
      <g transform="translate(76.171511 307.149186)scale(0.14 -0.14)">
       <use transform="scale(0.996264)" xlink:href="#CMR17-32"/>
      </g>
     </g>
    </g>
    <g id="ytick_5">
     <g id="line2d_21">
      <g>
       <use style="stroke:#000000;stroke-width:0.8;" x="90" xlink:href="#mcfcc188336" y="193.106126"/>
      </g>
     </g>
     <g id="text_12">
      <!-- $\mathdefault{3}$ -->
      <g transform="translate(76.171511 197.949064)scale(0.14 -0.14)">
       <use transform="scale(0.996264)" xlink:href="#CMR17-33"/>
      </g>
     </g>
    </g>
    <g id="text_13">
     <!-- GMHI2 -->
     <g transform="translate(57.835212 385.599921)rotate(-90)scale(0.18 -0.18)">
      <defs>
       <path d="M 3974 1258 
C 3974 1503 3994 1536 4390 1536 
L 4390 1702 
C 4237 1689 3891 1689 3718 1689 
C 3539 1689 3040 1696 2797 1702 
L 2797 1536 
L 2989 1536 
C 3539 1536 3552 1464 3552 1232 
L 3552 806 
C 3552 96 2720 38 2522 38 
C 1862 38 781 496 781 2179 
C 781 3862 1843 4313 2464 4313 
C 3187 4313 3712 3681 3834 2785 
C 3846 2708 3846 2695 3904 2695 
C 3974 2695 3974 2708 3974 2824 
L 3974 4351 
C 3974 4467 3968 4473 3930 4473 
C 3904 4473 3898 4467 3853 4390 
L 3571 3849 
C 3258 4249 2874 4480 2381 4480 
C 1286 4480 294 3507 294 2179 
C 294 858 1267 -128 2394 -128 
C 2912 -128 3418 57 3616 425 
C 3725 161 3904 -20 3936 -20 
C 3968 -20 3974 -13 3974 102 
L 3974 1258 
z
" id="CMR17-47" transform="scale(0.015625)"/>
       <path d="M 1338 4249 
C 1299 4345 1293 4352 1158 4352 
L 339 4352 
L 339 4185 
C 781 4185 851 4185 851 3898 
L 851 624 
C 851 465 851 166 339 166 
L 339 0 
C 486 12 755 12 915 12 
C 1075 12 1344 12 1491 0 
L 1491 166 
C 979 166 979 465 979 624 
L 979 4159 
L 986 4159 
L 2490 102 
C 2515 38 2528 0 2579 0 
C 2630 0 2643 38 2669 102 
L 4186 4191 
L 4192 4191 
L 4192 453 
C 4192 166 4122 166 3680 166 
L 3680 0 
C 3853 12 4198 12 4384 12 
C 4570 12 4922 12 5094 0 
L 5094 166 
C 4653 166 4582 166 4582 453 
L 4582 3898 
C 4582 4185 4653 4185 5094 4185 
L 5094 4352 
L 4282 4352 
C 4147 4352 4141 4345 4102 4249 
L 2720 516 
L 1338 4249 
z
" id="CMR17-4d" transform="scale(0.015625)"/>
       <path d="M 3590 3898 
C 3590 4185 3661 4185 4102 4185 
L 4102 4352 
C 3917 4339 3578 4339 3379 4339 
C 3181 4339 2842 4339 2656 4352 
L 2656 4185 
C 3098 4185 3168 4185 3168 3898 
L 3168 2342 
L 1261 2342 
L 1261 3898 
C 1261 4185 1331 4185 1773 4185 
L 1773 4352 
C 1587 4339 1248 4339 1050 4339 
C 851 4339 512 4339 326 4352 
L 326 4185 
C 768 4185 838 4185 838 3898 
L 838 452 
C 838 166 768 166 326 166 
L 326 0 
C 512 12 851 12 1050 12 
C 1248 12 1587 12 1773 0 
L 1773 166 
C 1331 166 1261 166 1261 452 
L 1261 2176 
L 3168 2176 
L 3168 452 
C 3168 166 3098 166 2656 166 
L 2656 0 
C 2842 12 3181 12 3379 12 
C 3578 12 3917 12 4102 0 
L 4102 166 
C 3661 166 3590 166 3590 452 
L 3590 3898 
z
" id="CMR17-48" transform="scale(0.015625)"/>
       <path d="M 1261 3898 
C 1261 4185 1338 4185 1798 4185 
L 1798 4352 
C 1594 4339 1267 4339 1050 4339 
C 832 4339 506 4339 301 4352 
L 301 4185 
C 762 4185 838 4185 838 3898 
L 838 453 
C 838 166 762 166 301 166 
L 301 0 
C 506 12 832 12 1050 12 
C 1267 12 1594 12 1798 0 
L 1798 166 
C 1338 166 1261 166 1261 453 
L 1261 3898 
z
" id="CMR17-49" transform="scale(0.015625)"/>
      </defs>
      <use transform="scale(0.996264)" xlink:href="#CMR17-47"/>
      <use transform="translate(72.355346 0)scale(0.996264)" xlink:href="#CMR17-4d"/>
      <use transform="translate(157.042286 0)scale(0.996264)" xlink:href="#CMR17-48"/>
      <use transform="translate(226.114716 0)scale(0.996264)" xlink:href="#CMR17-49"/>
      <use transform="translate(258.753125 0)scale(0.996264)" xlink:href="#CMR17-32"/>
     </g>
    </g>
   </g>
   <g id="line2d_22">
    <path clip-path="url(#pc8ee49ebc8)" d="M 136.5 374.520526 
L 136.5 519.099281 
" style="fill:none;stroke:#1f77b4;stroke-linecap:square;stroke-width:3;"/>
   </g>
   <g id="line2d_23">
    <path clip-path="url(#pc8ee49ebc8)" d="M 136.5 261.825136 
L 136.5 194.552925 
" style="fill:none;stroke:#1f77b4;stroke-linecap:square;stroke-width:3;"/>
   </g>
   <g id="line2d_24">
    <path clip-path="url(#pc8ee49ebc8)" d="M 124.875 519.099281 
L 148.125 519.099281 
" style="fill:none;"/>
   </g>
   <g id="line2d_25">
    <path clip-path="url(#pc8ee49ebc8)" d="M 124.875 194.552925 
L 148.125 194.552925 
" style="fill:none;"/>
   </g>
   <g id="line2d_26"/>
   <g id="line2d_27">
    <path clip-path="url(#pc8ee49ebc8)" d="M 229.5 499.42152 
L 229.5 606.230966 
" style="fill:none;stroke:#ff7f0e;stroke-linecap:square;stroke-width:3;"/>
   </g>
   <g id="line2d_28">
    <path clip-path="url(#pc8ee49ebc8)" d="M 229.5 270.635954 
L 229.5 135.205707 
" style="fill:none;stroke:#ff7f0e;stroke-linecap:square;stroke-width:3;"/>
   </g>
   <g id="line2d_29">
    <path clip-path="url(#pc8ee49ebc8)" d="M 217.875 606.230966 
L 241.125 606.230966 
" style="fill:none;"/>
   </g>
   <g id="line2d_30">
    <path clip-path="url(#pc8ee49ebc8)" d="M 217.875 135.205707 
L 241.125 135.205707 
" style="fill:none;"/>
   </g>
   <g id="line2d_31"/>
   <g id="line2d_32">
    <path clip-path="url(#pc8ee49ebc8)" d="M 322.5 543.613409 
L 322.5 574.007309 
" style="fill:none;stroke:#2ca02c;stroke-linecap:square;stroke-width:3;"/>
   </g>
   <g id="line2d_33">
    <path clip-path="url(#pc8ee49ebc8)" d="M 322.5 434.993499 
L 322.5 424.741969 
" style="fill:none;stroke:#2ca02c;stroke-linecap:square;stroke-width:3;"/>
   </g>
   <g id="line2d_34">
    <path clip-path="url(#pc8ee49ebc8)" d="M 310.875 574.007309 
L 334.125 574.007309 
" style="fill:none;"/>
   </g>
   <g id="line2d_35">
    <path clip-path="url(#pc8ee49ebc8)" d="M 310.875 424.741969 
L 334.125 424.741969 
" style="fill:none;"/>
   </g>
   <g id="line2d_36">
    <defs>
     <path d="M 0 3 
C 0.795609 3 1.55874 2.683901 2.12132 2.12132 
C 2.683901 1.55874 3 0.795609 3 0 
C 3 -0.795609 2.683901 -1.55874 2.12132 -2.12132 
C 1.55874 -2.683901 0.795609 -3 0 -3 
C -0.795609 -3 -1.55874 -2.683901 -2.12132 -2.12132 
C -2.683901 -1.55874 -3 -0.795609 -3 0 
C -3 0.795609 -2.683901 1.55874 -2.12132 2.12132 
C -1.55874 2.683901 -0.795609 3 0 3 
z
" id="m9248304f81" style="stroke:#2ca02c;"/>
    </defs>
    <g clip-path="url(#pc8ee49ebc8)">
     <use style="fill-opacity:0;stroke:#2ca02c;" x="322.5" xlink:href="#m9248304f81" y="130.850295"/>
    </g>
   </g>
   <g id="line2d_37">
    <path clip-path="url(#pc8ee49ebc8)" d="M 415.5 464.398584 
L 415.5 567.522415 
" style="fill:none;stroke:#d62728;stroke-linecap:square;stroke-width:3;"/>
   </g>
   <g id="line2d_38">
    <path clip-path="url(#pc8ee49ebc8)" d="M 415.5 307.331535 
L 415.5 200.356149 
" style="fill:none;stroke:#d62728;stroke-linecap:square;stroke-width:3;"/>
   </g>
   <g id="line2d_39">
    <path clip-path="url(#pc8ee49ebc8)" d="M 403.875 567.522415 
L 427.125 567.522415 
" style="fill:none;"/>
   </g>
   <g id="line2d_40">
    <path clip-path="url(#pc8ee49ebc8)" d="M 403.875 200.356149 
L 427.125 200.356149 
" style="fill:none;"/>
   </g>
   <g id="line2d_41"/>
   <g id="line2d_42">
    <path clip-path="url(#pc8ee49ebc8)" d="M 508.5 474.064055 
L 508.5 594.755608 
" style="fill:none;stroke:#9467bd;stroke-linecap:square;stroke-width:3;"/>
   </g>
   <g id="line2d_43">
    <path clip-path="url(#pc8ee49ebc8)" d="M 508.5 225.621758 
L 508.5 175.891292 
" style="fill:none;stroke:#9467bd;stroke-linecap:square;stroke-width:3;"/>
   </g>
   <g id="line2d_44">
    <path clip-path="url(#pc8ee49ebc8)" d="M 496.875 594.755608 
L 520.125 594.755608 
" style="fill:none;"/>
   </g>
   <g id="line2d_45">
    <path clip-path="url(#pc8ee49ebc8)" d="M 496.875 175.891292 
L 520.125 175.891292 
" style="fill:none;"/>
   </g>
   <g id="line2d_46"/>
   <g id="line2d_47">
    <path clip-path="url(#pc8ee49ebc8)" d="M 601.5 453.408586 
L 601.5 572.4818 
" style="fill:none;stroke:#8c564b;stroke-linecap:square;stroke-width:3;"/>
   </g>
   <g id="line2d_48">
    <path clip-path="url(#pc8ee49ebc8)" d="M 601.5 320.386245 
L 601.5 216.104679 
" style="fill:none;stroke:#8c564b;stroke-linecap:square;stroke-width:3;"/>
   </g>
   <g id="line2d_49">
    <path clip-path="url(#pc8ee49ebc8)" d="M 589.875 572.4818 
L 613.125 572.4818 
" style="fill:none;"/>
   </g>
   <g id="line2d_50">
    <path clip-path="url(#pc8ee49ebc8)" d="M 589.875 216.104679 
L 613.125 216.104679 
" style="fill:none;"/>
   </g>
   <g id="line2d_51"/>
   <g id="patch_3">
    <path clip-path="url(#pc8ee49ebc8)" d="M 113.25 374.520526 
L 159.75 374.520526 
L 159.75 261.825136 
L 113.25 261.825136 
L 113.25 374.520526 
z
" style="fill:none;stroke:#1f77b4;stroke-linejoin:miter;stroke-width:3;"/>
   </g>
   <g id="patch_4">
    <path clip-path="url(#pc8ee49ebc8)" d="M 206.25 499.42152 
L 252.75 499.42152 
L 252.75 270.635954 
L 206.25 270.635954 
L 206.25 499.42152 
z
" style="fill:none;stroke:#ff7f0e;stroke-linejoin:miter;stroke-width:3;"/>
   </g>
   <g id="patch_5">
    <path clip-path="url(#pc8ee49ebc8)" d="M 299.25 543.613409 
L 345.75 543.613409 
L 345.75 434.993499 
L 299.25 434.993499 
L 299.25 543.613409 
z
" style="fill:none;stroke:#2ca02c;stroke-linejoin:miter;stroke-width:3;"/>
   </g>
   <g id="patch_6">
    <path clip-path="url(#pc8ee49ebc8)" d="M 392.25 464.398584 
L 438.75 464.398584 
L 438.75 307.331535 
L 392.25 307.331535 
L 392.25 464.398584 
z
" style="fill:none;stroke:#d62728;stroke-linejoin:miter;stroke-width:3;"/>
   </g>
   <g id="patch_7">
    <path clip-path="url(#pc8ee49ebc8)" d="M 485.25 474.064055 
L 531.75 474.064055 
L 531.75 225.621758 
L 485.25 225.621758 
L 485.25 474.064055 
z
" style="fill:none;stroke:#9467bd;stroke-linejoin:miter;stroke-width:3;"/>
   </g>
   <g id="patch_8">
    <path clip-path="url(#pc8ee49ebc8)" d="M 578.25 453.408586 
L 624.75 453.408586 
L 624.75 320.386245 
L 578.25 320.386245 
L 578.25 453.408586 
z
" style="fill:none;stroke:#8c564b;stroke-linejoin:miter;stroke-width:3;"/>
   </g>
   <g id="line2d_52">
    <path clip-path="url(#pc8ee49ebc8)" d="M 113.25 302.560353 
L 159.75 302.560353 
" style="fill:none;stroke:#1f77b4;stroke-linecap:square;stroke-width:3;"/>
   </g>
   <g id="line2d_53">
    <path clip-path="url(#pc8ee49ebc8)" d="M 206.25 389.048167 
L 252.75 389.048167 
" style="fill:none;stroke:#ff7f0e;stroke-linecap:square;stroke-width:3;"/>
   </g>
   <g id="line2d_54">
    <path clip-path="url(#pc8ee49ebc8)" d="M 299.25 475.864109 
L 345.75 475.864109 
" style="fill:none;stroke:#2ca02c;stroke-linecap:square;stroke-width:3;"/>
   </g>
   <g id="line2d_55">
    <path clip-path="url(#pc8ee49ebc8)" d="M 392.25 400.895632 
L 438.75 400.895632 
" style="fill:none;stroke:#d62728;stroke-linecap:square;stroke-width:3;"/>
   </g>
   <g id="line2d_56">
    <path clip-path="url(#pc8ee49ebc8)" d="M 485.25 309.148972 
L 531.75 309.148972 
" style="fill:none;stroke:#9467bd;stroke-linecap:square;stroke-width:3;"/>
   </g>
   <g id="line2d_57">
    <path clip-path="url(#pc8ee49ebc8)" d="M 578.25 406.07221 
L 624.75 406.07221 
" style="fill:none;stroke:#8c564b;stroke-linecap:square;stroke-width:3;"/>
   </g>
   <g id="patch_9">
    <path d="M 90 630 
L 90 86.4 
" style="fill:none;stroke:#000000;stroke-linecap:square;stroke-linejoin:miter;stroke-width:0.8;"/>
   </g>
   <g id="patch_10">
    <path d="M 648 630 
L 648 86.4 
" style="fill:none;stroke:#000000;stroke-linecap:square;stroke-linejoin:miter;stroke-width:0.8;"/>
   </g>
   <g id="patch_11">
    <path d="M 90 630 
L 648 630 
" style="fill:none;stroke:#000000;stroke-linecap:square;stroke-linejoin:miter;stroke-width:0.8;"/>
   </g>
   <g id="patch_12">
    <path d="M 90 86.4 
L 648 86.4 
" style="fill:none;stroke:#000000;stroke-linecap:square;stroke-linejoin:miter;stroke-width:0.8;"/>
   </g>
   <g id="text_14">
    <!-- n.s. -->
    <g transform="translate(220.687998 111.357485)scale(0.12 -0.12)">
     <defs>
      <path d="M 1062 262 
C 1062 422 934 524 800 524 
C 672 524 538 422 538 262 
C 538 102 666 0 800 0 
C 928 0 1062 102 1062 262 
z
" id="CMR17-2e" transform="scale(0.015625)"/>
      <path d="M 1978 2688 
C 1978 2803 1971 2809 1933 2809 
C 1907 2809 1901 2803 1824 2707 
C 1805 2681 1747 2617 1728 2592 
C 1523 2809 1235 2816 1126 2816 
C 416 2816 160 2444 160 2073 
C 160 1497 813 1363 998 1324 
C 1402 1241 1542 1216 1677 1100 
C 1760 1024 1901 883 1901 652 
C 1901 384 1747 38 1158 38 
C 602 38 403 460 288 1024 
C 269 1113 269 1120 218 1120 
C 166 1120 160 1113 160 985 
L 160 64 
C 160 -52 166 -58 205 -58 
C 237 -58 243 -52 275 0 
C 314 57 410 211 448 275 
C 576 102 800 -64 1158 -64 
C 1792 -64 2131 281 2131 780 
C 2131 1107 1958 1280 1875 1356 
C 1683 1555 1459 1600 1190 1651 
C 838 1728 390 1817 390 2208 
C 390 2374 480 2726 1126 2726 
C 1811 2726 1850 2086 1862 1881 
C 1869 1849 1901 1843 1920 1843 
C 1978 1843 1978 1862 1978 1971 
L 1978 2688 
z
" id="CMR17-73" transform="scale(0.015625)"/>
     </defs>
     <use transform="scale(0.996264)" xlink:href="#CMR17-6e"/>
     <use transform="translate(50.89537 0)scale(0.996264)" xlink:href="#CMR17-2e"/>
     <use transform="translate(75.766428 0)scale(0.996264)" xlink:href="#CMR17-73"/>
     <use transform="translate(111.567766 0)scale(0.996264)" xlink:href="#CMR17-2e"/>
    </g>
   </g>
   <g id="text_15">
    <!-- $P = 0.02$ -->
    <g transform="translate(299.63598 111.357485)scale(0.12 -0.12)">
     <defs>
      <path d="M 1894 2022 
L 2970 2022 
C 3853 2022 4736 2673 4736 3400 
C 4736 3898 4314 4352 3507 4352 
L 1530 4352 
C 1408 4352 1350 4352 1350 4230 
C 1350 4166 1408 4166 1504 4166 
C 1894 4166 1894 4115 1894 4045 
C 1894 4032 1894 3994 1869 3898 
L 1005 471 
C 947 249 934 185 486 185 
C 365 185 301 185 301 70 
C 301 0 358 0 397 0 
C 518 0 646 12 768 12 
L 1517 12 
C 1638 12 1773 0 1894 0 
C 1946 0 2016 0 2016 121 
C 2016 185 1958 185 1862 185 
C 1478 185 1472 230 1472 293 
C 1472 325 1478 369 1485 401 
L 1894 2022 
z
M 2355 3917 
C 2413 4153 2438 4166 2688 4166 
L 3322 4166 
C 3802 4166 4198 4013 4198 3534 
C 4198 3369 4115 2826 3821 2533 
C 3712 2418 3405 2176 2822 2176 
L 1920 2176 
L 2355 3917 
z
" id="CMMI12-50" transform="scale(0.015625)"/>
      <path d="M 4115 2048 
C 4211 2048 4307 2048 4307 2156 
C 4307 2272 4198 2272 4090 2272 
L 512 2272 
C 403 2272 294 2272 294 2156 
C 294 2048 390 2048 486 2048 
L 4115 2048 
z
M 4090 927 
C 4198 927 4307 927 4307 1043 
C 4307 1152 4211 1152 4115 1152 
L 486 1152 
C 390 1152 294 1152 294 1043 
C 294 927 403 927 512 927 
L 4090 927 
z
" id="CMR17-3d" transform="scale(0.015625)"/>
      <path d="M 1178 307 
C 1178 492 1024 620 870 620 
C 685 620 557 467 557 313 
C 557 128 710 0 864 0 
C 1050 0 1178 153 1178 307 
z
" id="CMMI12-3a" transform="scale(0.015625)"/>
     </defs>
     <use transform="scale(0.996264)" xlink:href="#CMMI12-50"/>
     <use transform="translate(104.099829 0)scale(0.996264)" xlink:href="#CMR17-3d"/>
     <use transform="translate(203.488627 0)scale(0.996264)" xlink:href="#CMR17-30"/>
     <use transform="translate(249.179104 0)scale(0.996264)" xlink:href="#CMMI12-3a"/>
     <use transform="translate(276.276281 0)scale(0.996264)" xlink:href="#CMR17-30"/>
     <use transform="translate(321.966758 0)scale(0.996264)" xlink:href="#CMR17-32"/>
    </g>
   </g>
   <g id="text_16">
    <!-- n.s. -->
    <g transform="translate(406.687998 111.357485)scale(0.12 -0.12)">
     <use transform="scale(0.996264)" xlink:href="#CMR17-6e"/>
     <use transform="translate(50.89537 0)scale(0.996264)" xlink:href="#CMR17-2e"/>
     <use transform="translate(75.766428 0)scale(0.996264)" xlink:href="#CMR17-73"/>
     <use transform="translate(111.567766 0)scale(0.996264)" xlink:href="#CMR17-2e"/>
    </g>
   </g>
   <g id="text_17">
    <!-- n.s. -->
    <g transform="translate(499.687998 111.357485)scale(0.12 -0.12)">
     <use transform="scale(0.996264)" xlink:href="#CMR17-6e"/>
     <use transform="translate(50.89537 0)scale(0.996264)" xlink:href="#CMR17-2e"/>
     <use transform="translate(75.766428 0)scale(0.996264)" xlink:href="#CMR17-73"/>
     <use transform="translate(111.567766 0)scale(0.996264)" xlink:href="#CMR17-2e"/>
    </g>
   </g>
   <g id="text_18">
    <!-- $P = 0.027$ -->
    <g transform="translate(575.709485 111.357485)scale(0.12 -0.12)">
     <defs>
      <path d="M 2886 3955 
L 2886 4096 
L 1382 4096 
C 634 4096 621 4166 595 4288 
L 480 4288 
L 294 3104 
L 410 3104 
C 429 3226 474 3552 550 3673 
C 589 3724 1062 3724 1171 3724 
L 2579 3724 
L 1869 2670 
C 1395 1961 1069 1003 1069 166 
C 1069 89 1069 -128 1299 -128 
C 1530 -128 1530 89 1530 172 
L 1530 466 
C 1530 1514 1709 2204 2003 2644 
L 2886 3955 
z
" id="CMR17-37" transform="scale(0.015625)"/>
     </defs>
     <use transform="scale(0.996264)" xlink:href="#CMMI12-50"/>
     <use transform="translate(104.099829 0)scale(0.996264)" xlink:href="#CMR17-3d"/>
     <use transform="translate(203.488627 0)scale(0.996264)" xlink:href="#CMR17-30"/>
     <use transform="translate(249.179104 0)scale(0.996264)" xlink:href="#CMMI12-3a"/>
     <use transform="translate(276.276281 0)scale(0.996264)" xlink:href="#CMR17-30"/>
     <use transform="translate(321.966758 0)scale(0.996264)" xlink:href="#CMR17-32"/>
     <use transform="translate(367.657235 0)scale(0.996264)" xlink:href="#CMR17-37"/>
    </g>
   </g>
  </g>
 </g>
 <defs>
  <clipPath id="pc8ee49ebc8">
   <rect height="543.6" width="558" x="90" y="86.4"/>
  </clipPath>
 </defs>
</svg>
