<?xml version="1.0" encoding="utf-8" standalone="no"?>
<!DOCTYPE svg PUBLIC "-//W3C//DTD SVG 1.1//EN"
  "http://www.w3.org/Graphics/SVG/1.1/DTD/svg11.dtd">
<svg height="720pt" version="1.1" viewBox="0 0 720 720" width="720pt" xmlns="http://www.w3.org/2000/svg" xmlns:xlink="http://www.w3.org/1999/xlink">
 <metadata>
  <rdf:RDF xmlns:cc="http://creativecommons.org/ns#" xmlns:dc="http://purl.org/dc/elements/1.1/" xmlns:rdf="http://www.w3.org/1999/02/22-rdf-syntax-ns#">
   <cc:Work>
    <dc:type rdf:resource="http://purl.org/dc/dcmitype/StillImage"/>
    <dc:date>2022-08-26T11:26:02.760103</dc:date>
    <dc:format>image/svg+xml</dc:format>
    <dc:creator>
     <cc:Agent>
      <dc:title>Matplotlib v3.4.3, https://matplotlib.org/</dc:title>
     </cc:Agent>
    </dc:creator>
   </cc:Work>
  </rdf:RDF>
 </metadata>
 <defs>
  <style type="text/css">*{stroke-linecap:butt;stroke-linejoin:round;}</style>
 </defs>
 <g id="figure_1">
  <g id="patch_1">
   <path d="M 0 720 
L 720 720 
L 720 0 
L 0 0 
z
" style="fill:none;"/>
  </g>
  <g id="axes_1">
   <g id="patch_2">
    <path d="M 90 630 
L 648 630 
L 648 86.4 
L 90 86.4 
z
" style="fill:#ffffff;"/>
   </g>
   <g id="line2d_1">
    <path clip-path="url(#p5a3ea08404)" d="M 145.8 324.961349 
L 369 400.403719 
L 480.6 314.902366 
L 592.2 289.754909 
" style="fill:none;stroke:#808080;stroke-linecap:square;stroke-width:1.5;"/>
   </g>
   <g id="line2d_2">
    <path clip-path="url(#p5a3ea08404)" d="M 145.8 229.401013 
L 369 450.698633 
L 480.6 400.403719 
L 592.2 345.079314 
" style="fill:none;stroke:#808080;stroke-linecap:square;stroke-width:1.5;"/>
   </g>
   <g id="line2d_3">
    <path clip-path="url(#p5a3ea08404)" d="M 145.8 164.017625 
L 257.4 465.787107 
L 369 470.816598 
L 480.6 219.34203 
L 592.2 199.224065 
" style="fill:none;stroke:#808080;stroke-linecap:square;stroke-width:1.5;"/>
   </g>
   <g id="line2d_4">
    <path clip-path="url(#p5a3ea08404)" d="M 145.8 304.843384 
L 257.4 521.111512 
L 369 410.462702 
L 480.6 299.813892 
L 592.2 390.344737 
" style="fill:none;stroke:#808080;stroke-linecap:square;stroke-width:1.5;"/>
   </g>
   <g id="line2d_5">
    <path clip-path="url(#p5a3ea08404)" d="M 145.8 249.518979 
L 257.4 606.612865 
L 369 430.580668 
L 480.6 335.020332 
L 592.2 304.843384 
" style="fill:none;stroke:#808080;stroke-linecap:square;stroke-width:1.5;"/>
   </g>
   <g id="line2d_6">
    <path clip-path="url(#p5a3ea08404)" d="M 145.8 179.1061 
L 257.4 214.312539 
L 369 556.317952 
L 480.6 455.728124 
L 592.2 284.725418 
" style="fill:none;stroke:#808080;stroke-linecap:square;stroke-width:1.5;"/>
   </g>
   <g id="line2d_7">
    <path clip-path="url(#p5a3ea08404)" d="M 145.8 138.870169 
L 257.4 204.253556 
L 369 319.931858 
L 480.6 289.754909 
L 592.2 143.89966 
" style="fill:none;stroke:#808080;stroke-linecap:square;stroke-width:1.5;"/>
   </g>
   <g id="line2d_8">
    <path clip-path="url(#p5a3ea08404)" d="M 145.8 219.34203 
L 257.4 395.374228 
L 369 460.757616 
L 480.6 309.872875 
L 592.2 335.020332 
" style="fill:none;stroke:#808080;stroke-linecap:square;stroke-width:1.5;"/>
   </g>
   <g id="line2d_9">
    <path clip-path="url(#p5a3ea08404)" d="M 145.8 284.725418 
L 257.4 581.465408 
L 369 500.993547 
L 480.6 259.577961 
L 592.2 209.283048 
" style="fill:none;stroke:#808080;stroke-linecap:square;stroke-width:1.5;"/>
   </g>
   <g id="line2d_10">
    <path clip-path="url(#p5a3ea08404)" d="M 145.8 229.401013 
L 257.4 294.784401 
L 369 345.079314 
L 480.6 294.784401 
L 592.2 279.695927 
" style="fill:none;stroke:#808080;stroke-linecap:square;stroke-width:1.5;"/>
   </g>
   <g id="line2d_11">
    <path clip-path="url(#p5a3ea08404)" d="M 145.8 274.666435 
L 369 390.344737 
L 480.6 244.489487 
L 592.2 219.34203 
" style="fill:none;stroke:#808080;stroke-linecap:square;stroke-width:1.5;"/>
   </g>
   <g id="line2d_12">
    <path clip-path="url(#p5a3ea08404)" d="M 145.8 234.430504 
L 257.4 340.049823 
L 369 445.669142 
L 480.6 264.607453 
L 592.2 219.34203 
" style="fill:none;stroke:#808080;stroke-linecap:square;stroke-width:1.5;"/>
   </g>
   <g id="PathCollection_1">
    <defs>
     <path d="M 0 3 
C 0.795609 3 1.55874 2.683901 2.12132 2.12132 
C 2.683901 1.55874 3 0.795609 3 0 
C 3 -0.795609 2.683901 -1.55874 2.12132 -2.12132 
C 1.55874 -2.683901 0.795609 -3 0 -3 
C -0.795609 -3 -1.55874 -2.683901 -2.12132 -2.12132 
C -2.683901 -1.55874 -3 -0.795609 -3 0 
C -3 0.795609 -2.683901 1.55874 -2.12132 2.12132 
C -1.55874 2.683901 -0.795609 3 0 3 
z
" id="m9b523714e0" style="stroke:#1f77b4;"/>
    </defs>
    <g clip-path="url(#p5a3ea08404)">
     <use style="fill:#1f77b4;stroke:#1f77b4;" x="145.8" xlink:href="#m9b523714e0" y="229.401013"/>
     <use style="fill:#1f77b4;stroke:#1f77b4;" x="145.8" xlink:href="#m9b523714e0" y="164.017625"/>
     <use style="fill:#1f77b4;stroke:#1f77b4;" x="145.8" xlink:href="#m9b523714e0" y="304.843384"/>
     <use style="fill:#1f77b4;stroke:#1f77b4;" x="145.8" xlink:href="#m9b523714e0" y="324.961349"/>
     <use style="fill:#1f77b4;stroke:#1f77b4;" x="145.8" xlink:href="#m9b523714e0" y="249.518979"/>
     <use style="fill:#1f77b4;stroke:#1f77b4;" x="145.8" xlink:href="#m9b523714e0" y="179.1061"/>
     <use style="fill:#1f77b4;stroke:#1f77b4;" x="145.8" xlink:href="#m9b523714e0" y="138.870169"/>
     <use style="fill:#1f77b4;stroke:#1f77b4;" x="145.8" xlink:href="#m9b523714e0" y="219.34203"/>
     <use style="fill:#1f77b4;stroke:#1f77b4;" x="145.8" xlink:href="#m9b523714e0" y="284.725418"/>
     <use style="fill:#1f77b4;stroke:#1f77b4;" x="145.8" xlink:href="#m9b523714e0" y="229.401013"/>
     <use style="fill:#1f77b4;stroke:#1f77b4;" x="145.8" xlink:href="#m9b523714e0" y="274.666435"/>
     <use style="fill:#1f77b4;stroke:#1f77b4;" x="145.8" xlink:href="#m9b523714e0" y="234.430504"/>
    </g>
   </g>
   <g id="PathCollection_2">
    <defs>
     <path d="M 0 3 
C 0.795609 3 1.55874 2.683901 2.12132 2.12132 
C 2.683901 1.55874 3 0.795609 3 0 
C 3 -0.795609 2.683901 -1.55874 2.12132 -2.12132 
C 1.55874 -2.683901 0.795609 -3 0 -3 
C -0.795609 -3 -1.55874 -2.683901 -2.12132 -2.12132 
C -2.683901 -1.55874 -3 -0.795609 -3 0 
C -3 0.795609 -2.683901 1.55874 -2.12132 2.12132 
C -1.55874 2.683901 -0.795609 3 0 3 
z
" id="m2eb488ce94" style="stroke:#ff7f0e;"/>
    </defs>
    <g clip-path="url(#p5a3ea08404)">
     <use style="fill:#ff7f0e;stroke:#ff7f0e;" x="257.4" xlink:href="#m2eb488ce94" y="465.787107"/>
     <use style="fill:#ff7f0e;stroke:#ff7f0e;" x="257.4" xlink:href="#m2eb488ce94" y="521.111512"/>
     <use style="fill:#ff7f0e;stroke:#ff7f0e;" x="257.4" xlink:href="#m2eb488ce94" y="606.612865"/>
     <use style="fill:#ff7f0e;stroke:#ff7f0e;" x="257.4" xlink:href="#m2eb488ce94" y="214.312539"/>
     <use style="fill:#ff7f0e;stroke:#ff7f0e;" x="257.4" xlink:href="#m2eb488ce94" y="204.253556"/>
     <use style="fill:#ff7f0e;stroke:#ff7f0e;" x="257.4" xlink:href="#m2eb488ce94" y="395.374228"/>
     <use style="fill:#ff7f0e;stroke:#ff7f0e;" x="257.4" xlink:href="#m2eb488ce94" y="581.465408"/>
     <use style="fill:#ff7f0e;stroke:#ff7f0e;" x="257.4" xlink:href="#m2eb488ce94" y="294.784401"/>
     <use style="fill:#ff7f0e;stroke:#ff7f0e;" x="257.4" xlink:href="#m2eb488ce94" y="340.049823"/>
    </g>
   </g>
   <g id="PathCollection_3">
    <defs>
     <path d="M 0 3 
C 0.795609 3 1.55874 2.683901 2.12132 2.12132 
C 2.683901 1.55874 3 0.795609 3 0 
C 3 -0.795609 2.683901 -1.55874 2.12132 -2.12132 
C 1.55874 -2.683901 0.795609 -3 0 -3 
C -0.795609 -3 -1.55874 -2.683901 -2.12132 -2.12132 
C -2.683901 -1.55874 -3 -0.795609 -3 0 
C -3 0.795609 -2.683901 1.55874 -2.12132 2.12132 
C -1.55874 2.683901 -0.795609 3 0 3 
z
" id="m1efb532a06" style="stroke:#2ca02c;"/>
    </defs>
    <g clip-path="url(#p5a3ea08404)">
     <use style="fill:#2ca02c;stroke:#2ca02c;" x="369" xlink:href="#m1efb532a06" y="450.698633"/>
     <use style="fill:#2ca02c;stroke:#2ca02c;" x="369" xlink:href="#m1efb532a06" y="470.816598"/>
     <use style="fill:#2ca02c;stroke:#2ca02c;" x="369" xlink:href="#m1efb532a06" y="410.462702"/>
     <use style="fill:#2ca02c;stroke:#2ca02c;" x="369" xlink:href="#m1efb532a06" y="400.403719"/>
     <use style="fill:#2ca02c;stroke:#2ca02c;" x="369" xlink:href="#m1efb532a06" y="430.580668"/>
     <use style="fill:#2ca02c;stroke:#2ca02c;" x="369" xlink:href="#m1efb532a06" y="556.317952"/>
     <use style="fill:#2ca02c;stroke:#2ca02c;" x="369" xlink:href="#m1efb532a06" y="319.931858"/>
     <use style="fill:#2ca02c;stroke:#2ca02c;" x="369" xlink:href="#m1efb532a06" y="460.757616"/>
     <use style="fill:#2ca02c;stroke:#2ca02c;" x="369" xlink:href="#m1efb532a06" y="500.993547"/>
     <use style="fill:#2ca02c;stroke:#2ca02c;" x="369" xlink:href="#m1efb532a06" y="345.079314"/>
     <use style="fill:#2ca02c;stroke:#2ca02c;" x="369" xlink:href="#m1efb532a06" y="390.344737"/>
     <use style="fill:#2ca02c;stroke:#2ca02c;" x="369" xlink:href="#m1efb532a06" y="445.669142"/>
    </g>
   </g>
   <g id="PathCollection_4">
    <defs>
     <path d="M 0 3 
C 0.795609 3 1.55874 2.683901 2.12132 2.12132 
C 2.683901 1.55874 3 0.795609 3 0 
C 3 -0.795609 2.683901 -1.55874 2.12132 -2.12132 
C 1.55874 -2.683901 0.795609 -3 0 -3 
C -0.795609 -3 -1.55874 -2.683901 -2.12132 -2.12132 
C -2.683901 -1.55874 -3 -0.795609 -3 0 
C -3 0.795609 -2.683901 1.55874 -2.12132 2.12132 
C -1.55874 2.683901 -0.795609 3 0 3 
z
" id="mef0b91d798" style="stroke:#d62728;"/>
    </defs>
    <g clip-path="url(#p5a3ea08404)">
     <use style="fill:#d62728;stroke:#d62728;" x="480.6" xlink:href="#mef0b91d798" y="400.403719"/>
     <use style="fill:#d62728;stroke:#d62728;" x="480.6" xlink:href="#mef0b91d798" y="219.34203"/>
     <use style="fill:#d62728;stroke:#d62728;" x="480.6" xlink:href="#mef0b91d798" y="299.813892"/>
     <use style="fill:#d62728;stroke:#d62728;" x="480.6" xlink:href="#mef0b91d798" y="314.902366"/>
     <use style="fill:#d62728;stroke:#d62728;" x="480.6" xlink:href="#mef0b91d798" y="335.020332"/>
     <use style="fill:#d62728;stroke:#d62728;" x="480.6" xlink:href="#mef0b91d798" y="455.728124"/>
     <use style="fill:#d62728;stroke:#d62728;" x="480.6" xlink:href="#mef0b91d798" y="289.754909"/>
     <use style="fill:#d62728;stroke:#d62728;" x="480.6" xlink:href="#mef0b91d798" y="309.872875"/>
     <use style="fill:#d62728;stroke:#d62728;" x="480.6" xlink:href="#mef0b91d798" y="259.577961"/>
     <use style="fill:#d62728;stroke:#d62728;" x="480.6" xlink:href="#mef0b91d798" y="294.784401"/>
     <use style="fill:#d62728;stroke:#d62728;" x="480.6" xlink:href="#mef0b91d798" y="244.489487"/>
     <use style="fill:#d62728;stroke:#d62728;" x="480.6" xlink:href="#mef0b91d798" y="264.607453"/>
    </g>
   </g>
   <g id="PathCollection_5">
    <defs>
     <path d="M 0 3 
C 0.795609 3 1.55874 2.683901 2.12132 2.12132 
C 2.683901 1.55874 3 0.795609 3 0 
C 3 -0.795609 2.683901 -1.55874 2.12132 -2.12132 
C 1.55874 -2.683901 0.795609 -3 0 -3 
C -0.795609 -3 -1.55874 -2.683901 -2.12132 -2.12132 
C -2.683901 -1.55874 -3 -0.795609 -3 0 
C -3 0.795609 -2.683901 1.55874 -2.12132 2.12132 
C -1.55874 2.683901 -0.795609 3 0 3 
z
" id="mf2a1fbb8f4" style="stroke:#9467bd;"/>
    </defs>
    <g clip-path="url(#p5a3ea08404)">
     <use style="fill:#9467bd;stroke:#9467bd;" x="592.2" xlink:href="#mf2a1fbb8f4" y="345.079314"/>
     <use style="fill:#9467bd;stroke:#9467bd;" x="592.2" xlink:href="#mf2a1fbb8f4" y="199.224065"/>
     <use style="fill:#9467bd;stroke:#9467bd;" x="592.2" xlink:href="#mf2a1fbb8f4" y="390.344737"/>
     <use style="fill:#9467bd;stroke:#9467bd;" x="592.2" xlink:href="#mf2a1fbb8f4" y="289.754909"/>
     <use style="fill:#9467bd;stroke:#9467bd;" x="592.2" xlink:href="#mf2a1fbb8f4" y="304.843384"/>
     <use style="fill:#9467bd;stroke:#9467bd;" x="592.2" xlink:href="#mf2a1fbb8f4" y="284.725418"/>
     <use style="fill:#9467bd;stroke:#9467bd;" x="592.2" xlink:href="#mf2a1fbb8f4" y="143.89966"/>
     <use style="fill:#9467bd;stroke:#9467bd;" x="592.2" xlink:href="#mf2a1fbb8f4" y="335.020332"/>
     <use style="fill:#9467bd;stroke:#9467bd;" x="592.2" xlink:href="#mf2a1fbb8f4" y="209.283048"/>
     <use style="fill:#9467bd;stroke:#9467bd;" x="592.2" xlink:href="#mf2a1fbb8f4" y="279.695927"/>
     <use style="fill:#9467bd;stroke:#9467bd;" x="592.2" xlink:href="#mf2a1fbb8f4" y="219.34203"/>
     <use style="fill:#9467bd;stroke:#9467bd;" x="592.2" xlink:href="#mf2a1fbb8f4" y="219.34203"/>
    </g>
   </g>
   <g id="matplotlib.axis_1">
    <g id="xtick_1">
     <g id="line2d_13">
      <defs>
       <path d="M 0 0 
L 0 3.5 
" id="m2048f5970d" style="stroke:#000000;stroke-width:0.8;"/>
      </defs>
      <g>
       <use style="stroke:#000000;stroke-width:0.8;" x="145.8" xlink:href="#m2048f5970d" y="630"/>
      </g>
     </g>
     <g id="text_1">
      <!-- D0 -->
      <g transform="translate(137.170754 646.685876)scale(0.14 -0.14)">
       <defs>
        <path d="M 333 4352 
L 333 4185 
C 774 4185 845 4185 845 3898 
L 845 453 
C 845 166 774 166 333 166 
L 333 0 
L 2368 0 
C 3398 0 4224 943 4224 2140 
C 4224 3344 3411 4352 2368 4352 
L 333 4352 
z
M 1523 166 
C 1267 166 1254 198 1254 414 
L 1254 3936 
C 1254 4153 1267 4185 1523 4185 
L 2240 4185 
C 2771 4185 3750 3873 3750 2140 
C 3750 1242 3488 879 3366 707 
C 3213 510 2848 166 2240 166 
L 1523 166 
z
" id="CMR17-44" transform="scale(0.015625)"/>
        <path d="M 2688 2038 
C 2688 2430 2682 3099 2413 3613 
C 2176 4063 1798 4224 1466 4224 
C 1158 4224 768 4082 525 3620 
C 269 3137 243 2539 243 2038 
C 243 1671 250 1112 448 623 
C 723 -39 1216 -128 1466 -128 
C 1760 -128 2208 -7 2470 604 
C 2662 1048 2688 1568 2688 2038 
z
M 1466 -26 
C 1056 -26 813 328 723 816 
C 653 1196 653 1749 653 2109 
C 653 2604 653 3015 736 3407 
C 858 3954 1216 4121 1466 4121 
C 1728 4121 2067 3947 2189 3420 
C 2272 3054 2278 2623 2278 2109 
C 2278 1691 2278 1176 2202 797 
C 2067 96 1690 -26 1466 -26 
z
" id="CMR17-30" transform="scale(0.015625)"/>
       </defs>
       <use transform="scale(0.996264)" xlink:href="#CMR17-44"/>
       <use transform="translate(70.393556 0)scale(0.996264)" xlink:href="#CMR17-30"/>
      </g>
     </g>
    </g>
    <g id="xtick_2">
     <g id="line2d_14">
      <g>
       <use style="stroke:#000000;stroke-width:0.8;" x="257.4" xlink:href="#m2048f5970d" y="630"/>
      </g>
     </g>
     <g id="text_2">
      <!-- D4 -->
      <g transform="translate(248.770754 646.685876)scale(0.14 -0.14)">
       <defs>
        <path d="M 2150 4147 
C 2150 4281 2144 4288 2029 4288 
L 128 1254 
L 128 1088 
L 1779 1088 
L 1779 460 
C 1779 230 1766 166 1318 166 
L 1197 166 
L 1197 0 
C 1402 12 1747 12 1965 12 
C 2182 12 2528 12 2733 0 
L 2733 166 
L 2611 166 
C 2163 166 2150 230 2150 460 
L 2150 1088 
L 2803 1088 
L 2803 1254 
L 2150 1254 
L 2150 4147 
z
M 1798 3723 
L 1798 1254 
L 256 1254 
L 1798 3723 
z
" id="CMR17-34" transform="scale(0.015625)"/>
       </defs>
       <use transform="scale(0.996264)" xlink:href="#CMR17-44"/>
       <use transform="translate(70.393556 0)scale(0.996264)" xlink:href="#CMR17-34"/>
      </g>
     </g>
    </g>
    <g id="xtick_3">
     <g id="line2d_15">
      <g>
       <use style="stroke:#000000;stroke-width:0.8;" x="369" xlink:href="#m2048f5970d" y="630"/>
      </g>
     </g>
     <g id="text_3">
      <!-- D8 -->
      <g transform="translate(360.370754 646.685876)scale(0.14 -0.14)">
       <defs>
        <path d="M 1741 2289 
C 2144 2494 2554 2803 2554 3298 
C 2554 3884 1990 4224 1472 4224 
C 890 4224 378 3800 378 3215 
C 378 3054 416 2777 666 2533 
C 730 2469 998 2276 1171 2154 
C 883 2006 211 1652 211 945 
C 211 282 838 -128 1459 -128 
C 2144 -128 2720 366 2720 1022 
C 2720 1607 2330 1877 2074 2051 
L 1741 2289 
z
M 902 2855 
C 851 2887 595 3086 595 3388 
C 595 3781 998 4076 1459 4076 
C 1965 4076 2336 3716 2336 3298 
C 2336 2700 1670 2359 1638 2359 
C 1632 2359 1626 2359 1574 2398 
L 902 2855 
z
M 2080 1536 
C 2176 1466 2483 1253 2483 861 
C 2483 385 2010 25 1472 25 
C 890 25 448 443 448 951 
C 448 1459 838 1884 1280 2083 
L 2080 1536 
z
" id="CMR17-38" transform="scale(0.015625)"/>
       </defs>
       <use transform="scale(0.996264)" xlink:href="#CMR17-44"/>
       <use transform="translate(70.393556 0)scale(0.996264)" xlink:href="#CMR17-38"/>
      </g>
     </g>
    </g>
    <g id="xtick_4">
     <g id="line2d_16">
      <g>
       <use style="stroke:#000000;stroke-width:0.8;" x="480.6" xlink:href="#m2048f5970d" y="630"/>
      </g>
     </g>
     <g id="text_4">
      <!-- D42 -->
      <g transform="translate(468.55651 646.685876)scale(0.14 -0.14)">
       <defs>
        <path d="M 2669 990 
L 2554 990 
C 2490 537 2438 460 2413 422 
C 2381 371 1920 371 1830 371 
L 602 371 
C 832 620 1280 1073 1824 1596 
C 2214 1966 2669 2400 2669 3033 
C 2669 3788 2067 4224 1395 4224 
C 691 4224 262 3603 262 3027 
C 262 2777 448 2745 525 2745 
C 589 2745 781 2783 781 3007 
C 781 3206 614 3264 525 3264 
C 486 3264 448 3257 422 3244 
C 544 3788 915 4057 1306 4057 
C 1862 4057 2227 3616 2227 3033 
C 2227 2477 1901 1998 1536 1583 
L 262 147 
L 262 0 
L 2515 0 
L 2669 990 
z
" id="CMR17-32" transform="scale(0.015625)"/>
       </defs>
       <use transform="scale(0.996264)" xlink:href="#CMR17-44"/>
       <use transform="translate(70.393556 0)scale(0.996264)" xlink:href="#CMR17-34"/>
       <use transform="translate(116.084033 0)scale(0.996264)" xlink:href="#CMR17-32"/>
      </g>
     </g>
    </g>
    <g id="xtick_5">
     <g id="line2d_17">
      <g>
       <use style="stroke:#000000;stroke-width:0.8;" x="592.2" xlink:href="#m2048f5970d" y="630"/>
      </g>
     </g>
     <g id="text_5">
      <!-- D180 -->
      <g transform="translate(576.742265 646.685876)scale(0.14 -0.14)">
       <defs>
        <path d="M 1702 4083 
C 1702 4217 1696 4224 1606 4224 
C 1357 3927 979 3833 621 3820 
C 602 3820 570 3820 563 3808 
C 557 3795 557 3782 557 3648 
C 755 3648 1088 3686 1344 3839 
L 1344 467 
C 1344 243 1331 166 781 166 
L 589 166 
L 589 0 
C 896 6 1216 12 1523 12 
C 1830 12 2150 6 2458 0 
L 2458 166 
L 2266 166 
C 1715 166 1702 236 1702 467 
L 1702 4083 
z
" id="CMR17-31" transform="scale(0.015625)"/>
       </defs>
       <use transform="scale(0.996264)" xlink:href="#CMR17-44"/>
       <use transform="translate(70.393556 0)scale(0.996264)" xlink:href="#CMR17-31"/>
       <use transform="translate(116.084033 0)scale(0.996264)" xlink:href="#CMR17-38"/>
       <use transform="translate(161.77451 0)scale(0.996264)" xlink:href="#CMR17-30"/>
      </g>
     </g>
    </g>
    <g id="text_6">
     <!-- Time point -->
     <g transform="translate(328.815464 665.851205)scale(0.18 -0.18)">
      <defs>
       <path d="M 3981 4332 
L 288 4332 
L 179 2924 
L 294 2924 
C 378 3981 467 4166 1453 4166 
C 1568 4166 1754 4166 1805 4159 
C 1926 4140 1926 4064 1926 3917 
L 1926 465 
C 1926 236 1907 166 1376 166 
L 1197 166 
L 1197 0 
C 1504 6 1824 12 2138 12 
C 2451 12 2771 6 3078 0 
L 3078 166 
L 2899 166 
C 2368 166 2349 236 2349 465 
L 2349 3917 
C 2349 4057 2349 4134 2464 4159 
C 2515 4166 2701 4166 2816 4166 
C 3795 4166 3891 3981 3974 2924 
L 4090 2924 
L 3981 4332 
z
" id="CMR17-54" transform="scale(0.015625)"/>
       <path d="M 992 3961 
C 992 4102 877 4224 730 4224 
C 589 4224 467 4108 467 3961 
C 467 3820 582 3699 730 3699 
C 870 3699 992 3814 992 3961 
z
M 243 2745 
L 243 2579 
C 602 2579 653 2540 653 2231 
L 653 443 
C 653 198 627 166 218 166 
L 218 0 
C 371 12 646 12 806 12 
C 960 12 1222 12 1370 0 
L 1370 166 
C 992 166 979 205 979 436 
L 979 2816 
L 243 2745 
z
" id="CMR17-69" transform="scale(0.015625)"/>
       <path d="M 4326 1954 
C 4326 2276 4269 2816 3507 2816 
C 3072 2816 2771 2520 2656 2173 
L 2650 2173 
C 2573 2700 2195 2816 1837 2816 
C 1331 2816 1069 2424 973 2166 
L 966 2166 
L 966 2816 
L 211 2745 
L 211 2578 
C 589 2578 646 2540 646 2231 
L 646 443 
C 646 198 621 166 211 166 
L 211 0 
C 365 12 646 12 813 12 
C 979 12 1267 12 1421 0 
L 1421 166 
C 1011 166 986 192 986 443 
L 986 1678 
C 986 2269 1344 2713 1792 2713 
C 2266 2713 2317 2289 2317 1980 
L 2317 443 
C 2317 198 2291 166 1882 166 
L 1882 0 
C 2035 12 2317 12 2483 12 
C 2650 12 2938 12 3091 0 
L 3091 166 
C 2682 166 2656 192 2656 443 
L 2656 1678 
C 2656 2269 3014 2713 3462 2713 
C 3936 2713 3987 2289 3987 1980 
L 3987 443 
C 3987 198 3962 166 3552 166 
L 3552 0 
C 3706 12 3987 12 4154 12 
C 4320 12 4608 12 4762 0 
L 4762 166 
C 4352 166 4326 192 4326 443 
L 4326 1954 
z
" id="CMR17-6d" transform="scale(0.015625)"/>
       <path d="M 2438 1503 
C 2464 1529 2464 1542 2464 1606 
C 2464 2251 2118 2816 1389 2816 
C 710 2816 173 2175 173 1394 
C 173 554 781 -64 1459 -64 
C 2176 -64 2458 619 2458 755 
C 2458 800 2419 800 2406 800 
C 2362 800 2355 787 2330 709 
C 2189 270 1837 51 1504 51 
C 1229 51 954 206 781 490 
C 582 819 582 1200 582 1503 
L 2438 1503 
z
M 589 1600 
C 634 2511 1126 2713 1382 2713 
C 1818 2713 2112 2308 2118 1600 
L 589 1600 
z
" id="CMR17-65" transform="scale(0.015625)"/>
       <path d="M 1408 -1114 
C 998 -1114 973 -1088 973 -834 
L 973 380 
C 1158 109 1427 -64 1766 -64 
C 2406 -64 3053 503 3053 1382 
C 3053 2196 2496 2816 1837 2816 
C 1453 2816 1139 2603 960 2345 
L 960 2816 
L 198 2745 
L 198 2577 
C 576 2577 634 2539 634 2228 
L 634 -834 
C 634 -1081 608 -1114 198 -1114 
L 198 -1280 
C 352 -1268 634 -1268 800 -1268 
C 966 -1268 1254 -1268 1408 -1280 
L 1408 -1114 
z
M 973 2015 
C 973 2106 973 2241 1222 2481 
C 1254 2506 1472 2700 1792 2700 
C 2259 2700 2643 2112 2643 1376 
C 2643 639 2234 38 1728 38 
C 1498 38 1248 148 1056 451 
C 973 594 973 632 973 736 
L 973 2015 
z
" id="CMR17-70" transform="scale(0.015625)"/>
       <path d="M 2758 1356 
C 2758 2176 2163 2816 1466 2816 
C 768 2816 173 2176 173 1356 
C 173 550 768 -64 1466 -64 
C 2163 -64 2758 550 2758 1356 
z
M 1466 51 
C 1165 51 909 230 762 480 
C 602 768 582 1126 582 1408 
C 582 1676 595 2009 762 2297 
C 890 2508 1139 2713 1466 2713 
C 1754 2713 1997 2553 2150 2329 
C 2349 2028 2349 1606 2349 1408 
C 2349 1158 2336 774 2163 467 
C 1984 172 1709 51 1466 51 
z
" id="CMR17-6f" transform="scale(0.015625)"/>
       <path d="M 2656 1954 
C 2656 2282 2592 2816 1837 2816 
C 1331 2816 1069 2424 973 2166 
L 966 2166 
L 966 2816 
L 211 2745 
L 211 2578 
C 589 2578 646 2540 646 2231 
L 646 443 
C 646 198 621 166 211 166 
L 211 0 
C 365 12 646 12 813 12 
C 979 12 1267 12 1421 0 
L 1421 166 
C 1011 166 986 192 986 443 
L 986 1678 
C 986 2269 1344 2713 1792 2713 
C 2266 2713 2317 2289 2317 1980 
L 2317 443 
C 2317 198 2291 166 1882 166 
L 1882 0 
C 2035 12 2317 12 2483 12 
C 2650 12 2938 12 3091 0 
L 3091 166 
C 2682 166 2656 192 2656 443 
L 2656 1954 
z
" id="CMR17-6e" transform="scale(0.015625)"/>
       <path d="M 966 2585 
L 1862 2585 
L 1862 2752 
L 966 2752 
L 966 3968 
L 851 3968 
C 838 3292 614 2700 70 2687 
L 70 2585 
L 627 2585 
L 627 778 
C 627 655 627 -64 1370 -64 
C 1747 -64 1965 308 1965 784 
L 1965 1151 
L 1850 1151 
L 1850 790 
C 1850 347 1677 51 1408 51 
C 1222 51 966 179 966 765 
L 966 2585 
z
" id="CMR17-74" transform="scale(0.015625)"/>
      </defs>
      <use transform="scale(0.996264)" xlink:href="#CMR17-54"/>
      <use transform="translate(66.509881 0)scale(0.996264)" xlink:href="#CMR17-69"/>
      <use transform="translate(91.380939 0)scale(0.996264)" xlink:href="#CMR17-6d"/>
      <use transform="translate(168.300529 0)scale(0.996264)" xlink:href="#CMR17-65"/>
      <use transform="translate(238.862156 0)scale(0.996264)" xlink:href="#CMR17-70"/>
      <use transform="translate(292.359964 0)scale(0.996264)" xlink:href="#CMR17-6f"/>
      <use transform="translate(338.050441 0)scale(0.996264)" xlink:href="#CMR17-69"/>
      <use transform="translate(362.9215 0)scale(0.996264)" xlink:href="#CMR17-6e"/>
      <use transform="translate(411.214416 0)scale(0.996264)" xlink:href="#CMR17-74"/>
     </g>
    </g>
   </g>
   <g id="matplotlib.axis_2">
    <g id="ytick_1">
     <g id="line2d_18">
      <defs>
       <path d="M 0 0 
L -3.5 0 
" id="ma1a7c3a541" style="stroke:#000000;stroke-width:0.8;"/>
      </defs>
      <g>
       <use style="stroke:#000000;stroke-width:0.8;" x="90" xlink:href="#ma1a7c3a541" y="596.553882"/>
      </g>
     </g>
     <g id="text_7">
      <!-- $\mathdefault{20}$ -->
      <g transform="translate(69.343023 601.396821)scale(0.14 -0.14)">
       <use transform="scale(0.996264)" xlink:href="#CMR17-32"/>
       <use transform="translate(45.690477 0)scale(0.996264)" xlink:href="#CMR17-30"/>
      </g>
     </g>
    </g>
    <g id="ytick_2">
     <g id="line2d_19">
      <g>
       <use style="stroke:#000000;stroke-width:0.8;" x="90" xlink:href="#ma1a7c3a541" y="495.964055"/>
      </g>
     </g>
     <g id="text_8">
      <!-- $\mathdefault{40}$ -->
      <g transform="translate(69.343023 500.806993)scale(0.14 -0.14)">
       <use transform="scale(0.996264)" xlink:href="#CMR17-34"/>
       <use transform="translate(45.690477 0)scale(0.996264)" xlink:href="#CMR17-30"/>
      </g>
     </g>
    </g>
    <g id="ytick_3">
     <g id="line2d_20">
      <g>
       <use style="stroke:#000000;stroke-width:0.8;" x="90" xlink:href="#ma1a7c3a541" y="395.374228"/>
      </g>
     </g>
     <g id="text_9">
      <!-- $\mathdefault{60}$ -->
      <g transform="translate(69.343023 400.217166)scale(0.14 -0.14)">
       <defs>
        <path d="M 678 2198 
C 678 3712 1395 4076 1811 4076 
C 1946 4076 2272 4049 2400 3782 
C 2298 3782 2106 3782 2106 3558 
C 2106 3385 2246 3328 2336 3328 
C 2394 3328 2566 3353 2566 3571 
C 2566 3987 2246 4224 1805 4224 
C 1043 4224 243 3411 243 2011 
C 243 257 966 -128 1478 -128 
C 2099 -128 2688 431 2688 1295 
C 2688 2101 2170 2688 1517 2688 
C 1126 2688 838 2430 678 1979 
L 678 2198 
z
M 1478 25 
C 691 25 691 1212 691 1450 
C 691 1914 909 2585 1504 2585 
C 1613 2585 1926 2585 2138 2140 
C 2253 1889 2253 1624 2253 1302 
C 2253 954 2253 696 2118 438 
C 1978 173 1773 25 1478 25 
z
" id="CMR17-36" transform="scale(0.015625)"/>
       </defs>
       <use transform="scale(0.996264)" xlink:href="#CMR17-36"/>
       <use transform="translate(45.690477 0)scale(0.996264)" xlink:href="#CMR17-30"/>
      </g>
     </g>
    </g>
    <g id="ytick_4">
     <g id="line2d_21">
      <g>
       <use style="stroke:#000000;stroke-width:0.8;" x="90" xlink:href="#ma1a7c3a541" y="294.784401"/>
      </g>
     </g>
     <g id="text_10">
      <!-- $\mathdefault{80}$ -->
      <g transform="translate(69.343023 299.627339)scale(0.14 -0.14)">
       <use transform="scale(0.996264)" xlink:href="#CMR17-38"/>
       <use transform="translate(45.690477 0)scale(0.996264)" xlink:href="#CMR17-30"/>
      </g>
     </g>
    </g>
    <g id="ytick_5">
     <g id="line2d_22">
      <g>
       <use style="stroke:#000000;stroke-width:0.8;" x="90" xlink:href="#ma1a7c3a541" y="194.194574"/>
      </g>
     </g>
     <g id="text_11">
      <!-- $\mathdefault{100}$ -->
      <g transform="translate(62.514534 199.037512)scale(0.14 -0.14)">
       <use transform="scale(0.996264)" xlink:href="#CMR17-31"/>
       <use transform="translate(45.690477 0)scale(0.996264)" xlink:href="#CMR17-30"/>
       <use transform="translate(91.380954 0)scale(0.996264)" xlink:href="#CMR17-30"/>
      </g>
     </g>
    </g>
    <g id="ytick_6">
     <g id="line2d_23">
      <g>
       <use style="stroke:#000000;stroke-width:0.8;" x="90" xlink:href="#ma1a7c3a541" y="93.604746"/>
      </g>
     </g>
     <g id="text_12">
      <!-- $\mathdefault{120}$ -->
      <g transform="translate(62.514534 98.447685)scale(0.14 -0.14)">
       <use transform="scale(0.996264)" xlink:href="#CMR17-31"/>
       <use transform="translate(45.690477 0)scale(0.996264)" xlink:href="#CMR17-32"/>
       <use transform="translate(91.380954 0)scale(0.996264)" xlink:href="#CMR17-30"/>
      </g>
     </g>
    </g>
    <g id="text_13">
     <!-- Species Richness -->
     <g transform="translate(55.02647 417.692016)rotate(-90)scale(0.18 -0.18)">
      <defs>
       <path d="M 2803 4351 
C 2803 4467 2797 4473 2758 4473 
C 2720 4473 2707 4447 2682 4390 
L 2490 3965 
C 2246 4320 1875 4480 1472 4480 
C 819 4480 294 3958 294 3301 
C 294 3101 339 2817 557 2546 
C 794 2250 1018 2198 1530 2063 
C 1722 2011 2042 1927 2106 1901 
C 2470 1747 2662 1360 2662 999 
C 2662 534 2336 38 1779 38 
C 1094 38 454 425 410 1328 
C 403 1431 397 1437 352 1437 
C 301 1437 294 1431 294 1302 
L 294 0 
C 294 -116 301 -122 339 -122 
C 384 -122 397 -90 486 109 
C 493 128 493 141 614 386 
C 934 -39 1472 -128 1779 -128 
C 2477 -128 2970 457 2970 1141 
C 2970 1476 2848 1734 2778 1850 
C 2509 2263 2221 2340 1914 2417 
C 1869 2437 1856 2437 1498 2527 
C 1152 2617 1005 2662 845 2836 
C 666 3036 602 3243 602 3449 
C 602 3868 934 4326 1478 4326 
C 2157 4326 2579 3842 2675 3036 
C 2694 2920 2701 2914 2746 2914 
C 2803 2914 2803 2933 2803 3043 
L 2803 4351 
z
" id="CMR17-53" transform="scale(0.015625)"/>
       <path d="M 2234 2240 
C 2112 2240 1933 2240 1933 2015 
C 1933 1836 2080 1785 2163 1785 
C 2208 1785 2394 1804 2394 2028 
C 2394 2476 1958 2816 1466 2816 
C 787 2816 211 2201 211 1379 
C 211 521 813 -64 1466 -64 
C 2259 -64 2458 676 2458 747 
C 2458 773 2451 792 2406 792 
C 2362 792 2355 786 2330 702 
C 2163 180 1798 51 1523 51 
C 1114 51 621 431 621 1385 
C 621 2358 1094 2700 1472 2700 
C 1722 2700 2093 2582 2234 2240 
z
" id="CMR17-63" transform="scale(0.015625)"/>
       <path d="M 1978 2688 
C 1978 2803 1971 2809 1933 2809 
C 1907 2809 1901 2803 1824 2707 
C 1805 2681 1747 2617 1728 2592 
C 1523 2809 1235 2816 1126 2816 
C 416 2816 160 2444 160 2073 
C 160 1497 813 1363 998 1324 
C 1402 1241 1542 1216 1677 1100 
C 1760 1024 1901 883 1901 652 
C 1901 384 1747 38 1158 38 
C 602 38 403 460 288 1024 
C 269 1113 269 1120 218 1120 
C 166 1120 160 1113 160 985 
L 160 64 
C 160 -52 166 -58 205 -58 
C 237 -58 243 -52 275 0 
C 314 57 410 211 448 275 
C 576 102 800 -64 1158 -64 
C 1792 -64 2131 281 2131 780 
C 2131 1107 1958 1280 1875 1356 
C 1683 1555 1459 1600 1190 1651 
C 838 1728 390 1817 390 2208 
C 390 2374 480 2726 1126 2726 
C 1811 2726 1850 2086 1862 1881 
C 1869 1849 1901 1843 1920 1843 
C 1978 1843 1978 1862 1978 1971 
L 1978 2688 
z
" id="CMR17-73" transform="scale(0.015625)"/>
       <path d="M 2509 2156 
C 3117 2278 3629 2689 3629 3203 
C 3629 3806 2950 4352 2054 4352 
L 333 4352 
L 333 4185 
C 774 4185 845 4185 845 3896 
L 845 428 
C 845 140 774 140 333 140 
L 333 -26 
C 518 -13 851 -13 1050 -13 
C 1248 -13 1581 -13 1766 -26 
L 1766 140 
C 1325 140 1254 140 1254 428 
L 1254 2112 
L 2003 2112 
C 2368 2112 2573 1964 2662 1881 
C 2918 1632 2918 1459 2918 1024 
C 2918 595 2918 377 3110 160 
C 3354 -103 3680 -128 3821 -128 
C 4294 -128 4365 403 4365 512 
C 4365 550 4365 595 4307 595 
C 4256 595 4250 556 4250 531 
C 4218 115 4032 -26 3834 -26 
C 3482 -26 3443 377 3405 768 
C 3386 902 3373 998 3360 1139 
C 3322 1459 3270 1926 2509 2156 
z
M 1984 2214 
L 1254 2214 
L 1254 3935 
C 1254 4153 1267 4185 1523 4185 
L 1990 4185 
C 2522 4185 3142 3999 3142 3203 
C 3142 2374 2464 2214 1984 2214 
z
" id="CMR17-52" transform="scale(0.015625)"/>
       <path d="M 2656 1954 
C 2656 2282 2592 2816 1837 2816 
C 1312 2816 1056 2392 979 2179 
L 973 2179 
L 973 4416 
L 211 4345 
L 211 4179 
C 589 4179 646 4141 646 3843 
L 646 443 
C 646 198 621 166 211 166 
L 211 0 
C 365 12 646 12 813 12 
C 979 12 1267 12 1421 0 
L 1421 166 
C 1011 166 986 192 986 443 
L 986 1678 
C 986 2269 1344 2713 1792 2713 
C 2266 2713 2317 2289 2317 1980 
L 2317 443 
C 2317 198 2291 166 1882 166 
L 1882 0 
C 2035 12 2317 12 2483 12 
C 2650 12 2938 12 3091 0 
L 3091 166 
C 2682 166 2656 192 2656 443 
L 2656 1954 
z
" id="CMR17-68" transform="scale(0.015625)"/>
      </defs>
      <use transform="scale(0.996264)" xlink:href="#CMR17-53"/>
      <use transform="translate(50.89537 0)scale(0.996264)" xlink:href="#CMR17-70"/>
      <use transform="translate(104.393178 0)scale(0.996264)" xlink:href="#CMR17-65"/>
      <use transform="translate(144.878839 0)scale(0.996264)" xlink:href="#CMR17-63"/>
      <use transform="translate(185.364499 0)scale(0.996264)" xlink:href="#CMR17-69"/>
      <use transform="translate(210.235558 0)scale(0.996264)" xlink:href="#CMR17-65"/>
      <use transform="translate(250.721218 0)scale(0.996264)" xlink:href="#CMR17-73"/>
      <use transform="translate(316.598522 0)scale(0.996264)" xlink:href="#CMR17-52"/>
      <use transform="translate(384.389624 0)scale(0.996264)" xlink:href="#CMR17-69"/>
      <use transform="translate(409.260683 0)scale(0.996264)" xlink:href="#CMR17-63"/>
      <use transform="translate(447.143889 0)scale(0.996264)" xlink:href="#CMR17-68"/>
      <use transform="translate(498.039259 0)scale(0.996264)" xlink:href="#CMR17-6e"/>
      <use transform="translate(548.934629 0)scale(0.996264)" xlink:href="#CMR17-65"/>
      <use transform="translate(589.420289 0)scale(0.996264)" xlink:href="#CMR17-73"/>
      <use transform="translate(625.221627 0)scale(0.996264)" xlink:href="#CMR17-73"/>
     </g>
    </g>
   </g>
   <g id="line2d_24">
    <path clip-path="url(#p5a3ea08404)" d="M 145.8 277.181181 
L 145.8 324.961349 
" style="fill:none;stroke:#1f77b4;stroke-linecap:square;stroke-width:3;"/>
   </g>
   <g id="line2d_25">
    <path clip-path="url(#p5a3ea08404)" d="M 145.8 209.283048 
L 145.8 138.870169 
" style="fill:none;stroke:#1f77b4;stroke-linecap:square;stroke-width:3;"/>
   </g>
   <g id="line2d_26">
    <path clip-path="url(#p5a3ea08404)" d="M 131.85 324.961349 
L 159.75 324.961349 
" style="fill:none;"/>
   </g>
   <g id="line2d_27">
    <path clip-path="url(#p5a3ea08404)" d="M 131.85 138.870169 
L 159.75 138.870169 
" style="fill:none;"/>
   </g>
   <g id="line2d_28"/>
   <g id="line2d_29">
    <path clip-path="url(#p5a3ea08404)" d="M 257.4 521.111512 
L 257.4 606.612865 
" style="fill:none;stroke:#ff7f0e;stroke-linecap:square;stroke-width:3;"/>
   </g>
   <g id="line2d_30">
    <path clip-path="url(#p5a3ea08404)" d="M 257.4 294.784401 
L 257.4 204.253556 
" style="fill:none;stroke:#ff7f0e;stroke-linecap:square;stroke-width:3;"/>
   </g>
   <g id="line2d_31">
    <path clip-path="url(#p5a3ea08404)" d="M 243.45 606.612865 
L 271.35 606.612865 
" style="fill:none;"/>
   </g>
   <g id="line2d_32">
    <path clip-path="url(#p5a3ea08404)" d="M 243.45 204.253556 
L 271.35 204.253556 
" style="fill:none;"/>
   </g>
   <g id="line2d_33"/>
   <g id="line2d_34">
    <path clip-path="url(#p5a3ea08404)" d="M 369 463.272361 
L 369 556.317952 
" style="fill:none;stroke:#2ca02c;stroke-linecap:square;stroke-width:3;"/>
   </g>
   <g id="line2d_35">
    <path clip-path="url(#p5a3ea08404)" d="M 369 397.888974 
L 369 319.931858 
" style="fill:none;stroke:#2ca02c;stroke-linecap:square;stroke-width:3;"/>
   </g>
   <g id="line2d_36">
    <path clip-path="url(#p5a3ea08404)" d="M 355.05 556.317952 
L 382.95 556.317952 
" style="fill:none;"/>
   </g>
   <g id="line2d_37">
    <path clip-path="url(#p5a3ea08404)" d="M 355.05 319.931858 
L 382.95 319.931858 
" style="fill:none;"/>
   </g>
   <g id="line2d_38"/>
   <g id="line2d_39">
    <path clip-path="url(#p5a3ea08404)" d="M 480.6 319.931858 
L 480.6 400.403719 
" style="fill:none;stroke:#d62728;stroke-linecap:square;stroke-width:3;"/>
   </g>
   <g id="line2d_40">
    <path clip-path="url(#p5a3ea08404)" d="M 480.6 263.35008 
L 480.6 219.34203 
" style="fill:none;stroke:#d62728;stroke-linecap:square;stroke-width:3;"/>
   </g>
   <g id="line2d_41">
    <path clip-path="url(#p5a3ea08404)" d="M 466.65 400.403719 
L 494.55 400.403719 
" style="fill:none;"/>
   </g>
   <g id="line2d_42">
    <path clip-path="url(#p5a3ea08404)" d="M 466.65 219.34203 
L 494.55 219.34203 
" style="fill:none;"/>
   </g>
   <g id="line2d_43">
    <defs>
     <path d="M 0 3 
C 0.795609 3 1.55874 2.683901 2.12132 2.12132 
C 2.683901 1.55874 3 0.795609 3 0 
C 3 -0.795609 2.683901 -1.55874 2.12132 -2.12132 
C 1.55874 -2.683901 0.795609 -3 0 -3 
C -0.795609 -3 -1.55874 -2.683901 -2.12132 -2.12132 
C -2.683901 -1.55874 -3 -0.795609 -3 0 
C -3 0.795609 -2.683901 1.55874 -2.12132 2.12132 
C -1.55874 2.683901 -0.795609 3 0 3 
z
" id="m1626f7eee1" style="stroke:#d62728;"/>
    </defs>
    <g clip-path="url(#p5a3ea08404)">
     <use style="fill-opacity:0;stroke:#d62728;" x="480.6" xlink:href="#m1626f7eee1" y="455.728124"/>
    </g>
   </g>
   <g id="line2d_44">
    <path clip-path="url(#p5a3ea08404)" d="M 592.2 312.387621 
L 592.2 390.344737 
" style="fill:none;stroke:#9467bd;stroke-linecap:square;stroke-width:3;"/>
   </g>
   <g id="line2d_45">
    <path clip-path="url(#p5a3ea08404)" d="M 592.2 216.827285 
L 592.2 143.89966 
" style="fill:none;stroke:#9467bd;stroke-linecap:square;stroke-width:3;"/>
   </g>
   <g id="line2d_46">
    <path clip-path="url(#p5a3ea08404)" d="M 578.25 390.344737 
L 606.15 390.344737 
" style="fill:none;"/>
   </g>
   <g id="line2d_47">
    <path clip-path="url(#p5a3ea08404)" d="M 578.25 143.89966 
L 606.15 143.89966 
" style="fill:none;"/>
   </g>
   <g id="line2d_48"/>
   <g id="patch_3">
    <path clip-path="url(#p5a3ea08404)" d="M 117.9 277.181181 
L 173.7 277.181181 
L 173.7 209.283048 
L 117.9 209.283048 
L 117.9 277.181181 
z
" style="fill:none;stroke:#1f77b4;stroke-linejoin:miter;stroke-width:3;"/>
   </g>
   <g id="patch_4">
    <path clip-path="url(#p5a3ea08404)" d="M 229.5 521.111512 
L 285.3 521.111512 
L 285.3 294.784401 
L 229.5 294.784401 
L 229.5 521.111512 
z
" style="fill:none;stroke:#ff7f0e;stroke-linejoin:miter;stroke-width:3;"/>
   </g>
   <g id="patch_5">
    <path clip-path="url(#p5a3ea08404)" d="M 341.1 463.272361 
L 396.9 463.272361 
L 396.9 397.888974 
L 341.1 397.888974 
L 341.1 463.272361 
z
" style="fill:none;stroke:#2ca02c;stroke-linejoin:miter;stroke-width:3;"/>
   </g>
   <g id="patch_6">
    <path clip-path="url(#p5a3ea08404)" d="M 452.7 319.931858 
L 508.5 319.931858 
L 508.5 263.35008 
L 452.7 263.35008 
L 452.7 319.931858 
z
" style="fill:none;stroke:#d62728;stroke-linejoin:miter;stroke-width:3;"/>
   </g>
   <g id="patch_7">
    <path clip-path="url(#p5a3ea08404)" d="M 564.3 312.387621 
L 620.1 312.387621 
L 620.1 216.827285 
L 564.3 216.827285 
L 564.3 312.387621 
z
" style="fill:none;stroke:#9467bd;stroke-linejoin:miter;stroke-width:3;"/>
   </g>
   <g id="line2d_49">
    <path clip-path="url(#p5a3ea08404)" d="M 117.9 231.915759 
L 173.7 231.915759 
" style="fill:none;stroke:#1f77b4;stroke-linecap:square;stroke-width:3;"/>
   </g>
   <g id="line2d_50">
    <path clip-path="url(#p5a3ea08404)" d="M 229.5 395.374228 
L 285.3 395.374228 
" style="fill:none;stroke:#ff7f0e;stroke-linecap:square;stroke-width:3;"/>
   </g>
   <g id="line2d_51">
    <path clip-path="url(#p5a3ea08404)" d="M 341.1 438.124905 
L 396.9 438.124905 
" style="fill:none;stroke:#2ca02c;stroke-linecap:square;stroke-width:3;"/>
   </g>
   <g id="line2d_52">
    <path clip-path="url(#p5a3ea08404)" d="M 452.7 297.299146 
L 508.5 297.299146 
" style="fill:none;stroke:#d62728;stroke-linecap:square;stroke-width:3;"/>
   </g>
   <g id="line2d_53">
    <path clip-path="url(#p5a3ea08404)" d="M 564.3 282.210672 
L 620.1 282.210672 
" style="fill:none;stroke:#9467bd;stroke-linecap:square;stroke-width:3;"/>
   </g>
   <g id="patch_8">
    <path d="M 90 630 
L 90 86.4 
" style="fill:none;stroke:#000000;stroke-linecap:square;stroke-linejoin:miter;stroke-width:0.8;"/>
   </g>
   <g id="patch_9">
    <path d="M 648 630 
L 648 86.4 
" style="fill:none;stroke:#000000;stroke-linecap:square;stroke-linejoin:miter;stroke-width:0.8;"/>
   </g>
   <g id="patch_10">
    <path d="M 90 630 
L 648 630 
" style="fill:none;stroke:#000000;stroke-linecap:square;stroke-linejoin:miter;stroke-width:0.8;"/>
   </g>
   <g id="patch_11">
    <path d="M 90 86.4 
L 648 86.4 
" style="fill:none;stroke:#000000;stroke-linecap:square;stroke-linejoin:miter;stroke-width:0.8;"/>
   </g>
   <g id="text_14">
    <!-- $P = 0.0039$ -->
    <g transform="translate(228.682989 110.956492)scale(0.12 -0.12)">
     <defs>
      <path d="M 1894 2022 
L 2970 2022 
C 3853 2022 4736 2673 4736 3400 
C 4736 3898 4314 4352 3507 4352 
L 1530 4352 
C 1408 4352 1350 4352 1350 4230 
C 1350 4166 1408 4166 1504 4166 
C 1894 4166 1894 4115 1894 4045 
C 1894 4032 1894 3994 1869 3898 
L 1005 471 
C 947 249 934 185 486 185 
C 365 185 301 185 301 70 
C 301 0 358 0 397 0 
C 518 0 646 12 768 12 
L 1517 12 
C 1638 12 1773 0 1894 0 
C 1946 0 2016 0 2016 121 
C 2016 185 1958 185 1862 185 
C 1478 185 1472 230 1472 293 
C 1472 325 1478 369 1485 401 
L 1894 2022 
z
M 2355 3917 
C 2413 4153 2438 4166 2688 4166 
L 3322 4166 
C 3802 4166 4198 4013 4198 3534 
C 4198 3369 4115 2826 3821 2533 
C 3712 2418 3405 2176 2822 2176 
L 1920 2176 
L 2355 3917 
z
" id="CMMI12-50" transform="scale(0.015625)"/>
      <path d="M 4115 2048 
C 4211 2048 4307 2048 4307 2156 
C 4307 2272 4198 2272 4090 2272 
L 512 2272 
C 403 2272 294 2272 294 2156 
C 294 2048 390 2048 486 2048 
L 4115 2048 
z
M 4090 927 
C 4198 927 4307 927 4307 1043 
C 4307 1152 4211 1152 4115 1152 
L 486 1152 
C 390 1152 294 1152 294 1043 
C 294 927 403 927 512 927 
L 4090 927 
z
" id="CMR17-3d" transform="scale(0.015625)"/>
      <path d="M 1178 307 
C 1178 492 1024 620 870 620 
C 685 620 557 467 557 313 
C 557 128 710 0 864 0 
C 1050 0 1178 153 1178 307 
z
" id="CMMI12-3a" transform="scale(0.015625)"/>
      <path d="M 1414 2176 
C 1984 2176 2234 1673 2234 1094 
C 2234 322 1824 25 1453 25 
C 1114 25 563 193 390 691 
C 422 678 454 678 486 678 
C 640 678 755 780 755 947 
C 755 1132 614 1216 486 1216 
C 378 1216 211 1164 211 927 
C 211 335 787 -128 1466 -128 
C 2176 -128 2720 432 2720 1087 
C 2720 1718 2208 2176 1600 2246 
C 2086 2347 2554 2776 2554 3353 
C 2554 3856 2048 4224 1472 4224 
C 890 4224 378 3862 378 3347 
C 378 3123 544 3084 627 3084 
C 762 3084 877 3167 877 3334 
C 877 3500 762 3584 627 3584 
C 602 3584 570 3584 544 3571 
C 730 3999 1235 4076 1459 4076 
C 1683 4076 2106 3966 2106 3347 
C 2106 3167 2080 2851 1862 2574 
C 1670 2329 1453 2316 1242 2297 
C 1210 2297 1062 2284 1037 2284 
C 992 2278 966 2272 966 2227 
C 966 2182 973 2176 1101 2176 
L 1414 2176 
z
" id="CMR17-33" transform="scale(0.015625)"/>
      <path d="M 2253 1871 
C 2253 448 1670 25 1190 25 
C 1043 25 685 43 538 281 
C 704 256 826 345 826 505 
C 826 678 685 736 595 736 
C 538 736 365 710 365 492 
C 365 68 742 -128 1203 -128 
C 1939 -128 2688 665 2688 2090 
C 2688 3857 1971 4224 1485 4224 
C 851 4224 243 3664 243 2800 
C 243 2000 762 1408 1414 1408 
C 1952 1408 2189 1910 2253 2122 
L 2253 1871 
z
M 1427 1510 
C 1254 1510 1011 1542 813 1929 
C 678 2181 678 2477 678 2793 
C 678 3174 678 3438 858 3722 
C 947 3857 1114 4076 1485 4076 
C 2240 4076 2240 2909 2240 2651 
C 2240 2193 2035 1510 1427 1510 
z
" id="CMR17-39" transform="scale(0.015625)"/>
     </defs>
     <use transform="scale(0.996264)" xlink:href="#CMMI12-50"/>
     <use transform="translate(104.099829 0)scale(0.996264)" xlink:href="#CMR17-3d"/>
     <use transform="translate(203.488627 0)scale(0.996264)" xlink:href="#CMR17-30"/>
     <use transform="translate(249.179104 0)scale(0.996264)" xlink:href="#CMMI12-3a"/>
     <use transform="translate(276.276281 0)scale(0.996264)" xlink:href="#CMR17-30"/>
     <use transform="translate(321.966758 0)scale(0.996264)" xlink:href="#CMR17-30"/>
     <use transform="translate(367.657235 0)scale(0.996264)" xlink:href="#CMR17-33"/>
     <use transform="translate(413.347712 0)scale(0.996264)" xlink:href="#CMR17-39"/>
    </g>
   </g>
   <g id="text_15">
    <!-- $P = 0.0039$ -->
    <g transform="translate(340.282989 110.956492)scale(0.12 -0.12)">
     <use transform="scale(0.996264)" xlink:href="#CMMI12-50"/>
     <use transform="translate(104.099829 0)scale(0.996264)" xlink:href="#CMR17-3d"/>
     <use transform="translate(203.488627 0)scale(0.996264)" xlink:href="#CMR17-30"/>
     <use transform="translate(249.179104 0)scale(0.996264)" xlink:href="#CMMI12-3a"/>
     <use transform="translate(276.276281 0)scale(0.996264)" xlink:href="#CMR17-30"/>
     <use transform="translate(321.966758 0)scale(0.996264)" xlink:href="#CMR17-30"/>
     <use transform="translate(367.657235 0)scale(0.996264)" xlink:href="#CMR17-33"/>
     <use transform="translate(413.347712 0)scale(0.996264)" xlink:href="#CMR17-39"/>
    </g>
   </g>
   <g id="text_16">
    <!-- $P = 0.02$ -->
    <g transform="translate(457.73598 110.956492)scale(0.12 -0.12)">
     <use transform="scale(0.996264)" xlink:href="#CMMI12-50"/>
     <use transform="translate(104.099829 0)scale(0.996264)" xlink:href="#CMR17-3d"/>
     <use transform="translate(203.488627 0)scale(0.996264)" xlink:href="#CMR17-30"/>
     <use transform="translate(249.179104 0)scale(0.996264)" xlink:href="#CMMI12-3a"/>
     <use transform="translate(276.276281 0)scale(0.996264)" xlink:href="#CMR17-30"/>
     <use transform="translate(321.966758 0)scale(0.996264)" xlink:href="#CMR17-32"/>
    </g>
   </g>
   <g id="text_17">
    <!-- n.s. -->
    <g transform="translate(583.387998 110.956492)scale(0.12 -0.12)">
     <defs>
      <path d="M 1062 262 
C 1062 422 934 524 800 524 
C 672 524 538 422 538 262 
C 538 102 666 0 800 0 
C 928 0 1062 102 1062 262 
z
" id="CMR17-2e" transform="scale(0.015625)"/>
     </defs>
     <use transform="scale(0.996264)" xlink:href="#CMR17-6e"/>
     <use transform="translate(50.89537 0)scale(0.996264)" xlink:href="#CMR17-2e"/>
     <use transform="translate(75.766428 0)scale(0.996264)" xlink:href="#CMR17-73"/>
     <use transform="translate(111.567766 0)scale(0.996264)" xlink:href="#CMR17-2e"/>
    </g>
   </g>
  </g>
 </g>
 <defs>
  <clipPath id="p5a3ea08404">
   <rect height="543.6" width="558" x="90" y="86.4"/>
  </clipPath>
 </defs>
</svg>
