<?xml version="1.0" encoding="utf-8" standalone="no"?>
<!DOCTYPE svg PUBLIC "-//W3C//DTD SVG 1.1//EN"
  "http://www.w3.org/Graphics/SVG/1.1/DTD/svg11.dtd">
<svg height="720pt" version="1.1" viewBox="0 0 720 720" width="720pt" xmlns="http://www.w3.org/2000/svg" xmlns:xlink="http://www.w3.org/1999/xlink">
 <metadata>
  <rdf:RDF xmlns:cc="http://creativecommons.org/ns#" xmlns:dc="http://purl.org/dc/elements/1.1/" xmlns:rdf="http://www.w3.org/1999/02/22-rdf-syntax-ns#">
   <cc:Work>
    <dc:type rdf:resource="http://purl.org/dc/dcmitype/StillImage"/>
    <dc:date>2022-08-26T11:26:03.412610</dc:date>
    <dc:format>image/svg+xml</dc:format>
    <dc:creator>
     <cc:Agent>
      <dc:title>Matplotlib v3.4.3, https://matplotlib.org/</dc:title>
     </cc:Agent>
    </dc:creator>
   </cc:Work>
  </rdf:RDF>
 </metadata>
 <defs>
  <style type="text/css">*{stroke-linecap:butt;stroke-linejoin:round;}</style>
 </defs>
 <g id="figure_1">
  <g id="patch_1">
   <path d="M 0 720 
L 720 720 
L 720 0 
L 0 0 
z
" style="fill:none;"/>
  </g>
  <g id="axes_1">
   <g id="patch_2">
    <path d="M 90 630 
L 648 630 
L 648 86.4 
L 90 86.4 
z
" style="fill:#ffffff;"/>
   </g>
   <g id="line2d_1">
    <path clip-path="url(#p31f3d92cf8)" d="M 145.8 193.033806 
L 369 380.768592 
L 480.6 208.28943 
L 592.2 246.323881 
" style="fill:none;stroke:#808080;stroke-linecap:square;stroke-width:1.5;"/>
   </g>
   <g id="line2d_2">
    <path clip-path="url(#p31f3d92cf8)" d="M 145.8 225.966251 
L 369 352.141906 
L 480.6 407.2056 
L 592.2 355.214873 
" style="fill:none;stroke:#808080;stroke-linecap:square;stroke-width:1.5;"/>
   </g>
   <g id="line2d_3">
    <path clip-path="url(#p31f3d92cf8)" d="M 145.8 160.56921 
L 257.4 325.21656 
L 369 290.820478 
L 480.6 202.73037 
L 592.2 154.829008 
" style="fill:none;stroke:#808080;stroke-linecap:square;stroke-width:1.5;"/>
   </g>
   <g id="line2d_4">
    <path clip-path="url(#p31f3d92cf8)" d="M 145.8 356.334559 
L 257.4 530.97544 
L 369 293.116499 
L 480.6 163.961641 
L 592.2 202.09615 
" style="fill:none;stroke:#808080;stroke-linecap:square;stroke-width:1.5;"/>
   </g>
   <g id="line2d_5">
    <path clip-path="url(#p31f3d92cf8)" d="M 145.8 170.483289 
L 257.4 513.046221 
L 369 384.210736 
L 480.6 233.352241 
L 592.2 241.967215 
" style="fill:none;stroke:#808080;stroke-linecap:square;stroke-width:1.5;"/>
   </g>
   <g id="line2d_6">
    <path clip-path="url(#p31f3d92cf8)" d="M 145.8 170.526515 
L 257.4 382.069946 
L 369 413.487806 
L 480.6 293.220331 
L 592.2 244.661466 
" style="fill:none;stroke:#808080;stroke-linecap:square;stroke-width:1.5;"/>
   </g>
   <g id="line2d_7">
    <path clip-path="url(#p31f3d92cf8)" d="M 145.8 176.46535 
L 257.4 191.292041 
L 369 275.910677 
L 480.6 191.715787 
L 592.2 176.516612 
" style="fill:none;stroke:#808080;stroke-linecap:square;stroke-width:1.5;"/>
   </g>
   <g id="line2d_8">
    <path clip-path="url(#p31f3d92cf8)" d="M 145.8 314.42265 
L 257.4 491.041186 
L 369 389.863607 
L 480.6 244.845633 
L 592.2 210.620415 
" style="fill:none;stroke:#808080;stroke-linecap:square;stroke-width:1.5;"/>
   </g>
   <g id="line2d_9">
    <path clip-path="url(#p31f3d92cf8)" d="M 145.8 325.065822 
L 257.4 606.466333 
L 369 418.636785 
L 480.6 165.878376 
L 592.2 135.792995 
" style="fill:none;stroke:#808080;stroke-linecap:square;stroke-width:1.5;"/>
   </g>
   <g id="line2d_10">
    <path clip-path="url(#p31f3d92cf8)" d="M 145.8 189.499953 
L 257.4 394.626131 
L 369 268.127917 
L 480.6 270.819284 
L 592.2 402.085075 
" style="fill:none;stroke:#808080;stroke-linecap:square;stroke-width:1.5;"/>
   </g>
   <g id="line2d_11">
    <path clip-path="url(#p31f3d92cf8)" d="M 145.8 315.689194 
L 369 313.195086 
L 480.6 427.322675 
L 592.2 315.092717 
" style="fill:none;stroke:#808080;stroke-linecap:square;stroke-width:1.5;"/>
   </g>
   <g id="line2d_12">
    <path clip-path="url(#p31f3d92cf8)" d="M 145.8 185.794997 
L 257.4 204.199204 
L 369 365.519892 
L 480.6 183.035694 
L 592.2 209.156449 
" style="fill:none;stroke:#808080;stroke-linecap:square;stroke-width:1.5;"/>
   </g>
   <g id="PathCollection_1">
    <defs>
     <path d="M 0 3 
C 0.795609 3 1.55874 2.683901 2.12132 2.12132 
C 2.683901 1.55874 3 0.795609 3 0 
C 3 -0.795609 2.683901 -1.55874 2.12132 -2.12132 
C 1.55874 -2.683901 0.795609 -3 0 -3 
C -0.795609 -3 -1.55874 -2.683901 -2.12132 -2.12132 
C -2.683901 -1.55874 -3 -0.795609 -3 0 
C -3 0.795609 -2.683901 1.55874 -2.12132 2.12132 
C -1.55874 2.683901 -0.795609 3 0 3 
z
" id="m95f38e4bf1" style="stroke:#1f77b4;"/>
    </defs>
    <g clip-path="url(#p31f3d92cf8)">
     <use style="fill:#1f77b4;stroke:#1f77b4;" x="145.8" xlink:href="#m95f38e4bf1" y="225.966251"/>
     <use style="fill:#1f77b4;stroke:#1f77b4;" x="145.8" xlink:href="#m95f38e4bf1" y="160.56921"/>
     <use style="fill:#1f77b4;stroke:#1f77b4;" x="145.8" xlink:href="#m95f38e4bf1" y="356.334559"/>
     <use style="fill:#1f77b4;stroke:#1f77b4;" x="145.8" xlink:href="#m95f38e4bf1" y="193.033806"/>
     <use style="fill:#1f77b4;stroke:#1f77b4;" x="145.8" xlink:href="#m95f38e4bf1" y="170.483289"/>
     <use style="fill:#1f77b4;stroke:#1f77b4;" x="145.8" xlink:href="#m95f38e4bf1" y="170.526515"/>
     <use style="fill:#1f77b4;stroke:#1f77b4;" x="145.8" xlink:href="#m95f38e4bf1" y="176.46535"/>
     <use style="fill:#1f77b4;stroke:#1f77b4;" x="145.8" xlink:href="#m95f38e4bf1" y="314.42265"/>
     <use style="fill:#1f77b4;stroke:#1f77b4;" x="145.8" xlink:href="#m95f38e4bf1" y="325.065822"/>
     <use style="fill:#1f77b4;stroke:#1f77b4;" x="145.8" xlink:href="#m95f38e4bf1" y="189.499953"/>
     <use style="fill:#1f77b4;stroke:#1f77b4;" x="145.8" xlink:href="#m95f38e4bf1" y="315.689194"/>
     <use style="fill:#1f77b4;stroke:#1f77b4;" x="145.8" xlink:href="#m95f38e4bf1" y="185.794997"/>
    </g>
   </g>
   <g id="PathCollection_2">
    <defs>
     <path d="M 0 3 
C 0.795609 3 1.55874 2.683901 2.12132 2.12132 
C 2.683901 1.55874 3 0.795609 3 0 
C 3 -0.795609 2.683901 -1.55874 2.12132 -2.12132 
C 1.55874 -2.683901 0.795609 -3 0 -3 
C -0.795609 -3 -1.55874 -2.683901 -2.12132 -2.12132 
C -2.683901 -1.55874 -3 -0.795609 -3 0 
C -3 0.795609 -2.683901 1.55874 -2.12132 2.12132 
C -1.55874 2.683901 -0.795609 3 0 3 
z
" id="m3bd47db841" style="stroke:#ff7f0e;"/>
    </defs>
    <g clip-path="url(#p31f3d92cf8)">
     <use style="fill:#ff7f0e;stroke:#ff7f0e;" x="257.4" xlink:href="#m3bd47db841" y="325.21656"/>
     <use style="fill:#ff7f0e;stroke:#ff7f0e;" x="257.4" xlink:href="#m3bd47db841" y="530.97544"/>
     <use style="fill:#ff7f0e;stroke:#ff7f0e;" x="257.4" xlink:href="#m3bd47db841" y="513.046221"/>
     <use style="fill:#ff7f0e;stroke:#ff7f0e;" x="257.4" xlink:href="#m3bd47db841" y="382.069946"/>
     <use style="fill:#ff7f0e;stroke:#ff7f0e;" x="257.4" xlink:href="#m3bd47db841" y="191.292041"/>
     <use style="fill:#ff7f0e;stroke:#ff7f0e;" x="257.4" xlink:href="#m3bd47db841" y="491.041186"/>
     <use style="fill:#ff7f0e;stroke:#ff7f0e;" x="257.4" xlink:href="#m3bd47db841" y="606.466333"/>
     <use style="fill:#ff7f0e;stroke:#ff7f0e;" x="257.4" xlink:href="#m3bd47db841" y="394.626131"/>
     <use style="fill:#ff7f0e;stroke:#ff7f0e;" x="257.4" xlink:href="#m3bd47db841" y="204.199204"/>
    </g>
   </g>
   <g id="PathCollection_3">
    <defs>
     <path d="M 0 3 
C 0.795609 3 1.55874 2.683901 2.12132 2.12132 
C 2.683901 1.55874 3 0.795609 3 0 
C 3 -0.795609 2.683901 -1.55874 2.12132 -2.12132 
C 1.55874 -2.683901 0.795609 -3 0 -3 
C -0.795609 -3 -1.55874 -2.683901 -2.12132 -2.12132 
C -2.683901 -1.55874 -3 -0.795609 -3 0 
C -3 0.795609 -2.683901 1.55874 -2.12132 2.12132 
C -1.55874 2.683901 -0.795609 3 0 3 
z
" id="m3730c79b06" style="stroke:#2ca02c;"/>
    </defs>
    <g clip-path="url(#p31f3d92cf8)">
     <use style="fill:#2ca02c;stroke:#2ca02c;" x="369" xlink:href="#m3730c79b06" y="352.141906"/>
     <use style="fill:#2ca02c;stroke:#2ca02c;" x="369" xlink:href="#m3730c79b06" y="290.820478"/>
     <use style="fill:#2ca02c;stroke:#2ca02c;" x="369" xlink:href="#m3730c79b06" y="293.116499"/>
     <use style="fill:#2ca02c;stroke:#2ca02c;" x="369" xlink:href="#m3730c79b06" y="380.768592"/>
     <use style="fill:#2ca02c;stroke:#2ca02c;" x="369" xlink:href="#m3730c79b06" y="384.210736"/>
     <use style="fill:#2ca02c;stroke:#2ca02c;" x="369" xlink:href="#m3730c79b06" y="413.487806"/>
     <use style="fill:#2ca02c;stroke:#2ca02c;" x="369" xlink:href="#m3730c79b06" y="275.910677"/>
     <use style="fill:#2ca02c;stroke:#2ca02c;" x="369" xlink:href="#m3730c79b06" y="389.863607"/>
     <use style="fill:#2ca02c;stroke:#2ca02c;" x="369" xlink:href="#m3730c79b06" y="418.636785"/>
     <use style="fill:#2ca02c;stroke:#2ca02c;" x="369" xlink:href="#m3730c79b06" y="268.127917"/>
     <use style="fill:#2ca02c;stroke:#2ca02c;" x="369" xlink:href="#m3730c79b06" y="313.195086"/>
     <use style="fill:#2ca02c;stroke:#2ca02c;" x="369" xlink:href="#m3730c79b06" y="365.519892"/>
    </g>
   </g>
   <g id="PathCollection_4">
    <defs>
     <path d="M 0 3 
C 0.795609 3 1.55874 2.683901 2.12132 2.12132 
C 2.683901 1.55874 3 0.795609 3 0 
C 3 -0.795609 2.683901 -1.55874 2.12132 -2.12132 
C 1.55874 -2.683901 0.795609 -3 0 -3 
C -0.795609 -3 -1.55874 -2.683901 -2.12132 -2.12132 
C -2.683901 -1.55874 -3 -0.795609 -3 0 
C -3 0.795609 -2.683901 1.55874 -2.12132 2.12132 
C -1.55874 2.683901 -0.795609 3 0 3 
z
" id="m4985ddb723" style="stroke:#d62728;"/>
    </defs>
    <g clip-path="url(#p31f3d92cf8)">
     <use style="fill:#d62728;stroke:#d62728;" x="480.6" xlink:href="#m4985ddb723" y="407.2056"/>
     <use style="fill:#d62728;stroke:#d62728;" x="480.6" xlink:href="#m4985ddb723" y="202.73037"/>
     <use style="fill:#d62728;stroke:#d62728;" x="480.6" xlink:href="#m4985ddb723" y="163.961641"/>
     <use style="fill:#d62728;stroke:#d62728;" x="480.6" xlink:href="#m4985ddb723" y="208.28943"/>
     <use style="fill:#d62728;stroke:#d62728;" x="480.6" xlink:href="#m4985ddb723" y="233.352241"/>
     <use style="fill:#d62728;stroke:#d62728;" x="480.6" xlink:href="#m4985ddb723" y="293.220331"/>
     <use style="fill:#d62728;stroke:#d62728;" x="480.6" xlink:href="#m4985ddb723" y="191.715787"/>
     <use style="fill:#d62728;stroke:#d62728;" x="480.6" xlink:href="#m4985ddb723" y="244.845633"/>
     <use style="fill:#d62728;stroke:#d62728;" x="480.6" xlink:href="#m4985ddb723" y="165.878376"/>
     <use style="fill:#d62728;stroke:#d62728;" x="480.6" xlink:href="#m4985ddb723" y="270.819284"/>
     <use style="fill:#d62728;stroke:#d62728;" x="480.6" xlink:href="#m4985ddb723" y="427.322675"/>
     <use style="fill:#d62728;stroke:#d62728;" x="480.6" xlink:href="#m4985ddb723" y="183.035694"/>
    </g>
   </g>
   <g id="PathCollection_5">
    <defs>
     <path d="M 0 3 
C 0.795609 3 1.55874 2.683901 2.12132 2.12132 
C 2.683901 1.55874 3 0.795609 3 0 
C 3 -0.795609 2.683901 -1.55874 2.12132 -2.12132 
C 1.55874 -2.683901 0.795609 -3 0 -3 
C -0.795609 -3 -1.55874 -2.683901 -2.12132 -2.12132 
C -2.683901 -1.55874 -3 -0.795609 -3 0 
C -3 0.795609 -2.683901 1.55874 -2.12132 2.12132 
C -1.55874 2.683901 -0.795609 3 0 3 
z
" id="m67202b4de1" style="stroke:#9467bd;"/>
    </defs>
    <g clip-path="url(#p31f3d92cf8)">
     <use style="fill:#9467bd;stroke:#9467bd;" x="592.2" xlink:href="#m67202b4de1" y="355.214873"/>
     <use style="fill:#9467bd;stroke:#9467bd;" x="592.2" xlink:href="#m67202b4de1" y="154.829008"/>
     <use style="fill:#9467bd;stroke:#9467bd;" x="592.2" xlink:href="#m67202b4de1" y="202.09615"/>
     <use style="fill:#9467bd;stroke:#9467bd;" x="592.2" xlink:href="#m67202b4de1" y="246.323881"/>
     <use style="fill:#9467bd;stroke:#9467bd;" x="592.2" xlink:href="#m67202b4de1" y="241.967215"/>
     <use style="fill:#9467bd;stroke:#9467bd;" x="592.2" xlink:href="#m67202b4de1" y="244.661466"/>
     <use style="fill:#9467bd;stroke:#9467bd;" x="592.2" xlink:href="#m67202b4de1" y="176.516612"/>
     <use style="fill:#9467bd;stroke:#9467bd;" x="592.2" xlink:href="#m67202b4de1" y="210.620415"/>
     <use style="fill:#9467bd;stroke:#9467bd;" x="592.2" xlink:href="#m67202b4de1" y="135.792995"/>
     <use style="fill:#9467bd;stroke:#9467bd;" x="592.2" xlink:href="#m67202b4de1" y="402.085075"/>
     <use style="fill:#9467bd;stroke:#9467bd;" x="592.2" xlink:href="#m67202b4de1" y="315.092717"/>
     <use style="fill:#9467bd;stroke:#9467bd;" x="592.2" xlink:href="#m67202b4de1" y="209.156449"/>
    </g>
   </g>
   <g id="matplotlib.axis_1">
    <g id="xtick_1">
     <g id="line2d_13">
      <defs>
       <path d="M 0 0 
L 0 3.5 
" id="m2f764ba668" style="stroke:#000000;stroke-width:0.8;"/>
      </defs>
      <g>
       <use style="stroke:#000000;stroke-width:0.8;" x="145.8" xlink:href="#m2f764ba668" y="630"/>
      </g>
     </g>
     <g id="text_1">
      <!-- D0 -->
      <g transform="translate(137.170754 646.685876)scale(0.14 -0.14)">
       <defs>
        <path d="M 333 4352 
L 333 4185 
C 774 4185 845 4185 845 3898 
L 845 453 
C 845 166 774 166 333 166 
L 333 0 
L 2368 0 
C 3398 0 4224 943 4224 2140 
C 4224 3344 3411 4352 2368 4352 
L 333 4352 
z
M 1523 166 
C 1267 166 1254 198 1254 414 
L 1254 3936 
C 1254 4153 1267 4185 1523 4185 
L 2240 4185 
C 2771 4185 3750 3873 3750 2140 
C 3750 1242 3488 879 3366 707 
C 3213 510 2848 166 2240 166 
L 1523 166 
z
" id="CMR17-44" transform="scale(0.015625)"/>
        <path d="M 2688 2038 
C 2688 2430 2682 3099 2413 3613 
C 2176 4063 1798 4224 1466 4224 
C 1158 4224 768 4082 525 3620 
C 269 3137 243 2539 243 2038 
C 243 1671 250 1112 448 623 
C 723 -39 1216 -128 1466 -128 
C 1760 -128 2208 -7 2470 604 
C 2662 1048 2688 1568 2688 2038 
z
M 1466 -26 
C 1056 -26 813 328 723 816 
C 653 1196 653 1749 653 2109 
C 653 2604 653 3015 736 3407 
C 858 3954 1216 4121 1466 4121 
C 1728 4121 2067 3947 2189 3420 
C 2272 3054 2278 2623 2278 2109 
C 2278 1691 2278 1176 2202 797 
C 2067 96 1690 -26 1466 -26 
z
" id="CMR17-30" transform="scale(0.015625)"/>
       </defs>
       <use transform="scale(0.996264)" xlink:href="#CMR17-44"/>
       <use transform="translate(70.393556 0)scale(0.996264)" xlink:href="#CMR17-30"/>
      </g>
     </g>
    </g>
    <g id="xtick_2">
     <g id="line2d_14">
      <g>
       <use style="stroke:#000000;stroke-width:0.8;" x="257.4" xlink:href="#m2f764ba668" y="630"/>
      </g>
     </g>
     <g id="text_2">
      <!-- D4 -->
      <g transform="translate(248.770754 646.685876)scale(0.14 -0.14)">
       <defs>
        <path d="M 2150 4147 
C 2150 4281 2144 4288 2029 4288 
L 128 1254 
L 128 1088 
L 1779 1088 
L 1779 460 
C 1779 230 1766 166 1318 166 
L 1197 166 
L 1197 0 
C 1402 12 1747 12 1965 12 
C 2182 12 2528 12 2733 0 
L 2733 166 
L 2611 166 
C 2163 166 2150 230 2150 460 
L 2150 1088 
L 2803 1088 
L 2803 1254 
L 2150 1254 
L 2150 4147 
z
M 1798 3723 
L 1798 1254 
L 256 1254 
L 1798 3723 
z
" id="CMR17-34" transform="scale(0.015625)"/>
       </defs>
       <use transform="scale(0.996264)" xlink:href="#CMR17-44"/>
       <use transform="translate(70.393556 0)scale(0.996264)" xlink:href="#CMR17-34"/>
      </g>
     </g>
    </g>
    <g id="xtick_3">
     <g id="line2d_15">
      <g>
       <use style="stroke:#000000;stroke-width:0.8;" x="369" xlink:href="#m2f764ba668" y="630"/>
      </g>
     </g>
     <g id="text_3">
      <!-- D8 -->
      <g transform="translate(360.370754 646.685876)scale(0.14 -0.14)">
       <defs>
        <path d="M 1741 2289 
C 2144 2494 2554 2803 2554 3298 
C 2554 3884 1990 4224 1472 4224 
C 890 4224 378 3800 378 3215 
C 378 3054 416 2777 666 2533 
C 730 2469 998 2276 1171 2154 
C 883 2006 211 1652 211 945 
C 211 282 838 -128 1459 -128 
C 2144 -128 2720 366 2720 1022 
C 2720 1607 2330 1877 2074 2051 
L 1741 2289 
z
M 902 2855 
C 851 2887 595 3086 595 3388 
C 595 3781 998 4076 1459 4076 
C 1965 4076 2336 3716 2336 3298 
C 2336 2700 1670 2359 1638 2359 
C 1632 2359 1626 2359 1574 2398 
L 902 2855 
z
M 2080 1536 
C 2176 1466 2483 1253 2483 861 
C 2483 385 2010 25 1472 25 
C 890 25 448 443 448 951 
C 448 1459 838 1884 1280 2083 
L 2080 1536 
z
" id="CMR17-38" transform="scale(0.015625)"/>
       </defs>
       <use transform="scale(0.996264)" xlink:href="#CMR17-44"/>
       <use transform="translate(70.393556 0)scale(0.996264)" xlink:href="#CMR17-38"/>
      </g>
     </g>
    </g>
    <g id="xtick_4">
     <g id="line2d_16">
      <g>
       <use style="stroke:#000000;stroke-width:0.8;" x="480.6" xlink:href="#m2f764ba668" y="630"/>
      </g>
     </g>
     <g id="text_4">
      <!-- D42 -->
      <g transform="translate(468.55651 646.685876)scale(0.14 -0.14)">
       <defs>
        <path d="M 2669 990 
L 2554 990 
C 2490 537 2438 460 2413 422 
C 2381 371 1920 371 1830 371 
L 602 371 
C 832 620 1280 1073 1824 1596 
C 2214 1966 2669 2400 2669 3033 
C 2669 3788 2067 4224 1395 4224 
C 691 4224 262 3603 262 3027 
C 262 2777 448 2745 525 2745 
C 589 2745 781 2783 781 3007 
C 781 3206 614 3264 525 3264 
C 486 3264 448 3257 422 3244 
C 544 3788 915 4057 1306 4057 
C 1862 4057 2227 3616 2227 3033 
C 2227 2477 1901 1998 1536 1583 
L 262 147 
L 262 0 
L 2515 0 
L 2669 990 
z
" id="CMR17-32" transform="scale(0.015625)"/>
       </defs>
       <use transform="scale(0.996264)" xlink:href="#CMR17-44"/>
       <use transform="translate(70.393556 0)scale(0.996264)" xlink:href="#CMR17-34"/>
       <use transform="translate(116.084033 0)scale(0.996264)" xlink:href="#CMR17-32"/>
      </g>
     </g>
    </g>
    <g id="xtick_5">
     <g id="line2d_17">
      <g>
       <use style="stroke:#000000;stroke-width:0.8;" x="592.2" xlink:href="#m2f764ba668" y="630"/>
      </g>
     </g>
     <g id="text_5">
      <!-- D180 -->
      <g transform="translate(576.742265 646.685876)scale(0.14 -0.14)">
       <defs>
        <path d="M 1702 4083 
C 1702 4217 1696 4224 1606 4224 
C 1357 3927 979 3833 621 3820 
C 602 3820 570 3820 563 3808 
C 557 3795 557 3782 557 3648 
C 755 3648 1088 3686 1344 3839 
L 1344 467 
C 1344 243 1331 166 781 166 
L 589 166 
L 589 0 
C 896 6 1216 12 1523 12 
C 1830 12 2150 6 2458 0 
L 2458 166 
L 2266 166 
C 1715 166 1702 236 1702 467 
L 1702 4083 
z
" id="CMR17-31" transform="scale(0.015625)"/>
       </defs>
       <use transform="scale(0.996264)" xlink:href="#CMR17-44"/>
       <use transform="translate(70.393556 0)scale(0.996264)" xlink:href="#CMR17-31"/>
       <use transform="translate(116.084033 0)scale(0.996264)" xlink:href="#CMR17-38"/>
       <use transform="translate(161.77451 0)scale(0.996264)" xlink:href="#CMR17-30"/>
      </g>
     </g>
    </g>
    <g id="text_6">
     <!-- Time point -->
     <g transform="translate(328.815464 665.851205)scale(0.18 -0.18)">
      <defs>
       <path d="M 3981 4332 
L 288 4332 
L 179 2924 
L 294 2924 
C 378 3981 467 4166 1453 4166 
C 1568 4166 1754 4166 1805 4159 
C 1926 4140 1926 4064 1926 3917 
L 1926 465 
C 1926 236 1907 166 1376 166 
L 1197 166 
L 1197 0 
C 1504 6 1824 12 2138 12 
C 2451 12 2771 6 3078 0 
L 3078 166 
L 2899 166 
C 2368 166 2349 236 2349 465 
L 2349 3917 
C 2349 4057 2349 4134 2464 4159 
C 2515 4166 2701 4166 2816 4166 
C 3795 4166 3891 3981 3974 2924 
L 4090 2924 
L 3981 4332 
z
" id="CMR17-54" transform="scale(0.015625)"/>
       <path d="M 992 3961 
C 992 4102 877 4224 730 4224 
C 589 4224 467 4108 467 3961 
C 467 3820 582 3699 730 3699 
C 870 3699 992 3814 992 3961 
z
M 243 2745 
L 243 2579 
C 602 2579 653 2540 653 2231 
L 653 443 
C 653 198 627 166 218 166 
L 218 0 
C 371 12 646 12 806 12 
C 960 12 1222 12 1370 0 
L 1370 166 
C 992 166 979 205 979 436 
L 979 2816 
L 243 2745 
z
" id="CMR17-69" transform="scale(0.015625)"/>
       <path d="M 4326 1954 
C 4326 2276 4269 2816 3507 2816 
C 3072 2816 2771 2520 2656 2173 
L 2650 2173 
C 2573 2700 2195 2816 1837 2816 
C 1331 2816 1069 2424 973 2166 
L 966 2166 
L 966 2816 
L 211 2745 
L 211 2578 
C 589 2578 646 2540 646 2231 
L 646 443 
C 646 198 621 166 211 166 
L 211 0 
C 365 12 646 12 813 12 
C 979 12 1267 12 1421 0 
L 1421 166 
C 1011 166 986 192 986 443 
L 986 1678 
C 986 2269 1344 2713 1792 2713 
C 2266 2713 2317 2289 2317 1980 
L 2317 443 
C 2317 198 2291 166 1882 166 
L 1882 0 
C 2035 12 2317 12 2483 12 
C 2650 12 2938 12 3091 0 
L 3091 166 
C 2682 166 2656 192 2656 443 
L 2656 1678 
C 2656 2269 3014 2713 3462 2713 
C 3936 2713 3987 2289 3987 1980 
L 3987 443 
C 3987 198 3962 166 3552 166 
L 3552 0 
C 3706 12 3987 12 4154 12 
C 4320 12 4608 12 4762 0 
L 4762 166 
C 4352 166 4326 192 4326 443 
L 4326 1954 
z
" id="CMR17-6d" transform="scale(0.015625)"/>
       <path d="M 2438 1503 
C 2464 1529 2464 1542 2464 1606 
C 2464 2251 2118 2816 1389 2816 
C 710 2816 173 2175 173 1394 
C 173 554 781 -64 1459 -64 
C 2176 -64 2458 619 2458 755 
C 2458 800 2419 800 2406 800 
C 2362 800 2355 787 2330 709 
C 2189 270 1837 51 1504 51 
C 1229 51 954 206 781 490 
C 582 819 582 1200 582 1503 
L 2438 1503 
z
M 589 1600 
C 634 2511 1126 2713 1382 2713 
C 1818 2713 2112 2308 2118 1600 
L 589 1600 
z
" id="CMR17-65" transform="scale(0.015625)"/>
       <path d="M 1408 -1114 
C 998 -1114 973 -1088 973 -834 
L 973 380 
C 1158 109 1427 -64 1766 -64 
C 2406 -64 3053 503 3053 1382 
C 3053 2196 2496 2816 1837 2816 
C 1453 2816 1139 2603 960 2345 
L 960 2816 
L 198 2745 
L 198 2577 
C 576 2577 634 2539 634 2228 
L 634 -834 
C 634 -1081 608 -1114 198 -1114 
L 198 -1280 
C 352 -1268 634 -1268 800 -1268 
C 966 -1268 1254 -1268 1408 -1280 
L 1408 -1114 
z
M 973 2015 
C 973 2106 973 2241 1222 2481 
C 1254 2506 1472 2700 1792 2700 
C 2259 2700 2643 2112 2643 1376 
C 2643 639 2234 38 1728 38 
C 1498 38 1248 148 1056 451 
C 973 594 973 632 973 736 
L 973 2015 
z
" id="CMR17-70" transform="scale(0.015625)"/>
       <path d="M 2758 1356 
C 2758 2176 2163 2816 1466 2816 
C 768 2816 173 2176 173 1356 
C 173 550 768 -64 1466 -64 
C 2163 -64 2758 550 2758 1356 
z
M 1466 51 
C 1165 51 909 230 762 480 
C 602 768 582 1126 582 1408 
C 582 1676 595 2009 762 2297 
C 890 2508 1139 2713 1466 2713 
C 1754 2713 1997 2553 2150 2329 
C 2349 2028 2349 1606 2349 1408 
C 2349 1158 2336 774 2163 467 
C 1984 172 1709 51 1466 51 
z
" id="CMR17-6f" transform="scale(0.015625)"/>
       <path d="M 2656 1954 
C 2656 2282 2592 2816 1837 2816 
C 1331 2816 1069 2424 973 2166 
L 966 2166 
L 966 2816 
L 211 2745 
L 211 2578 
C 589 2578 646 2540 646 2231 
L 646 443 
C 646 198 621 166 211 166 
L 211 0 
C 365 12 646 12 813 12 
C 979 12 1267 12 1421 0 
L 1421 166 
C 1011 166 986 192 986 443 
L 986 1678 
C 986 2269 1344 2713 1792 2713 
C 2266 2713 2317 2289 2317 1980 
L 2317 443 
C 2317 198 2291 166 1882 166 
L 1882 0 
C 2035 12 2317 12 2483 12 
C 2650 12 2938 12 3091 0 
L 3091 166 
C 2682 166 2656 192 2656 443 
L 2656 1954 
z
" id="CMR17-6e" transform="scale(0.015625)"/>
       <path d="M 966 2585 
L 1862 2585 
L 1862 2752 
L 966 2752 
L 966 3968 
L 851 3968 
C 838 3292 614 2700 70 2687 
L 70 2585 
L 627 2585 
L 627 778 
C 627 655 627 -64 1370 -64 
C 1747 -64 1965 308 1965 784 
L 1965 1151 
L 1850 1151 
L 1850 790 
C 1850 347 1677 51 1408 51 
C 1222 51 966 179 966 765 
L 966 2585 
z
" id="CMR17-74" transform="scale(0.015625)"/>
      </defs>
      <use transform="scale(0.996264)" xlink:href="#CMR17-54"/>
      <use transform="translate(66.509881 0)scale(0.996264)" xlink:href="#CMR17-69"/>
      <use transform="translate(91.380939 0)scale(0.996264)" xlink:href="#CMR17-6d"/>
      <use transform="translate(168.300529 0)scale(0.996264)" xlink:href="#CMR17-65"/>
      <use transform="translate(238.862156 0)scale(0.996264)" xlink:href="#CMR17-70"/>
      <use transform="translate(292.359964 0)scale(0.996264)" xlink:href="#CMR17-6f"/>
      <use transform="translate(338.050441 0)scale(0.996264)" xlink:href="#CMR17-69"/>
      <use transform="translate(362.9215 0)scale(0.996264)" xlink:href="#CMR17-6e"/>
      <use transform="translate(411.214416 0)scale(0.996264)" xlink:href="#CMR17-74"/>
     </g>
    </g>
   </g>
   <g id="matplotlib.axis_2">
    <g id="ytick_1">
     <g id="line2d_18">
      <defs>
       <path d="M 0 0 
L -3.5 0 
" id="m33a3989ae9" style="stroke:#000000;stroke-width:0.8;"/>
      </defs>
      <g>
       <use style="stroke:#000000;stroke-width:0.8;" x="90" xlink:href="#m33a3989ae9" y="629.44589"/>
      </g>
     </g>
     <g id="text_7">
      <!-- $\mathdefault{0.0}$ -->
      <g transform="translate(65.549418 634.288828)scale(0.14 -0.14)">
       <defs>
        <path d="M 1178 307 
C 1178 492 1024 620 870 620 
C 685 620 557 467 557 313 
C 557 128 710 0 864 0 
C 1050 0 1178 153 1178 307 
z
" id="CMMI12-3a" transform="scale(0.015625)"/>
       </defs>
       <use transform="scale(0.996264)" xlink:href="#CMR17-30"/>
       <use transform="translate(45.690477 0)scale(0.996264)" xlink:href="#CMMI12-3a"/>
       <use transform="translate(72.787654 0)scale(0.996264)" xlink:href="#CMR17-30"/>
      </g>
     </g>
    </g>
    <g id="ytick_2">
     <g id="line2d_19">
      <g>
       <use style="stroke:#000000;stroke-width:0.8;" x="90" xlink:href="#m33a3989ae9" y="553.836355"/>
      </g>
     </g>
     <g id="text_8">
      <!-- $\mathdefault{0.5}$ -->
      <g transform="translate(65.549418 558.679293)scale(0.14 -0.14)">
       <defs>
        <path d="M 730 3750 
C 794 3724 1056 3641 1325 3641 
C 1920 3641 2246 3961 2432 4140 
C 2432 4191 2432 4224 2394 4224 
C 2387 4224 2374 4224 2323 4198 
C 2099 4102 1837 4032 1517 4032 
C 1325 4032 1037 4055 723 4191 
C 653 4224 640 4224 634 4224 
C 602 4224 595 4217 595 4090 
L 595 2231 
C 595 2113 595 2080 659 2080 
C 691 2080 704 2093 736 2139 
C 941 2435 1222 2560 1542 2560 
C 1766 2560 2246 2415 2246 1293 
C 2246 1087 2246 716 2054 422 
C 1894 159 1645 25 1370 25 
C 947 25 518 319 403 812 
C 429 806 480 793 506 793 
C 589 793 749 838 749 1036 
C 749 1209 627 1280 506 1280 
C 358 1280 262 1190 262 1011 
C 262 454 704 -128 1382 -128 
C 2042 -128 2669 441 2669 1267 
C 2669 2054 2170 2662 1549 2662 
C 1222 2662 947 2540 730 2304 
L 730 3750 
z
" id="CMR17-35" transform="scale(0.015625)"/>
       </defs>
       <use transform="scale(0.996264)" xlink:href="#CMR17-30"/>
       <use transform="translate(45.690477 0)scale(0.996264)" xlink:href="#CMMI12-3a"/>
       <use transform="translate(72.787654 0)scale(0.996264)" xlink:href="#CMR17-35"/>
      </g>
     </g>
    </g>
    <g id="ytick_3">
     <g id="line2d_20">
      <g>
       <use style="stroke:#000000;stroke-width:0.8;" x="90" xlink:href="#m33a3989ae9" y="478.226819"/>
      </g>
     </g>
     <g id="text_9">
      <!-- $\mathdefault{1.0}$ -->
      <g transform="translate(65.549418 483.069758)scale(0.14 -0.14)">
       <use transform="scale(0.996264)" xlink:href="#CMR17-31"/>
       <use transform="translate(45.690477 0)scale(0.996264)" xlink:href="#CMMI12-3a"/>
       <use transform="translate(72.787654 0)scale(0.996264)" xlink:href="#CMR17-30"/>
      </g>
     </g>
    </g>
    <g id="ytick_4">
     <g id="line2d_21">
      <g>
       <use style="stroke:#000000;stroke-width:0.8;" x="90" xlink:href="#m33a3989ae9" y="402.617284"/>
      </g>
     </g>
     <g id="text_10">
      <!-- $\mathdefault{1.5}$ -->
      <g transform="translate(65.549418 407.460222)scale(0.14 -0.14)">
       <use transform="scale(0.996264)" xlink:href="#CMR17-31"/>
       <use transform="translate(45.690477 0)scale(0.996264)" xlink:href="#CMMI12-3a"/>
       <use transform="translate(72.787654 0)scale(0.996264)" xlink:href="#CMR17-35"/>
      </g>
     </g>
    </g>
    <g id="ytick_5">
     <g id="line2d_22">
      <g>
       <use style="stroke:#000000;stroke-width:0.8;" x="90" xlink:href="#m33a3989ae9" y="327.007749"/>
      </g>
     </g>
     <g id="text_11">
      <!-- $\mathdefault{2.0}$ -->
      <g transform="translate(65.549418 331.850687)scale(0.14 -0.14)">
       <use transform="scale(0.996264)" xlink:href="#CMR17-32"/>
       <use transform="translate(45.690477 0)scale(0.996264)" xlink:href="#CMMI12-3a"/>
       <use transform="translate(72.787654 0)scale(0.996264)" xlink:href="#CMR17-30"/>
      </g>
     </g>
    </g>
    <g id="ytick_6">
     <g id="line2d_23">
      <g>
       <use style="stroke:#000000;stroke-width:0.8;" x="90" xlink:href="#m33a3989ae9" y="251.398213"/>
      </g>
     </g>
     <g id="text_12">
      <!-- $\mathdefault{2.5}$ -->
      <g transform="translate(65.549418 256.241152)scale(0.14 -0.14)">
       <use transform="scale(0.996264)" xlink:href="#CMR17-32"/>
       <use transform="translate(45.690477 0)scale(0.996264)" xlink:href="#CMMI12-3a"/>
       <use transform="translate(72.787654 0)scale(0.996264)" xlink:href="#CMR17-35"/>
      </g>
     </g>
    </g>
    <g id="ytick_7">
     <g id="line2d_24">
      <g>
       <use style="stroke:#000000;stroke-width:0.8;" x="90" xlink:href="#m33a3989ae9" y="175.788678"/>
      </g>
     </g>
     <g id="text_13">
      <!-- $\mathdefault{3.0}$ -->
      <g transform="translate(65.549418 180.631616)scale(0.14 -0.14)">
       <defs>
        <path d="M 1414 2176 
C 1984 2176 2234 1673 2234 1094 
C 2234 322 1824 25 1453 25 
C 1114 25 563 193 390 691 
C 422 678 454 678 486 678 
C 640 678 755 780 755 947 
C 755 1132 614 1216 486 1216 
C 378 1216 211 1164 211 927 
C 211 335 787 -128 1466 -128 
C 2176 -128 2720 432 2720 1087 
C 2720 1718 2208 2176 1600 2246 
C 2086 2347 2554 2776 2554 3353 
C 2554 3856 2048 4224 1472 4224 
C 890 4224 378 3862 378 3347 
C 378 3123 544 3084 627 3084 
C 762 3084 877 3167 877 3334 
C 877 3500 762 3584 627 3584 
C 602 3584 570 3584 544 3571 
C 730 3999 1235 4076 1459 4076 
C 1683 4076 2106 3966 2106 3347 
C 2106 3167 2080 2851 1862 2574 
C 1670 2329 1453 2316 1242 2297 
C 1210 2297 1062 2284 1037 2284 
C 992 2278 966 2272 966 2227 
C 966 2182 973 2176 1101 2176 
L 1414 2176 
z
" id="CMR17-33" transform="scale(0.015625)"/>
       </defs>
       <use transform="scale(0.996264)" xlink:href="#CMR17-33"/>
       <use transform="translate(45.690477 0)scale(0.996264)" xlink:href="#CMMI12-3a"/>
       <use transform="translate(72.787654 0)scale(0.996264)" xlink:href="#CMR17-30"/>
      </g>
     </g>
    </g>
    <g id="ytick_8">
     <g id="line2d_25">
      <g>
       <use style="stroke:#000000;stroke-width:0.8;" x="90" xlink:href="#m33a3989ae9" y="100.179143"/>
      </g>
     </g>
     <g id="text_14">
      <!-- $\mathdefault{3.5}$ -->
      <g transform="translate(65.549418 105.022081)scale(0.14 -0.14)">
       <use transform="scale(0.996264)" xlink:href="#CMR17-33"/>
       <use transform="translate(45.690477 0)scale(0.996264)" xlink:href="#CMMI12-3a"/>
       <use transform="translate(72.787654 0)scale(0.996264)" xlink:href="#CMR17-35"/>
      </g>
     </g>
    </g>
    <g id="text_15">
     <!-- Shannon Diversity -->
     <g transform="translate(58.061354 424.286845)rotate(-90)scale(0.18 -0.18)">
      <defs>
       <path d="M 2803 4351 
C 2803 4467 2797 4473 2758 4473 
C 2720 4473 2707 4447 2682 4390 
L 2490 3965 
C 2246 4320 1875 4480 1472 4480 
C 819 4480 294 3958 294 3301 
C 294 3101 339 2817 557 2546 
C 794 2250 1018 2198 1530 2063 
C 1722 2011 2042 1927 2106 1901 
C 2470 1747 2662 1360 2662 999 
C 2662 534 2336 38 1779 38 
C 1094 38 454 425 410 1328 
C 403 1431 397 1437 352 1437 
C 301 1437 294 1431 294 1302 
L 294 0 
C 294 -116 301 -122 339 -122 
C 384 -122 397 -90 486 109 
C 493 128 493 141 614 386 
C 934 -39 1472 -128 1779 -128 
C 2477 -128 2970 457 2970 1141 
C 2970 1476 2848 1734 2778 1850 
C 2509 2263 2221 2340 1914 2417 
C 1869 2437 1856 2437 1498 2527 
C 1152 2617 1005 2662 845 2836 
C 666 3036 602 3243 602 3449 
C 602 3868 934 4326 1478 4326 
C 2157 4326 2579 3842 2675 3036 
C 2694 2920 2701 2914 2746 2914 
C 2803 2914 2803 2933 2803 3043 
L 2803 4351 
z
" id="CMR17-53" transform="scale(0.015625)"/>
       <path d="M 2656 1954 
C 2656 2282 2592 2816 1837 2816 
C 1312 2816 1056 2392 979 2179 
L 973 2179 
L 973 4416 
L 211 4345 
L 211 4179 
C 589 4179 646 4141 646 3843 
L 646 443 
C 646 198 621 166 211 166 
L 211 0 
C 365 12 646 12 813 12 
C 979 12 1267 12 1421 0 
L 1421 166 
C 1011 166 986 192 986 443 
L 986 1678 
C 986 2269 1344 2713 1792 2713 
C 2266 2713 2317 2289 2317 1980 
L 2317 443 
C 2317 198 2291 166 1882 166 
L 1882 0 
C 2035 12 2317 12 2483 12 
C 2650 12 2938 12 3091 0 
L 3091 166 
C 2682 166 2656 192 2656 443 
L 2656 1954 
z
" id="CMR17-68" transform="scale(0.015625)"/>
       <path d="M 2304 1656 
C 2304 2048 2304 2275 2035 2534 
C 1798 2751 1523 2816 1306 2816 
C 800 2816 435 2408 435 1977 
C 435 1740 627 1728 666 1728 
C 749 1728 896 1779 896 1958 
C 896 2118 774 2188 666 2188 
C 640 2188 608 2182 589 2176 
C 723 2594 1069 2713 1293 2713 
C 1613 2713 1965 2421 1965 1875 
L 1965 1632 
C 1587 1619 1133 1568 774 1373 
C 371 1147 256 822 256 576 
C 256 77 832 -64 1171 -64 
C 1523 -64 1850 135 1990 505 
C 2003 219 2182 -39 2464 -39 
C 2598 -39 2938 51 2938 563 
L 2938 926 
L 2822 926 
L 2822 557 
C 2822 161 2650 109 2566 109 
C 2304 109 2304 446 2304 732 
L 2304 1656 
z
M 1965 887 
C 1965 323 1568 38 1216 38 
C 896 38 646 278 646 576 
C 646 771 730 1114 1101 1322 
C 1408 1497 1760 1523 1965 1536 
L 1965 887 
z
" id="CMR17-61" transform="scale(0.015625)"/>
       <path d="M 2502 2173 
C 2560 2315 2662 2572 3034 2585 
L 3034 2752 
C 2912 2745 2752 2739 2630 2739 
C 2496 2739 2285 2739 2157 2752 
L 2157 2585 
C 2317 2572 2406 2495 2406 2328 
C 2406 2270 2406 2257 2368 2167 
L 1664 379 
L 902 2308 
C 864 2392 864 2405 864 2431 
C 864 2585 1075 2585 1171 2585 
L 1171 2752 
C 1018 2739 736 2739 576 2739 
C 403 2739 205 2739 64 2752 
L 64 2585 
C 307 2585 442 2585 518 2386 
L 1446 44 
C 1485 -52 1491 -64 1549 -64 
C 1606 -64 1613 -52 1651 44 
L 2502 2173 
z
" id="CMR17-76" transform="scale(0.015625)"/>
       <path d="M 960 1517 
C 960 2134 1222 2713 1702 2713 
C 1747 2713 1792 2707 1837 2687 
C 1837 2687 1696 2642 1696 2475 
C 1696 2321 1818 2257 1914 2257 
C 1990 2257 2131 2302 2131 2482 
C 2131 2687 1926 2816 1709 2816 
C 1222 2816 1011 2340 947 2115 
L 941 2115 
L 941 2816 
L 198 2745 
L 198 2578 
C 576 2578 634 2540 634 2231 
L 634 443 
C 634 198 608 166 198 166 
L 198 0 
C 352 12 646 12 813 12 
C 998 12 1325 12 1498 0 
L 1498 166 
C 1037 166 960 166 960 455 
L 960 1517 
z
" id="CMR17-72" transform="scale(0.015625)"/>
       <path d="M 1978 2688 
C 1978 2803 1971 2809 1933 2809 
C 1907 2809 1901 2803 1824 2707 
C 1805 2681 1747 2617 1728 2592 
C 1523 2809 1235 2816 1126 2816 
C 416 2816 160 2444 160 2073 
C 160 1497 813 1363 998 1324 
C 1402 1241 1542 1216 1677 1100 
C 1760 1024 1901 883 1901 652 
C 1901 384 1747 38 1158 38 
C 602 38 403 460 288 1024 
C 269 1113 269 1120 218 1120 
C 166 1120 160 1113 160 985 
L 160 64 
C 160 -52 166 -58 205 -58 
C 237 -58 243 -52 275 0 
C 314 57 410 211 448 275 
C 576 102 800 -64 1158 -64 
C 1792 -64 2131 281 2131 780 
C 2131 1107 1958 1280 1875 1356 
C 1683 1555 1459 1600 1190 1651 
C 838 1728 390 1817 390 2208 
C 390 2374 480 2726 1126 2726 
C 1811 2726 1850 2086 1862 1881 
C 1869 1849 1901 1843 1920 1843 
C 1978 1843 1978 1862 1978 1971 
L 1978 2688 
z
" id="CMR17-73" transform="scale(0.015625)"/>
       <path d="M 2496 2183 
C 2656 2579 2944 2585 3034 2585 
L 3034 2752 
C 2912 2745 2752 2739 2630 2739 
C 2496 2739 2285 2739 2157 2752 
L 2157 2585 
C 2400 2566 2406 2384 2406 2332 
C 2406 2268 2394 2235 2362 2158 
L 1664 409 
L 902 2300 
C 870 2378 870 2423 870 2430 
C 870 2572 1018 2585 1171 2585 
L 1171 2752 
C 1018 2739 742 2739 582 2739 
C 410 2739 205 2739 64 2752 
L 64 2585 
C 410 2585 448 2553 531 2345 
L 1485 -31 
C 1197 -795 1030 -1242 627 -1242 
C 557 -1242 397 -1223 282 -1106 
C 429 -1093 493 -1002 493 -892 
C 493 -782 416 -685 288 -685 
C 147 -685 77 -782 77 -899 
C 77 -1158 339 -1344 627 -1344 
C 998 -1344 1229 -983 1357 -659 
L 2496 2183 
z
" id="CMR17-79" transform="scale(0.015625)"/>
      </defs>
      <use transform="scale(0.996264)" xlink:href="#CMR17-53"/>
      <use transform="translate(50.89537 0)scale(0.996264)" xlink:href="#CMR17-68"/>
      <use transform="translate(101.79074 0)scale(0.996264)" xlink:href="#CMR17-61"/>
      <use transform="translate(147.481217 0)scale(0.996264)" xlink:href="#CMR17-6e"/>
      <use transform="translate(198.376586 0)scale(0.996264)" xlink:href="#CMR17-6e"/>
      <use transform="translate(249.271956 0)scale(0.996264)" xlink:href="#CMR17-6f"/>
      <use transform="translate(294.962433 0)scale(0.996264)" xlink:href="#CMR17-6e"/>
      <use transform="translate(375.933769 0)scale(0.996264)" xlink:href="#CMR17-44"/>
      <use transform="translate(446.327325 0)scale(0.996264)" xlink:href="#CMR17-69"/>
      <use transform="translate(471.198384 0)scale(0.996264)" xlink:href="#CMR17-76"/>
      <use transform="translate(516.888846 0)scale(0.996264)" xlink:href="#CMR17-65"/>
      <use transform="translate(557.374506 0)scale(0.996264)" xlink:href="#CMR17-72"/>
      <use transform="translate(592.655274 0)scale(0.996264)" xlink:href="#CMR17-73"/>
      <use transform="translate(628.456612 0)scale(0.996264)" xlink:href="#CMR17-69"/>
      <use transform="translate(653.32767 0)scale(0.996264)" xlink:href="#CMR17-74"/>
      <use transform="translate(686.005984 0)scale(0.996264)" xlink:href="#CMR17-79"/>
     </g>
    </g>
   </g>
   <g id="line2d_26">
    <path clip-path="url(#p31f3d92cf8)" d="M 145.8 314.739286 
L 145.8 356.334559 
" style="fill:none;stroke:#1f77b4;stroke-linecap:square;stroke-width:3;"/>
   </g>
   <g id="line2d_27">
    <path clip-path="url(#p31f3d92cf8)" d="M 145.8 174.980641 
L 145.8 160.56921 
" style="fill:none;stroke:#1f77b4;stroke-linecap:square;stroke-width:3;"/>
   </g>
   <g id="line2d_28">
    <path clip-path="url(#p31f3d92cf8)" d="M 131.85 356.334559 
L 159.75 356.334559 
" style="fill:none;"/>
   </g>
   <g id="line2d_29">
    <path clip-path="url(#p31f3d92cf8)" d="M 131.85 160.56921 
L 159.75 160.56921 
" style="fill:none;"/>
   </g>
   <g id="line2d_30"/>
   <g id="line2d_31">
    <path clip-path="url(#p31f3d92cf8)" d="M 257.4 513.046221 
L 257.4 606.466333 
" style="fill:none;stroke:#ff7f0e;stroke-linecap:square;stroke-width:3;"/>
   </g>
   <g id="line2d_32">
    <path clip-path="url(#p31f3d92cf8)" d="M 257.4 325.21656 
L 257.4 191.292041 
" style="fill:none;stroke:#ff7f0e;stroke-linecap:square;stroke-width:3;"/>
   </g>
   <g id="line2d_33">
    <path clip-path="url(#p31f3d92cf8)" d="M 243.45 606.466333 
L 271.35 606.466333 
" style="fill:none;"/>
   </g>
   <g id="line2d_34">
    <path clip-path="url(#p31f3d92cf8)" d="M 243.45 191.292041 
L 271.35 191.292041 
" style="fill:none;"/>
   </g>
   <g id="line2d_35"/>
   <g id="line2d_36">
    <path clip-path="url(#p31f3d92cf8)" d="M 369 385.623954 
L 369 418.636785 
" style="fill:none;stroke:#2ca02c;stroke-linecap:square;stroke-width:3;"/>
   </g>
   <g id="line2d_37">
    <path clip-path="url(#p31f3d92cf8)" d="M 369 292.542494 
L 369 268.127917 
" style="fill:none;stroke:#2ca02c;stroke-linecap:square;stroke-width:3;"/>
   </g>
   <g id="line2d_38">
    <path clip-path="url(#p31f3d92cf8)" d="M 355.05 418.636785 
L 382.95 418.636785 
" style="fill:none;"/>
   </g>
   <g id="line2d_39">
    <path clip-path="url(#p31f3d92cf8)" d="M 355.05 268.127917 
L 382.95 268.127917 
" style="fill:none;"/>
   </g>
   <g id="line2d_40"/>
   <g id="line2d_41">
    <path clip-path="url(#p31f3d92cf8)" d="M 480.6 276.419546 
L 480.6 293.220331 
" style="fill:none;stroke:#d62728;stroke-linecap:square;stroke-width:3;"/>
   </g>
   <g id="line2d_42">
    <path clip-path="url(#p31f3d92cf8)" d="M 480.6 189.545764 
L 480.6 163.961641 
" style="fill:none;stroke:#d62728;stroke-linecap:square;stroke-width:3;"/>
   </g>
   <g id="line2d_43">
    <path clip-path="url(#p31f3d92cf8)" d="M 466.65 293.220331 
L 494.55 293.220331 
" style="fill:none;"/>
   </g>
   <g id="line2d_44">
    <path clip-path="url(#p31f3d92cf8)" d="M 466.65 163.961641 
L 494.55 163.961641 
" style="fill:none;"/>
   </g>
   <g id="line2d_45">
    <defs>
     <path d="M 0 3 
C 0.795609 3 1.55874 2.683901 2.12132 2.12132 
C 2.683901 1.55874 3 0.795609 3 0 
C 3 -0.795609 2.683901 -1.55874 2.12132 -2.12132 
C 1.55874 -2.683901 0.795609 -3 0 -3 
C -0.795609 -3 -1.55874 -2.683901 -2.12132 -2.12132 
C -2.683901 -1.55874 -3 -0.795609 -3 0 
C -3 0.795609 -2.683901 1.55874 -2.12132 2.12132 
C -1.55874 2.683901 -0.795609 3 0 3 
z
" id="m4db18b4ba0" style="stroke:#d62728;"/>
    </defs>
    <g clip-path="url(#p31f3d92cf8)">
     <use style="fill-opacity:0;stroke:#d62728;" x="480.6" xlink:href="#m4db18b4ba0" y="407.2056"/>
     <use style="fill-opacity:0;stroke:#d62728;" x="480.6" xlink:href="#m4db18b4ba0" y="427.322675"/>
    </g>
   </g>
   <g id="line2d_46">
    <path clip-path="url(#p31f3d92cf8)" d="M 592.2 263.51609 
L 592.2 355.214873 
" style="fill:none;stroke:#9467bd;stroke-linecap:square;stroke-width:3;"/>
   </g>
   <g id="line2d_47">
    <path clip-path="url(#p31f3d92cf8)" d="M 592.2 195.701266 
L 592.2 135.792995 
" style="fill:none;stroke:#9467bd;stroke-linecap:square;stroke-width:3;"/>
   </g>
   <g id="line2d_48">
    <path clip-path="url(#p31f3d92cf8)" d="M 578.25 355.214873 
L 606.15 355.214873 
" style="fill:none;"/>
   </g>
   <g id="line2d_49">
    <path clip-path="url(#p31f3d92cf8)" d="M 578.25 135.792995 
L 606.15 135.792995 
" style="fill:none;"/>
   </g>
   <g id="line2d_50">
    <defs>
     <path d="M 0 3 
C 0.795609 3 1.55874 2.683901 2.12132 2.12132 
C 2.683901 1.55874 3 0.795609 3 0 
C 3 -0.795609 2.683901 -1.55874 2.12132 -2.12132 
C 1.55874 -2.683901 0.795609 -3 0 -3 
C -0.795609 -3 -1.55874 -2.683901 -2.12132 -2.12132 
C -2.683901 -1.55874 -3 -0.795609 -3 0 
C -3 0.795609 -2.683901 1.55874 -2.12132 2.12132 
C -1.55874 2.683901 -0.795609 3 0 3 
z
" id="m4ffaec931f" style="stroke:#9467bd;"/>
    </defs>
    <g clip-path="url(#p31f3d92cf8)">
     <use style="fill-opacity:0;stroke:#9467bd;" x="592.2" xlink:href="#m4ffaec931f" y="402.085075"/>
    </g>
   </g>
   <g id="patch_3">
    <path clip-path="url(#p31f3d92cf8)" d="M 117.9 314.739286 
L 173.7 314.739286 
L 173.7 174.980641 
L 117.9 174.980641 
L 117.9 314.739286 
z
" style="fill:none;stroke:#1f77b4;stroke-linejoin:miter;stroke-width:3;"/>
   </g>
   <g id="patch_4">
    <path clip-path="url(#p31f3d92cf8)" d="M 229.5 513.046221 
L 285.3 513.046221 
L 285.3 325.21656 
L 229.5 325.21656 
L 229.5 513.046221 
z
" style="fill:none;stroke:#ff7f0e;stroke-linejoin:miter;stroke-width:3;"/>
   </g>
   <g id="patch_5">
    <path clip-path="url(#p31f3d92cf8)" d="M 341.1 385.623954 
L 396.9 385.623954 
L 396.9 292.542494 
L 341.1 292.542494 
L 341.1 385.623954 
z
" style="fill:none;stroke:#2ca02c;stroke-linejoin:miter;stroke-width:3;"/>
   </g>
   <g id="patch_6">
    <path clip-path="url(#p31f3d92cf8)" d="M 452.7 276.419546 
L 508.5 276.419546 
L 508.5 189.545764 
L 452.7 189.545764 
L 452.7 276.419546 
z
" style="fill:none;stroke:#d62728;stroke-linejoin:miter;stroke-width:3;"/>
   </g>
   <g id="patch_7">
    <path clip-path="url(#p31f3d92cf8)" d="M 564.3 263.51609 
L 620.1 263.51609 
L 620.1 195.701266 
L 564.3 195.701266 
L 564.3 263.51609 
z
" style="fill:none;stroke:#9467bd;stroke-linejoin:miter;stroke-width:3;"/>
   </g>
   <g id="line2d_51">
    <path clip-path="url(#p31f3d92cf8)" d="M 117.9 191.26688 
L 173.7 191.26688 
" style="fill:none;stroke:#1f77b4;stroke-linecap:square;stroke-width:3;"/>
   </g>
   <g id="line2d_52">
    <path clip-path="url(#p31f3d92cf8)" d="M 229.5 394.626131 
L 285.3 394.626131 
" style="fill:none;stroke:#ff7f0e;stroke-linecap:square;stroke-width:3;"/>
   </g>
   <g id="line2d_53">
    <path clip-path="url(#p31f3d92cf8)" d="M 341.1 358.830899 
L 396.9 358.830899 
" style="fill:none;stroke:#2ca02c;stroke-linecap:square;stroke-width:3;"/>
   </g>
   <g id="line2d_54">
    <path clip-path="url(#p31f3d92cf8)" d="M 452.7 220.820836 
L 508.5 220.820836 
" style="fill:none;stroke:#d62728;stroke-linecap:square;stroke-width:3;"/>
   </g>
   <g id="line2d_55">
    <path clip-path="url(#p31f3d92cf8)" d="M 564.3 226.293815 
L 620.1 226.293815 
" style="fill:none;stroke:#9467bd;stroke-linecap:square;stroke-width:3;"/>
   </g>
   <g id="patch_8">
    <path d="M 90 630 
L 90 86.4 
" style="fill:none;stroke:#000000;stroke-linecap:square;stroke-linejoin:miter;stroke-width:0.8;"/>
   </g>
   <g id="patch_9">
    <path d="M 648 630 
L 648 86.4 
" style="fill:none;stroke:#000000;stroke-linecap:square;stroke-linejoin:miter;stroke-width:0.8;"/>
   </g>
   <g id="patch_10">
    <path d="M 90 630 
L 648 630 
" style="fill:none;stroke:#000000;stroke-linecap:square;stroke-linejoin:miter;stroke-width:0.8;"/>
   </g>
   <g id="patch_11">
    <path d="M 90 86.4 
L 648 86.4 
" style="fill:none;stroke:#000000;stroke-linecap:square;stroke-linejoin:miter;stroke-width:0.8;"/>
   </g>
   <g id="text_16">
    <!-- $P = 0.0039$ -->
    <g transform="translate(228.682989 111.11035)scale(0.12 -0.12)">
     <defs>
      <path d="M 1894 2022 
L 2970 2022 
C 3853 2022 4736 2673 4736 3400 
C 4736 3898 4314 4352 3507 4352 
L 1530 4352 
C 1408 4352 1350 4352 1350 4230 
C 1350 4166 1408 4166 1504 4166 
C 1894 4166 1894 4115 1894 4045 
C 1894 4032 1894 3994 1869 3898 
L 1005 471 
C 947 249 934 185 486 185 
C 365 185 301 185 301 70 
C 301 0 358 0 397 0 
C 518 0 646 12 768 12 
L 1517 12 
C 1638 12 1773 0 1894 0 
C 1946 0 2016 0 2016 121 
C 2016 185 1958 185 1862 185 
C 1478 185 1472 230 1472 293 
C 1472 325 1478 369 1485 401 
L 1894 2022 
z
M 2355 3917 
C 2413 4153 2438 4166 2688 4166 
L 3322 4166 
C 3802 4166 4198 4013 4198 3534 
C 4198 3369 4115 2826 3821 2533 
C 3712 2418 3405 2176 2822 2176 
L 1920 2176 
L 2355 3917 
z
" id="CMMI12-50" transform="scale(0.015625)"/>
      <path d="M 4115 2048 
C 4211 2048 4307 2048 4307 2156 
C 4307 2272 4198 2272 4090 2272 
L 512 2272 
C 403 2272 294 2272 294 2156 
C 294 2048 390 2048 486 2048 
L 4115 2048 
z
M 4090 927 
C 4198 927 4307 927 4307 1043 
C 4307 1152 4211 1152 4115 1152 
L 486 1152 
C 390 1152 294 1152 294 1043 
C 294 927 403 927 512 927 
L 4090 927 
z
" id="CMR17-3d" transform="scale(0.015625)"/>
      <path d="M 2253 1871 
C 2253 448 1670 25 1190 25 
C 1043 25 685 43 538 281 
C 704 256 826 345 826 505 
C 826 678 685 736 595 736 
C 538 736 365 710 365 492 
C 365 68 742 -128 1203 -128 
C 1939 -128 2688 665 2688 2090 
C 2688 3857 1971 4224 1485 4224 
C 851 4224 243 3664 243 2800 
C 243 2000 762 1408 1414 1408 
C 1952 1408 2189 1910 2253 2122 
L 2253 1871 
z
M 1427 1510 
C 1254 1510 1011 1542 813 1929 
C 678 2181 678 2477 678 2793 
C 678 3174 678 3438 858 3722 
C 947 3857 1114 4076 1485 4076 
C 2240 4076 2240 2909 2240 2651 
C 2240 2193 2035 1510 1427 1510 
z
" id="CMR17-39" transform="scale(0.015625)"/>
     </defs>
     <use transform="scale(0.996264)" xlink:href="#CMMI12-50"/>
     <use transform="translate(104.099829 0)scale(0.996264)" xlink:href="#CMR17-3d"/>
     <use transform="translate(203.488627 0)scale(0.996264)" xlink:href="#CMR17-30"/>
     <use transform="translate(249.179104 0)scale(0.996264)" xlink:href="#CMMI12-3a"/>
     <use transform="translate(276.276281 0)scale(0.996264)" xlink:href="#CMR17-30"/>
     <use transform="translate(321.966758 0)scale(0.996264)" xlink:href="#CMR17-30"/>
     <use transform="translate(367.657235 0)scale(0.996264)" xlink:href="#CMR17-33"/>
     <use transform="translate(413.347712 0)scale(0.996264)" xlink:href="#CMR17-39"/>
    </g>
   </g>
   <g id="text_17">
    <!-- $P = 0.0078$ -->
    <g transform="translate(340.282989 111.11035)scale(0.12 -0.12)">
     <defs>
      <path d="M 2886 3955 
L 2886 4096 
L 1382 4096 
C 634 4096 621 4166 595 4288 
L 480 4288 
L 294 3104 
L 410 3104 
C 429 3226 474 3552 550 3673 
C 589 3724 1062 3724 1171 3724 
L 2579 3724 
L 1869 2670 
C 1395 1961 1069 1003 1069 166 
C 1069 89 1069 -128 1299 -128 
C 1530 -128 1530 89 1530 172 
L 1530 466 
C 1530 1514 1709 2204 2003 2644 
L 2886 3955 
z
" id="CMR17-37" transform="scale(0.015625)"/>
     </defs>
     <use transform="scale(0.996264)" xlink:href="#CMMI12-50"/>
     <use transform="translate(104.099829 0)scale(0.996264)" xlink:href="#CMR17-3d"/>
     <use transform="translate(203.488627 0)scale(0.996264)" xlink:href="#CMR17-30"/>
     <use transform="translate(249.179104 0)scale(0.996264)" xlink:href="#CMMI12-3a"/>
     <use transform="translate(276.276281 0)scale(0.996264)" xlink:href="#CMR17-30"/>
     <use transform="translate(321.966758 0)scale(0.996264)" xlink:href="#CMR17-30"/>
     <use transform="translate(367.657235 0)scale(0.996264)" xlink:href="#CMR17-37"/>
     <use transform="translate(413.347712 0)scale(0.996264)" xlink:href="#CMR17-38"/>
    </g>
   </g>
   <g id="text_18">
    <!-- n.s. -->
    <g transform="translate(471.787998 111.11035)scale(0.12 -0.12)">
     <defs>
      <path d="M 1062 262 
C 1062 422 934 524 800 524 
C 672 524 538 422 538 262 
C 538 102 666 0 800 0 
C 928 0 1062 102 1062 262 
z
" id="CMR17-2e" transform="scale(0.015625)"/>
     </defs>
     <use transform="scale(0.996264)" xlink:href="#CMR17-6e"/>
     <use transform="translate(50.89537 0)scale(0.996264)" xlink:href="#CMR17-2e"/>
     <use transform="translate(75.766428 0)scale(0.996264)" xlink:href="#CMR17-73"/>
     <use transform="translate(111.567766 0)scale(0.996264)" xlink:href="#CMR17-2e"/>
    </g>
   </g>
   <g id="text_19">
    <!-- n.s. -->
    <g transform="translate(583.387998 111.11035)scale(0.12 -0.12)">
     <use transform="scale(0.996264)" xlink:href="#CMR17-6e"/>
     <use transform="translate(50.89537 0)scale(0.996264)" xlink:href="#CMR17-2e"/>
     <use transform="translate(75.766428 0)scale(0.996264)" xlink:href="#CMR17-73"/>
     <use transform="translate(111.567766 0)scale(0.996264)" xlink:href="#CMR17-2e"/>
    </g>
   </g>
  </g>
 </g>
 <defs>
  <clipPath id="p31f3d92cf8">
   <rect height="543.6" width="558" x="90" y="86.4"/>
  </clipPath>
 </defs>
</svg>
