<?xml version="1.0" encoding="utf-8" standalone="no"?>
<!DOCTYPE svg PUBLIC "-//W3C//DTD SVG 1.1//EN"
  "http://www.w3.org/Graphics/SVG/1.1/DTD/svg11.dtd">
<svg height="720pt" version="1.1" viewBox="0 0 720 720" width="720pt" xmlns="http://www.w3.org/2000/svg" xmlns:xlink="http://www.w3.org/1999/xlink">
 <metadata>
  <rdf:RDF xmlns:cc="http://creativecommons.org/ns#" xmlns:dc="http://purl.org/dc/elements/1.1/" xmlns:rdf="http://www.w3.org/1999/02/22-rdf-syntax-ns#">
   <cc:Work>
    <dc:type rdf:resource="http://purl.org/dc/dcmitype/StillImage"/>
    <dc:date>2022-08-08T16:36:07.447065</dc:date>
    <dc:format>image/svg+xml</dc:format>
    <dc:creator>
     <cc:Agent>
      <dc:title>Matplotlib v3.4.3, https://matplotlib.org/</dc:title>
     </cc:Agent>
    </dc:creator>
   </cc:Work>
  </rdf:RDF>
 </metadata>
 <defs>
  <style type="text/css">*{stroke-linecap:butt;stroke-linejoin:round;}</style>
 </defs>
 <g id="figure_1">
  <g id="patch_1">
   <path d="M 0 720 
L 720 720 
L 720 0 
L 0 0 
z
" style="fill:none;"/>
  </g>
  <g id="axes_1">
   <g id="patch_2">
    <path d="M 90 630 
L 648 630 
L 648 86.4 
L 90 86.4 
z
" style="fill:#ffffff;"/>
   </g>
   <g id="matplotlib.axis_1">
    <g id="xtick_1">
     <g id="line2d_1">
      <path clip-path="url(#p620985d370)" d="M 117.481685 630 
L 117.481685 86.4 
" style="fill:none;stroke:#b0b0b0;stroke-dasharray:1.85,0.8;stroke-dashoffset:0;stroke-width:0.5;"/>
     </g>
     <g id="line2d_2">
      <defs>
       <path d="M 0 0 
L 0 3.5 
" id="m2de68e5859" style="stroke:#000000;stroke-width:0.8;"/>
      </defs>
      <g>
       <use style="stroke:#000000;stroke-width:0.8;" x="117.481685" xlink:href="#m2de68e5859" y="630"/>
      </g>
     </g>
    </g>
    <g id="xtick_2">
     <g id="line2d_3">
      <path clip-path="url(#p620985d370)" d="M 223.384134 630 
L 223.384134 86.4 
" style="fill:none;stroke:#b0b0b0;stroke-dasharray:1.85,0.8;stroke-dashoffset:0;stroke-width:0.5;"/>
     </g>
     <g id="line2d_4">
      <g>
       <use style="stroke:#000000;stroke-width:0.8;" x="223.384134" xlink:href="#m2de68e5859" y="630"/>
      </g>
     </g>
    </g>
    <g id="xtick_3">
     <g id="line2d_5">
      <path clip-path="url(#p620985d370)" d="M 329.286582 630 
L 329.286582 86.4 
" style="fill:none;stroke:#b0b0b0;stroke-dasharray:1.85,0.8;stroke-dashoffset:0;stroke-width:0.5;"/>
     </g>
     <g id="line2d_6">
      <g>
       <use style="stroke:#000000;stroke-width:0.8;" x="329.286582" xlink:href="#m2de68e5859" y="630"/>
      </g>
     </g>
    </g>
    <g id="xtick_4">
     <g id="line2d_7">
      <path clip-path="url(#p620985d370)" d="M 435.18903 630 
L 435.18903 86.4 
" style="fill:none;stroke:#b0b0b0;stroke-dasharray:1.85,0.8;stroke-dashoffset:0;stroke-width:0.5;"/>
     </g>
     <g id="line2d_8">
      <g>
       <use style="stroke:#000000;stroke-width:0.8;" x="435.18903" xlink:href="#m2de68e5859" y="630"/>
      </g>
     </g>
    </g>
    <g id="xtick_5">
     <g id="line2d_9">
      <path clip-path="url(#p620985d370)" d="M 541.091478 630 
L 541.091478 86.4 
" style="fill:none;stroke:#b0b0b0;stroke-dasharray:1.85,0.8;stroke-dashoffset:0;stroke-width:0.5;"/>
     </g>
     <g id="line2d_10">
      <g>
       <use style="stroke:#000000;stroke-width:0.8;" x="541.091478" xlink:href="#m2de68e5859" y="630"/>
      </g>
     </g>
    </g>
    <g id="xtick_6">
     <g id="line2d_11">
      <path clip-path="url(#p620985d370)" d="M 646.993927 630 
L 646.993927 86.4 
" style="fill:none;stroke:#b0b0b0;stroke-dasharray:1.85,0.8;stroke-dashoffset:0;stroke-width:0.5;"/>
     </g>
     <g id="line2d_12">
      <g>
       <use style="stroke:#000000;stroke-width:0.8;" x="646.993927" xlink:href="#m2de68e5859" y="630"/>
      </g>
     </g>
    </g>
    <g id="text_1">
     <!-- Phenotype-Study combinations -->
     <g transform="translate(244.269657 647.836997)scale(0.2 -0.2)">
      <defs>
       <path d="M 1267 2048 
L 2291 2048 
C 3117 2048 3718 2583 3718 3187 
C 3718 3791 3130 4352 2291 4352 
L 333 4352 
L 333 4185 
C 774 4185 845 4185 845 3899 
L 845 453 
C 845 166 774 166 333 166 
L 333 0 
C 518 12 858 12 1056 12 
C 1254 12 1594 12 1779 0 
L 1779 166 
C 1338 166 1267 166 1267 453 
L 1267 2048 
z
M 1254 2182 
L 1254 3937 
C 1254 4153 1267 4185 1523 4185 
L 2170 4185 
C 2995 4185 3232 3715 3232 3187 
C 3232 2608 2950 2182 2170 2182 
L 1254 2182 
z
" id="CMR17-50" transform="scale(0.015625)"/>
       <path d="M 2656 1954 
C 2656 2282 2592 2816 1837 2816 
C 1312 2816 1056 2392 979 2179 
L 973 2179 
L 973 4416 
L 211 4345 
L 211 4179 
C 589 4179 646 4141 646 3843 
L 646 443 
C 646 198 621 166 211 166 
L 211 0 
C 365 12 646 12 813 12 
C 979 12 1267 12 1421 0 
L 1421 166 
C 1011 166 986 192 986 443 
L 986 1678 
C 986 2269 1344 2713 1792 2713 
C 2266 2713 2317 2289 2317 1980 
L 2317 443 
C 2317 198 2291 166 1882 166 
L 1882 0 
C 2035 12 2317 12 2483 12 
C 2650 12 2938 12 3091 0 
L 3091 166 
C 2682 166 2656 192 2656 443 
L 2656 1954 
z
" id="CMR17-68" transform="scale(0.015625)"/>
       <path d="M 2438 1503 
C 2464 1529 2464 1542 2464 1606 
C 2464 2251 2118 2816 1389 2816 
C 710 2816 173 2175 173 1394 
C 173 554 781 -64 1459 -64 
C 2176 -64 2458 619 2458 755 
C 2458 800 2419 800 2406 800 
C 2362 800 2355 787 2330 709 
C 2189 270 1837 51 1504 51 
C 1229 51 954 206 781 490 
C 582 819 582 1200 582 1503 
L 2438 1503 
z
M 589 1600 
C 634 2511 1126 2713 1382 2713 
C 1818 2713 2112 2308 2118 1600 
L 589 1600 
z
" id="CMR17-65" transform="scale(0.015625)"/>
       <path d="M 2656 1954 
C 2656 2282 2592 2816 1837 2816 
C 1331 2816 1069 2424 973 2166 
L 966 2166 
L 966 2816 
L 211 2745 
L 211 2578 
C 589 2578 646 2540 646 2231 
L 646 443 
C 646 198 621 166 211 166 
L 211 0 
C 365 12 646 12 813 12 
C 979 12 1267 12 1421 0 
L 1421 166 
C 1011 166 986 192 986 443 
L 986 1678 
C 986 2269 1344 2713 1792 2713 
C 2266 2713 2317 2289 2317 1980 
L 2317 443 
C 2317 198 2291 166 1882 166 
L 1882 0 
C 2035 12 2317 12 2483 12 
C 2650 12 2938 12 3091 0 
L 3091 166 
C 2682 166 2656 192 2656 443 
L 2656 1954 
z
" id="CMR17-6e" transform="scale(0.015625)"/>
       <path d="M 2758 1356 
C 2758 2176 2163 2816 1466 2816 
C 768 2816 173 2176 173 1356 
C 173 550 768 -64 1466 -64 
C 2163 -64 2758 550 2758 1356 
z
M 1466 51 
C 1165 51 909 230 762 480 
C 602 768 582 1126 582 1408 
C 582 1676 595 2009 762 2297 
C 890 2508 1139 2713 1466 2713 
C 1754 2713 1997 2553 2150 2329 
C 2349 2028 2349 1606 2349 1408 
C 2349 1158 2336 774 2163 467 
C 1984 172 1709 51 1466 51 
z
" id="CMR17-6f" transform="scale(0.015625)"/>
       <path d="M 966 2585 
L 1862 2585 
L 1862 2752 
L 966 2752 
L 966 3968 
L 851 3968 
C 838 3292 614 2700 70 2687 
L 70 2585 
L 627 2585 
L 627 778 
C 627 655 627 -64 1370 -64 
C 1747 -64 1965 308 1965 784 
L 1965 1151 
L 1850 1151 
L 1850 790 
C 1850 347 1677 51 1408 51 
C 1222 51 966 179 966 765 
L 966 2585 
z
" id="CMR17-74" transform="scale(0.015625)"/>
       <path d="M 2496 2183 
C 2656 2579 2944 2585 3034 2585 
L 3034 2752 
C 2912 2745 2752 2739 2630 2739 
C 2496 2739 2285 2739 2157 2752 
L 2157 2585 
C 2400 2566 2406 2384 2406 2332 
C 2406 2268 2394 2235 2362 2158 
L 1664 409 
L 902 2300 
C 870 2378 870 2423 870 2430 
C 870 2572 1018 2585 1171 2585 
L 1171 2752 
C 1018 2739 742 2739 582 2739 
C 410 2739 205 2739 64 2752 
L 64 2585 
C 410 2585 448 2553 531 2345 
L 1485 -31 
C 1197 -795 1030 -1242 627 -1242 
C 557 -1242 397 -1223 282 -1106 
C 429 -1093 493 -1002 493 -892 
C 493 -782 416 -685 288 -685 
C 147 -685 77 -782 77 -899 
C 77 -1158 339 -1344 627 -1344 
C 998 -1344 1229 -983 1357 -659 
L 2496 2183 
z
" id="CMR17-79" transform="scale(0.015625)"/>
       <path d="M 1408 -1114 
C 998 -1114 973 -1088 973 -834 
L 973 380 
C 1158 109 1427 -64 1766 -64 
C 2406 -64 3053 503 3053 1382 
C 3053 2196 2496 2816 1837 2816 
C 1453 2816 1139 2603 960 2345 
L 960 2816 
L 198 2745 
L 198 2577 
C 576 2577 634 2539 634 2228 
L 634 -834 
C 634 -1081 608 -1114 198 -1114 
L 198 -1280 
C 352 -1268 634 -1268 800 -1268 
C 966 -1268 1254 -1268 1408 -1280 
L 1408 -1114 
z
M 973 2015 
C 973 2106 973 2241 1222 2481 
C 1254 2506 1472 2700 1792 2700 
C 2259 2700 2643 2112 2643 1376 
C 2643 639 2234 38 1728 38 
C 1498 38 1248 148 1056 451 
C 973 594 973 632 973 736 
L 973 2015 
z
" id="CMR17-70" transform="scale(0.015625)"/>
       <path d="M 1632 1254 
L 1632 1536 
L 26 1536 
L 26 1254 
L 1632 1254 
z
" id="CMR17-2d" transform="scale(0.015625)"/>
       <path d="M 2803 4351 
C 2803 4467 2797 4473 2758 4473 
C 2720 4473 2707 4447 2682 4390 
L 2490 3965 
C 2246 4320 1875 4480 1472 4480 
C 819 4480 294 3958 294 3301 
C 294 3101 339 2817 557 2546 
C 794 2250 1018 2198 1530 2063 
C 1722 2011 2042 1927 2106 1901 
C 2470 1747 2662 1360 2662 999 
C 2662 534 2336 38 1779 38 
C 1094 38 454 425 410 1328 
C 403 1431 397 1437 352 1437 
C 301 1437 294 1431 294 1302 
L 294 0 
C 294 -116 301 -122 339 -122 
C 384 -122 397 -90 486 109 
C 493 128 493 141 614 386 
C 934 -39 1472 -128 1779 -128 
C 2477 -128 2970 457 2970 1141 
C 2970 1476 2848 1734 2778 1850 
C 2509 2263 2221 2340 1914 2417 
C 1869 2437 1856 2437 1498 2527 
C 1152 2617 1005 2662 845 2836 
C 666 3036 602 3243 602 3449 
C 602 3868 934 4326 1478 4326 
C 2157 4326 2579 3842 2675 3036 
C 2694 2920 2701 2914 2746 2914 
C 2803 2914 2803 2933 2803 3043 
L 2803 4351 
z
" id="CMR17-53" transform="scale(0.015625)"/>
       <path d="M 1882 2745 
L 1882 2579 
C 2259 2579 2317 2540 2317 2229 
L 2317 1053 
C 2317 510 2029 38 1555 38 
C 1030 38 986 355 986 691 
L 986 2816 
L 211 2745 
L 211 2579 
C 467 2579 640 2579 646 2320 
L 646 1079 
C 646 646 646 368 813 187 
C 896 103 1056 -64 1517 -64 
C 2061 -64 2272 400 2323 536 
L 2330 536 
L 2330 -64 
L 3091 -13 
L 3091 154 
C 2714 154 2656 193 2656 503 
L 2656 2816 
L 1882 2745 
z
" id="CMR17-75" transform="scale(0.015625)"/>
       <path d="M 1869 4345 
L 1869 4179 
C 2246 4179 2304 4141 2304 3843 
L 2304 2371 
C 2278 2403 2016 2816 1498 2816 
C 845 2816 211 2228 211 1376 
C 211 529 806 -64 1434 -64 
C 1978 -64 2259 361 2291 406 
L 2291 -64 
L 3066 -13 
L 3066 154 
C 2688 154 2630 193 2630 503 
L 2630 4416 
L 1869 4345 
z
M 2291 762 
C 2291 568 2176 393 2029 264 
C 1811 70 1594 38 1472 38 
C 1286 38 621 135 621 1369 
C 621 2636 1363 2713 1530 2713 
C 1824 2713 2061 2545 2208 2313 
C 2291 2177 2291 2157 2291 2041 
L 2291 762 
z
" id="CMR17-64" transform="scale(0.015625)"/>
       <path d="M 2234 2240 
C 2112 2240 1933 2240 1933 2015 
C 1933 1836 2080 1785 2163 1785 
C 2208 1785 2394 1804 2394 2028 
C 2394 2476 1958 2816 1466 2816 
C 787 2816 211 2201 211 1379 
C 211 521 813 -64 1466 -64 
C 2259 -64 2458 676 2458 747 
C 2458 773 2451 792 2406 792 
C 2362 792 2355 786 2330 702 
C 2163 180 1798 51 1523 51 
C 1114 51 621 431 621 1385 
C 621 2358 1094 2700 1472 2700 
C 1722 2700 2093 2582 2234 2240 
z
" id="CMR17-63" transform="scale(0.015625)"/>
       <path d="M 4326 1954 
C 4326 2276 4269 2816 3507 2816 
C 3072 2816 2771 2520 2656 2173 
L 2650 2173 
C 2573 2700 2195 2816 1837 2816 
C 1331 2816 1069 2424 973 2166 
L 966 2166 
L 966 2816 
L 211 2745 
L 211 2578 
C 589 2578 646 2540 646 2231 
L 646 443 
C 646 198 621 166 211 166 
L 211 0 
C 365 12 646 12 813 12 
C 979 12 1267 12 1421 0 
L 1421 166 
C 1011 166 986 192 986 443 
L 986 1678 
C 986 2269 1344 2713 1792 2713 
C 2266 2713 2317 2289 2317 1980 
L 2317 443 
C 2317 198 2291 166 1882 166 
L 1882 0 
C 2035 12 2317 12 2483 12 
C 2650 12 2938 12 3091 0 
L 3091 166 
C 2682 166 2656 192 2656 443 
L 2656 1678 
C 2656 2269 3014 2713 3462 2713 
C 3936 2713 3987 2289 3987 1980 
L 3987 443 
C 3987 198 3962 166 3552 166 
L 3552 0 
C 3706 12 3987 12 4154 12 
C 4320 12 4608 12 4762 0 
L 4762 166 
C 4352 166 4326 192 4326 443 
L 4326 1954 
z
" id="CMR17-6d" transform="scale(0.015625)"/>
       <path d="M 960 4416 
L 198 4345 
L 198 4179 
C 576 4179 634 4141 634 3843 
L 634 -13 
L 749 -13 
L 934 445 
C 1120 141 1395 -64 1766 -64 
C 2406 -64 3053 503 3053 1382 
C 3053 2209 2477 2816 1830 2816 
C 1434 2816 1152 2603 960 2351 
L 960 4416 
z
M 973 2022 
C 973 2138 973 2157 1062 2293 
C 1312 2681 1670 2713 1792 2713 
C 1984 2713 2643 2610 2643 1388 
C 2643 109 1888 38 1734 38 
C 1536 38 1248 115 1043 490 
C 973 613 973 626 973 742 
L 973 2022 
z
" id="CMR17-62" transform="scale(0.015625)"/>
       <path d="M 992 3961 
C 992 4102 877 4224 730 4224 
C 589 4224 467 4108 467 3961 
C 467 3820 582 3699 730 3699 
C 870 3699 992 3814 992 3961 
z
M 243 2745 
L 243 2579 
C 602 2579 653 2540 653 2231 
L 653 443 
C 653 198 627 166 218 166 
L 218 0 
C 371 12 646 12 806 12 
C 960 12 1222 12 1370 0 
L 1370 166 
C 992 166 979 205 979 436 
L 979 2816 
L 243 2745 
z
" id="CMR17-69" transform="scale(0.015625)"/>
       <path d="M 2304 1656 
C 2304 2048 2304 2275 2035 2534 
C 1798 2751 1523 2816 1306 2816 
C 800 2816 435 2408 435 1977 
C 435 1740 627 1728 666 1728 
C 749 1728 896 1779 896 1958 
C 896 2118 774 2188 666 2188 
C 640 2188 608 2182 589 2176 
C 723 2594 1069 2713 1293 2713 
C 1613 2713 1965 2421 1965 1875 
L 1965 1632 
C 1587 1619 1133 1568 774 1373 
C 371 1147 256 822 256 576 
C 256 77 832 -64 1171 -64 
C 1523 -64 1850 135 1990 505 
C 2003 219 2182 -39 2464 -39 
C 2598 -39 2938 51 2938 563 
L 2938 926 
L 2822 926 
L 2822 557 
C 2822 161 2650 109 2566 109 
C 2304 109 2304 446 2304 732 
L 2304 1656 
z
M 1965 887 
C 1965 323 1568 38 1216 38 
C 896 38 646 278 646 576 
C 646 771 730 1114 1101 1322 
C 1408 1497 1760 1523 1965 1536 
L 1965 887 
z
" id="CMR17-61" transform="scale(0.015625)"/>
       <path d="M 1978 2688 
C 1978 2803 1971 2809 1933 2809 
C 1907 2809 1901 2803 1824 2707 
C 1805 2681 1747 2617 1728 2592 
C 1523 2809 1235 2816 1126 2816 
C 416 2816 160 2444 160 2073 
C 160 1497 813 1363 998 1324 
C 1402 1241 1542 1216 1677 1100 
C 1760 1024 1901 883 1901 652 
C 1901 384 1747 38 1158 38 
C 602 38 403 460 288 1024 
C 269 1113 269 1120 218 1120 
C 166 1120 160 1113 160 985 
L 160 64 
C 160 -52 166 -58 205 -58 
C 237 -58 243 -52 275 0 
C 314 57 410 211 448 275 
C 576 102 800 -64 1158 -64 
C 1792 -64 2131 281 2131 780 
C 2131 1107 1958 1280 1875 1356 
C 1683 1555 1459 1600 1190 1651 
C 838 1728 390 1817 390 2208 
C 390 2374 480 2726 1126 2726 
C 1811 2726 1850 2086 1862 1881 
C 1869 1849 1901 1843 1920 1843 
C 1978 1843 1978 1862 1978 1971 
L 1978 2688 
z
" id="CMR17-73" transform="scale(0.015625)"/>
      </defs>
      <use transform="scale(0.996264)" xlink:href="#CMR17-50"/>
      <use transform="translate(62.586301 0)scale(0.996264)" xlink:href="#CMR17-68"/>
      <use transform="translate(113.48167 0)scale(0.996264)" xlink:href="#CMR17-65"/>
      <use transform="translate(153.967331 0)scale(0.996264)" xlink:href="#CMR17-6e"/>
      <use transform="translate(204.862701 0)scale(0.996264)" xlink:href="#CMR17-6f"/>
      <use transform="translate(250.553178 0)scale(0.996264)" xlink:href="#CMR17-74"/>
      <use transform="translate(283.231492 0)scale(0.996264)" xlink:href="#CMR17-79"/>
      <use transform="translate(331.524407 0)scale(0.996264)" xlink:href="#CMR17-70"/>
      <use transform="translate(385.022216 0)scale(0.996264)" xlink:href="#CMR17-65"/>
      <use transform="translate(425.507876 0)scale(0.996264)" xlink:href="#CMR17-2d"/>
      <use transform="translate(455.583843 0)scale(0.996264)" xlink:href="#CMR17-53"/>
      <use transform="translate(506.479212 0)scale(0.996264)" xlink:href="#CMR17-74"/>
      <use transform="translate(541.75998 0)scale(0.996264)" xlink:href="#CMR17-75"/>
      <use transform="translate(592.65535 0)scale(0.996264)" xlink:href="#CMR17-64"/>
      <use transform="translate(643.55072 0)scale(0.996264)" xlink:href="#CMR17-79"/>
      <use transform="translate(721.919602 0)scale(0.996264)" xlink:href="#CMR17-63"/>
      <use transform="translate(762.405262 0)scale(0.996264)" xlink:href="#CMR17-6f"/>
      <use transform="translate(808.09574 0)scale(0.996264)" xlink:href="#CMR17-6d"/>
      <use transform="translate(882.412876 0)scale(0.996264)" xlink:href="#CMR17-62"/>
      <use transform="translate(933.308245 0)scale(0.996264)" xlink:href="#CMR17-69"/>
      <use transform="translate(958.179304 0)scale(0.996264)" xlink:href="#CMR17-6e"/>
      <use transform="translate(1009.074674 0)scale(0.996264)" xlink:href="#CMR17-61"/>
      <use transform="translate(1054.765151 0)scale(0.996264)" xlink:href="#CMR17-74"/>
      <use transform="translate(1090.045919 0)scale(0.996264)" xlink:href="#CMR17-69"/>
      <use transform="translate(1114.916977 0)scale(0.996264)" xlink:href="#CMR17-6f"/>
      <use transform="translate(1160.607454 0)scale(0.996264)" xlink:href="#CMR17-6e"/>
      <use transform="translate(1211.502824 0)scale(0.996264)" xlink:href="#CMR17-73"/>
     </g>
    </g>
   </g>
   <g id="matplotlib.axis_2">
    <g id="ytick_1">
     <g id="line2d_13">
      <path clip-path="url(#p620985d370)" d="M 90 630 
L 648 630 
" style="fill:none;stroke:#b0b0b0;stroke-dasharray:1.85,0.8;stroke-dashoffset:0;stroke-width:0.5;"/>
     </g>
     <g id="line2d_14">
      <defs>
       <path d="M 0 0 
L -3.5 0 
" id="m10adff9fa9" style="stroke:#000000;stroke-width:0.8;"/>
      </defs>
      <g>
       <use style="stroke:#000000;stroke-width:0.8;" x="90" xlink:href="#m10adff9fa9" y="630"/>
      </g>
     </g>
     <g id="text_2">
      <!-- 0\% -->
      <g transform="translate(58.47799 636.918498)scale(0.2 -0.2)">
       <defs>
        <path d="M 2688 2038 
C 2688 2430 2682 3099 2413 3613 
C 2176 4063 1798 4224 1466 4224 
C 1158 4224 768 4082 525 3620 
C 269 3137 243 2539 243 2038 
C 243 1671 250 1112 448 623 
C 723 -39 1216 -128 1466 -128 
C 1760 -128 2208 -7 2470 604 
C 2662 1048 2688 1568 2688 2038 
z
M 1466 -26 
C 1056 -26 813 328 723 816 
C 653 1196 653 1749 653 2109 
C 653 2604 653 3015 736 3407 
C 858 3954 1216 4121 1466 4121 
C 1728 4121 2067 3947 2189 3420 
C 2272 3054 2278 2623 2278 2109 
C 2278 1691 2278 1176 2202 797 
C 2067 96 1690 -26 1466 -26 
z
" id="CMR17-30" transform="scale(0.015625)"/>
        <path d="M 4640 928 
C 4640 1670 4275 2214 3846 2214 
C 3411 2214 2970 1708 2970 928 
C 2970 147 3405 -359 3846 -359 
C 4275 -359 4640 179 4640 928 
z
M 3853 -256 
C 3686 -256 3270 -103 3270 928 
C 3270 1964 3686 2112 3853 2112 
C 4205 2112 4525 1606 4525 928 
C 4525 249 4205 -256 3853 -256 
z
M 4083 4572 
C 4128 4644 4134 4651 4134 4684 
C 4134 4761 4077 4800 4026 4800 
C 3962 4800 3936 4755 3891 4703 
C 3520 4155 3008 4096 2746 4096 
C 2106 4096 1715 4479 1594 4598 
C 1510 4677 1389 4800 1171 4800 
C 736 4800 294 4281 294 3496 
C 294 2718 730 2214 1171 2214 
C 1600 2214 1965 2750 1965 3496 
C 1965 3936 1830 4241 1811 4281 
C 2202 4025 2586 3993 2752 3993 
C 3162 3993 3456 4148 3616 4261 
L 3622 4254 
L 858 -122 
C 800 -212 800 -224 800 -244 
C 800 -314 858 -359 915 -359 
C 973 -359 992 -327 1037 -256 
L 4083 4572 
z
M 1178 2316 
C 1011 2316 595 2469 595 3496 
C 595 4545 1011 4697 1178 4697 
C 1530 4697 1850 4175 1850 3496 
C 1850 2820 1530 2316 1178 2316 
z
" id="CMR17-25" transform="scale(0.015625)"/>
       </defs>
       <use transform="scale(0.996264)" xlink:href="#CMR17-30"/>
       <use transform="translate(45.690477 0)scale(0.996264)" xlink:href="#CMR17-25"/>
      </g>
     </g>
    </g>
    <g id="ytick_2">
     <g id="line2d_15">
      <path clip-path="url(#p620985d370)" d="M 90 578.228571 
L 648 578.228571 
" style="fill:none;stroke:#b0b0b0;stroke-dasharray:1.85,0.8;stroke-dashoffset:0;stroke-width:0.5;"/>
     </g>
     <g id="line2d_16">
      <g>
       <use style="stroke:#000000;stroke-width:0.8;" x="90" xlink:href="#m10adff9fa9" y="578.228571"/>
      </g>
     </g>
     <g id="text_3">
      <!-- 10\% -->
      <g transform="translate(49.339894 585.14707)scale(0.2 -0.2)">
       <defs>
        <path d="M 1702 4083 
C 1702 4217 1696 4224 1606 4224 
C 1357 3927 979 3833 621 3820 
C 602 3820 570 3820 563 3808 
C 557 3795 557 3782 557 3648 
C 755 3648 1088 3686 1344 3839 
L 1344 467 
C 1344 243 1331 166 781 166 
L 589 166 
L 589 0 
C 896 6 1216 12 1523 12 
C 1830 12 2150 6 2458 0 
L 2458 166 
L 2266 166 
C 1715 166 1702 236 1702 467 
L 1702 4083 
z
" id="CMR17-31" transform="scale(0.015625)"/>
       </defs>
       <use transform="scale(0.996264)" xlink:href="#CMR17-31"/>
       <use transform="translate(45.690477 0)scale(0.996264)" xlink:href="#CMR17-30"/>
       <use transform="translate(91.380954 0)scale(0.996264)" xlink:href="#CMR17-25"/>
      </g>
     </g>
    </g>
    <g id="ytick_3">
     <g id="line2d_17">
      <path clip-path="url(#p620985d370)" d="M 90 526.457143 
L 648 526.457143 
" style="fill:none;stroke:#b0b0b0;stroke-dasharray:1.85,0.8;stroke-dashoffset:0;stroke-width:0.5;"/>
     </g>
     <g id="line2d_18">
      <g>
       <use style="stroke:#000000;stroke-width:0.8;" x="90" xlink:href="#m10adff9fa9" y="526.457143"/>
      </g>
     </g>
     <g id="text_4">
      <!-- 20\% -->
      <g transform="translate(49.339894 533.375641)scale(0.2 -0.2)">
       <defs>
        <path d="M 2669 990 
L 2554 990 
C 2490 537 2438 460 2413 422 
C 2381 371 1920 371 1830 371 
L 602 371 
C 832 620 1280 1073 1824 1596 
C 2214 1966 2669 2400 2669 3033 
C 2669 3788 2067 4224 1395 4224 
C 691 4224 262 3603 262 3027 
C 262 2777 448 2745 525 2745 
C 589 2745 781 2783 781 3007 
C 781 3206 614 3264 525 3264 
C 486 3264 448 3257 422 3244 
C 544 3788 915 4057 1306 4057 
C 1862 4057 2227 3616 2227 3033 
C 2227 2477 1901 1998 1536 1583 
L 262 147 
L 262 0 
L 2515 0 
L 2669 990 
z
" id="CMR17-32" transform="scale(0.015625)"/>
       </defs>
       <use transform="scale(0.996264)" xlink:href="#CMR17-32"/>
       <use transform="translate(45.690477 0)scale(0.996264)" xlink:href="#CMR17-30"/>
       <use transform="translate(91.380954 0)scale(0.996264)" xlink:href="#CMR17-25"/>
      </g>
     </g>
    </g>
    <g id="ytick_4">
     <g id="line2d_19">
      <path clip-path="url(#p620985d370)" d="M 90 474.685714 
L 648 474.685714 
" style="fill:none;stroke:#b0b0b0;stroke-dasharray:1.85,0.8;stroke-dashoffset:0;stroke-width:0.5;"/>
     </g>
     <g id="line2d_20">
      <g>
       <use style="stroke:#000000;stroke-width:0.8;" x="90" xlink:href="#m10adff9fa9" y="474.685714"/>
      </g>
     </g>
     <g id="text_5">
      <!-- 30\% -->
      <g transform="translate(49.339894 481.604213)scale(0.2 -0.2)">
       <defs>
        <path d="M 1414 2176 
C 1984 2176 2234 1673 2234 1094 
C 2234 322 1824 25 1453 25 
C 1114 25 563 193 390 691 
C 422 678 454 678 486 678 
C 640 678 755 780 755 947 
C 755 1132 614 1216 486 1216 
C 378 1216 211 1164 211 927 
C 211 335 787 -128 1466 -128 
C 2176 -128 2720 432 2720 1087 
C 2720 1718 2208 2176 1600 2246 
C 2086 2347 2554 2776 2554 3353 
C 2554 3856 2048 4224 1472 4224 
C 890 4224 378 3862 378 3347 
C 378 3123 544 3084 627 3084 
C 762 3084 877 3167 877 3334 
C 877 3500 762 3584 627 3584 
C 602 3584 570 3584 544 3571 
C 730 3999 1235 4076 1459 4076 
C 1683 4076 2106 3966 2106 3347 
C 2106 3167 2080 2851 1862 2574 
C 1670 2329 1453 2316 1242 2297 
C 1210 2297 1062 2284 1037 2284 
C 992 2278 966 2272 966 2227 
C 966 2182 973 2176 1101 2176 
L 1414 2176 
z
" id="CMR17-33" transform="scale(0.015625)"/>
       </defs>
       <use transform="scale(0.996264)" xlink:href="#CMR17-33"/>
       <use transform="translate(45.690477 0)scale(0.996264)" xlink:href="#CMR17-30"/>
       <use transform="translate(91.380954 0)scale(0.996264)" xlink:href="#CMR17-25"/>
      </g>
     </g>
    </g>
    <g id="ytick_5">
     <g id="line2d_21">
      <path clip-path="url(#p620985d370)" d="M 90 422.914286 
L 648 422.914286 
" style="fill:none;stroke:#b0b0b0;stroke-dasharray:1.85,0.8;stroke-dashoffset:0;stroke-width:0.5;"/>
     </g>
     <g id="line2d_22">
      <g>
       <use style="stroke:#000000;stroke-width:0.8;" x="90" xlink:href="#m10adff9fa9" y="422.914286"/>
      </g>
     </g>
     <g id="text_6">
      <!-- 40\% -->
      <g transform="translate(49.339894 429.832784)scale(0.2 -0.2)">
       <defs>
        <path d="M 2150 4147 
C 2150 4281 2144 4288 2029 4288 
L 128 1254 
L 128 1088 
L 1779 1088 
L 1779 460 
C 1779 230 1766 166 1318 166 
L 1197 166 
L 1197 0 
C 1402 12 1747 12 1965 12 
C 2182 12 2528 12 2733 0 
L 2733 166 
L 2611 166 
C 2163 166 2150 230 2150 460 
L 2150 1088 
L 2803 1088 
L 2803 1254 
L 2150 1254 
L 2150 4147 
z
M 1798 3723 
L 1798 1254 
L 256 1254 
L 1798 3723 
z
" id="CMR17-34" transform="scale(0.015625)"/>
       </defs>
       <use transform="scale(0.996264)" xlink:href="#CMR17-34"/>
       <use transform="translate(45.690477 0)scale(0.996264)" xlink:href="#CMR17-30"/>
       <use transform="translate(91.380954 0)scale(0.996264)" xlink:href="#CMR17-25"/>
      </g>
     </g>
    </g>
    <g id="ytick_6">
     <g id="line2d_23">
      <path clip-path="url(#p620985d370)" d="M 90 371.142857 
L 648 371.142857 
" style="fill:none;stroke:#b0b0b0;stroke-dasharray:1.85,0.8;stroke-dashoffset:0;stroke-width:0.5;"/>
     </g>
     <g id="line2d_24">
      <g>
       <use style="stroke:#000000;stroke-width:0.8;" x="90" xlink:href="#m10adff9fa9" y="371.142857"/>
      </g>
     </g>
     <g id="text_7">
      <!-- 50\% -->
      <g transform="translate(49.339894 378.061356)scale(0.2 -0.2)">
       <defs>
        <path d="M 730 3750 
C 794 3724 1056 3641 1325 3641 
C 1920 3641 2246 3961 2432 4140 
C 2432 4191 2432 4224 2394 4224 
C 2387 4224 2374 4224 2323 4198 
C 2099 4102 1837 4032 1517 4032 
C 1325 4032 1037 4055 723 4191 
C 653 4224 640 4224 634 4224 
C 602 4224 595 4217 595 4090 
L 595 2231 
C 595 2113 595 2080 659 2080 
C 691 2080 704 2093 736 2139 
C 941 2435 1222 2560 1542 2560 
C 1766 2560 2246 2415 2246 1293 
C 2246 1087 2246 716 2054 422 
C 1894 159 1645 25 1370 25 
C 947 25 518 319 403 812 
C 429 806 480 793 506 793 
C 589 793 749 838 749 1036 
C 749 1209 627 1280 506 1280 
C 358 1280 262 1190 262 1011 
C 262 454 704 -128 1382 -128 
C 2042 -128 2669 441 2669 1267 
C 2669 2054 2170 2662 1549 2662 
C 1222 2662 947 2540 730 2304 
L 730 3750 
z
" id="CMR17-35" transform="scale(0.015625)"/>
       </defs>
       <use transform="scale(0.996264)" xlink:href="#CMR17-35"/>
       <use transform="translate(45.690477 0)scale(0.996264)" xlink:href="#CMR17-30"/>
       <use transform="translate(91.380954 0)scale(0.996264)" xlink:href="#CMR17-25"/>
      </g>
     </g>
    </g>
    <g id="ytick_7">
     <g id="line2d_25">
      <path clip-path="url(#p620985d370)" d="M 90 319.371429 
L 648 319.371429 
" style="fill:none;stroke:#b0b0b0;stroke-dasharray:1.85,0.8;stroke-dashoffset:0;stroke-width:0.5;"/>
     </g>
     <g id="line2d_26">
      <g>
       <use style="stroke:#000000;stroke-width:0.8;" x="90" xlink:href="#m10adff9fa9" y="319.371429"/>
      </g>
     </g>
     <g id="text_8">
      <!-- 60\% -->
      <g transform="translate(49.339894 326.289927)scale(0.2 -0.2)">
       <defs>
        <path d="M 678 2198 
C 678 3712 1395 4076 1811 4076 
C 1946 4076 2272 4049 2400 3782 
C 2298 3782 2106 3782 2106 3558 
C 2106 3385 2246 3328 2336 3328 
C 2394 3328 2566 3353 2566 3571 
C 2566 3987 2246 4224 1805 4224 
C 1043 4224 243 3411 243 2011 
C 243 257 966 -128 1478 -128 
C 2099 -128 2688 431 2688 1295 
C 2688 2101 2170 2688 1517 2688 
C 1126 2688 838 2430 678 1979 
L 678 2198 
z
M 1478 25 
C 691 25 691 1212 691 1450 
C 691 1914 909 2585 1504 2585 
C 1613 2585 1926 2585 2138 2140 
C 2253 1889 2253 1624 2253 1302 
C 2253 954 2253 696 2118 438 
C 1978 173 1773 25 1478 25 
z
" id="CMR17-36" transform="scale(0.015625)"/>
       </defs>
       <use transform="scale(0.996264)" xlink:href="#CMR17-36"/>
       <use transform="translate(45.690477 0)scale(0.996264)" xlink:href="#CMR17-30"/>
       <use transform="translate(91.380954 0)scale(0.996264)" xlink:href="#CMR17-25"/>
      </g>
     </g>
    </g>
    <g id="ytick_8">
     <g id="line2d_27">
      <path clip-path="url(#p620985d370)" d="M 90 267.6 
L 648 267.6 
" style="fill:none;stroke:#b0b0b0;stroke-dasharray:1.85,0.8;stroke-dashoffset:0;stroke-width:0.5;"/>
     </g>
     <g id="line2d_28">
      <g>
       <use style="stroke:#000000;stroke-width:0.8;" x="90" xlink:href="#m10adff9fa9" y="267.6"/>
      </g>
     </g>
     <g id="text_9">
      <!-- 70\% -->
      <g transform="translate(49.339894 274.518498)scale(0.2 -0.2)">
       <defs>
        <path d="M 2886 3955 
L 2886 4096 
L 1382 4096 
C 634 4096 621 4166 595 4288 
L 480 4288 
L 294 3104 
L 410 3104 
C 429 3226 474 3552 550 3673 
C 589 3724 1062 3724 1171 3724 
L 2579 3724 
L 1869 2670 
C 1395 1961 1069 1003 1069 166 
C 1069 89 1069 -128 1299 -128 
C 1530 -128 1530 89 1530 172 
L 1530 466 
C 1530 1514 1709 2204 2003 2644 
L 2886 3955 
z
" id="CMR17-37" transform="scale(0.015625)"/>
       </defs>
       <use transform="scale(0.996264)" xlink:href="#CMR17-37"/>
       <use transform="translate(45.690477 0)scale(0.996264)" xlink:href="#CMR17-30"/>
       <use transform="translate(91.380954 0)scale(0.996264)" xlink:href="#CMR17-25"/>
      </g>
     </g>
    </g>
    <g id="ytick_9">
     <g id="line2d_29">
      <path clip-path="url(#p620985d370)" d="M 90 215.828571 
L 648 215.828571 
" style="fill:none;stroke:#b0b0b0;stroke-dasharray:1.85,0.8;stroke-dashoffset:0;stroke-width:0.5;"/>
     </g>
     <g id="line2d_30">
      <g>
       <use style="stroke:#000000;stroke-width:0.8;" x="90" xlink:href="#m10adff9fa9" y="215.828571"/>
      </g>
     </g>
     <g id="text_10">
      <!-- 80\% -->
      <g transform="translate(49.339894 222.74707)scale(0.2 -0.2)">
       <defs>
        <path d="M 1741 2289 
C 2144 2494 2554 2803 2554 3298 
C 2554 3884 1990 4224 1472 4224 
C 890 4224 378 3800 378 3215 
C 378 3054 416 2777 666 2533 
C 730 2469 998 2276 1171 2154 
C 883 2006 211 1652 211 945 
C 211 282 838 -128 1459 -128 
C 2144 -128 2720 366 2720 1022 
C 2720 1607 2330 1877 2074 2051 
L 1741 2289 
z
M 902 2855 
C 851 2887 595 3086 595 3388 
C 595 3781 998 4076 1459 4076 
C 1965 4076 2336 3716 2336 3298 
C 2336 2700 1670 2359 1638 2359 
C 1632 2359 1626 2359 1574 2398 
L 902 2855 
z
M 2080 1536 
C 2176 1466 2483 1253 2483 861 
C 2483 385 2010 25 1472 25 
C 890 25 448 443 448 951 
C 448 1459 838 1884 1280 2083 
L 2080 1536 
z
" id="CMR17-38" transform="scale(0.015625)"/>
       </defs>
       <use transform="scale(0.996264)" xlink:href="#CMR17-38"/>
       <use transform="translate(45.690477 0)scale(0.996264)" xlink:href="#CMR17-30"/>
       <use transform="translate(91.380954 0)scale(0.996264)" xlink:href="#CMR17-25"/>
      </g>
     </g>
    </g>
    <g id="ytick_10">
     <g id="line2d_31">
      <path clip-path="url(#p620985d370)" d="M 90 164.057143 
L 648 164.057143 
" style="fill:none;stroke:#b0b0b0;stroke-dasharray:1.85,0.8;stroke-dashoffset:0;stroke-width:0.5;"/>
     </g>
     <g id="line2d_32">
      <g>
       <use style="stroke:#000000;stroke-width:0.8;" x="90" xlink:href="#m10adff9fa9" y="164.057143"/>
      </g>
     </g>
     <g id="text_11">
      <!-- 90\% -->
      <g transform="translate(49.339894 170.975641)scale(0.2 -0.2)">
       <defs>
        <path d="M 2253 1871 
C 2253 448 1670 25 1190 25 
C 1043 25 685 43 538 281 
C 704 256 826 345 826 505 
C 826 678 685 736 595 736 
C 538 736 365 710 365 492 
C 365 68 742 -128 1203 -128 
C 1939 -128 2688 665 2688 2090 
C 2688 3857 1971 4224 1485 4224 
C 851 4224 243 3664 243 2800 
C 243 2000 762 1408 1414 1408 
C 1952 1408 2189 1910 2253 2122 
L 2253 1871 
z
M 1427 1510 
C 1254 1510 1011 1542 813 1929 
C 678 2181 678 2477 678 2793 
C 678 3174 678 3438 858 3722 
C 947 3857 1114 4076 1485 4076 
C 2240 4076 2240 2909 2240 2651 
C 2240 2193 2035 1510 1427 1510 
z
" id="CMR17-39" transform="scale(0.015625)"/>
       </defs>
       <use transform="scale(0.996264)" xlink:href="#CMR17-39"/>
       <use transform="translate(45.690477 0)scale(0.996264)" xlink:href="#CMR17-30"/>
       <use transform="translate(91.380954 0)scale(0.996264)" xlink:href="#CMR17-25"/>
      </g>
     </g>
    </g>
    <g id="ytick_11">
     <g id="line2d_33">
      <path clip-path="url(#p620985d370)" d="M 90 112.285714 
L 648 112.285714 
" style="fill:none;stroke:#b0b0b0;stroke-dasharray:1.85,0.8;stroke-dashoffset:0;stroke-width:0.5;"/>
     </g>
     <g id="line2d_34">
      <g>
       <use style="stroke:#000000;stroke-width:0.8;" x="90" xlink:href="#m10adff9fa9" y="112.285714"/>
      </g>
     </g>
     <g id="text_12">
      <!-- 100\% -->
      <g transform="translate(40.201799 119.204213)scale(0.2 -0.2)">
       <use transform="scale(0.996264)" xlink:href="#CMR17-31"/>
       <use transform="translate(45.690477 0)scale(0.996264)" xlink:href="#CMR17-30"/>
       <use transform="translate(91.380954 0)scale(0.996264)" xlink:href="#CMR17-30"/>
       <use transform="translate(137.071431 0)scale(0.996264)" xlink:href="#CMR17-25"/>
      </g>
     </g>
    </g>
    <g id="text_13">
     <!-- Study Accuracy -->
     <g transform="translate(32.326165 421.902431)rotate(-90)scale(0.2 -0.2)">
      <defs>
       <path d="M 2323 4441 
C 2291 4524 2278 4544 2214 4544 
C 2150 4544 2138 4524 2106 4441 
L 749 580 
C 627 236 371 166 147 166 
L 147 0 
C 262 12 518 12 640 12 
C 800 12 1056 12 1210 0 
L 1210 166 
C 909 179 864 382 864 459 
C 864 516 877 548 890 586 
L 1229 1536 
L 2906 1536 
L 3290 453 
C 3322 376 3322 363 3322 338 
C 3322 166 3046 166 2925 166 
L 2925 0 
C 3110 12 3443 12 3642 12 
C 3808 12 4128 12 4282 0 
L 4282 166 
C 3942 166 3827 166 3744 402 
L 2323 4441 
z
M 2067 3924 
L 2848 1702 
L 1286 1702 
L 2067 3924 
z
" id="CMR17-41" transform="scale(0.015625)"/>
       <path d="M 960 1517 
C 960 2134 1222 2713 1702 2713 
C 1747 2713 1792 2707 1837 2687 
C 1837 2687 1696 2642 1696 2475 
C 1696 2321 1818 2257 1914 2257 
C 1990 2257 2131 2302 2131 2482 
C 2131 2687 1926 2816 1709 2816 
C 1222 2816 1011 2340 947 2115 
L 941 2115 
L 941 2816 
L 198 2745 
L 198 2578 
C 576 2578 634 2540 634 2231 
L 634 443 
C 634 198 608 166 198 166 
L 198 0 
C 352 12 646 12 813 12 
C 998 12 1325 12 1498 0 
L 1498 166 
C 1037 166 960 166 960 455 
L 960 1517 
z
" id="CMR17-72" transform="scale(0.015625)"/>
      </defs>
      <use transform="scale(0.996264)" xlink:href="#CMR17-53"/>
      <use transform="translate(50.89537 0)scale(0.996264)" xlink:href="#CMR17-74"/>
      <use transform="translate(86.176138 0)scale(0.996264)" xlink:href="#CMR17-75"/>
      <use transform="translate(137.071507 0)scale(0.996264)" xlink:href="#CMR17-64"/>
      <use transform="translate(187.966877 0)scale(0.996264)" xlink:href="#CMR17-79"/>
      <use transform="translate(266.335759 0)scale(0.996264)" xlink:href="#CMR17-41"/>
      <use transform="translate(335.408189 0)scale(0.996264)" xlink:href="#CMR17-63"/>
      <use transform="translate(375.89385 0)scale(0.996264)" xlink:href="#CMR17-63"/>
      <use transform="translate(416.37951 0)scale(0.996264)" xlink:href="#CMR17-75"/>
      <use transform="translate(467.27488 0)scale(0.996264)" xlink:href="#CMR17-72"/>
      <use transform="translate(502.555648 0)scale(0.996264)" xlink:href="#CMR17-61"/>
      <use transform="translate(548.246125 0)scale(0.996264)" xlink:href="#CMR17-63"/>
      <use transform="translate(588.731785 0)scale(0.996264)" xlink:href="#CMR17-79"/>
     </g>
    </g>
   </g>
   <g id="patch_3">
    <path clip-path="url(#p620985d370)" d="M 115.363636 630 
L 119.599734 630 
L 119.599734 119.097744 
L 115.363636 119.097744 
z
" style="fill:#1f77b4;"/>
   </g>
   <g id="patch_4">
    <path clip-path="url(#p620985d370)" d="M 120.658759 630 
L 124.894857 630 
L 124.894857 265.246753 
L 120.658759 265.246753 
z
" style="fill:#aec7e8;"/>
   </g>
   <g id="patch_5">
    <path clip-path="url(#p620985d370)" d="M 125.953881 630 
L 130.189979 630 
L 130.189979 129.46107 
L 125.953881 129.46107 
z
" style="fill:#ff7f0e;"/>
   </g>
   <g id="patch_6">
    <path clip-path="url(#p620985d370)" d="M 131.249004 630 
L 135.485102 630 
L 135.485102 241.714286 
L 131.249004 241.714286 
z
" style="fill:#ffbb78;"/>
   </g>
   <g id="patch_7">
    <path clip-path="url(#p620985d370)" d="M 136.544126 630 
L 140.780224 630 
L 140.780224 189.942857 
L 136.544126 189.942857 
z
" style="fill:#2ca02c;"/>
   </g>
   <g id="patch_8">
    <path clip-path="url(#p620985d370)" d="M 141.839248 630 
L 146.075346 630 
L 146.075346 179.087558 
L 141.839248 179.087558 
z
" style="fill:#98df8a;"/>
   </g>
   <g id="patch_9">
    <path clip-path="url(#p620985d370)" d="M 147.134371 630 
L 151.370469 630 
L 151.370469 300.545455 
L 147.134371 300.545455 
z
" style="fill:#98df8a;"/>
   </g>
   <g id="patch_10">
    <path clip-path="url(#p620985d370)" d="M 152.429493 630 
L 156.665591 630 
L 156.665591 349.571429 
L 152.429493 349.571429 
z
" style="fill:#98df8a;"/>
   </g>
   <g id="patch_11">
    <path clip-path="url(#p620985d370)" d="M 157.724616 630 
L 161.960714 630 
L 161.960714 364.505495 
L 157.724616 364.505495 
z
" style="fill:#98df8a;"/>
   </g>
   <g id="patch_12">
    <path clip-path="url(#p620985d370)" d="M 163.019738 630 
L 167.255836 630 
L 167.255836 132.994286 
L 163.019738 132.994286 
z
" style="fill:#d62728;"/>
   </g>
   <g id="patch_13">
    <path clip-path="url(#p620985d370)" d="M 168.314861 630 
L 172.550958 630 
L 172.550958 156.873548 
L 168.314861 156.873548 
z
" style="fill:#d62728;"/>
   </g>
   <g id="patch_14">
    <path clip-path="url(#p620985d370)" d="M 173.609983 630 
L 177.846081 630 
L 177.846081 209.357143 
L 173.609983 209.357143 
z
" style="fill:#d62728;"/>
   </g>
   <g id="patch_15">
    <path clip-path="url(#p620985d370)" d="M 178.905105 630 
L 183.141203 630 
L 183.141203 334.163265 
L 178.905105 334.163265 
z
" style="fill:#d62728;"/>
   </g>
   <g id="patch_16">
    <path clip-path="url(#p620985d370)" d="M 184.200228 630 
L 188.436326 630 
L 188.436326 335.023256 
L 184.200228 335.023256 
z
" style="fill:#d62728;"/>
   </g>
   <g id="patch_17">
    <path clip-path="url(#p620985d370)" d="M 189.49535 630 
L 193.731448 630 
L 193.731448 340.08 
L 189.49535 340.08 
z
" style="fill:#d62728;"/>
   </g>
   <g id="patch_18">
    <path clip-path="url(#p620985d370)" d="M 194.790473 630 
L 199.026571 630 
L 199.026571 112.285714 
L 194.790473 112.285714 
z
" style="fill:#ff9896;"/>
   </g>
   <g id="patch_19">
    <path clip-path="url(#p620985d370)" d="M 200.085595 630 
L 204.321693 630 
L 204.321693 125.228571 
L 200.085595 125.228571 
z
" style="fill:#ff9896;"/>
   </g>
   <g id="patch_20">
    <path clip-path="url(#p620985d370)" d="M 205.380717 630 
L 209.616815 630 
L 209.616815 193.373494 
L 205.380717 193.373494 
z
" style="fill:#ff9896;"/>
   </g>
   <g id="patch_21">
    <path clip-path="url(#p620985d370)" d="M 210.67584 630 
L 214.911938 630 
L 214.911938 201.036735 
L 210.67584 201.036735 
z
" style="fill:#ff9896;"/>
   </g>
   <g id="patch_22">
    <path clip-path="url(#p620985d370)" d="M 215.970962 630 
L 220.20706 630 
L 220.20706 241.714286 
L 215.970962 241.714286 
z
" style="fill:#ff9896;"/>
   </g>
   <g id="patch_23">
    <path clip-path="url(#p620985d370)" d="M 221.266085 630 
L 225.502183 630 
L 225.502183 330.87619 
L 221.266085 330.87619 
z
" style="fill:#ff9896;"/>
   </g>
   <g id="patch_24">
    <path clip-path="url(#p620985d370)" d="M 226.561207 630 
L 230.797305 630 
L 230.797305 337.378882 
L 226.561207 337.378882 
z
" style="fill:#ff9896;"/>
   </g>
   <g id="patch_25">
    <path clip-path="url(#p620985d370)" d="M 231.856329 630 
L 236.092427 630 
L 236.092427 180.024032 
L 231.856329 180.024032 
z
" style="fill:#9467bd;"/>
   </g>
   <g id="patch_26">
    <path clip-path="url(#p620985d370)" d="M 237.151452 630 
L 241.38755 630 
L 241.38755 170.995582 
L 237.151452 170.995582 
z
" style="fill:#c5b0d5;"/>
   </g>
   <g id="patch_27">
    <path clip-path="url(#p620985d370)" d="M 242.446574 630 
L 246.682672 630 
L 246.682672 112.285714 
L 242.446574 112.285714 
z
" style="fill:#8c564b;"/>
   </g>
   <g id="patch_28">
    <path clip-path="url(#p620985d370)" d="M 247.741697 630 
L 251.977795 630 
L 251.977795 123.919743 
L 247.741697 123.919743 
z
" style="fill:#8c564b;"/>
   </g>
   <g id="patch_29">
    <path clip-path="url(#p620985d370)" d="M 253.036819 630 
L 257.272917 630 
L 257.272917 136.706199 
L 253.036819 136.706199 
z
" style="fill:#8c564b;"/>
   </g>
   <g id="patch_30">
    <path clip-path="url(#p620985d370)" d="M 258.331942 630 
L 262.568039 630 
L 262.568039 138.171429 
L 258.331942 138.171429 
z
" style="fill:#8c564b;"/>
   </g>
   <g id="patch_31">
    <path clip-path="url(#p620985d370)" d="M 263.627064 630 
L 267.863162 630 
L 267.863162 141.047619 
L 263.627064 141.047619 
z
" style="fill:#8c564b;"/>
   </g>
   <g id="patch_32">
    <path clip-path="url(#p620985d370)" d="M 268.922186 630 
L 273.158284 630 
L 273.158284 143.017613 
L 268.922186 143.017613 
z
" style="fill:#8c564b;"/>
   </g>
   <g id="patch_33">
    <path clip-path="url(#p620985d370)" d="M 274.217309 630 
L 278.453407 630 
L 278.453407 143.473322 
L 274.217309 143.473322 
z
" style="fill:#8c564b;"/>
   </g>
   <g id="patch_34">
    <path clip-path="url(#p620985d370)" d="M 279.512431 630 
L 283.748529 630 
L 283.748529 145.069732 
L 279.512431 145.069732 
z
" style="fill:#8c564b;"/>
   </g>
   <g id="patch_35">
    <path clip-path="url(#p620985d370)" d="M 284.807554 630 
L 289.043652 630 
L 289.043652 150.506232 
L 284.807554 150.506232 
z
" style="fill:#8c564b;"/>
   </g>
   <g id="patch_36">
    <path clip-path="url(#p620985d370)" d="M 290.102676 630 
L 294.338774 630 
L 294.338774 153.62769 
L 290.102676 153.62769 
z
" style="fill:#8c564b;"/>
   </g>
   <g id="patch_37">
    <path clip-path="url(#p620985d370)" d="M 295.397798 630 
L 299.633896 630 
L 299.633896 157.966387 
L 295.397798 157.966387 
z
" style="fill:#8c564b;"/>
   </g>
   <g id="patch_38">
    <path clip-path="url(#p620985d370)" d="M 300.692921 630 
L 304.929019 630 
L 304.929019 165.842365 
L 300.692921 165.842365 
z
" style="fill:#8c564b;"/>
   </g>
   <g id="patch_39">
    <path clip-path="url(#p620985d370)" d="M 305.988043 630 
L 310.224141 630 
L 310.224141 166.781955 
L 305.988043 166.781955 
z
" style="fill:#8c564b;"/>
   </g>
   <g id="patch_40">
    <path clip-path="url(#p620985d370)" d="M 311.283166 630 
L 315.519264 630 
L 315.519264 169.809524 
L 311.283166 169.809524 
z
" style="fill:#8c564b;"/>
   </g>
   <g id="patch_41">
    <path clip-path="url(#p620985d370)" d="M 316.578288 630 
L 320.814386 630 
L 320.814386 169.809524 
L 316.578288 169.809524 
z
" style="fill:#8c564b;"/>
   </g>
   <g id="patch_42">
    <path clip-path="url(#p620985d370)" d="M 321.873411 630 
L 326.109508 630 
L 326.109508 181.670103 
L 321.873411 181.670103 
z
" style="fill:#8c564b;"/>
   </g>
   <g id="patch_43">
    <path clip-path="url(#p620985d370)" d="M 327.168533 630 
L 331.404631 630 
L 331.404631 188.04878 
L 327.168533 188.04878 
z
" style="fill:#8c564b;"/>
   </g>
   <g id="patch_44">
    <path clip-path="url(#p620985d370)" d="M 332.463655 630 
L 336.699753 630 
L 336.699753 196.414286 
L 332.463655 196.414286 
z
" style="fill:#8c564b;"/>
   </g>
   <g id="patch_45">
    <path clip-path="url(#p620985d370)" d="M 337.758778 630 
L 341.994876 630 
L 341.994876 199.377837 
L 337.758778 199.377837 
z
" style="fill:#8c564b;"/>
   </g>
   <g id="patch_46">
    <path clip-path="url(#p620985d370)" d="M 343.0539 630 
L 347.289998 630 
L 347.289998 200.14026 
L 343.0539 200.14026 
z
" style="fill:#8c564b;"/>
   </g>
   <g id="patch_47">
    <path clip-path="url(#p620985d370)" d="M 348.349023 630 
L 352.585121 630 
L 352.585121 202.322981 
L 348.349023 202.322981 
z
" style="fill:#8c564b;"/>
   </g>
   <g id="patch_48">
    <path clip-path="url(#p620985d370)" d="M 353.644145 630 
L 357.880243 630 
L 357.880243 202.885714 
L 353.644145 202.885714 
z
" style="fill:#8c564b;"/>
   </g>
   <g id="patch_49">
    <path clip-path="url(#p620985d370)" d="M 358.939267 630 
L 363.175365 630 
L 363.175365 215.828571 
L 358.939267 215.828571 
z
" style="fill:#8c564b;"/>
   </g>
   <g id="patch_50">
    <path clip-path="url(#p620985d370)" d="M 364.23439 630 
L 368.470488 630 
L 368.470488 220.142857 
L 364.23439 220.142857 
z
" style="fill:#8c564b;"/>
   </g>
   <g id="patch_51">
    <path clip-path="url(#p620985d370)" d="M 369.529512 630 
L 373.76561 630 
L 373.76561 221.802198 
L 369.529512 221.802198 
z
" style="fill:#8c564b;"/>
   </g>
   <g id="patch_52">
    <path clip-path="url(#p620985d370)" d="M 374.824635 630 
L 379.060733 630 
L 379.060733 222.43769 
L 374.824635 222.43769 
z
" style="fill:#8c564b;"/>
   </g>
   <g id="patch_53">
    <path clip-path="url(#p620985d370)" d="M 380.119757 630 
L 384.355855 630 
L 384.355855 235.55102 
L 380.119757 235.55102 
z
" style="fill:#8c564b;"/>
   </g>
   <g id="patch_54">
    <path clip-path="url(#p620985d370)" d="M 385.414879 630 
L 389.650977 630 
L 389.650977 236.920635 
L 385.414879 236.920635 
z
" style="fill:#8c564b;"/>
   </g>
   <g id="patch_55">
    <path clip-path="url(#p620985d370)" d="M 390.710002 630 
L 394.9461 630 
L 394.9461 237.251232 
L 390.710002 237.251232 
z
" style="fill:#8c564b;"/>
   </g>
   <g id="patch_56">
    <path clip-path="url(#p620985d370)" d="M 396.005124 630 
L 400.241222 630 
L 400.241222 241.714286 
L 396.005124 241.714286 
z
" style="fill:#8c564b;"/>
   </g>
   <g id="patch_57">
    <path clip-path="url(#p620985d370)" d="M 401.300247 630 
L 405.536345 630 
L 405.536345 260.204082 
L 401.300247 260.204082 
z
" style="fill:#8c564b;"/>
   </g>
   <g id="patch_58">
    <path clip-path="url(#p620985d370)" d="M 406.595369 630 
L 410.831467 630 
L 410.831467 262.893506 
L 406.595369 262.893506 
z
" style="fill:#8c564b;"/>
   </g>
   <g id="patch_59">
    <path clip-path="url(#p620985d370)" d="M 411.890492 630 
L 416.126589 630 
L 416.126589 270.170213 
L 411.890492 270.170213 
z
" style="fill:#8c564b;"/>
   </g>
   <g id="patch_60">
    <path clip-path="url(#p620985d370)" d="M 417.185614 630 
L 421.421712 630 
L 421.421712 296.361905 
L 417.185614 296.361905 
z
" style="fill:#8c564b;"/>
   </g>
   <g id="patch_61">
    <path clip-path="url(#p620985d370)" d="M 422.480736 630 
L 426.716834 630 
L 426.716834 303.022556 
L 422.480736 303.022556 
z
" style="fill:#8c564b;"/>
   </g>
   <g id="patch_62">
    <path clip-path="url(#p620985d370)" d="M 427.775859 630 
L 432.011957 630 
L 432.011957 303.346939 
L 427.775859 303.346939 
z
" style="fill:#8c564b;"/>
   </g>
   <g id="patch_63">
    <path clip-path="url(#p620985d370)" d="M 433.070981 630 
L 437.307079 630 
L 437.307079 322.607143 
L 433.070981 322.607143 
z
" style="fill:#8c564b;"/>
   </g>
   <g id="patch_64">
    <path clip-path="url(#p620985d370)" d="M 438.366104 630 
L 442.602202 630 
L 442.602202 332.314286 
L 438.366104 332.314286 
z
" style="fill:#8c564b;"/>
   </g>
   <g id="patch_65">
    <path clip-path="url(#p620985d370)" d="M 443.661226 630 
L 447.897324 630 
L 447.897324 340.430993 
L 443.661226 340.430993 
z
" style="fill:#8c564b;"/>
   </g>
   <g id="patch_66">
    <path clip-path="url(#p620985d370)" d="M 448.956348 630 
L 453.192446 630 
L 453.192446 355.915966 
L 448.956348 355.915966 
z
" style="fill:#8c564b;"/>
   </g>
   <g id="patch_67">
    <path clip-path="url(#p620985d370)" d="M 454.251471 630 
L 458.487569 630 
L 458.487569 381.928571 
L 454.251471 381.928571 
z
" style="fill:#8c564b;"/>
   </g>
   <g id="patch_68">
    <path clip-path="url(#p620985d370)" d="M 459.546593 630 
L 463.782691 630 
L 463.782691 413.641791 
L 459.546593 413.641791 
z
" style="fill:#8c564b;"/>
   </g>
   <g id="patch_69">
    <path clip-path="url(#p620985d370)" d="M 464.841716 630 
L 469.077814 630 
L 469.077814 415.773399 
L 464.841716 415.773399 
z
" style="fill:#8c564b;"/>
   </g>
   <g id="patch_70">
    <path clip-path="url(#p620985d370)" d="M 470.136838 630 
L 474.372936 630 
L 474.372936 420.543075 
L 470.136838 420.543075 
z
" style="fill:#8c564b;"/>
   </g>
   <g id="patch_71">
    <path clip-path="url(#p620985d370)" d="M 475.431961 630 
L 479.668058 630 
L 479.668058 440.592334 
L 475.431961 440.592334 
z
" style="fill:#8c564b;"/>
   </g>
   <g id="patch_72">
    <path clip-path="url(#p620985d370)" d="M 480.727083 630 
L 484.963181 630 
L 484.963181 441.74026 
L 480.727083 441.74026 
z
" style="fill:#8c564b;"/>
   </g>
   <g id="patch_73">
    <path clip-path="url(#p620985d370)" d="M 486.022205 630 
L 490.258303 630 
L 490.258303 474.995723 
L 486.022205 474.995723 
z
" style="fill:#8c564b;"/>
   </g>
   <g id="patch_74">
    <path clip-path="url(#p620985d370)" d="M 491.317328 630 
L 495.553426 630 
L 495.553426 478.256158 
L 491.317328 478.256158 
z
" style="fill:#8c564b;"/>
   </g>
   <g id="patch_75">
    <path clip-path="url(#p620985d370)" d="M 496.61245 630 
L 500.848548 630 
L 500.848548 488.805195 
L 496.61245 488.805195 
z
" style="fill:#8c564b;"/>
   </g>
   <g id="patch_76">
    <path clip-path="url(#p620985d370)" d="M 501.907573 630 
L 506.143671 630 
L 506.143671 516.102857 
L 501.907573 516.102857 
z
" style="fill:#8c564b;"/>
   </g>
   <g id="patch_77">
    <path clip-path="url(#p620985d370)" d="M 507.202695 630 
L 511.438793 630 
L 511.438793 534.421978 
L 507.202695 534.421978 
z
" style="fill:#8c564b;"/>
   </g>
   <g id="patch_78">
    <path clip-path="url(#p620985d370)" d="M 512.497817 630 
L 516.733915 630 
L 516.733915 534.499307 
L 512.497817 534.499307 
z
" style="fill:#8c564b;"/>
   </g>
   <g id="patch_79">
    <path clip-path="url(#p620985d370)" d="M 517.79294 630 
L 522.029038 630 
L 522.029038 543.714286 
L 517.79294 543.714286 
z
" style="fill:#8c564b;"/>
   </g>
   <g id="patch_80">
    <path clip-path="url(#p620985d370)" d="M 523.088062 630 
L 527.32416 630 
L 527.32416 595.485714 
L 523.088062 595.485714 
z
" style="fill:#8c564b;"/>
   </g>
   <g id="patch_81">
    <path clip-path="url(#p620985d370)" d="M 528.383185 630 
L 532.619283 630 
L 532.619283 309.242236 
L 528.383185 309.242236 
z
" style="fill:#c49c94;"/>
   </g>
   <g id="patch_82">
    <path clip-path="url(#p620985d370)" d="M 533.678307 630 
L 537.914405 630 
L 537.914405 508.832827 
L 533.678307 508.832827 
z
" style="fill:#e377c2;"/>
   </g>
   <g id="patch_83">
    <path clip-path="url(#p620985d370)" d="M 538.973429 630 
L 543.209527 630 
L 543.209527 158.451319 
L 538.973429 158.451319 
z
" style="fill:#f7b6d2;"/>
   </g>
   <g id="patch_84">
    <path clip-path="url(#p620985d370)" d="M 544.268552 630 
L 548.50465 630 
L 548.50465 305.565714 
L 544.268552 305.565714 
z
" style="fill:#7f7f7f;"/>
   </g>
   <g id="patch_85">
    <path clip-path="url(#p620985d370)" d="M 549.563674 630 
L 553.799772 630 
L 553.799772 161.591837 
L 549.563674 161.591837 
z
" style="fill:#c7c7c7;"/>
   </g>
   <g id="patch_86">
    <path clip-path="url(#p620985d370)" d="M 554.858797 630 
L 559.094895 630 
L 559.094895 288.415317 
L 554.858797 288.415317 
z
" style="fill:#bcbd22;"/>
   </g>
   <g id="patch_87">
    <path clip-path="url(#p620985d370)" d="M 560.153919 630 
L 564.390017 630 
L 564.390017 342.380952 
L 560.153919 342.380952 
z
" style="fill:#bcbd22;"/>
   </g>
   <g id="patch_88">
    <path clip-path="url(#p620985d370)" d="M 565.449042 630 
L 569.685139 630 
L 569.685139 324.361446 
L 565.449042 324.361446 
z
" style="fill:#dbdb8d;"/>
   </g>
   <g id="patch_89">
    <path clip-path="url(#p620985d370)" d="M 570.744164 630 
L 574.980262 630 
L 574.980262 188.33414 
L 570.744164 188.33414 
z
" style="fill:#17becf;"/>
   </g>
   <g id="patch_90">
    <path clip-path="url(#p620985d370)" d="M 576.039286 630 
L 580.275384 630 
L 580.275384 209.357143 
L 576.039286 209.357143 
z
" style="fill:#17becf;"/>
   </g>
   <g id="patch_91">
    <path clip-path="url(#p620985d370)" d="M 581.334409 630 
L 585.570507 630 
L 585.570507 311.406593 
L 581.334409 311.406593 
z
" style="fill:#17becf;"/>
   </g>
   <g id="patch_92">
    <path clip-path="url(#p620985d370)" d="M 586.629531 630 
L 590.865629 630 
L 590.865629 483.477089 
L 586.629531 483.477089 
z
" style="fill:#17becf;"/>
   </g>
   <g id="patch_93">
    <path clip-path="url(#p620985d370)" d="M 591.924654 630 
L 596.160752 630 
L 596.160752 112.285714 
L 591.924654 112.285714 
z
" style="fill:#9edae5;"/>
   </g>
   <g id="patch_94">
    <path clip-path="url(#p620985d370)" d="M 597.219776 630 
L 601.455874 630 
L 601.455874 260.204082 
L 597.219776 260.204082 
z
" style="fill:#9edae5;"/>
   </g>
   <g id="patch_95">
    <path clip-path="url(#p620985d370)" d="M 602.514898 630 
L 606.750996 630 
L 606.750996 301.181467 
L 602.514898 301.181467 
z
" style="fill:#9edae5;"/>
   </g>
   <g id="patch_96">
    <path clip-path="url(#p620985d370)" d="M 607.810021 630 
L 612.046119 630 
L 612.046119 302.114286 
L 607.810021 302.114286 
z
" style="fill:#9edae5;"/>
   </g>
   <g id="patch_97">
    <path clip-path="url(#p620985d370)" d="M 613.105143 630 
L 617.341241 630 
L 617.341241 359.888199 
L 613.105143 359.888199 
z
" style="fill:#9edae5;"/>
   </g>
   <g id="patch_98">
    <path clip-path="url(#p620985d370)" d="M 618.400266 630 
L 622.636364 630 
L 622.636364 452.035714 
L 618.400266 452.035714 
z
" style="fill:#9edae5;"/>
   </g>
   <g id="patch_99">
    <path d="M 90 630 
L 90 86.4 
" style="fill:none;stroke:#000000;stroke-linecap:square;stroke-linejoin:miter;stroke-width:0.8;"/>
   </g>
   <g id="patch_100">
    <path d="M 648 630 
L 648 86.4 
" style="fill:none;stroke:#000000;stroke-linecap:square;stroke-linejoin:miter;stroke-width:0.8;"/>
   </g>
   <g id="patch_101">
    <path d="M 90 630 
L 648 630 
" style="fill:none;stroke:#000000;stroke-linecap:square;stroke-linejoin:miter;stroke-width:0.8;"/>
   </g>
   <g id="patch_102">
    <path d="M 90 86.4 
L 648 86.4 
" style="fill:none;stroke:#000000;stroke-linecap:square;stroke-linejoin:miter;stroke-width:0.8;"/>
   </g>
  </g>
 </g>
 <defs>
  <clipPath id="p620985d370">
   <rect height="543.6" width="558" x="90" y="86.4"/>
  </clipPath>
 </defs>
</svg>
