<?xml version="1.0" encoding="utf-8" standalone="no"?>
<!DOCTYPE svg PUBLIC "-//W3C//DTD SVG 1.1//EN"
  "http://www.w3.org/Graphics/SVG/1.1/DTD/svg11.dtd">
<svg height="432pt" version="1.1" viewBox="0 0 1440 432" width="1440pt" xmlns="http://www.w3.org/2000/svg" xmlns:xlink="http://www.w3.org/1999/xlink">
 <metadata>
  <rdf:RDF xmlns:cc="http://creativecommons.org/ns#" xmlns:dc="http://purl.org/dc/elements/1.1/" xmlns:rdf="http://www.w3.org/1999/02/22-rdf-syntax-ns#">
   <cc:Work>
    <dc:type rdf:resource="http://purl.org/dc/dcmitype/StillImage"/>
    <dc:date>2022-09-18T16:52:13.300720</dc:date>
    <dc:format>image/svg+xml</dc:format>
    <dc:creator>
     <cc:Agent>
      <dc:title>Matplotlib v3.4.3, https://matplotlib.org/</dc:title>
     </cc:Agent>
    </dc:creator>
   </cc:Work>
  </rdf:RDF>
 </metadata>
 <defs>
  <style type="text/css">*{stroke-linecap:butt;stroke-linejoin:round;}</style>
 </defs>
 <g id="figure_1">
  <g id="patch_1">
   <path d="M 0 432 
L 1440 432 
L 1440 0 
L 0 0 
z
" style="fill:none;"/>
  </g>
  <g id="axes_1">
   <g id="patch_2">
    <path d="M 180 378 
L 339.428571 378 
L 339.428571 51.84 
L 180 51.84 
z
" style="fill:#ffffff;"/>
   </g>
   <g id="matplotlib.axis_1">
    <g id="xtick_1">
     <g id="line2d_1">
      <defs>
       <path d="M 0 0 
L 0 3.5 
" id="m09e1142321" style="stroke:#000000;stroke-width:0.8;"/>
      </defs>
      <g>
       <use style="stroke:#000000;stroke-width:0.8;" x="219.857143" xlink:href="#m09e1142321" y="378"/>
      </g>
     </g>
     <g id="text_1">
      <text style="font-family:DejaVu Sans;font-size:15px;font-stretch:normal;font-style:normal;font-weight:normal;" transform="translate(190.789955 396.397656)">Healthy</text>
      <text style="font-family:DejaVu Sans;font-size:15px;font-stretch:normal;font-style:normal;font-weight:normal;" transform="translate(192.533705 413.194375)"> (5757)</text>
     </g>
    </g>
    <g id="xtick_2">
     <g id="line2d_2">
      <g>
       <use style="stroke:#000000;stroke-width:0.8;" x="299.571429" xlink:href="#m09e1142321" y="378"/>
      </g>
     </g>
     <g id="text_2">
      <text style="font-family:DejaVu Sans;font-size:15px;font-stretch:normal;font-style:normal;font-weight:normal;" transform="translate(256.438225 396.397656)">Nonhealthy</text>
      <text style="font-family:DejaVu Sans;font-size:15px;font-stretch:normal;font-style:normal;font-weight:normal;" transform="translate(272.247991 413.194375)"> (3112)</text>
     </g>
    </g>
   </g>
   <g id="matplotlib.axis_2">
    <g id="ytick_1">
     <g id="line2d_3">
      <path clip-path="url(#p57d0d37e79)" d="M 180 370.888956 
L 339.428571 370.888956 
" style="fill:none;stroke:#b0b0b0;stroke-dasharray:2.775,1.2;stroke-dashoffset:0;stroke-width:0.75;"/>
     </g>
     <g id="line2d_4">
      <defs>
       <path d="M 0 0 
L -3.5 0 
" id="mbea25803af" style="stroke:#000000;stroke-width:0.8;"/>
      </defs>
      <g>
       <use style="stroke:#000000;stroke-width:0.8;" x="180" xlink:href="#mbea25803af" y="370.888956"/>
      </g>
     </g>
     <g id="text_3">
      <text style="font-family:DejaVu Sans;font-size:12px;font-stretch:normal;font-style:normal;font-weight:normal;text-anchor:end;" transform="rotate(-0, 173, 375.448018)" x="173" y="375.448018">−6</text>
     </g>
    </g>
    <g id="ytick_2">
     <g id="line2d_5">
      <path clip-path="url(#p57d0d37e79)" d="M 180 314.945668 
L 339.428571 314.945668 
" style="fill:none;stroke:#b0b0b0;stroke-dasharray:2.775,1.2;stroke-dashoffset:0;stroke-width:0.75;"/>
     </g>
     <g id="line2d_6">
      <g>
       <use style="stroke:#000000;stroke-width:0.8;" x="180" xlink:href="#mbea25803af" y="314.945668"/>
      </g>
     </g>
     <g id="text_4">
      <text style="font-family:DejaVu Sans;font-size:12px;font-stretch:normal;font-style:normal;font-weight:normal;text-anchor:end;" transform="rotate(-0, 173, 319.504731)" x="173" y="319.504731">−4</text>
     </g>
    </g>
    <g id="ytick_3">
     <g id="line2d_7">
      <path clip-path="url(#p57d0d37e79)" d="M 180 259.002381 
L 339.428571 259.002381 
" style="fill:none;stroke:#b0b0b0;stroke-dasharray:2.775,1.2;stroke-dashoffset:0;stroke-width:0.75;"/>
     </g>
     <g id="line2d_8">
      <g>
       <use style="stroke:#000000;stroke-width:0.8;" x="180" xlink:href="#mbea25803af" y="259.002381"/>
      </g>
     </g>
     <g id="text_5">
      <text style="font-family:DejaVu Sans;font-size:12px;font-stretch:normal;font-style:normal;font-weight:normal;text-anchor:end;" transform="rotate(-0, 173, 263.561443)" x="173" y="263.561443">−2</text>
     </g>
    </g>
    <g id="ytick_4">
     <g id="line2d_9">
      <path clip-path="url(#p57d0d37e79)" d="M 180 203.059093 
L 339.428571 203.059093 
" style="fill:none;stroke:#b0b0b0;stroke-dasharray:2.775,1.2;stroke-dashoffset:0;stroke-width:0.75;"/>
     </g>
     <g id="line2d_10">
      <g>
       <use style="stroke:#000000;stroke-width:0.8;" x="180" xlink:href="#mbea25803af" y="203.059093"/>
      </g>
     </g>
     <g id="text_6">
      <text style="font-family:DejaVu Sans;font-size:12px;font-stretch:normal;font-style:normal;font-weight:normal;text-anchor:end;" transform="rotate(-0, 173, 207.618156)" x="173" y="207.618156">0</text>
     </g>
    </g>
    <g id="ytick_5">
     <g id="line2d_11">
      <path clip-path="url(#p57d0d37e79)" d="M 180 147.115806 
L 339.428571 147.115806 
" style="fill:none;stroke:#b0b0b0;stroke-dasharray:2.775,1.2;stroke-dashoffset:0;stroke-width:0.75;"/>
     </g>
     <g id="line2d_12">
      <g>
       <use style="stroke:#000000;stroke-width:0.8;" x="180" xlink:href="#mbea25803af" y="147.115806"/>
      </g>
     </g>
     <g id="text_7">
      <text style="font-family:DejaVu Sans;font-size:12px;font-stretch:normal;font-style:normal;font-weight:normal;text-anchor:end;" transform="rotate(-0, 173, 151.674868)" x="173" y="151.674868">2</text>
     </g>
    </g>
    <g id="ytick_6">
     <g id="line2d_13">
      <path clip-path="url(#p57d0d37e79)" d="M 180 91.172518 
L 339.428571 91.172518 
" style="fill:none;stroke:#b0b0b0;stroke-dasharray:2.775,1.2;stroke-dashoffset:0;stroke-width:0.75;"/>
     </g>
     <g id="line2d_14">
      <g>
       <use style="stroke:#000000;stroke-width:0.8;" x="180" xlink:href="#mbea25803af" y="91.172518"/>
      </g>
     </g>
     <g id="text_8">
      <text style="font-family:DejaVu Sans;font-size:12px;font-stretch:normal;font-style:normal;font-weight:normal;text-anchor:end;" transform="rotate(-0, 173, 95.731581)" x="173" y="95.731581">4</text>
     </g>
    </g>
    <g id="text_9">
     <text style="font-family:DejaVu Sans;font-size:20px;font-stretch:normal;font-style:normal;font-weight:normal;text-anchor:middle;" transform="rotate(-90, 147.15, 214.92)" x="147.15" y="214.92">GMHI2</text>
    </g>
   </g>
   <g id="PolyCollection_1">
    <defs>
     <path d="M 219.861052 -90.386318 
L 219.853233 -90.386318 
L 219.848204 -93.163573 
L 219.840322 -95.940827 
L 219.830668 -98.718082 
L 219.821226 -101.495337 
L 219.813048 -104.272592 
L 219.805269 -107.049847 
L 219.796645 -109.827102 
L 219.788057 -112.604356 
L 219.782963 -115.381611 
L 219.785049 -118.158866 
L 219.795035 -120.936121 
L 219.809065 -123.713376 
L 219.819946 -126.490631 
L 219.820373 -129.267885 
L 219.805722 -132.04514 
L 219.774273 -134.822395 
L 219.724787 -137.59965 
L 219.654583 -140.376905 
L 219.562624 -143.154159 
L 219.456634 -145.931414 
L 219.354412 -148.708669 
L 219.271878 -151.485924 
L 219.20714 -154.263179 
L 219.139692 -157.040434 
L 219.048137 -159.817688 
L 218.92592 -162.594943 
L 218.776831 -165.372198 
L 218.599532 -168.149453 
L 218.383226 -170.926708 
L 218.116819 -173.703963 
L 217.794784 -176.481217 
L 217.411464 -179.258472 
L 216.951592 -182.035727 
L 216.385342 -184.812982 
L 215.672138 -187.590237 
L 214.779041 -190.367491 
L 213.712538 -193.144746 
L 212.540911 -195.922001 
L 211.374946 -198.699256 
L 210.304142 -201.476511 
L 209.333464 -204.253766 
L 208.381064 -207.03102 
L 207.352818 -209.808275 
L 206.231195 -212.58553 
L 205.086258 -215.362785 
L 203.997519 -218.14004 
L 202.982128 -220.917295 
L 202.005793 -223.694549 
L 201.03674 -226.471804 
L 200.065365 -229.249059 
L 199.089311 -232.026314 
L 198.118901 -234.803569 
L 197.212073 -237.580824 
L 196.475952 -240.358078 
L 195.988928 -243.135333 
L 195.705684 -245.912588 
L 195.462097 -248.689843 
L 195.091869 -251.467098 
L 194.532708 -254.244352 
L 193.832099 -257.021607 
L 193.098537 -259.798862 
L 192.465708 -262.576117 
L 192.055023 -265.353372 
L 191.925331 -268.130627 
L 192.067947 -270.907881 
L 192.467801 -273.685136 
L 193.148083 -276.462391 
L 194.128796 -279.239646 
L 195.352045 -282.016901 
L 196.684322 -284.794156 
L 198.016498 -287.57141 
L 199.353314 -290.348665 
L 200.784417 -293.12592 
L 202.371236 -295.903175 
L 204.080355 -298.68043 
L 205.820377 -301.457684 
L 207.517007 -304.234939 
L 209.146969 -307.012194 
L 210.717743 -309.789449 
L 212.225445 -312.566704 
L 213.627834 -315.343959 
L 214.855277 -318.121213 
L 215.8521 -320.898468 
L 216.612959 -323.675723 
L 217.186214 -326.452978 
L 217.646708 -329.230233 
L 218.058279 -332.007488 
L 218.447656 -334.784742 
L 218.804384 -337.561997 
L 219.103404 -340.339252 
L 219.329793 -343.116507 
L 219.488126 -345.893762 
L 219.596295 -348.671017 
L 219.673984 -351.448271 
L 219.734307 -354.225526 
L 219.781901 -357.002781 
L 219.816588 -359.780036 
L 219.838411 -362.557291 
L 219.849856 -365.334545 
L 219.86443 -365.334545 
L 219.86443 -365.334545 
L 219.875875 -362.557291 
L 219.897697 -359.780036 
L 219.932385 -357.002781 
L 219.979979 -354.225526 
L 220.040302 -351.448271 
L 220.117991 -348.671017 
L 220.22616 -345.893762 
L 220.384493 -343.116507 
L 220.610882 -340.339252 
L 220.909902 -337.561997 
L 221.266629 -334.784742 
L 221.656007 -332.007488 
L 222.067577 -329.230233 
L 222.528072 -326.452978 
L 223.101327 -323.675723 
L 223.862186 -320.898468 
L 224.859009 -318.121213 
L 226.086452 -315.343959 
L 227.48884 -312.566704 
L 228.996543 -309.789449 
L 230.567317 -307.012194 
L 232.197279 -304.234939 
L 233.893909 -301.457684 
L 235.63393 -298.68043 
L 237.34305 -295.903175 
L 238.929869 -293.12592 
L 240.360972 -290.348665 
L 241.697787 -287.57141 
L 243.029964 -284.794156 
L 244.36224 -282.016901 
L 245.58549 -279.239646 
L 246.566203 -276.462391 
L 247.246485 -273.685136 
L 247.646338 -270.907881 
L 247.788954 -268.130627 
L 247.659263 -265.353372 
L 247.248578 -262.576117 
L 246.615748 -259.798862 
L 245.882187 -257.021607 
L 245.181577 -254.244352 
L 244.622417 -251.467098 
L 244.252189 -248.689843 
L 244.008602 -245.912588 
L 243.725358 -243.135333 
L 243.238333 -240.358078 
L 242.502212 -237.580824 
L 241.595385 -234.803569 
L 240.624975 -232.026314 
L 239.648921 -229.249059 
L 238.677546 -226.471804 
L 237.708493 -223.694549 
L 236.732157 -220.917295 
L 235.716767 -218.14004 
L 234.628028 -215.362785 
L 233.48309 -212.58553 
L 232.361468 -209.808275 
L 231.333221 -207.03102 
L 230.380822 -204.253766 
L 229.410144 -201.476511 
L 228.33934 -198.699256 
L 227.173375 -195.922001 
L 226.001747 -193.144746 
L 224.935244 -190.367491 
L 224.042148 -187.590237 
L 223.328944 -184.812982 
L 222.762693 -182.035727 
L 222.302822 -179.258472 
L 221.919502 -176.481217 
L 221.597467 -173.703963 
L 221.33106 -170.926708 
L 221.114754 -168.149453 
L 220.937455 -165.372198 
L 220.788366 -162.594943 
L 220.666149 -159.817688 
L 220.574594 -157.040434 
L 220.507146 -154.263179 
L 220.442408 -151.485924 
L 220.359873 -148.708669 
L 220.257651 -145.931414 
L 220.151661 -143.154159 
L 220.059703 -140.376905 
L 219.989499 -137.59965 
L 219.940012 -134.822395 
L 219.908563 -132.04514 
L 219.893913 -129.267885 
L 219.894339 -126.490631 
L 219.905221 -123.713376 
L 219.919251 -120.936121 
L 219.929237 -118.158866 
L 219.931323 -115.381611 
L 219.926228 -112.604356 
L 219.917641 -109.827102 
L 219.909017 -107.049847 
L 219.901238 -104.272592 
L 219.89306 -101.495337 
L 219.883617 -98.718082 
L 219.873964 -95.940827 
L 219.866082 -93.163573 
L 219.861052 -90.386318 
z
" id="m4ecaa446d8" style="stroke:#4b4b4b;stroke-width:1.5;"/>
    </defs>
    <g clip-path="url(#p57d0d37e79)">
     <use style="fill:#5481a6;stroke:#4b4b4b;stroke-width:1.5;" x="0" xlink:href="#m4ecaa446d8" y="432"/>
    </g>
   </g>
   <g id="PolyCollection_2">
    <defs>
     <path d="M 299.580154 -68.825455 
L 299.562703 -68.825455 
L 299.552712 -71.450541 
L 299.536198 -74.075627 
L 299.512552 -76.700713 
L 299.482331 -79.325799 
L 299.445644 -81.950885 
L 299.399773 -84.575971 
L 299.338757 -87.201057 
L 299.256737 -89.826143 
L 299.152833 -92.451229 
L 299.032506 -95.076315 
L 298.903077 -97.701401 
L 298.767275 -100.326487 
L 298.621006 -102.951573 
L 298.45727 -105.576659 
L 298.272265 -108.201745 
L 298.068397 -110.826831 
L 297.851695 -113.451917 
L 297.624505 -116.077003 
L 297.377723 -118.70209 
L 297.090069 -121.327176 
L 296.73997 -123.952262 
L 296.324426 -126.577348 
L 295.868055 -129.202434 
L 295.409813 -131.82752 
L 294.974889 -134.452606 
L 294.553921 -137.077692 
L 294.104536 -139.702778 
L 293.570735 -142.327864 
L 292.905699 -144.95295 
L 292.088889 -147.578036 
L 291.135257 -150.203122 
L 290.093238 -152.828208 
L 289.02687 -155.453294 
L 287.986724 -158.07838 
L 286.987636 -160.703466 
L 286.00976 -163.328552 
L 285.019022 -165.953638 
L 283.984931 -168.578725 
L 282.880441 -171.203811 
L 281.673359 -173.828897 
L 280.332025 -176.453983 
L 278.853128 -179.079069 
L 277.291612 -181.704155 
L 275.760061 -184.329241 
L 274.38338 -186.954327 
L 273.231962 -189.579413 
L 272.280143 -192.204499 
L 271.423636 -194.829585 
L 270.550112 -197.454671 
L 269.621681 -200.079757 
L 268.718231 -202.704843 
L 268.011745 -205.329929 
L 267.685714 -207.955015 
L 267.852154 -210.580101 
L 268.516141 -213.205187 
L 269.595402 -215.830273 
L 270.96529 -218.455359 
L 272.500754 -221.080446 
L 274.107337 -223.705532 
L 275.738564 -226.330618 
L 277.390175 -228.955704 
L 279.069799 -231.58079 
L 280.763909 -234.205876 
L 282.430646 -236.830962 
L 284.022038 -239.456048 
L 285.50986 -242.081134 
L 286.890841 -244.70622 
L 288.173642 -247.331306 
L 289.366659 -249.956392 
L 290.476136 -252.581478 
L 291.508337 -255.206564 
L 292.468916 -257.83165 
L 293.361314 -260.456736 
L 294.187722 -263.081822 
L 294.950691 -265.706908 
L 295.65151 -268.331994 
L 296.285906 -270.957081 
L 296.842122 -273.582167 
L 297.305648 -276.207253 
L 297.66937 -278.832339 
L 297.942118 -281.457425 
L 298.148555 -284.082511 
L 298.319747 -286.707597 
L 298.480611 -289.332683 
L 298.641772 -291.957769 
L 298.799695 -294.582855 
L 298.943648 -297.207941 
L 299.064307 -299.833027 
L 299.158731 -302.458113 
L 299.23026 -305.083199 
L 299.28571 -307.708285 
L 299.33257 -310.333371 
L 299.376785 -312.958457 
L 299.420968 -315.583543 
L 299.463826 -318.208629 
L 299.501628 -320.833716 
L 299.530933 -323.458802 
L 299.550619 -326.083888 
L 299.562018 -328.708974 
L 299.580839 -328.708974 
L 299.580839 -328.708974 
L 299.592238 -326.083888 
L 299.611924 -323.458802 
L 299.64123 -320.833716 
L 299.679031 -318.208629 
L 299.721889 -315.583543 
L 299.766072 -312.958457 
L 299.810287 -310.333371 
L 299.857147 -307.708285 
L 299.912597 -305.083199 
L 299.984126 -302.458113 
L 300.07855 -299.833027 
L 300.199209 -297.207941 
L 300.343162 -294.582855 
L 300.501085 -291.957769 
L 300.662247 -289.332683 
L 300.82311 -286.707597 
L 300.994303 -284.082511 
L 301.200739 -281.457425 
L 301.473487 -278.832339 
L 301.837209 -276.207253 
L 302.300735 -273.582167 
L 302.856951 -270.957081 
L 303.491347 -268.331994 
L 304.192166 -265.706908 
L 304.955136 -263.081822 
L 305.781543 -260.456736 
L 306.673941 -257.83165 
L 307.634521 -255.206564 
L 308.666721 -252.581478 
L 309.776198 -249.956392 
L 310.969215 -247.331306 
L 312.252016 -244.70622 
L 313.632997 -242.081134 
L 315.120819 -239.456048 
L 316.712211 -236.830962 
L 318.378949 -234.205876 
L 320.073058 -231.58079 
L 321.752683 -228.955704 
L 323.404293 -226.330618 
L 325.03552 -223.705532 
L 326.642103 -221.080446 
L 328.177567 -218.455359 
L 329.547455 -215.830273 
L 330.626716 -213.205187 
L 331.290703 -210.580101 
L 331.457143 -207.955015 
L 331.131112 -205.329929 
L 330.424626 -202.704843 
L 329.521176 -200.079757 
L 328.592745 -197.454671 
L 327.719221 -194.829585 
L 326.862715 -192.204499 
L 325.910895 -189.579413 
L 324.759477 -186.954327 
L 323.382796 -184.329241 
L 321.851245 -181.704155 
L 320.289729 -179.079069 
L 318.810832 -176.453983 
L 317.469498 -173.828897 
L 316.262416 -171.203811 
L 315.157926 -168.578725 
L 314.123835 -165.953638 
L 313.133097 -163.328552 
L 312.155221 -160.703466 
L 311.156133 -158.07838 
L 310.115987 -155.453294 
L 309.04962 -152.828208 
L 308.0076 -150.203122 
L 307.053968 -147.578036 
L 306.237158 -144.95295 
L 305.572123 -142.327864 
L 305.038321 -139.702778 
L 304.588936 -137.077692 
L 304.167968 -134.452606 
L 303.733045 -131.82752 
L 303.274802 -129.202434 
L 302.818431 -126.577348 
L 302.402887 -123.952262 
L 302.052788 -121.327176 
L 301.765134 -118.70209 
L 301.518352 -116.077003 
L 301.291162 -113.451917 
L 301.07446 -110.826831 
L 300.870592 -108.201745 
L 300.685587 -105.576659 
L 300.521851 -102.951573 
L 300.375582 -100.326487 
L 300.23978 -97.701401 
L 300.110351 -95.076315 
L 299.990024 -92.451229 
L 299.886121 -89.826143 
L 299.8041 -87.201057 
L 299.743084 -84.575971 
L 299.697213 -81.950885 
L 299.660526 -79.325799 
L 299.630305 -76.700713 
L 299.606659 -74.075627 
L 299.590145 -71.450541 
L 299.580154 -68.825455 
z
" id="mab8e63778b" style="stroke:#4b4b4b;stroke-width:1.5;"/>
    </defs>
    <g clip-path="url(#p57d0d37e79)">
     <use style="fill:#df9c20;stroke:#4b4b4b;stroke-width:1.5;" x="0" xlink:href="#mab8e63778b" y="432"/>
    </g>
   </g>
   <g id="line2d_15">
    <path clip-path="url(#p57d0d37e79)" d="M 219.857143 270.666058 
L 219.857143 80.665586 
" style="fill:none;stroke:#4b4b4b;stroke-linecap:square;stroke-width:1.5;"/>
   </g>
   <g id="line2d_16">
    <path clip-path="url(#p57d0d37e79)" d="M 219.857143 199.912093 
L 219.857143 151.549517 
" style="fill:none;stroke:#4b4b4b;stroke-linecap:square;stroke-width:4.5;"/>
   </g>
   <g id="line2d_17">
    <path clip-path="url(#p57d0d37e79)" d="M 299.571429 314.399821 
L 299.571429 145.040956 
" style="fill:none;stroke:#4b4b4b;stroke-linecap:square;stroke-width:1.5;"/>
   </g>
   <g id="line2d_18">
    <path clip-path="url(#p57d0d37e79)" d="M 299.571429 250.900724 
L 299.571429 208.220531 
" style="fill:none;stroke:#4b4b4b;stroke-linecap:square;stroke-width:4.5;"/>
   </g>
   <g id="patch_3">
    <path d="M 180 378 
L 180 51.84 
" style="fill:none;stroke:#000000;stroke-linecap:square;stroke-linejoin:miter;stroke-width:0.8;"/>
   </g>
   <g id="patch_4">
    <path d="M 339.428571 378 
L 339.428571 51.84 
" style="fill:none;stroke:#000000;stroke-linecap:square;stroke-linejoin:miter;stroke-width:0.8;"/>
   </g>
   <g id="patch_5">
    <path d="M 180 378 
L 339.428571 378 
" style="fill:none;stroke:#000000;stroke-linecap:square;stroke-linejoin:miter;stroke-width:0.8;"/>
   </g>
   <g id="patch_6">
    <path d="M 180 51.84 
L 339.428571 51.84 
" style="fill:none;stroke:#000000;stroke-linecap:square;stroke-linejoin:miter;stroke-width:0.8;"/>
   </g>
   <g id="PathCollection_1">
    <defs>
     <path d="M 0 1.5 
C 0.397805 1.5 0.77937 1.341951 1.06066 1.06066 
C 1.341951 0.77937 1.5 0.397805 1.5 0 
C 1.5 -0.397805 1.341951 -0.77937 1.06066 -1.06066 
C 0.77937 -1.341951 0.397805 -1.5 0 -1.5 
C -0.397805 -1.5 -0.77937 -1.341951 -1.06066 -1.06066 
C -1.341951 -0.77937 -1.5 -0.397805 -1.5 0 
C -1.5 0.397805 -1.341951 0.77937 -1.06066 1.06066 
C -0.77937 1.341951 -0.397805 1.5 0 1.5 
z
" id="m1f5e8cd2ff" style="stroke:#4b4b4b;"/>
    </defs>
    <g clip-path="url(#p57d0d37e79)">
     <use style="fill:#ffffff;stroke:#4b4b4b;" x="219.857143" xlink:href="#m1f5e8cd2ff" y="174.005175"/>
    </g>
   </g>
   <g id="PathCollection_2">
    <g clip-path="url(#p57d0d37e79)">
     <use style="fill:#ffffff;stroke:#4b4b4b;" x="299.571429" xlink:href="#m1f5e8cd2ff" y="227.867924"/>
    </g>
   </g>
   <g id="text_10">
    <!-- P $&lt;$ 5e-324 -->
    <g transform="translate(217.784286 68.148)">
     <text>
      <tspan style="font-family:DejaVu Sans;font-size:14px;font-style:book;font-weight:book;" x="0 8.442383 15.620117 30.078125 34.52832 43.435547 52.048828 57.100586 66.007812 74.915039" y="-0.609375">P &lt; 5e-324</tspan>
     </text>
    </g>
   </g>
   <g id="text_11">
    <text style="font-family:DejaVu Sans;font-size:14px;font-stretch:normal;font-style:normal;font-weight:normal;text-anchor:middle;" transform="rotate(-0, 259.714286, 81.1944)" x="259.714286" y="81.1944">d = 0.74</text>
   </g>
  </g>
  <g id="axes_2">
   <g id="patch_7">
    <path d="M 419.142857 378 
L 578.571429 378 
L 578.571429 51.84 
L 419.142857 51.84 
z
" style="fill:#ffffff;"/>
   </g>
   <g id="matplotlib.axis_3">
    <g id="xtick_3">
     <g id="line2d_19">
      <g>
       <use style="stroke:#000000;stroke-width:0.8;" x="459" xlink:href="#m09e1142321" y="378"/>
      </g>
     </g>
     <g id="text_12">
      <text style="font-family:DejaVu Sans;font-size:15px;font-stretch:normal;font-style:normal;font-weight:normal;" transform="translate(429.932813 396.397656)">Healthy</text>
      <text style="font-family:DejaVu Sans;font-size:15px;font-stretch:normal;font-style:normal;font-weight:normal;" transform="translate(431.676562 413.194375)"> (5757)</text>
     </g>
    </g>
    <g id="xtick_4">
     <g id="line2d_20">
      <g>
       <use style="stroke:#000000;stroke-width:0.8;" x="538.714286" xlink:href="#m09e1142321" y="378"/>
      </g>
     </g>
     <g id="text_13">
      <text style="font-family:DejaVu Sans;font-size:15px;font-stretch:normal;font-style:normal;font-weight:normal;" transform="translate(495.581083 396.397656)">Nonhealthy</text>
      <text style="font-family:DejaVu Sans;font-size:15px;font-stretch:normal;font-style:normal;font-weight:normal;" transform="translate(511.390848 413.194375)"> (3112)</text>
     </g>
    </g>
   </g>
   <g id="matplotlib.axis_4">
    <g id="ytick_7">
     <g id="line2d_21">
      <path clip-path="url(#p2e8401d22d)" d="M 419.142857 371.682207 
L 578.571429 371.682207 
" style="fill:none;stroke:#b0b0b0;stroke-dasharray:2.775,1.2;stroke-dashoffset:0;stroke-width:0.75;"/>
     </g>
     <g id="line2d_22">
      <g>
       <use style="stroke:#000000;stroke-width:0.8;" x="419.142857" xlink:href="#mbea25803af" y="371.682207"/>
      </g>
     </g>
     <g id="text_14">
      <text style="font-family:DejaVu Sans;font-size:12px;font-stretch:normal;font-style:normal;font-weight:normal;text-anchor:end;" transform="rotate(-0, 412.142857, 376.24127)" x="412.142857" y="376.24127">−6</text>
     </g>
    </g>
    <g id="ytick_8">
     <g id="line2d_23">
      <path clip-path="url(#p2e8401d22d)" d="M 419.142857 318.892099 
L 578.571429 318.892099 
" style="fill:none;stroke:#b0b0b0;stroke-dasharray:2.775,1.2;stroke-dashoffset:0;stroke-width:0.75;"/>
     </g>
     <g id="line2d_24">
      <g>
       <use style="stroke:#000000;stroke-width:0.8;" x="419.142857" xlink:href="#mbea25803af" y="318.892099"/>
      </g>
     </g>
     <g id="text_15">
      <text style="font-family:DejaVu Sans;font-size:12px;font-stretch:normal;font-style:normal;font-weight:normal;text-anchor:end;" transform="rotate(-0, 412.142857, 323.451161)" x="412.142857" y="323.451161">−4</text>
     </g>
    </g>
    <g id="ytick_9">
     <g id="line2d_25">
      <path clip-path="url(#p2e8401d22d)" d="M 419.142857 266.10199 
L 578.571429 266.10199 
" style="fill:none;stroke:#b0b0b0;stroke-dasharray:2.775,1.2;stroke-dashoffset:0;stroke-width:0.75;"/>
     </g>
     <g id="line2d_26">
      <g>
       <use style="stroke:#000000;stroke-width:0.8;" x="419.142857" xlink:href="#mbea25803af" y="266.10199"/>
      </g>
     </g>
     <g id="text_16">
      <text style="font-family:DejaVu Sans;font-size:12px;font-stretch:normal;font-style:normal;font-weight:normal;text-anchor:end;" transform="rotate(-0, 412.142857, 270.661053)" x="412.142857" y="270.661053">−2</text>
     </g>
    </g>
    <g id="ytick_10">
     <g id="line2d_27">
      <path clip-path="url(#p2e8401d22d)" d="M 419.142857 213.311881 
L 578.571429 213.311881 
" style="fill:none;stroke:#b0b0b0;stroke-dasharray:2.775,1.2;stroke-dashoffset:0;stroke-width:0.75;"/>
     </g>
     <g id="line2d_28">
      <g>
       <use style="stroke:#000000;stroke-width:0.8;" x="419.142857" xlink:href="#mbea25803af" y="213.311881"/>
      </g>
     </g>
     <g id="text_17">
      <text style="font-family:DejaVu Sans;font-size:12px;font-stretch:normal;font-style:normal;font-weight:normal;text-anchor:end;" transform="rotate(-0, 412.142857, 217.870944)" x="412.142857" y="217.870944">0</text>
     </g>
    </g>
    <g id="ytick_11">
     <g id="line2d_29">
      <path clip-path="url(#p2e8401d22d)" d="M 419.142857 160.521773 
L 578.571429 160.521773 
" style="fill:none;stroke:#b0b0b0;stroke-dasharray:2.775,1.2;stroke-dashoffset:0;stroke-width:0.75;"/>
     </g>
     <g id="line2d_30">
      <g>
       <use style="stroke:#000000;stroke-width:0.8;" x="419.142857" xlink:href="#mbea25803af" y="160.521773"/>
      </g>
     </g>
     <g id="text_18">
      <text style="font-family:DejaVu Sans;font-size:12px;font-stretch:normal;font-style:normal;font-weight:normal;text-anchor:end;" transform="rotate(-0, 412.142857, 165.080835)" x="412.142857" y="165.080835">2</text>
     </g>
    </g>
    <g id="ytick_12">
     <g id="line2d_31">
      <path clip-path="url(#p2e8401d22d)" d="M 419.142857 107.731664 
L 578.571429 107.731664 
" style="fill:none;stroke:#b0b0b0;stroke-dasharray:2.775,1.2;stroke-dashoffset:0;stroke-width:0.75;"/>
     </g>
     <g id="line2d_32">
      <g>
       <use style="stroke:#000000;stroke-width:0.8;" x="419.142857" xlink:href="#mbea25803af" y="107.731664"/>
      </g>
     </g>
     <g id="text_19">
      <text style="font-family:DejaVu Sans;font-size:12px;font-stretch:normal;font-style:normal;font-weight:normal;text-anchor:end;" transform="rotate(-0, 412.142857, 112.290727)" x="412.142857" y="112.290727">4</text>
     </g>
    </g>
    <g id="ytick_13">
     <g id="line2d_33">
      <path clip-path="url(#p2e8401d22d)" d="M 419.142857 54.941556 
L 578.571429 54.941556 
" style="fill:none;stroke:#b0b0b0;stroke-dasharray:2.775,1.2;stroke-dashoffset:0;stroke-width:0.75;"/>
     </g>
     <g id="line2d_34">
      <g>
       <use style="stroke:#000000;stroke-width:0.8;" x="419.142857" xlink:href="#mbea25803af" y="54.941556"/>
      </g>
     </g>
     <g id="text_20">
      <text style="font-family:DejaVu Sans;font-size:12px;font-stretch:normal;font-style:normal;font-weight:normal;text-anchor:end;" transform="rotate(-0, 412.142857, 59.500618)" x="412.142857" y="59.500618">6</text>
     </g>
    </g>
    <g id="text_21">
     <text style="font-family:DejaVu Sans;font-size:20px;font-stretch:normal;font-style:normal;font-weight:normal;text-anchor:middle;" transform="rotate(-90, 386.292857, 214.92)" x="386.292857" y="214.92">GMHI</text>
    </g>
   </g>
   <g id="PolyCollection_3">
    <defs>
     <path d="M 459.020517 -81.234531 
L 458.979483 -81.234531 
L 458.953131 -84.0929 
L 458.902185 -86.95127 
L 458.813177 -89.809639 
L 458.672814 -92.668009 
L 458.473363 -95.526378 
L 458.218606 -98.384748 
L 457.927153 -101.243117 
L 457.630304 -104.101486 
L 457.364257 -106.959856 
L 457.15972 -109.818225 
L 457.033251 -112.676595 
L 456.983251 -115.534964 
L 456.991202 -118.393334 
L 457.027429 -121.251703 
L 457.060114 -124.110073 
L 457.065137 -126.968442 
L 457.032898 -129.826811 
L 456.968738 -132.685181 
L 456.886782 -135.54355 
L 456.800772 -138.40192 
L 456.7168 -141.260289 
L 456.631087 -144.118659 
L 456.532809 -146.977028 
L 456.409605 -149.835397 
L 456.252483 -152.693767 
L 456.057516 -155.552136 
L 455.823754 -158.410506 
L 455.5493 -161.268875 
L 455.22899 -164.127245 
L 454.855958 -166.985614 
L 454.426106 -169.843984 
L 453.941706 -172.702353 
L 453.410778 -175.560722 
L 452.842347 -178.419092 
L 452.241087 -181.277461 
L 451.605059 -184.135831 
L 450.927868 -186.9942 
L 450.203665 -189.85257 
L 449.431713 -192.710939 
L 448.616779 -195.569309 
L 447.763435 -198.427678 
L 446.867162 -201.286047 
L 445.910298 -204.144417 
L 444.869795 -207.002786 
L 443.734148 -209.861156 
L 442.516139 -212.719525 
L 441.248404 -215.577895 
L 439.962968 -218.436264 
L 438.671202 -221.294633 
L 437.361475 -224.153003 
L 436.01643 -227.011372 
L 434.635044 -229.869742 
L 433.242463 -232.728111 
L 431.883718 -235.586481 
L 430.611318 -238.44485 
L 429.477575 -241.30322 
L 428.531933 -244.161589 
L 427.815637 -247.019958 
L 427.350365 -249.878328 
L 427.128255 -252.736697 
L 427.114286 -255.595067 
L 427.263165 -258.453436 
L 427.540491 -261.311806 
L 427.9342 -264.170175 
L 428.450149 -267.028544 
L 429.097343 -269.886914 
L 429.874225 -272.745283 
L 430.764314 -275.603653 
L 431.741681 -278.462022 
L 432.780821 -281.320392 
L 433.864588 -284.178761 
L 434.986176 -287.037131 
L 436.14384 -289.8955 
L 437.329875 -292.753869 
L 438.519107 -295.612239 
L 439.664958 -298.470608 
L 440.708793 -301.328978 
L 441.599873 -304.187347 
L 442.314156 -307.045717 
L 442.859089 -309.904086 
L 443.261463 -312.762456 
L 443.549418 -315.620825 
L 443.745453 -318.479194 
L 443.878442 -321.337564 
L 444.00571 -324.195933 
L 444.22562 -327.054303 
L 444.66575 -329.912672 
L 445.447235 -332.771042 
L 446.640158 -335.629411 
L 448.229599 -338.48778 
L 450.107478 -341.34615 
L 452.095428 -344.204519 
L 453.992024 -347.062889 
L 455.62705 -349.921258 
L 456.901631 -352.779628 
L 457.799784 -355.637997 
L 458.371382 -358.496367 
L 458.699565 -361.354736 
L 458.869365 -364.213105 
L 459.130635 -364.213105 
L 459.130635 -364.213105 
L 459.300435 -361.354736 
L 459.628618 -358.496367 
L 460.200216 -355.637997 
L 461.098369 -352.779628 
L 462.37295 -349.921258 
L 464.007976 -347.062889 
L 465.904572 -344.204519 
L 467.892522 -341.34615 
L 469.770401 -338.48778 
L 471.359842 -335.629411 
L 472.552765 -332.771042 
L 473.33425 -329.912672 
L 473.77438 -327.054303 
L 473.99429 -324.195933 
L 474.121558 -321.337564 
L 474.254547 -318.479194 
L 474.450582 -315.620825 
L 474.738537 -312.762456 
L 475.140911 -309.904086 
L 475.685844 -307.045717 
L 476.400127 -304.187347 
L 477.291207 -301.328978 
L 478.335042 -298.470608 
L 479.480893 -295.612239 
L 480.670125 -292.753869 
L 481.85616 -289.8955 
L 483.013824 -287.037131 
L 484.135412 -284.178761 
L 485.219179 -281.320392 
L 486.258319 -278.462022 
L 487.235686 -275.603653 
L 488.125775 -272.745283 
L 488.902657 -269.886914 
L 489.549851 -267.028544 
L 490.0658 -264.170175 
L 490.459509 -261.311806 
L 490.736835 -258.453436 
L 490.885714 -255.595067 
L 490.871745 -252.736697 
L 490.649635 -249.878328 
L 490.184363 -247.019958 
L 489.468067 -244.161589 
L 488.522425 -241.30322 
L 487.388682 -238.44485 
L 486.116282 -235.586481 
L 484.757537 -232.728111 
L 483.364956 -229.869742 
L 481.98357 -227.011372 
L 480.638525 -224.153003 
L 479.328798 -221.294633 
L 478.037032 -218.436264 
L 476.751596 -215.577895 
L 475.483861 -212.719525 
L 474.265852 -209.861156 
L 473.130205 -207.002786 
L 472.089702 -204.144417 
L 471.132838 -201.286047 
L 470.236565 -198.427678 
L 469.383221 -195.569309 
L 468.568287 -192.710939 
L 467.796335 -189.85257 
L 467.072132 -186.9942 
L 466.394941 -184.135831 
L 465.758913 -181.277461 
L 465.157653 -178.419092 
L 464.589222 -175.560722 
L 464.058294 -172.702353 
L 463.573894 -169.843984 
L 463.144042 -166.985614 
L 462.77101 -164.127245 
L 462.4507 -161.268875 
L 462.176246 -158.410506 
L 461.942484 -155.552136 
L 461.747517 -152.693767 
L 461.590395 -149.835397 
L 461.467191 -146.977028 
L 461.368913 -144.118659 
L 461.2832 -141.260289 
L 461.199228 -138.40192 
L 461.113218 -135.54355 
L 461.031262 -132.685181 
L 460.967102 -129.826811 
L 460.934863 -126.968442 
L 460.939886 -124.110073 
L 460.972571 -121.251703 
L 461.008798 -118.393334 
L 461.016749 -115.534964 
L 460.966749 -112.676595 
L 460.84028 -109.818225 
L 460.635743 -106.959856 
L 460.369696 -104.101486 
L 460.072847 -101.243117 
L 459.781394 -98.384748 
L 459.526637 -95.526378 
L 459.327186 -92.668009 
L 459.186823 -89.809639 
L 459.097815 -86.95127 
L 459.046869 -84.0929 
L 459.020517 -81.234531 
z
" id="m23b249c98b" style="stroke:#4b4b4b;stroke-width:1.5;"/>
    </defs>
    <g clip-path="url(#p2e8401d22d)">
     <use style="fill:#5481a6;stroke:#4b4b4b;stroke-width:1.5;" x="0" xlink:href="#m23b249c98b" y="432"/>
    </g>
   </g>
   <g id="PolyCollection_4">
    <defs>
     <path d="M 538.783517 -68.825455 
L 538.645054 -68.825455 
L 538.564046 -71.820496 
L 538.410501 -74.815537 
L 538.141223 -77.810579 
L 537.704411 -80.80562 
L 537.049382 -83.800661 
L 536.142152 -86.795702 
L 534.98298 -89.790744 
L 533.61885 -92.785785 
L 532.143636 -95.780826 
L 530.682839 -98.775868 
L 529.36681 -101.770909 
L 528.302278 -104.76595 
L 527.552789 -107.760992 
L 527.13363 -110.756033 
L 527.019455 -113.751074 
L 527.157895 -116.746116 
L 527.482421 -119.741157 
L 527.921293 -122.736198 
L 528.403288 -125.73124 
L 528.862455 -128.726281 
L 529.243108 -131.721322 
L 529.504254 -134.716364 
L 529.62154 -137.711405 
L 529.585606 -140.706446 
L 529.397572 -143.701488 
L 529.06366 -146.696529 
L 528.59067 -149.69157 
L 527.982856 -152.686612 
L 527.240128 -155.681653 
L 526.357908 -158.676694 
L 525.3293 -161.671736 
L 524.149771 -164.666777 
L 522.82325 -167.661818 
L 521.367667 -170.65686 
L 519.817973 -173.651901 
L 518.22508 -176.646942 
L 516.649641 -179.641983 
L 515.150882 -182.637025 
L 513.773385 -185.632066 
L 512.537666 -188.627107 
L 511.440342 -191.622149 
L 510.464889 -194.61719 
L 509.597074 -197.612231 
L 508.83565 -200.607273 
L 508.192236 -203.602314 
L 507.682324 -206.597355 
L 507.315532 -209.592397 
L 507.092943 -212.587438 
L 507.013225 -215.582479 
L 507.082328 -218.577521 
L 507.319187 -221.572562 
L 507.752976 -224.567603 
L 508.413077 -227.562645 
L 509.316841 -230.557686 
L 510.460593 -233.552727 
L 511.817148 -236.547769 
L 513.34038 -239.54281 
L 514.975044 -242.537851 
L 516.668207 -245.532893 
L 518.37789 -248.527934 
L 520.07563 -251.522975 
L 521.742637 -254.518017 
L 523.362296 -257.513058 
L 524.913253 -260.508099 
L 526.366681 -263.50314 
L 527.689408 -266.498182 
L 528.852215 -269.493223 
L 529.840205 -272.488264 
L 530.660519 -275.483306 
L 531.343084 -278.478347 
L 531.933081 -281.473388 
L 532.477935 -284.46843 
L 533.014353 -287.463471 
L 533.560465 -290.458512 
L 534.115113 -293.453554 
L 534.662953 -296.448595 
L 535.182283 -299.443636 
L 535.65263 -302.438678 
L 536.060335 -305.433719 
L 536.401338 -308.42876 
L 536.680945 -311.423802 
L 536.910864 -314.418843 
L 537.104619 -317.413884 
L 537.273238 -320.408926 
L 537.423103 -323.403967 
L 537.556744 -326.399008 
L 537.6756 -329.39405 
L 537.782712 -332.389091 
L 537.883519 -335.384132 
L 537.984348 -338.379174 
L 538.089667 -341.374215 
L 538.199858 -344.369256 
L 538.310812 -347.364298 
L 538.415541 -350.359339 
L 538.506893 -353.35438 
L 538.580012 -356.349421 
L 538.633541 -359.344463 
L 538.669331 -362.339504 
L 538.69117 -365.334545 
L 538.737401 -365.334545 
L 538.737401 -365.334545 
L 538.759241 -362.339504 
L 538.79503 -359.344463 
L 538.84856 -356.349421 
L 538.921679 -353.35438 
L 539.01303 -350.359339 
L 539.11776 -347.364298 
L 539.228714 -344.369256 
L 539.338904 -341.374215 
L 539.444224 -338.379174 
L 539.545053 -335.384132 
L 539.64586 -332.389091 
L 539.752972 -329.39405 
L 539.871828 -326.399008 
L 540.005468 -323.403967 
L 540.155334 -320.408926 
L 540.323952 -317.413884 
L 540.517708 -314.418843 
L 540.747626 -311.423802 
L 541.027233 -308.42876 
L 541.368237 -305.433719 
L 541.775942 -302.438678 
L 542.246289 -299.443636 
L 542.765618 -296.448595 
L 543.313459 -293.453554 
L 543.868106 -290.458512 
L 544.414218 -287.463471 
L 544.950637 -284.46843 
L 545.495491 -281.473388 
L 546.085488 -278.478347 
L 546.768053 -275.483306 
L 547.588366 -272.488264 
L 548.576357 -269.493223 
L 549.739164 -266.498182 
L 551.061891 -263.50314 
L 552.515319 -260.508099 
L 554.066275 -257.513058 
L 555.685934 -254.518017 
L 557.352941 -251.522975 
L 559.050681 -248.527934 
L 560.760364 -245.532893 
L 562.453527 -242.537851 
L 564.088191 -239.54281 
L 565.611423 -236.547769 
L 566.967978 -233.552727 
L 568.111731 -230.557686 
L 569.015495 -227.562645 
L 569.675595 -224.567603 
L 570.109384 -221.572562 
L 570.346243 -218.577521 
L 570.415346 -215.582479 
L 570.335628 -212.587438 
L 570.11304 -209.592397 
L 569.746247 -206.597355 
L 569.236335 -203.602314 
L 568.592922 -200.607273 
L 567.831497 -197.612231 
L 566.963683 -194.61719 
L 565.988229 -191.622149 
L 564.890905 -188.627107 
L 563.655186 -185.632066 
L 562.277689 -182.637025 
L 560.778931 -179.641983 
L 559.203492 -176.646942 
L 557.610598 -173.651901 
L 556.060904 -170.65686 
L 554.605321 -167.661818 
L 553.2788 -164.666777 
L 552.099272 -161.671736 
L 551.070663 -158.676694 
L 550.188443 -155.681653 
L 549.445716 -152.686612 
L 548.837901 -149.69157 
L 548.364912 -146.696529 
L 548.031 -143.701488 
L 547.842965 -140.706446 
L 547.807032 -137.711405 
L 547.924318 -134.716364 
L 548.185463 -131.721322 
L 548.566116 -128.726281 
L 549.025283 -125.73124 
L 549.507279 -122.736198 
L 549.94615 -119.741157 
L 550.270676 -116.746116 
L 550.409116 -113.751074 
L 550.294941 -110.756033 
L 549.875783 -107.760992 
L 549.126294 -104.76595 
L 548.061762 -101.770909 
L 546.745732 -98.775868 
L 545.284936 -95.780826 
L 543.809722 -92.785785 
L 542.445591 -89.790744 
L 541.286419 -86.795702 
L 540.37919 -83.800661 
L 539.724161 -80.80562 
L 539.287349 -77.810579 
L 539.01807 -74.815537 
L 538.864525 -71.820496 
L 538.783517 -68.825455 
z
" id="ma533bf7be3" style="stroke:#4b4b4b;stroke-width:1.5;"/>
    </defs>
    <g clip-path="url(#p2e8401d22d)">
     <use style="fill:#df9c20;stroke:#4b4b4b;stroke-width:1.5;" x="0" xlink:href="#ma533bf7be3" y="432"/>
    </g>
   </g>
   <g id="line2d_35">
    <path clip-path="url(#p2e8401d22d)" d="M 459 292.398945 
L 459 84.63714 
" style="fill:none;stroke:#4b4b4b;stroke-linecap:square;stroke-width:1.5;"/>
   </g>
   <g id="line2d_36">
    <path clip-path="url(#p2e8401d22d)" d="M 459 202.86954 
L 459 142.684401 
" style="fill:none;stroke:#4b4b4b;stroke-linecap:square;stroke-width:4.5;"/>
   </g>
   <g id="line2d_37">
    <path clip-path="url(#p2e8401d22d)" d="M 538.714286 343.418193 
L 538.714286 105.230106 
" style="fill:none;stroke:#4b4b4b;stroke-linecap:square;stroke-width:1.5;"/>
   </g>
   <g id="line2d_38">
    <path clip-path="url(#p2e8401d22d)" d="M 538.714286 258.81203 
L 538.714286 197.293531 
" style="fill:none;stroke:#4b4b4b;stroke-linecap:square;stroke-width:4.5;"/>
   </g>
   <g id="patch_8">
    <path d="M 419.142857 378 
L 419.142857 51.84 
" style="fill:none;stroke:#000000;stroke-linecap:square;stroke-linejoin:miter;stroke-width:0.8;"/>
   </g>
   <g id="patch_9">
    <path d="M 578.571429 378 
L 578.571429 51.84 
" style="fill:none;stroke:#000000;stroke-linecap:square;stroke-linejoin:miter;stroke-width:0.8;"/>
   </g>
   <g id="patch_10">
    <path d="M 419.142857 378 
L 578.571429 378 
" style="fill:none;stroke:#000000;stroke-linecap:square;stroke-linejoin:miter;stroke-width:0.8;"/>
   </g>
   <g id="patch_11">
    <path d="M 419.142857 51.84 
L 578.571429 51.84 
" style="fill:none;stroke:#000000;stroke-linecap:square;stroke-linejoin:miter;stroke-width:0.8;"/>
   </g>
   <g id="PathCollection_3">
    <g clip-path="url(#p2e8401d22d)">
     <use style="fill:#ffffff;stroke:#4b4b4b;" x="459" xlink:href="#m1f5e8cd2ff" y="173.742354"/>
    </g>
   </g>
   <g id="PathCollection_4">
    <g clip-path="url(#p2e8401d22d)">
     <use style="fill:#ffffff;stroke:#4b4b4b;" x="538.714286" xlink:href="#m1f5e8cd2ff" y="225.173704"/>
    </g>
   </g>
   <g id="text_22">
    <!-- P $&lt;$ 5e-324 -->
    <g transform="translate(456.927143 68.148)">
     <text>
      <tspan style="font-family:DejaVu Sans;font-size:14px;font-style:book;font-weight:book;" x="0 8.442383 15.620117 30.078125 34.52832 43.435547 52.048828 57.100586 66.007812 74.915039" y="-0.609375">P &lt; 5e-324</tspan>
     </text>
    </g>
   </g>
   <g id="text_23">
    <text style="font-family:DejaVu Sans;font-size:14px;font-stretch:normal;font-style:normal;font-weight:normal;text-anchor:middle;" transform="rotate(-0, 498.857143, 81.1944)" x="498.857143" y="81.1944">d = 0.59</text>
   </g>
  </g>
  <g id="axes_3">
   <g id="patch_12">
    <path d="M 658.285714 378 
L 817.714286 378 
L 817.714286 51.84 
L 658.285714 51.84 
z
" style="fill:#ffffff;"/>
   </g>
   <g id="matplotlib.axis_5">
    <g id="xtick_5">
     <g id="line2d_39">
      <g>
       <use style="stroke:#000000;stroke-width:0.8;" x="698.142857" xlink:href="#m09e1142321" y="378"/>
      </g>
     </g>
     <g id="text_24">
      <text style="font-family:DejaVu Sans;font-size:15px;font-stretch:normal;font-style:normal;font-weight:normal;" transform="translate(669.07567 396.397656)">Healthy</text>
      <text style="font-family:DejaVu Sans;font-size:15px;font-stretch:normal;font-style:normal;font-weight:normal;" transform="translate(670.81942 413.194375)"> (5757)</text>
     </g>
    </g>
    <g id="xtick_6">
     <g id="line2d_40">
      <g>
       <use style="stroke:#000000;stroke-width:0.8;" x="777.857143" xlink:href="#m09e1142321" y="378"/>
      </g>
     </g>
     <g id="text_25">
      <text style="font-family:DejaVu Sans;font-size:15px;font-stretch:normal;font-style:normal;font-weight:normal;" transform="translate(734.72394 396.397656)">Nonhealthy</text>
      <text style="font-family:DejaVu Sans;font-size:15px;font-stretch:normal;font-style:normal;font-weight:normal;" transform="translate(750.533705 413.194375)"> (3112)</text>
     </g>
    </g>
   </g>
   <g id="matplotlib.axis_6">
    <g id="ytick_14">
     <g id="line2d_41">
      <path clip-path="url(#p9803db3a39)" d="M 658.285714 360.50198 
L 817.714286 360.50198 
" style="fill:none;stroke:#b0b0b0;stroke-dasharray:2.775,1.2;stroke-dashoffset:0;stroke-width:0.75;"/>
     </g>
     <g id="line2d_42">
      <g>
       <use style="stroke:#000000;stroke-width:0.8;" x="658.285714" xlink:href="#mbea25803af" y="360.50198"/>
      </g>
     </g>
     <g id="text_26">
      <text style="font-family:DejaVu Sans;font-size:12px;font-stretch:normal;font-style:normal;font-weight:normal;text-anchor:end;" transform="rotate(-0, 651.285714, 365.061043)" x="651.285714" y="365.061043">0</text>
     </g>
    </g>
    <g id="ytick_15">
     <g id="line2d_43">
      <path clip-path="url(#p9803db3a39)" d="M 658.285714 290.765727 
L 817.714286 290.765727 
" style="fill:none;stroke:#b0b0b0;stroke-dasharray:2.775,1.2;stroke-dashoffset:0;stroke-width:0.75;"/>
     </g>
     <g id="line2d_44">
      <g>
       <use style="stroke:#000000;stroke-width:0.8;" x="658.285714" xlink:href="#mbea25803af" y="290.765727"/>
      </g>
     </g>
     <g id="text_27">
      <text style="font-family:DejaVu Sans;font-size:12px;font-stretch:normal;font-style:normal;font-weight:normal;text-anchor:end;" transform="rotate(-0, 651.285714, 295.324789)" x="651.285714" y="295.324789">1</text>
     </g>
    </g>
    <g id="ytick_16">
     <g id="line2d_45">
      <path clip-path="url(#p9803db3a39)" d="M 658.285714 221.029473 
L 817.714286 221.029473 
" style="fill:none;stroke:#b0b0b0;stroke-dasharray:2.775,1.2;stroke-dashoffset:0;stroke-width:0.75;"/>
     </g>
     <g id="line2d_46">
      <g>
       <use style="stroke:#000000;stroke-width:0.8;" x="658.285714" xlink:href="#mbea25803af" y="221.029473"/>
      </g>
     </g>
     <g id="text_28">
      <text style="font-family:DejaVu Sans;font-size:12px;font-stretch:normal;font-style:normal;font-weight:normal;text-anchor:end;" transform="rotate(-0, 651.285714, 225.588536)" x="651.285714" y="225.588536">2</text>
     </g>
    </g>
    <g id="ytick_17">
     <g id="line2d_47">
      <path clip-path="url(#p9803db3a39)" d="M 658.285714 151.29322 
L 817.714286 151.29322 
" style="fill:none;stroke:#b0b0b0;stroke-dasharray:2.775,1.2;stroke-dashoffset:0;stroke-width:0.75;"/>
     </g>
     <g id="line2d_48">
      <g>
       <use style="stroke:#000000;stroke-width:0.8;" x="658.285714" xlink:href="#mbea25803af" y="151.29322"/>
      </g>
     </g>
     <g id="text_29">
      <text style="font-family:DejaVu Sans;font-size:12px;font-stretch:normal;font-style:normal;font-weight:normal;text-anchor:end;" transform="rotate(-0, 651.285714, 155.852283)" x="651.285714" y="155.852283">3</text>
     </g>
    </g>
    <g id="ytick_18">
     <g id="line2d_49">
      <path clip-path="url(#p9803db3a39)" d="M 658.285714 81.556967 
L 817.714286 81.556967 
" style="fill:none;stroke:#b0b0b0;stroke-dasharray:2.775,1.2;stroke-dashoffset:0;stroke-width:0.75;"/>
     </g>
     <g id="line2d_50">
      <g>
       <use style="stroke:#000000;stroke-width:0.8;" x="658.285714" xlink:href="#mbea25803af" y="81.556967"/>
      </g>
     </g>
     <g id="text_30">
      <text style="font-family:DejaVu Sans;font-size:12px;font-stretch:normal;font-style:normal;font-weight:normal;text-anchor:end;" transform="rotate(-0, 651.285714, 86.116029)" x="651.285714" y="86.116029">4</text>
     </g>
    </g>
    <g id="text_31">
     <text style="font-family:DejaVu Sans;font-size:20px;font-stretch:normal;font-style:normal;font-weight:normal;text-anchor:middle;" transform="rotate(-90, 635.491339, 214.92)" x="635.491339" y="214.92">Shannon Diversity</text>
    </g>
   </g>
   <g id="PolyCollection_5">
    <defs>
     <path d="M 698.150601 -68.825455 
L 698.135113 -68.825455 
L 698.124809 -71.816952 
L 698.107179 -74.80845 
L 698.082839 -77.799947 
L 698.056506 -80.791445 
L 698.035618 -83.782942 
L 698.02572 -86.77444 
L 698.025745 -89.765937 
L 698.027477 -92.757435 
L 698.020466 -95.748933 
L 697.998972 -98.74043 
L 697.965394 -101.731928 
L 697.927227 -104.723425 
L 697.890137 -107.714923 
L 697.853041 -110.70642 
L 697.808373 -113.697918 
L 697.746027 -116.689415 
L 697.658484 -119.680913 
L 697.546069 -122.672411 
L 697.42002 -125.663908 
L 697.299523 -128.655406 
L 697.202914 -131.646903 
L 697.138967 -134.638401 
L 697.103289 -137.629898 
L 697.079719 -140.621396 
L 697.045415 -143.612893 
L 696.978899 -146.604391 
L 696.867647 -149.595889 
L 696.711046 -152.587386 
L 696.519683 -155.578884 
L 696.314759 -158.570381 
L 696.126133 -161.561879 
L 695.982601 -164.553376 
L 695.893875 -167.544874 
L 695.837781 -170.536371 
L 695.770471 -173.527869 
L 695.658293 -176.519366 
L 695.502799 -179.510864 
L 695.331066 -182.502362 
L 695.158822 -185.493859 
L 694.963664 -188.485357 
L 694.694198 -191.476854 
L 694.305231 -194.468352 
L 693.791111 -197.459849 
L 693.198086 -200.451347 
L 692.610013 -203.442844 
L 692.111037 -206.434342 
L 691.741978 -209.42584 
L 691.476927 -212.417337 
L 691.235959 -215.408835 
L 690.925035 -218.400332 
L 690.477999 -221.39183 
L 689.87752 -224.383327 
L 689.146937 -227.374825 
L 688.323734 -230.366322 
L 687.434377 -233.35782 
L 686.483843 -236.349318 
L 685.463111 -239.340815 
L 684.370427 -242.332313 
L 683.230645 -245.32381 
L 682.090708 -248.315308 
L 680.988476 -251.306805 
L 679.922416 -254.298303 
L 678.852673 -257.2898 
L 677.734662 -260.281298 
L 676.558567 -263.272796 
L 675.364641 -266.264293 
L 674.221107 -269.255791 
L 673.178428 -272.247288 
L 672.233607 -275.238786 
L 671.330629 -278.230283 
L 670.394955 -281.221781 
L 669.381626 -284.213278 
L 668.316527 -287.204776 
L 667.313842 -290.196274 
L 666.558164 -293.187771 
L 666.257143 -296.179269 
L 666.588912 -299.170766 
L 667.664533 -302.162264 
L 669.505627 -305.153761 
L 672.032205 -308.145259 
L 675.068829 -311.136756 
L 678.379842 -314.128254 
L 681.724868 -317.119752 
L 684.907311 -320.111249 
L 687.794063 -323.102747 
L 690.30854 -326.094244 
L 692.415662 -329.085742 
L 694.112138 -332.077239 
L 695.420862 -335.068737 
L 696.384075 -338.060234 
L 697.055762 -341.051732 
L 697.496234 -344.04323 
L 697.767618 -347.034727 
L 697.927183 -350.026225 
L 698.019845 -353.017722 
L 698.074662 -356.00922 
L 698.107402 -359.000717 
L 698.126175 -361.992215 
L 698.135942 -364.983712 
L 698.149772 -364.983712 
L 698.149772 -364.983712 
L 698.15954 -361.992215 
L 698.178312 -359.000717 
L 698.211053 -356.00922 
L 698.26587 -353.017722 
L 698.358531 -350.026225 
L 698.518097 -347.034727 
L 698.78948 -344.04323 
L 699.229952 -341.051732 
L 699.901639 -338.060234 
L 700.864853 -335.068737 
L 702.173577 -332.077239 
L 703.870052 -329.085742 
L 705.977175 -326.094244 
L 708.491651 -323.102747 
L 711.378403 -320.111249 
L 714.560846 -317.119752 
L 717.905872 -314.128254 
L 721.216885 -311.136756 
L 724.253509 -308.145259 
L 726.780087 -305.153761 
L 728.621181 -302.162264 
L 729.696802 -299.170766 
L 730.028571 -296.179269 
L 729.72755 -293.187771 
L 728.971873 -290.196274 
L 727.969187 -287.204776 
L 726.904088 -284.213278 
L 725.890759 -281.221781 
L 724.955085 -278.230283 
L 724.052107 -275.238786 
L 723.107287 -272.247288 
L 722.064607 -269.255791 
L 720.921074 -266.264293 
L 719.727147 -263.272796 
L 718.551052 -260.281298 
L 717.433041 -257.2898 
L 716.363298 -254.298303 
L 715.297238 -251.306805 
L 714.195006 -248.315308 
L 713.05507 -245.32381 
L 711.915287 -242.332313 
L 710.822603 -239.340815 
L 709.801871 -236.349318 
L 708.851337 -233.35782 
L 707.96198 -230.366322 
L 707.138777 -227.374825 
L 706.408194 -224.383327 
L 705.807715 -221.39183 
L 705.360679 -218.400332 
L 705.049756 -215.408835 
L 704.808787 -212.417337 
L 704.543736 -209.42584 
L 704.174677 -206.434342 
L 703.675701 -203.442844 
L 703.087628 -200.451347 
L 702.494603 -197.459849 
L 701.980483 -194.468352 
L 701.591516 -191.476854 
L 701.32205 -188.485357 
L 701.126892 -185.493859 
L 700.954648 -182.502362 
L 700.782915 -179.510864 
L 700.627421 -176.519366 
L 700.515243 -173.527869 
L 700.447933 -170.536371 
L 700.391839 -167.544874 
L 700.303114 -164.553376 
L 700.159581 -161.561879 
L 699.970955 -158.570381 
L 699.766031 -155.578884 
L 699.574669 -152.587386 
L 699.418067 -149.595889 
L 699.306815 -146.604391 
L 699.2403 -143.612893 
L 699.205995 -140.621396 
L 699.182425 -137.629898 
L 699.146747 -134.638401 
L 699.082801 -131.646903 
L 698.986192 -128.655406 
L 698.865694 -125.663908 
L 698.739645 -122.672411 
L 698.627231 -119.680913 
L 698.539687 -116.689415 
L 698.477341 -113.697918 
L 698.432674 -110.70642 
L 698.395577 -107.714923 
L 698.358487 -104.723425 
L 698.32032 -101.731928 
L 698.286742 -98.74043 
L 698.265248 -95.748933 
L 698.258238 -92.757435 
L 698.25997 -89.765937 
L 698.259994 -86.77444 
L 698.250097 -83.782942 
L 698.229209 -80.791445 
L 698.202875 -77.799947 
L 698.178535 -74.80845 
L 698.160905 -71.816952 
L 698.150601 -68.825455 
z
" id="md222d61716" style="stroke:#4b4b4b;stroke-width:1.5;"/>
    </defs>
    <g clip-path="url(#p9803db3a39)">
     <use style="fill:#5481a6;stroke:#4b4b4b;stroke-width:1.5;" x="0" xlink:href="#md222d61716" y="432"/>
    </g>
   </g>
   <g id="PolyCollection_6">
    <defs>
     <path d="M 777.873738 -73.557296 
L 777.840547 -73.557296 
L 777.824281 -76.504541 
L 777.799312 -79.451786 
L 777.766126 -82.399031 
L 777.727876 -85.346276 
L 777.689428 -88.293521 
L 777.655335 -91.240766 
L 777.62822 -94.188011 
L 777.608572 -97.135256 
L 777.595363 -100.082501 
L 777.586131 -103.029746 
L 777.576321 -105.976991 
L 777.559205 -108.924236 
L 777.527641 -111.871481 
L 777.477209 -114.818726 
L 777.408715 -117.765971 
L 777.32785 -120.713216 
L 777.24101 -123.66046 
L 777.148829 -126.607705 
L 777.04176 -129.55495 
L 776.902602 -132.502195 
L 776.717034 -135.44944 
L 776.486392 -138.396685 
L 776.232886 -141.34393 
L 775.991223 -144.291175 
L 775.790812 -147.23842 
L 775.640861 -150.185665 
L 775.528794 -153.13291 
L 775.43172 -156.080155 
L 775.330708 -159.0274 
L 775.217353 -161.974645 
L 775.090467 -164.92189 
L 774.948784 -167.869135 
L 774.786594 -170.816379 
L 774.594259 -173.763624 
L 774.361411 -176.710869 
L 774.080392 -179.658114 
L 773.749012 -182.605359 
L 773.371914 -185.552604 
L 772.959373 -188.499849 
L 772.523011 -191.447094 
L 772.069277 -194.394339 
L 771.593198 -197.341584 
L 771.077008 -200.288829 
L 770.498031 -203.236074 
L 769.843787 -206.183319 
L 769.123154 -209.130564 
L 768.361655 -212.077809 
L 767.581363 -215.025054 
L 766.780925 -217.972299 
L 765.933471 -220.919543 
L 765.006899 -223.866788 
L 763.993684 -226.814033 
L 762.929392 -229.761278 
L 761.885009 -232.708523 
L 760.933837 -235.655768 
L 760.110386 -238.603013 
L 759.386483 -241.550258 
L 758.682066 -244.497503 
L 757.907907 -247.444748 
L 757.016728 -250.391993 
L 756.031991 -253.339238 
L 755.036195 -256.286483 
L 754.12633 -259.233728 
L 753.365963 -262.180973 
L 752.764442 -265.128218 
L 752.292181 -268.075462 
L 751.914786 -271.022707 
L 751.619526 -273.969952 
L 751.420197 -276.917197 
L 751.345141 -279.864442 
L 751.422118 -282.811687 
L 751.671076 -285.758932 
L 752.108618 -288.706177 
L 752.759267 -291.653422 
L 753.661368 -294.600667 
L 754.857114 -297.547912 
L 756.369739 -300.495157 
L 758.183962 -303.442402 
L 760.243418 -306.389647 
L 762.463881 -309.336892 
L 764.750317 -312.284137 
L 767.008291 -315.231381 
L 769.149272 -318.178626 
L 771.094749 -321.125871 
L 772.782867 -324.073116 
L 774.176754 -327.020361 
L 775.270021 -329.967606 
L 776.085286 -332.914851 
L 776.66565 -335.862096 
L 777.06305 -338.809341 
L 777.328017 -341.756586 
L 777.503154 -344.703831 
L 777.62036 -347.651076 
L 777.700908 -350.598321 
L 777.757433 -353.545566 
L 777.796866 -356.492811 
L 777.823262 -359.440056 
L 777.839695 -362.387301 
L 777.849001 -365.334545 
L 777.865285 -365.334545 
L 777.865285 -365.334545 
L 777.874591 -362.387301 
L 777.891024 -359.440056 
L 777.91742 -356.492811 
L 777.956853 -353.545566 
L 778.013378 -350.598321 
L 778.093926 -347.651076 
L 778.211132 -344.703831 
L 778.386269 -341.756586 
L 778.651236 -338.809341 
L 779.048636 -335.862096 
L 779.629 -332.914851 
L 780.444264 -329.967606 
L 781.537532 -327.020361 
L 782.931419 -324.073116 
L 784.619537 -321.125871 
L 786.565013 -318.178626 
L 788.705995 -315.231381 
L 790.963968 -312.284137 
L 793.250405 -309.336892 
L 795.470868 -306.389647 
L 797.530323 -303.442402 
L 799.344547 -300.495157 
L 800.857172 -297.547912 
L 802.052918 -294.600667 
L 802.955019 -291.653422 
L 803.605668 -288.706177 
L 804.043209 -285.758932 
L 804.292168 -282.811687 
L 804.369144 -279.864442 
L 804.294089 -276.917197 
L 804.09476 -273.969952 
L 803.7995 -271.022707 
L 803.422105 -268.075462 
L 802.949844 -265.128218 
L 802.348322 -262.180973 
L 801.587956 -259.233728 
L 800.678091 -256.286483 
L 799.682295 -253.339238 
L 798.697557 -250.391993 
L 797.806378 -247.444748 
L 797.03222 -244.497503 
L 796.327803 -241.550258 
L 795.603899 -238.603013 
L 794.780449 -235.655768 
L 793.829276 -232.708523 
L 792.784894 -229.761278 
L 791.720602 -226.814033 
L 790.707387 -223.866788 
L 789.780815 -220.919543 
L 788.933361 -217.972299 
L 788.132923 -215.025054 
L 787.352631 -212.077809 
L 786.591131 -209.130564 
L 785.870498 -206.183319 
L 785.216255 -203.236074 
L 784.637278 -200.288829 
L 784.121088 -197.341584 
L 783.645009 -194.394339 
L 783.191274 -191.447094 
L 782.754913 -188.499849 
L 782.342371 -185.552604 
L 781.965274 -182.605359 
L 781.633894 -179.658114 
L 781.352874 -176.710869 
L 781.120027 -173.763624 
L 780.927692 -170.816379 
L 780.765502 -167.869135 
L 780.623819 -164.92189 
L 780.496932 -161.974645 
L 780.383578 -159.0274 
L 780.282565 -156.080155 
L 780.185492 -153.13291 
L 780.073425 -150.185665 
L 779.923473 -147.23842 
L 779.723063 -144.291175 
L 779.481399 -141.34393 
L 779.227893 -138.396685 
L 778.997252 -135.44944 
L 778.811683 -132.502195 
L 778.672525 -129.55495 
L 778.565456 -126.607705 
L 778.473276 -123.66046 
L 778.386435 -120.713216 
L 778.305571 -117.765971 
L 778.237077 -114.818726 
L 778.186644 -111.871481 
L 778.155081 -108.924236 
L 778.137965 -105.976991 
L 778.128155 -103.029746 
L 778.118923 -100.082501 
L 778.105714 -97.135256 
L 778.086066 -94.188011 
L 778.058951 -91.240766 
L 778.024858 -88.293521 
L 777.98641 -85.346276 
L 777.94816 -82.399031 
L 777.914974 -79.451786 
L 777.890004 -76.504541 
L 777.873738 -73.557296 
z
" id="mcb7b5ae745" style="stroke:#4b4b4b;stroke-width:1.5;"/>
    </defs>
    <g clip-path="url(#p9803db3a39)">
     <use style="fill:#df9c20;stroke:#4b4b4b;stroke-width:1.5;" x="0" xlink:href="#mcb7b5ae745" y="432"/>
    </g>
   </g>
   <g id="line2d_51">
    <path clip-path="url(#p9803db3a39)" d="M 698.142857 255.76612 
L 698.142857 81.217495 
" style="fill:none;stroke:#4b4b4b;stroke-linecap:square;stroke-width:1.5;"/>
   </g>
   <g id="line2d_52">
    <path clip-path="url(#p9803db3a39)" d="M 698.142857 182.170241 
L 698.142857 133.021665 
" style="fill:none;stroke:#4b4b4b;stroke-linecap:square;stroke-width:4.5;"/>
   </g>
   <g id="line2d_53">
    <path clip-path="url(#p9803db3a39)" d="M 777.857143 275.966548 
L 777.857143 83.005091 
" style="fill:none;stroke:#4b4b4b;stroke-linecap:square;stroke-width:1.5;"/>
   </g>
   <g id="line2d_54">
    <path clip-path="url(#p9803db3a39)" d="M 777.857143 196.428665 
L 777.857143 143.348485 
" style="fill:none;stroke:#4b4b4b;stroke-linecap:square;stroke-width:4.5;"/>
   </g>
   <g id="patch_13">
    <path d="M 658.285714 378 
L 658.285714 51.84 
" style="fill:none;stroke:#000000;stroke-linecap:square;stroke-linejoin:miter;stroke-width:0.8;"/>
   </g>
   <g id="patch_14">
    <path d="M 817.714286 378 
L 817.714286 51.84 
" style="fill:none;stroke:#000000;stroke-linecap:square;stroke-linejoin:miter;stroke-width:0.8;"/>
   </g>
   <g id="patch_15">
    <path d="M 658.285714 378 
L 817.714286 378 
" style="fill:none;stroke:#000000;stroke-linecap:square;stroke-linejoin:miter;stroke-width:0.8;"/>
   </g>
   <g id="patch_16">
    <path d="M 658.285714 51.84 
L 817.714286 51.84 
" style="fill:none;stroke:#000000;stroke-linecap:square;stroke-linejoin:miter;stroke-width:0.8;"/>
   </g>
   <g id="PathCollection_5">
    <g clip-path="url(#p9803db3a39)">
     <use style="fill:#ffffff;stroke:#4b4b4b;" x="698.142857" xlink:href="#m1f5e8cd2ff" y="153.694098"/>
    </g>
   </g>
   <g id="PathCollection_6">
    <g clip-path="url(#p9803db3a39)">
     <use style="fill:#ffffff;stroke:#4b4b4b;" x="777.857143" xlink:href="#m1f5e8cd2ff" y="167.028985"/>
    </g>
   </g>
   <g id="text_32">
    <text style="font-family:DejaVu Sans;font-size:14px;font-stretch:normal;font-style:normal;font-weight:normal;text-anchor:middle;" transform="rotate(-0, 738, 68.148)" x="738" y="68.148">P = 3.38e-46</text>
   </g>
   <g id="text_33">
    <text style="font-family:DejaVu Sans;font-size:14px;font-stretch:normal;font-style:normal;font-weight:normal;text-anchor:middle;" transform="rotate(-0, 738, 81.1944)" x="738" y="81.1944">d = 0.18</text>
   </g>
  </g>
  <g id="axes_4">
   <g id="patch_17">
    <path d="M 897.428571 378 
L 1056.857143 378 
L 1056.857143 51.84 
L 897.428571 51.84 
z
" style="fill:#ffffff;"/>
   </g>
   <g id="matplotlib.axis_7">
    <g id="xtick_7">
     <g id="line2d_55">
      <g>
       <use style="stroke:#000000;stroke-width:0.8;" x="937.285714" xlink:href="#m09e1142321" y="378"/>
      </g>
     </g>
     <g id="text_34">
      <text style="font-family:DejaVu Sans;font-size:15px;font-stretch:normal;font-style:normal;font-weight:normal;" transform="translate(908.218527 396.397656)">Healthy</text>
      <text style="font-family:DejaVu Sans;font-size:15px;font-stretch:normal;font-style:normal;font-weight:normal;" transform="translate(909.962277 413.194375)"> (5757)</text>
     </g>
    </g>
    <g id="xtick_8">
     <g id="line2d_56">
      <g>
       <use style="stroke:#000000;stroke-width:0.8;" x="1017" xlink:href="#m09e1142321" y="378"/>
      </g>
     </g>
     <g id="text_35">
      <text style="font-family:DejaVu Sans;font-size:15px;font-stretch:normal;font-style:normal;font-weight:normal;" transform="translate(973.866797 396.397656)">Nonhealthy</text>
      <text style="font-family:DejaVu Sans;font-size:15px;font-stretch:normal;font-style:normal;font-weight:normal;" transform="translate(989.676563 413.194375)"> (3112)</text>
     </g>
    </g>
   </g>
   <g id="matplotlib.axis_8">
    <g id="ytick_19">
     <g id="line2d_57">
      <path clip-path="url(#pd5244888c4)" d="M 897.428571 356.488661 
L 1056.857143 356.488661 
" style="fill:none;stroke:#b0b0b0;stroke-dasharray:2.775,1.2;stroke-dashoffset:0;stroke-width:0.75;"/>
     </g>
     <g id="line2d_58">
      <g>
       <use style="stroke:#000000;stroke-width:0.8;" x="897.428571" xlink:href="#mbea25803af" y="356.488661"/>
      </g>
     </g>
     <g id="text_36">
      <text style="font-family:DejaVu Sans;font-size:12px;font-stretch:normal;font-style:normal;font-weight:normal;text-anchor:end;" transform="rotate(-0, 890.428571, 361.047724)" x="890.428571" y="361.047724">0</text>
     </g>
    </g>
    <g id="ytick_20">
     <g id="line2d_59">
      <path clip-path="url(#pd5244888c4)" d="M 897.428571 306.582526 
L 1056.857143 306.582526 
" style="fill:none;stroke:#b0b0b0;stroke-dasharray:2.775,1.2;stroke-dashoffset:0;stroke-width:0.75;"/>
     </g>
     <g id="line2d_60">
      <g>
       <use style="stroke:#000000;stroke-width:0.8;" x="897.428571" xlink:href="#mbea25803af" y="306.582526"/>
      </g>
     </g>
     <g id="text_37">
      <text style="font-family:DejaVu Sans;font-size:12px;font-stretch:normal;font-style:normal;font-weight:normal;text-anchor:end;" transform="rotate(-0, 890.428571, 311.141588)" x="890.428571" y="311.141588">50</text>
     </g>
    </g>
    <g id="ytick_21">
     <g id="line2d_61">
      <path clip-path="url(#pd5244888c4)" d="M 897.428571 256.67639 
L 1056.857143 256.67639 
" style="fill:none;stroke:#b0b0b0;stroke-dasharray:2.775,1.2;stroke-dashoffset:0;stroke-width:0.75;"/>
     </g>
     <g id="line2d_62">
      <g>
       <use style="stroke:#000000;stroke-width:0.8;" x="897.428571" xlink:href="#mbea25803af" y="256.67639"/>
      </g>
     </g>
     <g id="text_38">
      <text style="font-family:DejaVu Sans;font-size:12px;font-stretch:normal;font-style:normal;font-weight:normal;text-anchor:end;" transform="rotate(-0, 890.428571, 261.235452)" x="890.428571" y="261.235452">100</text>
     </g>
    </g>
    <g id="ytick_22">
     <g id="line2d_63">
      <path clip-path="url(#pd5244888c4)" d="M 897.428571 206.770254 
L 1056.857143 206.770254 
" style="fill:none;stroke:#b0b0b0;stroke-dasharray:2.775,1.2;stroke-dashoffset:0;stroke-width:0.75;"/>
     </g>
     <g id="line2d_64">
      <g>
       <use style="stroke:#000000;stroke-width:0.8;" x="897.428571" xlink:href="#mbea25803af" y="206.770254"/>
      </g>
     </g>
     <g id="text_39">
      <text style="font-family:DejaVu Sans;font-size:12px;font-stretch:normal;font-style:normal;font-weight:normal;text-anchor:end;" transform="rotate(-0, 890.428571, 211.329317)" x="890.428571" y="211.329317">150</text>
     </g>
    </g>
    <g id="ytick_23">
     <g id="line2d_65">
      <path clip-path="url(#pd5244888c4)" d="M 897.428571 156.864118 
L 1056.857143 156.864118 
" style="fill:none;stroke:#b0b0b0;stroke-dasharray:2.775,1.2;stroke-dashoffset:0;stroke-width:0.75;"/>
     </g>
     <g id="line2d_66">
      <g>
       <use style="stroke:#000000;stroke-width:0.8;" x="897.428571" xlink:href="#mbea25803af" y="156.864118"/>
      </g>
     </g>
     <g id="text_40">
      <text style="font-family:DejaVu Sans;font-size:12px;font-stretch:normal;font-style:normal;font-weight:normal;text-anchor:end;" transform="rotate(-0, 890.428571, 161.423181)" x="890.428571" y="161.423181">200</text>
     </g>
    </g>
    <g id="ytick_24">
     <g id="line2d_67">
      <path clip-path="url(#pd5244888c4)" d="M 897.428571 106.957983 
L 1056.857143 106.957983 
" style="fill:none;stroke:#b0b0b0;stroke-dasharray:2.775,1.2;stroke-dashoffset:0;stroke-width:0.75;"/>
     </g>
     <g id="line2d_68">
      <g>
       <use style="stroke:#000000;stroke-width:0.8;" x="897.428571" xlink:href="#mbea25803af" y="106.957983"/>
      </g>
     </g>
     <g id="text_41">
      <text style="font-family:DejaVu Sans;font-size:12px;font-stretch:normal;font-style:normal;font-weight:normal;text-anchor:end;" transform="rotate(-0, 890.428571, 111.517045)" x="890.428571" y="111.517045">250</text>
     </g>
    </g>
    <g id="ytick_25">
     <g id="line2d_69">
      <path clip-path="url(#pd5244888c4)" d="M 897.428571 57.051847 
L 1056.857143 57.051847 
" style="fill:none;stroke:#b0b0b0;stroke-dasharray:2.775,1.2;stroke-dashoffset:0;stroke-width:0.75;"/>
     </g>
     <g id="line2d_70">
      <g>
       <use style="stroke:#000000;stroke-width:0.8;" x="897.428571" xlink:href="#mbea25803af" y="57.051847"/>
      </g>
     </g>
     <g id="text_42">
      <text style="font-family:DejaVu Sans;font-size:12px;font-stretch:normal;font-style:normal;font-weight:normal;text-anchor:end;" transform="rotate(-0, 890.428571, 61.610909)" x="890.428571" y="61.610909">300</text>
     </g>
    </g>
    <g id="text_43">
     <text style="font-family:DejaVu Sans;font-size:20px;font-stretch:normal;font-style:normal;font-weight:normal;text-anchor:middle;" transform="rotate(-90, 859.364196, 214.92)" x="859.364196" y="214.92">Species Richness</text>
    </g>
   </g>
   <g id="PolyCollection_7">
    <defs>
     <path d="M 937.28978 -81.132455 
L 937.281648 -81.132455 
L 937.271708 -84.003183 
L 937.250798 -86.873912 
L 937.211432 -89.74464 
L 937.128262 -92.615368 
L 936.953588 -95.486096 
L 936.652716 -98.356824 
L 936.26842 -101.227553 
L 935.907295 -104.098281 
L 935.588597 -106.969009 
L 935.184491 -109.839737 
L 934.567892 -112.710465 
L 933.756786 -115.581194 
L 932.920594 -118.451922 
L 932.177415 -121.32265 
L 931.423967 -124.193378 
L 930.523099 -127.064106 
L 929.466416 -129.934834 
L 928.252404 -132.805563 
L 926.756718 -135.676291 
L 924.72845 -138.547019 
L 922.070047 -141.417747 
L 919.23888 -144.288475 
L 916.969565 -147.159204 
L 915.414671 -150.029932 
L 913.879858 -152.90066 
L 911.694433 -155.771388 
L 909.158592 -158.642116 
L 907.111781 -161.512844 
L 905.898185 -164.383573 
L 905.4 -167.254301 
L 905.645044 -170.125029 
L 906.847625 -172.995757 
L 909.004386 -175.866485 
L 911.665154 -178.737214 
L 914.22379 -181.607942 
L 916.468335 -184.47867 
L 918.625891 -187.349398 
L 920.930286 -190.220126 
L 923.343154 -193.090854 
L 925.640977 -195.961583 
L 927.688058 -198.832311 
L 929.466251 -201.703039 
L 930.913929 -204.573767 
L 932.052679 -207.444495 
L 933.052899 -210.315224 
L 933.980614 -213.185952 
L 934.770628 -216.05668 
L 935.363626 -218.927408 
L 935.753792 -221.798136 
L 936.018841 -224.668864 
L 936.23852 -227.539593 
L 936.426288 -230.410321 
L 936.581025 -233.281049 
L 936.718779 -236.151777 
L 936.850439 -239.022505 
L 936.957612 -241.893234 
L 937.01882 -244.763962 
L 937.052122 -247.63469 
L 937.091535 -250.505418 
L 937.140596 -253.376146 
L 937.183962 -256.246874 
L 937.216412 -259.117603 
L 937.237173 -261.988331 
L 937.248928 -264.859059 
L 937.260627 -267.729787 
L 937.273411 -270.600515 
L 937.281527 -273.471244 
L 937.283111 -276.341972 
L 937.278426 -279.2127 
L 937.268023 -282.083428 
L 937.258602 -284.954156 
L 937.259799 -287.824885 
L 937.270271 -290.695613 
L 937.279977 -293.566341 
L 937.284385 -296.437069 
L 937.285522 -299.307797 
L 937.285697 -302.178525 
L 937.285713 -305.049254 
L 937.285713 -307.919982 
L 937.2857 -310.79071 
L 937.285544 -313.661438 
L 937.284466 -316.532166 
L 937.279832 -319.402895 
L 937.267332 -322.273623 
L 937.245804 -325.144351 
L 937.222781 -328.015079 
L 937.212991 -330.885807 
L 937.226249 -333.756535 
L 937.252954 -336.627264 
L 937.273994 -339.497992 
L 937.282989 -342.36872 
L 937.284792 -345.239448 
L 937.282729 -348.110176 
L 937.275676 -350.980905 
L 937.264435 -353.851633 
L 937.257589 -356.722361 
L 937.262537 -359.593089 
L 937.273807 -362.463817 
L 937.281901 -365.334545 
L 937.289528 -365.334545 
L 937.289528 -365.334545 
L 937.297621 -362.463817 
L 937.308891 -359.593089 
L 937.31384 -356.722361 
L 937.306993 -353.851633 
L 937.295753 -350.980905 
L 937.2887 -348.110176 
L 937.286636 -345.239448 
L 937.288439 -342.36872 
L 937.297435 -339.497992 
L 937.318474 -336.627264 
L 937.34518 -333.756535 
L 937.358437 -330.885807 
L 937.348648 -328.015079 
L 937.325625 -325.144351 
L 937.304097 -322.273623 
L 937.291596 -319.402895 
L 937.286962 -316.532166 
L 937.285885 -313.661438 
L 937.285729 -310.79071 
L 937.285715 -307.919982 
L 937.285715 -305.049254 
L 937.285732 -302.178525 
L 937.285906 -299.307797 
L 937.287043 -296.437069 
L 937.291452 -293.566341 
L 937.301158 -290.695613 
L 937.311629 -287.824885 
L 937.312827 -284.954156 
L 937.303405 -282.083428 
L 937.293002 -279.2127 
L 937.288318 -276.341972 
L 937.289902 -273.471244 
L 937.298018 -270.600515 
L 937.310802 -267.729787 
L 937.322501 -264.859059 
L 937.334256 -261.988331 
L 937.355016 -259.117603 
L 937.387466 -256.246874 
L 937.430832 -253.376146 
L 937.479894 -250.505418 
L 937.519307 -247.63469 
L 937.552609 -244.763962 
L 937.613817 -241.893234 
L 937.720989 -239.022505 
L 937.852649 -236.151777 
L 937.990404 -233.281049 
L 938.145141 -230.410321 
L 938.332908 -227.539593 
L 938.552588 -224.668864 
L 938.817637 -221.798136 
L 939.207802 -218.927408 
L 939.8008 -216.05668 
L 940.590814 -213.185952 
L 941.518529 -210.315224 
L 942.51875 -207.444495 
L 943.657499 -204.573767 
L 945.105177 -201.703039 
L 946.883371 -198.832311 
L 948.930452 -195.961583 
L 951.228274 -193.090854 
L 953.641142 -190.220126 
L 955.945537 -187.349398 
L 958.103094 -184.47867 
L 960.347638 -181.607942 
L 962.906274 -178.737214 
L 965.567042 -175.866485 
L 967.723803 -172.995757 
L 968.926384 -170.125029 
L 969.171429 -167.254301 
L 968.673244 -164.383573 
L 967.459648 -161.512844 
L 965.412836 -158.642116 
L 962.876995 -155.771388 
L 960.69157 -152.90066 
L 959.156758 -150.029932 
L 957.601864 -147.159204 
L 955.332549 -144.288475 
L 952.501382 -141.417747 
L 949.842979 -138.547019 
L 947.814711 -135.676291 
L 946.319025 -132.805563 
L 945.105013 -129.934834 
L 944.04833 -127.064106 
L 943.147462 -124.193378 
L 942.394013 -121.32265 
L 941.650834 -118.451922 
L 940.814643 -115.581194 
L 940.003536 -112.710465 
L 939.386937 -109.839737 
L 938.982831 -106.969009 
L 938.664134 -104.098281 
L 938.303008 -101.227553 
L 937.918713 -98.356824 
L 937.61784 -95.486096 
L 937.443167 -92.615368 
L 937.359997 -89.74464 
L 937.320631 -86.873912 
L 937.29972 -84.003183 
L 937.28978 -81.132455 
z
" id="meb6cb4215b" style="stroke:#4b4b4b;stroke-width:1.5;"/>
    </defs>
    <g clip-path="url(#pd5244888c4)">
     <use style="fill:#5481a6;stroke:#4b4b4b;stroke-width:1.5;" x="0" xlink:href="#meb6cb4215b" y="432"/>
    </g>
   </g>
   <g id="PolyCollection_8">
    <defs>
     <path d="M 1017.011119 -68.825455 
L 1016.988881 -68.825455 
L 1016.973484 -71.470953 
L 1016.946273 -74.116451 
L 1016.905332 -76.761949 
L 1016.850632 -79.407447 
L 1016.78242 -82.052946 
L 1016.700084 -84.698444 
L 1016.602793 -87.343942 
L 1016.489886 -89.98944 
L 1016.358678 -92.634939 
L 1016.200454 -95.280437 
L 1015.997644 -97.925935 
L 1015.724214 -100.571433 
L 1015.348463 -103.216931 
L 1014.836838 -105.86243 
L 1014.160913 -108.507928 
L 1013.309886 -111.153426 
L 1012.301567 -113.798924 
L 1011.178167 -116.444423 
L 1009.987904 -119.089921 
L 1008.775195 -121.735419 
L 1007.591053 -124.380917 
L 1006.496789 -127.026415 
L 1005.533167 -129.671914 
L 1004.682659 -132.317412 
L 1003.879551 -134.96291 
L 1003.064811 -137.608408 
L 1002.219633 -140.253907 
L 1001.339223 -142.899405 
L 1000.392856 -145.544903 
L 999.34259 -148.190401 
L 998.214476 -150.835899 
L 997.126295 -153.481398 
L 996.209254 -156.126896 
L 995.494375 -158.772394 
L 994.888004 -161.417892 
L 994.263942 -164.063391 
L 993.590337 -166.708889 
L 992.99861 -169.354387 
L 992.741155 -171.999885 
L 993.038294 -174.645383 
L 993.911105 -177.290882 
L 995.154816 -179.93638 
L 996.497362 -182.581878 
L 997.797119 -185.227376 
L 999.095016 -187.872875 
L 1000.491497 -190.518373 
L 1001.987538 -193.163871 
L 1003.451351 -195.809369 
L 1004.739815 -198.454867 
L 1005.839655 -201.100366 
L 1006.871282 -203.745864 
L 1007.957655 -206.391362 
L 1009.110661 -209.03686 
L 1010.241508 -211.682359 
L 1011.248196 -214.327857 
L 1012.080347 -216.973355 
L 1012.748523 -219.618853 
L 1013.303347 -222.264351 
L 1013.807172 -224.90985 
L 1014.303701 -227.555348 
L 1014.795055 -230.200846 
L 1015.244726 -232.846344 
L 1015.608813 -235.491843 
L 1015.868975 -238.137341 
L 1016.039337 -240.782839 
L 1016.148724 -243.428337 
L 1016.221407 -246.073835 
L 1016.273733 -248.719334 
L 1016.322816 -251.364832 
L 1016.389148 -254.01033 
L 1016.48446 -256.655828 
L 1016.599604 -259.301327 
L 1016.710738 -261.946825 
L 1016.798476 -264.592323 
L 1016.859112 -267.237821 
L 1016.900007 -269.883319 
L 1016.929128 -272.528818 
L 1016.949407 -275.174316 
L 1016.959658 -277.819814 
L 1016.958486 -280.465312 
L 1016.947239 -283.110811 
L 1016.930186 -285.756309 
L 1016.912884 -288.401807 
L 1016.900398 -291.047305 
L 1016.895452 -293.692803 
L 1016.89689 -296.338302 
L 1016.900912 -298.9838 
L 1016.905355 -301.629298 
L 1016.911969 -304.274796 
L 1016.923067 -306.920295 
L 1016.936886 -309.565793 
L 1016.948293 -312.211291 
L 1016.954174 -314.856789 
L 1016.95672 -317.502287 
L 1016.960791 -320.147786 
L 1016.968882 -322.793284 
L 1016.979319 -325.438782 
L 1016.988693 -328.08428 
L 1016.994948 -330.729779 
L 1017.005052 -330.729779 
L 1017.005052 -330.729779 
L 1017.011307 -328.08428 
L 1017.020681 -325.438782 
L 1017.031118 -322.793284 
L 1017.039209 -320.147786 
L 1017.04328 -317.502287 
L 1017.045826 -314.856789 
L 1017.051707 -312.211291 
L 1017.063114 -309.565793 
L 1017.076933 -306.920295 
L 1017.088031 -304.274796 
L 1017.094645 -301.629298 
L 1017.099088 -298.9838 
L 1017.10311 -296.338302 
L 1017.104548 -293.692803 
L 1017.099602 -291.047305 
L 1017.087116 -288.401807 
L 1017.069814 -285.756309 
L 1017.052761 -283.110811 
L 1017.041514 -280.465312 
L 1017.040342 -277.819814 
L 1017.050593 -275.174316 
L 1017.070872 -272.528818 
L 1017.099993 -269.883319 
L 1017.140888 -267.237821 
L 1017.201524 -264.592323 
L 1017.289262 -261.946825 
L 1017.400396 -259.301327 
L 1017.51554 -256.655828 
L 1017.610852 -254.01033 
L 1017.677184 -251.364832 
L 1017.726267 -248.719334 
L 1017.778593 -246.073835 
L 1017.851276 -243.428337 
L 1017.960663 -240.782839 
L 1018.131025 -238.137341 
L 1018.391187 -235.491843 
L 1018.755274 -232.846344 
L 1019.204945 -230.200846 
L 1019.696299 -227.555348 
L 1020.192828 -224.90985 
L 1020.696653 -222.264351 
L 1021.251477 -219.618853 
L 1021.919653 -216.973355 
L 1022.751804 -214.327857 
L 1023.758492 -211.682359 
L 1024.889339 -209.03686 
L 1026.042345 -206.391362 
L 1027.128718 -203.745864 
L 1028.160345 -201.100366 
L 1029.260185 -198.454867 
L 1030.548649 -195.809369 
L 1032.012462 -193.163871 
L 1033.508503 -190.518373 
L 1034.904984 -187.872875 
L 1036.202881 -185.227376 
L 1037.502638 -182.581878 
L 1038.845184 -179.93638 
L 1040.088895 -177.290882 
L 1040.961706 -174.645383 
L 1041.258845 -171.999885 
L 1041.00139 -169.354387 
L 1040.409663 -166.708889 
L 1039.736058 -164.063391 
L 1039.111996 -161.417892 
L 1038.505625 -158.772394 
L 1037.790746 -156.126896 
L 1036.873705 -153.481398 
L 1035.785524 -150.835899 
L 1034.65741 -148.190401 
L 1033.607144 -145.544903 
L 1032.660777 -142.899405 
L 1031.780367 -140.253907 
L 1030.935189 -137.608408 
L 1030.120449 -134.96291 
L 1029.317341 -132.317412 
L 1028.466833 -129.671914 
L 1027.503211 -127.026415 
L 1026.408947 -124.380917 
L 1025.224805 -121.735419 
L 1024.012096 -119.089921 
L 1022.821833 -116.444423 
L 1021.698433 -113.798924 
L 1020.690114 -111.153426 
L 1019.839087 -108.507928 
L 1019.163162 -105.86243 
L 1018.651537 -103.216931 
L 1018.275786 -100.571433 
L 1018.002356 -97.925935 
L 1017.799546 -95.280437 
L 1017.641322 -92.634939 
L 1017.510114 -89.98944 
L 1017.397207 -87.343942 
L 1017.299916 -84.698444 
L 1017.21758 -82.052946 
L 1017.149368 -79.407447 
L 1017.094668 -76.761949 
L 1017.053727 -74.116451 
L 1017.026516 -71.470953 
L 1017.011119 -68.825455 
z
" id="ma6f16114a9" style="stroke:#4b4b4b;stroke-width:1.5;"/>
    </defs>
    <g clip-path="url(#pd5244888c4)">
     <use style="fill:#df9c20;stroke:#4b4b4b;stroke-width:1.5;" x="0" xlink:href="#ma6f16114a9" y="432"/>
    </g>
   </g>
   <g id="line2d_71">
    <path clip-path="url(#pd5244888c4)" d="M 937.285714 323.550612 
L 937.285714 208.7665 
" style="fill:none;stroke:#4b4b4b;stroke-linecap:square;stroke-width:1.5;"/>
   </g>
   <g id="line2d_72">
    <path clip-path="url(#pd5244888c4)" d="M 937.285714 280.631335 
L 937.285714 251.685776 
" style="fill:none;stroke:#4b4b4b;stroke-linecap:square;stroke-width:4.5;"/>
   </g>
   <g id="line2d_73">
    <path clip-path="url(#pd5244888c4)" d="M 1017 341.516821 
L 1017 187.805923 
" style="fill:none;stroke:#4b4b4b;stroke-linecap:square;stroke-width:1.5;"/>
   </g>
   <g id="line2d_74">
    <path clip-path="url(#pd5244888c4)" d="M 1017 284.623826 
L 1017 245.69704 
" style="fill:none;stroke:#4b4b4b;stroke-linecap:square;stroke-width:4.5;"/>
   </g>
   <g id="patch_18">
    <path d="M 897.428571 378 
L 897.428571 51.84 
" style="fill:none;stroke:#000000;stroke-linecap:square;stroke-linejoin:miter;stroke-width:0.8;"/>
   </g>
   <g id="patch_19">
    <path d="M 1056.857143 378 
L 1056.857143 51.84 
" style="fill:none;stroke:#000000;stroke-linecap:square;stroke-linejoin:miter;stroke-width:0.8;"/>
   </g>
   <g id="patch_20">
    <path d="M 897.428571 378 
L 1056.857143 378 
" style="fill:none;stroke:#000000;stroke-linecap:square;stroke-linejoin:miter;stroke-width:0.8;"/>
   </g>
   <g id="patch_21">
    <path d="M 897.428571 51.84 
L 1056.857143 51.84 
" style="fill:none;stroke:#000000;stroke-linecap:square;stroke-linejoin:miter;stroke-width:0.8;"/>
   </g>
   <g id="PathCollection_7">
    <g clip-path="url(#pd5244888c4)">
     <use style="fill:#ffffff;stroke:#4b4b4b;" x="937.285714" xlink:href="#m1f5e8cd2ff" y="265.659494"/>
    </g>
   </g>
   <g id="PathCollection_8">
    <g clip-path="url(#pd5244888c4)">
     <use style="fill:#ffffff;stroke:#4b4b4b;" x="1017" xlink:href="#m1f5e8cd2ff" y="264.661372"/>
    </g>
   </g>
   <g id="text_44">
    <text style="font-family:DejaVu Sans;font-size:14px;font-stretch:normal;font-style:normal;font-weight:normal;text-anchor:middle;" transform="rotate(-0, 977.142857, 68.148)" x="977.142857" y="68.148">P = 8.50e-02</text>
   </g>
   <g id="text_45">
    <text style="font-family:DejaVu Sans;font-size:14px;font-stretch:normal;font-style:normal;font-weight:normal;text-anchor:middle;" transform="rotate(-0, 977.142857, 81.1944)" x="977.142857" y="81.1944">d = -0.02</text>
   </g>
  </g>
  <g id="axes_5">
   <g id="patch_22">
    <path d="M 1136.571429 378 
L 1296 378 
L 1296 51.84 
L 1136.571429 51.84 
z
" style="fill:#ffffff;"/>
   </g>
   <g id="matplotlib.axis_9">
    <g id="xtick_9">
     <g id="line2d_75">
      <g>
       <use style="stroke:#000000;stroke-width:0.8;" x="1176.428571" xlink:href="#m09e1142321" y="378"/>
      </g>
     </g>
     <g id="text_46">
      <text style="font-family:DejaVu Sans;font-size:15px;font-stretch:normal;font-style:normal;font-weight:normal;" transform="translate(1147.361384 396.397656)">Healthy</text>
      <text style="font-family:DejaVu Sans;font-size:15px;font-stretch:normal;font-style:normal;font-weight:normal;" transform="translate(1149.105134 413.194375)"> (5757)</text>
     </g>
    </g>
    <g id="xtick_10">
     <g id="line2d_76">
      <g>
       <use style="stroke:#000000;stroke-width:0.8;" x="1256.142857" xlink:href="#m09e1142321" y="378"/>
      </g>
     </g>
     <g id="text_47">
      <text style="font-family:DejaVu Sans;font-size:15px;font-stretch:normal;font-style:normal;font-weight:normal;" transform="translate(1213.009654 396.397656)">Nonhealthy</text>
      <text style="font-family:DejaVu Sans;font-size:15px;font-stretch:normal;font-style:normal;font-weight:normal;" transform="translate(1228.81942 413.194375)"> (3112)</text>
     </g>
    </g>
   </g>
   <g id="matplotlib.axis_10">
    <g id="ytick_26">
     <g id="line2d_77">
      <path clip-path="url(#p5cc00a75d2)" d="M 1136.571429 352.416379 
L 1296 352.416379 
" style="fill:none;stroke:#b0b0b0;stroke-dasharray:2.775,1.2;stroke-dashoffset:0;stroke-width:0.75;"/>
     </g>
     <g id="line2d_78">
      <g>
       <use style="stroke:#000000;stroke-width:0.8;" x="1136.571429" xlink:href="#mbea25803af" y="352.416379"/>
      </g>
     </g>
     <g id="text_48">
      <text style="font-family:DejaVu Sans;font-size:12px;font-stretch:normal;font-style:normal;font-weight:normal;text-anchor:end;" transform="rotate(-0, 1129.571429, 356.975442)" x="1129.571429" y="356.975442">0.0</text>
     </g>
    </g>
    <g id="ytick_27">
     <g id="line2d_79">
      <path clip-path="url(#p5cc00a75d2)" d="M 1136.571429 295.119326 
L 1296 295.119326 
" style="fill:none;stroke:#b0b0b0;stroke-dasharray:2.775,1.2;stroke-dashoffset:0;stroke-width:0.75;"/>
     </g>
     <g id="line2d_80">
      <g>
       <use style="stroke:#000000;stroke-width:0.8;" x="1136.571429" xlink:href="#mbea25803af" y="295.119326"/>
      </g>
     </g>
     <g id="text_49">
      <text style="font-family:DejaVu Sans;font-size:12px;font-stretch:normal;font-style:normal;font-weight:normal;text-anchor:end;" transform="rotate(-0, 1129.571429, 299.678389)" x="1129.571429" y="299.678389">0.2</text>
     </g>
    </g>
    <g id="ytick_28">
     <g id="line2d_81">
      <path clip-path="url(#p5cc00a75d2)" d="M 1136.571429 237.822274 
L 1296 237.822274 
" style="fill:none;stroke:#b0b0b0;stroke-dasharray:2.775,1.2;stroke-dashoffset:0;stroke-width:0.75;"/>
     </g>
     <g id="line2d_82">
      <g>
       <use style="stroke:#000000;stroke-width:0.8;" x="1136.571429" xlink:href="#mbea25803af" y="237.822274"/>
      </g>
     </g>
     <g id="text_50">
      <text style="font-family:DejaVu Sans;font-size:12px;font-stretch:normal;font-style:normal;font-weight:normal;text-anchor:end;" transform="rotate(-0, 1129.571429, 242.381336)" x="1129.571429" y="242.381336">0.4</text>
     </g>
    </g>
    <g id="ytick_29">
     <g id="line2d_83">
      <path clip-path="url(#p5cc00a75d2)" d="M 1136.571429 180.525221 
L 1296 180.525221 
" style="fill:none;stroke:#b0b0b0;stroke-dasharray:2.775,1.2;stroke-dashoffset:0;stroke-width:0.75;"/>
     </g>
     <g id="line2d_84">
      <g>
       <use style="stroke:#000000;stroke-width:0.8;" x="1136.571429" xlink:href="#mbea25803af" y="180.525221"/>
      </g>
     </g>
     <g id="text_51">
      <text style="font-family:DejaVu Sans;font-size:12px;font-stretch:normal;font-style:normal;font-weight:normal;text-anchor:end;" transform="rotate(-0, 1129.571429, 185.084283)" x="1129.571429" y="185.084283">0.6</text>
     </g>
    </g>
    <g id="ytick_30">
     <g id="line2d_85">
      <path clip-path="url(#p5cc00a75d2)" d="M 1136.571429 123.228168 
L 1296 123.228168 
" style="fill:none;stroke:#b0b0b0;stroke-dasharray:2.775,1.2;stroke-dashoffset:0;stroke-width:0.75;"/>
     </g>
     <g id="line2d_86">
      <g>
       <use style="stroke:#000000;stroke-width:0.8;" x="1136.571429" xlink:href="#mbea25803af" y="123.228168"/>
      </g>
     </g>
     <g id="text_52">
      <text style="font-family:DejaVu Sans;font-size:12px;font-stretch:normal;font-style:normal;font-weight:normal;text-anchor:end;" transform="rotate(-0, 1129.571429, 127.78723)" x="1129.571429" y="127.78723">0.8</text>
     </g>
    </g>
    <g id="ytick_31">
     <g id="line2d_87">
      <path clip-path="url(#p5cc00a75d2)" d="M 1136.571429 65.931115 
L 1296 65.931115 
" style="fill:none;stroke:#b0b0b0;stroke-dasharray:2.775,1.2;stroke-dashoffset:0;stroke-width:0.75;"/>
     </g>
     <g id="line2d_88">
      <g>
       <use style="stroke:#000000;stroke-width:0.8;" x="1136.571429" xlink:href="#mbea25803af" y="65.931115"/>
      </g>
     </g>
     <g id="text_53">
      <text style="font-family:DejaVu Sans;font-size:12px;font-stretch:normal;font-style:normal;font-weight:normal;text-anchor:end;" transform="rotate(-0, 1129.571429, 70.490177)" x="1129.571429" y="70.490177">1.0</text>
     </g>
    </g>
    <g id="text_54">
     <text style="font-family:DejaVu Sans;font-size:20px;font-stretch:normal;font-style:normal;font-weight:normal;text-anchor:middle;" transform="rotate(-90, 1102.328304, 214.92)" x="1102.328304" y="214.92">Simpson Diversity</text>
    </g>
   </g>
   <g id="PolyCollection_9">
    <defs>
     <path d="M 1176.700826 -76.284823 
L 1176.156317 -76.284823 
L 1175.499354 -79.204517 
L 1173.829585 -82.124211 
L 1170.432989 -85.043905 
L 1164.927657 -87.9636 
L 1157.891281 -90.883294 
L 1150.981444 -93.802988 
L 1146.157849 -96.722682 
L 1144.542857 -99.642376 
L 1145.90435 -102.56207 
L 1149.089098 -105.481765 
L 1152.855861 -108.401459 
L 1156.426589 -111.321153 
L 1159.538485 -114.240847 
L 1162.202313 -117.160541 
L 1164.468082 -120.080235 
L 1166.346836 -122.99993 
L 1167.844326 -125.919624 
L 1168.998548 -128.839318 
L 1169.876477 -131.759012 
L 1170.551253 -134.678706 
L 1171.088086 -137.5984 
L 1171.544368 -140.518095 
L 1171.968836 -143.437789 
L 1172.390272 -146.357483 
L 1172.812134 -149.277177 
L 1173.223894 -152.196871 
L 1173.610458 -155.116565 
L 1173.950796 -158.03626 
L 1174.224072 -160.955954 
L 1174.42693 -163.875648 
L 1174.579845 -166.795342 
L 1174.71241 -169.715036 
L 1174.843121 -172.63473 
L 1174.971782 -175.554425 
L 1175.087976 -178.474119 
L 1175.186136 -181.393813 
L 1175.273326 -184.313507 
L 1175.362499 -187.233201 
L 1175.458841 -190.152895 
L 1175.554043 -193.07259 
L 1175.633561 -195.992284 
L 1175.688808 -198.911978 
L 1175.723499 -201.831672 
L 1175.749183 -204.751366 
L 1175.774862 -207.67106 
L 1175.801926 -210.590755 
L 1175.828863 -213.510449 
L 1175.856711 -216.430143 
L 1175.886404 -219.349837 
L 1175.91392 -222.269531 
L 1175.933169 -225.189225 
L 1175.94335 -228.10892 
L 1175.950955 -231.028614 
L 1175.964794 -233.948308 
L 1175.989322 -236.868002 
L 1176.021211 -239.787696 
L 1176.051085 -242.70739 
L 1176.069224 -245.627085 
L 1176.072496 -248.546779 
L 1176.067553 -251.466473 
L 1176.0655 -254.386167 
L 1176.072235 -257.305861 
L 1176.085427 -260.225555 
L 1176.099983 -263.14525 
L 1176.113217 -266.064944 
L 1176.125089 -268.984638 
L 1176.136567 -271.904332 
L 1176.148642 -274.824026 
L 1176.162007 -277.74372 
L 1176.177222 -280.663415 
L 1176.194784 -283.583109 
L 1176.214585 -286.502803 
L 1176.235372 -289.422497 
L 1176.255088 -292.342191 
L 1176.272385 -295.261885 
L 1176.288182 -298.18158 
L 1176.304839 -301.101274 
L 1176.323094 -304.020968 
L 1176.340616 -306.940662 
L 1176.354274 -309.860356 
L 1176.36311 -312.78005 
L 1176.368302 -315.699745 
L 1176.371075 -318.619439 
L 1176.372311 -321.539133 
L 1176.374071 -324.458827 
L 1176.379224 -327.378521 
L 1176.388121 -330.298215 
L 1176.396754 -333.21791 
L 1176.399722 -336.137604 
L 1176.395126 -339.057298 
L 1176.386284 -341.976992 
L 1176.378981 -344.896686 
L 1176.377467 -347.81638 
L 1176.382636 -350.736075 
L 1176.392684 -353.655769 
L 1176.404486 -356.575463 
L 1176.414932 -359.495157 
L 1176.422171 -362.414851 
L 1176.42612 -365.334545 
L 1176.431023 -365.334545 
L 1176.431023 -365.334545 
L 1176.434971 -362.414851 
L 1176.442211 -359.495157 
L 1176.452657 -356.575463 
L 1176.464459 -353.655769 
L 1176.474507 -350.736075 
L 1176.479676 -347.81638 
L 1176.478162 -344.896686 
L 1176.470859 -341.976992 
L 1176.462017 -339.057298 
L 1176.457421 -336.137604 
L 1176.460389 -333.21791 
L 1176.469022 -330.298215 
L 1176.477919 -327.378521 
L 1176.483072 -324.458827 
L 1176.484832 -321.539133 
L 1176.486067 -318.619439 
L 1176.488841 -315.699745 
L 1176.494033 -312.78005 
L 1176.502869 -309.860356 
L 1176.516527 -306.940662 
L 1176.534048 -304.020968 
L 1176.552304 -301.101274 
L 1176.568961 -298.18158 
L 1176.584758 -295.261885 
L 1176.602055 -292.342191 
L 1176.621771 -289.422497 
L 1176.642558 -286.502803 
L 1176.662358 -283.583109 
L 1176.679921 -280.663415 
L 1176.695136 -277.74372 
L 1176.7085 -274.824026 
L 1176.720576 -271.904332 
L 1176.732054 -268.984638 
L 1176.743926 -266.064944 
L 1176.757159 -263.14525 
L 1176.771715 -260.225555 
L 1176.784908 -257.305861 
L 1176.791642 -254.386167 
L 1176.789589 -251.466473 
L 1176.784647 -248.546779 
L 1176.787918 -245.627085 
L 1176.806058 -242.70739 
L 1176.835931 -239.787696 
L 1176.867821 -236.868002 
L 1176.892349 -233.948308 
L 1176.906188 -231.028614 
L 1176.913793 -228.10892 
L 1176.923974 -225.189225 
L 1176.943223 -222.269531 
L 1176.970738 -219.349837 
L 1177.000432 -216.430143 
L 1177.02828 -213.510449 
L 1177.055217 -210.590755 
L 1177.08228 -207.67106 
L 1177.10796 -204.751366 
L 1177.133644 -201.831672 
L 1177.168335 -198.911978 
L 1177.223582 -195.992284 
L 1177.3031 -193.07259 
L 1177.398302 -190.152895 
L 1177.494643 -187.233201 
L 1177.583817 -184.313507 
L 1177.671007 -181.393813 
L 1177.769166 -178.474119 
L 1177.885361 -175.554425 
L 1178.014022 -172.63473 
L 1178.144733 -169.715036 
L 1178.277298 -166.795342 
L 1178.430213 -163.875648 
L 1178.63307 -160.955954 
L 1178.906347 -158.03626 
L 1179.246685 -155.116565 
L 1179.633249 -152.196871 
L 1180.045009 -149.277177 
L 1180.466871 -146.357483 
L 1180.888307 -143.437789 
L 1181.312775 -140.518095 
L 1181.769056 -137.5984 
L 1182.30589 -134.678706 
L 1182.980665 -131.759012 
L 1183.858595 -128.839318 
L 1185.012817 -125.919624 
L 1186.510306 -122.99993 
L 1188.389061 -120.080235 
L 1190.65483 -117.160541 
L 1193.318658 -114.240847 
L 1196.430554 -111.321153 
L 1200.001282 -108.401459 
L 1203.768045 -105.481765 
L 1206.952793 -102.56207 
L 1208.314286 -99.642376 
L 1206.699293 -96.722682 
L 1201.875699 -93.802988 
L 1194.965862 -90.883294 
L 1187.929486 -87.9636 
L 1182.424154 -85.043905 
L 1179.027558 -82.124211 
L 1177.357789 -79.204517 
L 1176.700826 -76.284823 
z
" id="mbfa1a025a1" style="stroke:#4b4b4b;stroke-width:1.5;"/>
    </defs>
    <g clip-path="url(#p5cc00a75d2)">
     <use style="fill:#5481a6;stroke:#4b4b4b;stroke-width:1.5;" x="0" xlink:href="#mbfa1a025a1" y="432"/>
    </g>
   </g>
   <g id="PolyCollection_10">
    <defs>
     <path d="M 1256.161636 -68.825455 
L 1256.124078 -68.825455 
L 1256.076594 -71.744171 
L 1255.935086 -74.662887 
L 1255.567864 -77.581603 
L 1254.74381 -80.500319 
L 1253.152758 -83.419035 
L 1250.520057 -86.337751 
L 1246.801348 -89.256467 
L 1242.341755 -92.175183 
L 1237.845798 -95.0939 
L 1234.119481 -98.012616 
L 1231.738288 -100.931332 
L 1230.864887 -103.850048 
L 1231.304648 -106.768764 
L 1232.694552 -109.68748 
L 1234.665234 -112.606196 
L 1236.90822 -115.524912 
L 1239.182565 -118.443628 
L 1241.313792 -121.362344 
L 1243.200787 -124.281061 
L 1244.816971 -127.199777 
L 1246.192006 -130.118493 
L 1247.376846 -133.037209 
L 1248.410784 -135.955925 
L 1249.310145 -138.874641 
L 1250.080637 -141.793357 
L 1250.735427 -144.712073 
L 1251.300022 -147.630789 
L 1251.802563 -150.549506 
L 1252.262552 -153.468222 
L 1252.687772 -156.386938 
L 1253.077075 -159.305654 
L 1253.422951 -162.22437 
L 1253.714119 -165.143086 
L 1253.942269 -168.061802 
L 1254.111378 -170.980518 
L 1254.241188 -173.899234 
L 1254.359137 -176.817951 
L 1254.48541 -179.736667 
L 1254.622616 -182.655383 
L 1254.757715 -185.574099 
L 1254.873462 -188.492815 
L 1254.959918 -191.411531 
L 1255.018743 -194.330247 
L 1255.060009 -197.248963 
L 1255.095748 -200.167679 
L 1255.134399 -203.086395 
L 1255.178375 -206.005112 
L 1255.224808 -208.923828 
L 1255.267928 -211.842544 
L 1255.301817 -214.76126 
L 1255.323344 -217.679976 
L 1255.334604 -220.598692 
L 1255.343076 -223.517408 
L 1255.358792 -226.436124 
L 1255.390006 -229.35484 
L 1255.439368 -232.273557 
L 1255.502216 -235.192273 
L 1255.568043 -238.110989 
L 1255.624961 -241.029705 
L 1255.66484 -243.948421 
L 1255.686149 -246.867137 
L 1255.693545 -249.785853 
L 1255.695601 -252.704569 
L 1255.702089 -255.623285 
L 1255.720825 -258.542002 
L 1255.754473 -261.460718 
L 1255.799302 -264.379434 
L 1255.847195 -267.29815 
L 1255.889228 -270.216866 
L 1255.918477 -273.135582 
L 1255.932015 -276.054298 
L 1255.932751 -278.973014 
L 1255.929434 -281.89173 
L 1255.932601 -284.810446 
L 1255.948128 -287.729163 
L 1255.973573 -290.647879 
L 1256.000615 -293.566595 
L 1256.021342 -296.485311 
L 1256.033109 -299.404027 
L 1256.038744 -302.322743 
L 1256.043107 -305.241459 
L 1256.049281 -308.160175 
L 1256.056916 -311.078891 
L 1256.063185 -313.997608 
L 1256.065215 -316.916324 
L 1256.062252 -319.83504 
L 1256.056141 -322.753756 
L 1256.050071 -325.672472 
L 1256.046711 -328.591188 
L 1256.047053 -331.509904 
L 1256.050617 -334.42862 
L 1256.056688 -337.347336 
L 1256.065371 -340.266053 
L 1256.077261 -343.184769 
L 1256.092052 -346.103485 
L 1256.107772 -349.022201 
L 1256.121662 -351.940917 
L 1256.131798 -354.859633 
L 1256.137912 -357.778349 
L 1256.147802 -357.778349 
L 1256.147802 -357.778349 
L 1256.153917 -354.859633 
L 1256.164052 -351.940917 
L 1256.177943 -349.022201 
L 1256.193663 -346.103485 
L 1256.208453 -343.184769 
L 1256.220343 -340.266053 
L 1256.229027 -337.347336 
L 1256.235098 -334.42862 
L 1256.238661 -331.509904 
L 1256.239004 -328.591188 
L 1256.235643 -325.672472 
L 1256.229573 -322.753756 
L 1256.223462 -319.83504 
L 1256.220499 -316.916324 
L 1256.22253 -313.997608 
L 1256.228798 -311.078891 
L 1256.236433 -308.160175 
L 1256.242607 -305.241459 
L 1256.24697 -302.322743 
L 1256.252605 -299.404027 
L 1256.264373 -296.485311 
L 1256.2851 -293.566595 
L 1256.312142 -290.647879 
L 1256.337586 -287.729163 
L 1256.353113 -284.810446 
L 1256.356281 -281.89173 
L 1256.352963 -278.973014 
L 1256.3537 -276.054298 
L 1256.367237 -273.135582 
L 1256.396486 -270.216866 
L 1256.438519 -267.29815 
L 1256.486412 -264.379434 
L 1256.531241 -261.460718 
L 1256.564889 -258.542002 
L 1256.583626 -255.623285 
L 1256.590113 -252.704569 
L 1256.592169 -249.785853 
L 1256.599565 -246.867137 
L 1256.620875 -243.948421 
L 1256.660753 -241.029705 
L 1256.717672 -238.110989 
L 1256.783498 -235.192273 
L 1256.846346 -232.273557 
L 1256.895709 -229.35484 
L 1256.926922 -226.436124 
L 1256.942639 -223.517408 
L 1256.95111 -220.598692 
L 1256.962371 -217.679976 
L 1256.983897 -214.76126 
L 1257.017786 -211.842544 
L 1257.060907 -208.923828 
L 1257.107339 -206.005112 
L 1257.151316 -203.086395 
L 1257.189967 -200.167679 
L 1257.225705 -197.248963 
L 1257.266971 -194.330247 
L 1257.325797 -191.411531 
L 1257.412253 -188.492815 
L 1257.527999 -185.574099 
L 1257.663098 -182.655383 
L 1257.800304 -179.736667 
L 1257.926577 -176.817951 
L 1258.044527 -173.899234 
L 1258.174336 -170.980518 
L 1258.343445 -168.061802 
L 1258.571595 -165.143086 
L 1258.862763 -162.22437 
L 1259.208639 -159.305654 
L 1259.597943 -156.386938 
L 1260.023162 -153.468222 
L 1260.483151 -150.549506 
L 1260.985692 -147.630789 
L 1261.550288 -144.712073 
L 1262.205077 -141.793357 
L 1262.975569 -138.874641 
L 1263.874931 -135.955925 
L 1264.908869 -133.037209 
L 1266.093708 -130.118493 
L 1267.468743 -127.199777 
L 1269.084927 -124.281061 
L 1270.971922 -121.362344 
L 1273.103149 -118.443628 
L 1275.377495 -115.524912 
L 1277.62048 -112.606196 
L 1279.591163 -109.68748 
L 1280.981067 -106.768764 
L 1281.420827 -103.850048 
L 1280.547426 -100.931332 
L 1278.166234 -98.012616 
L 1274.439916 -95.0939 
L 1269.94396 -92.175183 
L 1265.484367 -89.256467 
L 1261.765658 -86.337751 
L 1259.132957 -83.419035 
L 1257.541904 -80.500319 
L 1256.71785 -77.581603 
L 1256.350628 -74.662887 
L 1256.20912 -71.744171 
L 1256.161636 -68.825455 
z
" id="mec0efb37f8" style="stroke:#4b4b4b;stroke-width:1.5;"/>
    </defs>
    <g clip-path="url(#p5cc00a75d2)">
     <use style="fill:#df9c20;stroke:#4b4b4b;stroke-width:1.5;" x="0" xlink:href="#mec0efb37f8" y="432"/>
    </g>
   </g>
   <g id="line2d_89">
    <path clip-path="url(#p5cc00a75d2)" d="M 1176.428571 343.766395 
L 1176.428571 271.140135 
" style="fill:none;stroke:#4b4b4b;stroke-linecap:square;stroke-width:1.5;"/>
   </g>
   <g id="line2d_90">
    <path clip-path="url(#p5cc00a75d2)" d="M 1176.428571 334.048063 
L 1176.428571 308.843431 
" style="fill:none;stroke:#4b4b4b;stroke-linecap:square;stroke-width:4.5;"/>
   </g>
   <g id="line2d_91">
    <path clip-path="url(#p5cc00a75d2)" d="M 1256.142857 349.052705 
L 1256.142857 256.687451 
" style="fill:none;stroke:#4b4b4b;stroke-linecap:square;stroke-width:1.5;"/>
   </g>
   <g id="line2d_92">
    <path clip-path="url(#p5cc00a75d2)" d="M 1256.142857 330.153127 
L 1256.142857 300.647565 
" style="fill:none;stroke:#4b4b4b;stroke-linecap:square;stroke-width:4.5;"/>
   </g>
   <g id="patch_23">
    <path d="M 1136.571429 378 
L 1136.571429 51.84 
" style="fill:none;stroke:#000000;stroke-linecap:square;stroke-linejoin:miter;stroke-width:0.8;"/>
   </g>
   <g id="patch_24">
    <path d="M 1296 378 
L 1296 51.84 
" style="fill:none;stroke:#000000;stroke-linecap:square;stroke-linejoin:miter;stroke-width:0.8;"/>
   </g>
   <g id="patch_25">
    <path d="M 1136.571429 378 
L 1296 378 
" style="fill:none;stroke:#000000;stroke-linecap:square;stroke-linejoin:miter;stroke-width:0.8;"/>
   </g>
   <g id="patch_26">
    <path d="M 1136.571429 51.84 
L 1296 51.84 
" style="fill:none;stroke:#000000;stroke-linecap:square;stroke-linejoin:miter;stroke-width:0.8;"/>
   </g>
   <g id="PathCollection_9">
    <g clip-path="url(#p5cc00a75d2)">
     <use style="fill:#ffffff;stroke:#4b4b4b;" x="1176.428571" xlink:href="#m1f5e8cd2ff" y="325.744934"/>
    </g>
   </g>
   <g id="PathCollection_10">
    <g clip-path="url(#p5cc00a75d2)">
     <use style="fill:#ffffff;stroke:#4b4b4b;" x="1256.142857" xlink:href="#m1f5e8cd2ff" y="319.877855"/>
    </g>
   </g>
   <g id="text_55">
    <text style="font-family:DejaVu Sans;font-size:14px;font-stretch:normal;font-style:normal;font-weight:normal;text-anchor:middle;" transform="rotate(-0, 1216.285714, 68.148)" x="1216.285714" y="68.148">P = 2.88e-40</text>
   </g>
   <g id="text_56">
    <text style="font-family:DejaVu Sans;font-size:14px;font-stretch:normal;font-style:normal;font-weight:normal;text-anchor:middle;" transform="rotate(-0, 1216.285714, 81.1944)" x="1216.285714" y="81.1944">d = -0.17</text>
   </g>
  </g>
 </g>
 <defs>
  <clipPath id="p57d0d37e79">
   <rect height="326.16" width="159.428571" x="180" y="51.84"/>
  </clipPath>
  <clipPath id="p2e8401d22d">
   <rect height="326.16" width="159.428571" x="419.142857" y="51.84"/>
  </clipPath>
  <clipPath id="p9803db3a39">
   <rect height="326.16" width="159.428571" x="658.285714" y="51.84"/>
  </clipPath>
  <clipPath id="pd5244888c4">
   <rect height="326.16" width="159.428571" x="897.428571" y="51.84"/>
  </clipPath>
  <clipPath id="p5cc00a75d2">
   <rect height="326.16" width="159.428571" x="1136.571429" y="51.84"/>
  </clipPath>
 </defs>
</svg>
