<?xml version="1.0" encoding="utf-8" standalone="no"?>
<!DOCTYPE svg PUBLIC "-//W3C//DTD SVG 1.1//EN"
  "http://www.w3.org/Graphics/SVG/1.1/DTD/svg11.dtd">
<svg height="432pt" version="1.1" viewBox="0 0 1440 432" width="1440pt" xmlns="http://www.w3.org/2000/svg" xmlns:xlink="http://www.w3.org/1999/xlink">
 <metadata>
  <rdf:RDF xmlns:cc="http://creativecommons.org/ns#" xmlns:dc="http://purl.org/dc/elements/1.1/" xmlns:rdf="http://www.w3.org/1999/02/22-rdf-syntax-ns#">
   <cc:Work>
    <dc:type rdf:resource="http://purl.org/dc/dcmitype/StillImage"/>
    <dc:date>2023-01-14T23:01:11.319959</dc:date>
    <dc:format>image/svg+xml</dc:format>
    <dc:creator>
     <cc:Agent>
      <dc:title>Matplotlib v3.4.3, https://matplotlib.org/</dc:title>
     </cc:Agent>
    </dc:creator>
   </cc:Work>
  </rdf:RDF>
 </metadata>
 <defs>
  <style type="text/css">*{stroke-linecap:butt;stroke-linejoin:round;}</style>
 </defs>
 <g id="figure_1">
  <g id="patch_1">
   <path d="M 0 432 
L 1440 432 
L 1440 0 
L 0 0 
z
" style="fill:none;"/>
  </g>
  <g id="axes_1">
   <g id="patch_2">
    <path d="M 180 378 
L 339.428571 378 
L 339.428571 51.84 
L 180 51.84 
z
" style="fill:#ffffff;"/>
   </g>
   <g id="matplotlib.axis_1">
    <g id="xtick_1">
     <g id="line2d_1">
      <defs>
       <path d="M 0 0 
L 0 3.5 
" id="mbf156ea8a6" style="stroke:#000000;stroke-width:0.8;"/>
      </defs>
      <g>
       <use style="stroke:#000000;stroke-width:0.8;" x="219.857143" xlink:href="#mbf156ea8a6" y="378"/>
      </g>
     </g>
     <g id="text_1">
      <text style="font-family:DejaVu Sans;font-size:15px;font-stretch:normal;font-style:normal;font-weight:normal;" transform="translate(190.789955 396.397656)">Healthy</text>
      <text style="font-family:DejaVu Sans;font-size:15px;font-stretch:normal;font-style:normal;font-weight:normal;" transform="translate(192.533705 413.194375)"> (5547)</text>
     </g>
    </g>
    <g id="xtick_2">
     <g id="line2d_2">
      <g>
       <use style="stroke:#000000;stroke-width:0.8;" x="299.571429" xlink:href="#mbf156ea8a6" y="378"/>
      </g>
     </g>
     <g id="text_2">
      <text style="font-family:DejaVu Sans;font-size:15px;font-stretch:normal;font-style:normal;font-weight:normal;" transform="translate(256.438225 396.397656)">Nonhealthy</text>
      <text style="font-family:DejaVu Sans;font-size:15px;font-stretch:normal;font-style:normal;font-weight:normal;" transform="translate(272.247991 413.194375)"> (2522)</text>
     </g>
    </g>
   </g>
   <g id="matplotlib.axis_2">
    <g id="ytick_1">
     <g id="line2d_3">
      <path clip-path="url(#p2a32b6bac1)" d="M 180 366.554444 
L 339.428571 366.554444 
" style="fill:none;stroke:#b0b0b0;stroke-dasharray:2.775,1.2;stroke-dashoffset:0;stroke-width:0.75;"/>
     </g>
     <g id="line2d_4">
      <defs>
       <path d="M 0 0 
L -3.5 0 
" id="maadfbac407" style="stroke:#000000;stroke-width:0.8;"/>
      </defs>
      <g>
       <use style="stroke:#000000;stroke-width:0.8;" x="180" xlink:href="#maadfbac407" y="366.554444"/>
      </g>
     </g>
     <g id="text_3">
      <text style="font-family:DejaVu Sans;font-size:12px;font-stretch:normal;font-style:normal;font-weight:normal;text-anchor:end;" transform="rotate(-0, 173, 371.113507)" x="173" y="371.113507">−6</text>
     </g>
    </g>
    <g id="ytick_2">
     <g id="line2d_5">
      <path clip-path="url(#p2a32b6bac1)" d="M 180 310.896063 
L 339.428571 310.896063 
" style="fill:none;stroke:#b0b0b0;stroke-dasharray:2.775,1.2;stroke-dashoffset:0;stroke-width:0.75;"/>
     </g>
     <g id="line2d_6">
      <g>
       <use style="stroke:#000000;stroke-width:0.8;" x="180" xlink:href="#maadfbac407" y="310.896063"/>
      </g>
     </g>
     <g id="text_4">
      <text style="font-family:DejaVu Sans;font-size:12px;font-stretch:normal;font-style:normal;font-weight:normal;text-anchor:end;" transform="rotate(-0, 173, 315.455126)" x="173" y="315.455126">−4</text>
     </g>
    </g>
    <g id="ytick_3">
     <g id="line2d_7">
      <path clip-path="url(#p2a32b6bac1)" d="M 180 255.237682 
L 339.428571 255.237682 
" style="fill:none;stroke:#b0b0b0;stroke-dasharray:2.775,1.2;stroke-dashoffset:0;stroke-width:0.75;"/>
     </g>
     <g id="line2d_8">
      <g>
       <use style="stroke:#000000;stroke-width:0.8;" x="180" xlink:href="#maadfbac407" y="255.237682"/>
      </g>
     </g>
     <g id="text_5">
      <text style="font-family:DejaVu Sans;font-size:12px;font-stretch:normal;font-style:normal;font-weight:normal;text-anchor:end;" transform="rotate(-0, 173, 259.796744)" x="173" y="259.796744">−2</text>
     </g>
    </g>
    <g id="ytick_4">
     <g id="line2d_9">
      <path clip-path="url(#p2a32b6bac1)" d="M 180 199.579301 
L 339.428571 199.579301 
" style="fill:none;stroke:#b0b0b0;stroke-dasharray:2.775,1.2;stroke-dashoffset:0;stroke-width:0.75;"/>
     </g>
     <g id="line2d_10">
      <g>
       <use style="stroke:#000000;stroke-width:0.8;" x="180" xlink:href="#maadfbac407" y="199.579301"/>
      </g>
     </g>
     <g id="text_6">
      <text style="font-family:DejaVu Sans;font-size:12px;font-stretch:normal;font-style:normal;font-weight:normal;text-anchor:end;" transform="rotate(-0, 173, 204.138363)" x="173" y="204.138363">0</text>
     </g>
    </g>
    <g id="ytick_5">
     <g id="line2d_11">
      <path clip-path="url(#p2a32b6bac1)" d="M 180 143.920919 
L 339.428571 143.920919 
" style="fill:none;stroke:#b0b0b0;stroke-dasharray:2.775,1.2;stroke-dashoffset:0;stroke-width:0.75;"/>
     </g>
     <g id="line2d_12">
      <g>
       <use style="stroke:#000000;stroke-width:0.8;" x="180" xlink:href="#maadfbac407" y="143.920919"/>
      </g>
     </g>
     <g id="text_7">
      <text style="font-family:DejaVu Sans;font-size:12px;font-stretch:normal;font-style:normal;font-weight:normal;text-anchor:end;" transform="rotate(-0, 173, 148.479982)" x="173" y="148.479982">2</text>
     </g>
    </g>
    <g id="ytick_6">
     <g id="line2d_13">
      <path clip-path="url(#p2a32b6bac1)" d="M 180 88.262538 
L 339.428571 88.262538 
" style="fill:none;stroke:#b0b0b0;stroke-dasharray:2.775,1.2;stroke-dashoffset:0;stroke-width:0.75;"/>
     </g>
     <g id="line2d_14">
      <g>
       <use style="stroke:#000000;stroke-width:0.8;" x="180" xlink:href="#maadfbac407" y="88.262538"/>
      </g>
     </g>
     <g id="text_8">
      <text style="font-family:DejaVu Sans;font-size:12px;font-stretch:normal;font-style:normal;font-weight:normal;text-anchor:end;" transform="rotate(-0, 173, 92.821601)" x="173" y="92.821601">4</text>
     </g>
    </g>
    <g id="text_9">
     <text style="font-family:DejaVu Sans;font-size:20px;font-stretch:normal;font-style:normal;font-weight:normal;text-anchor:middle;" transform="rotate(-90, 147.15, 214.92)" x="147.15" y="214.92">GMHI2</text>
    </g>
   </g>
   <g id="PolyCollection_1">
    <defs>
     <path d="M 219.86162 -91.007361 
L 219.852665 -91.007361 
L 219.846927 -93.778343 
L 219.837746 -96.549324 
L 219.826093 -99.320306 
L 219.814394 -102.091288 
L 219.805104 -104.862269 
L 219.799265 -107.633251 
L 219.796403 -110.404233 
L 219.795414 -113.175214 
L 219.795168 -115.946196 
L 219.794397 -118.717178 
L 219.791431 -121.488159 
L 219.784395 -124.259141 
L 219.771616 -127.030123 
L 219.751375 -129.801104 
L 219.721515 -132.572086 
L 219.680404 -135.343068 
L 219.628474 -138.114049 
L 219.567712 -140.885031 
L 219.499452 -143.656013 
L 219.423696 -146.426994 
L 219.340698 -149.197976 
L 219.252032 -151.968958 
L 219.158893 -154.739939 
L 219.05888 -157.510921 
L 218.946034 -160.281903 
L 218.817321 -163.052884 
L 218.679599 -165.823866 
L 218.545846 -168.594848 
L 218.419459 -171.365829 
L 218.280932 -174.136811 
L 218.091958 -176.907793 
L 217.814803 -179.678774 
L 217.428072 -182.449756 
L 216.924594 -185.220738 
L 216.300224 -187.991719 
L 215.553766 -190.762701 
L 214.698751 -193.533683 
L 213.765351 -196.304664 
L 212.782323 -199.075646 
L 211.760589 -201.846628 
L 210.70355 -204.617609 
L 209.633073 -207.388591 
L 208.590929 -210.159572 
L 207.598289 -212.930554 
L 206.610998 -215.701536 
L 205.528325 -218.472517 
L 204.265699 -221.243499 
L 202.835731 -224.014481 
L 201.368782 -226.785462 
L 200.054749 -229.556444 
L 199.044473 -232.327426 
L 198.364559 -235.098407 
L 197.890213 -237.869389 
L 197.409151 -240.640371 
L 196.7564 -243.411352 
L 195.913224 -246.182334 
L 194.974381 -248.953316 
L 194.031637 -251.724297 
L 193.111167 -254.495279 
L 192.213222 -257.266261 
L 191.371826 -260.037242 
L 190.648891 -262.808224 
L 190.076022 -265.579206 
L 189.627698 -268.350187 
L 189.271369 -271.121169 
L 189.033711 -273.892151 
L 188.993291 -276.663132 
L 189.216495 -279.434114 
L 189.730618 -282.205096 
L 190.548161 -284.976077 
L 191.671681 -287.747059 
L 193.065497 -290.518041 
L 194.654938 -293.289022 
L 196.370742 -296.060004 
L 198.184595 -298.830986 
L 200.096097 -301.601967 
L 202.092705 -304.372949 
L 204.127745 -307.143931 
L 206.134964 -309.914912 
L 208.059611 -312.685894 
L 209.872065 -315.456876 
L 211.552441 -318.227857 
L 213.069976 -320.998839 
L 214.387478 -323.769821 
L 215.489153 -326.540802 
L 216.398736 -329.311784 
L 217.163055 -332.082766 
L 217.816299 -334.853747 
L 218.363333 -337.624729 
L 218.795983 -340.395711 
L 219.117595 -343.166692 
L 219.348749 -345.937674 
L 219.515324 -348.708655 
L 219.63675 -351.479637 
L 219.723937 -354.250619 
L 219.783253 -357.0216 
L 219.820245 -359.792582 
L 219.840859 -362.563564 
L 219.8509 -365.334545 
L 219.863386 -365.334545 
L 219.863386 -365.334545 
L 219.873427 -362.563564 
L 219.89404 -359.792582 
L 219.931033 -357.0216 
L 219.990348 -354.250619 
L 220.077536 -351.479637 
L 220.198962 -348.708655 
L 220.365537 -345.937674 
L 220.596691 -343.166692 
L 220.918303 -340.395711 
L 221.350953 -337.624729 
L 221.897987 -334.853747 
L 222.551231 -332.082766 
L 223.31555 -329.311784 
L 224.225133 -326.540802 
L 225.326808 -323.769821 
L 226.64431 -320.998839 
L 228.161845 -318.227857 
L 229.842221 -315.456876 
L 231.654675 -312.685894 
L 233.579322 -309.914912 
L 235.586541 -307.143931 
L 237.621581 -304.372949 
L 239.618188 -301.601967 
L 241.52969 -298.830986 
L 243.343544 -296.060004 
L 245.059348 -293.289022 
L 246.648789 -290.518041 
L 248.042605 -287.747059 
L 249.166125 -284.976077 
L 249.983668 -282.205096 
L 250.49779 -279.434114 
L 250.720995 -276.663132 
L 250.680574 -273.892151 
L 250.442917 -271.121169 
L 250.086588 -268.350187 
L 249.638264 -265.579206 
L 249.065395 -262.808224 
L 248.34246 -260.037242 
L 247.501064 -257.266261 
L 246.603119 -254.495279 
L 245.682649 -251.724297 
L 244.739905 -248.953316 
L 243.801062 -246.182334 
L 242.957886 -243.411352 
L 242.305135 -240.640371 
L 241.824073 -237.869389 
L 241.349726 -235.098407 
L 240.669813 -232.327426 
L 239.659537 -229.556444 
L 238.345504 -226.785462 
L 236.878555 -224.014481 
L 235.448586 -221.243499 
L 234.185961 -218.472517 
L 233.103288 -215.701536 
L 232.115996 -212.930554 
L 231.123357 -210.159572 
L 230.081213 -207.388591 
L 229.010735 -204.617609 
L 227.953697 -201.846628 
L 226.931963 -199.075646 
L 225.948934 -196.304664 
L 225.015535 -193.533683 
L 224.16052 -190.762701 
L 223.414062 -187.991719 
L 222.789692 -185.220738 
L 222.286213 -182.449756 
L 221.899483 -179.678774 
L 221.622327 -176.907793 
L 221.433354 -174.136811 
L 221.294826 -171.365829 
L 221.168439 -168.594848 
L 221.034687 -165.823866 
L 220.896965 -163.052884 
L 220.768252 -160.281903 
L 220.655406 -157.510921 
L 220.555392 -154.739939 
L 220.462254 -151.968958 
L 220.373588 -149.197976 
L 220.29059 -146.426994 
L 220.214834 -143.656013 
L 220.146574 -140.885031 
L 220.085812 -138.114049 
L 220.033882 -135.343068 
L 219.992771 -132.572086 
L 219.962911 -129.801104 
L 219.94267 -127.030123 
L 219.929891 -124.259141 
L 219.922855 -121.488159 
L 219.919888 -118.717178 
L 219.919117 -115.946196 
L 219.918871 -113.175214 
L 219.917883 -110.404233 
L 219.915021 -107.633251 
L 219.909182 -104.862269 
L 219.899892 -102.091288 
L 219.888192 -99.320306 
L 219.87654 -96.549324 
L 219.867359 -93.778343 
L 219.86162 -91.007361 
z
" id="mea89b2cc94" style="stroke:#4b4b4b;stroke-width:1.5;"/>
    </defs>
    <g clip-path="url(#p2a32b6bac1)">
     <use style="fill:#5481a6;stroke:#4b4b4b;stroke-width:1.5;" x="0" xlink:href="#mea89b2cc94" y="432"/>
    </g>
   </g>
   <g id="PolyCollection_2">
    <defs>
     <path d="M 299.581131 -68.825455 
L 299.561726 -68.825455 
L 299.551118 -71.485447 
L 299.532538 -74.145439 
L 299.502565 -76.805431 
L 299.457434 -79.465423 
L 299.393387 -82.125415 
L 299.307393 -84.785407 
L 299.198235 -87.445399 
L 299.067314 -90.105391 
L 298.918345 -92.765383 
L 298.75602 -95.425375 
L 298.584944 -98.085367 
L 298.409719 -100.745359 
L 298.234888 -103.405351 
L 298.062439 -106.065343 
L 297.887208 -108.725335 
L 297.694326 -111.385327 
L 297.462704 -114.045319 
L 297.173325 -116.705311 
L 296.816363 -119.365303 
L 296.392355 -122.025295 
L 295.90837 -124.685287 
L 295.374146 -127.345279 
L 294.801412 -130.005271 
L 294.204427 -132.665263 
L 293.597016 -135.325255 
L 292.984672 -137.985247 
L 292.356881 -140.645239 
L 291.687244 -143.305231 
L 290.943503 -145.965223 
L 290.101109 -148.625215 
L 289.151435 -151.285207 
L 288.101463 -153.945199 
L 286.969441 -156.605191 
L 285.782631 -159.265183 
L 284.578164 -161.925175 
L 283.401934 -164.585167 
L 282.299674 -167.245159 
L 281.300155 -169.905151 
L 280.398563 -172.565143 
L 279.551805 -175.225135 
L 278.692276 -177.885127 
L 277.754625 -180.545119 
L 276.700221 -183.205111 
L 275.525765 -185.865103 
L 274.255755 -188.525095 
L 272.931464 -191.185087 
L 271.608333 -193.845079 
L 270.359773 -196.505071 
L 269.27399 -199.165063 
L 268.435722 -201.825055 
L 267.901452 -204.485047 
L 267.685714 -207.145039 
L 267.767089 -209.805031 
L 268.106412 -212.465023 
L 268.664628 -215.125015 
L 269.415165 -217.785007 
L 270.351224 -220.444999 
L 271.484289 -223.104991 
L 272.827353 -225.764983 
L 274.366801 -228.424975 
L 276.041966 -231.084967 
L 277.752141 -233.744959 
L 279.392446 -236.404951 
L 280.898372 -239.064943 
L 282.271668 -241.724935 
L 283.571387 -244.384927 
L 284.874721 -247.044919 
L 286.230342 -249.704911 
L 287.631566 -252.364903 
L 289.023839 -255.024895 
L 290.338568 -257.684887 
L 291.529131 -260.344879 
L 292.586653 -263.004871 
L 293.529876 -265.664863 
L 294.381565 -268.324855 
L 295.150291 -270.984847 
L 295.828834 -273.644839 
L 296.406502 -276.304831 
L 296.883305 -278.964823 
L 297.274836 -281.624815 
L 297.605229 -284.284807 
L 297.894645 -286.944799 
L 298.150919 -289.604791 
L 298.370845 -292.264783 
L 298.548872 -294.924775 
L 298.685905 -297.584767 
L 298.791947 -300.244759 
L 298.88191 -302.904751 
L 298.968731 -305.564743 
L 299.058748 -308.224735 
L 299.151412 -310.884727 
L 299.242095 -313.544719 
L 299.325407 -316.204711 
L 299.397239 -318.864703 
L 299.455354 -321.524695 
L 299.499266 -324.184687 
L 299.529972 -326.844679 
L 299.549623 -329.504671 
L 299.561014 -332.164663 
L 299.581844 -332.164663 
L 299.581844 -332.164663 
L 299.593234 -329.504671 
L 299.612886 -326.844679 
L 299.643591 -324.184687 
L 299.687503 -321.524695 
L 299.745618 -318.864703 
L 299.81745 -316.204711 
L 299.900762 -313.544719 
L 299.991446 -310.884727 
L 300.084109 -308.224735 
L 300.174126 -305.564743 
L 300.260947 -302.904751 
L 300.35091 -300.244759 
L 300.456953 -297.584767 
L 300.593985 -294.924775 
L 300.772012 -292.264783 
L 300.991938 -289.604791 
L 301.248212 -286.944799 
L 301.537628 -284.284807 
L 301.868021 -281.624815 
L 302.259552 -278.964823 
L 302.736355 -276.304831 
L 303.314023 -273.644839 
L 303.992567 -270.984847 
L 304.761292 -268.324855 
L 305.612981 -265.664863 
L 306.556204 -263.004871 
L 307.613726 -260.344879 
L 308.804289 -257.684887 
L 310.119018 -255.024895 
L 311.511292 -252.364903 
L 312.912515 -249.704911 
L 314.268137 -247.044919 
L 315.57147 -244.384927 
L 316.871189 -241.724935 
L 318.244485 -239.064943 
L 319.750411 -236.404951 
L 321.390717 -233.744959 
L 323.100891 -231.084967 
L 324.776056 -228.424975 
L 326.315504 -225.764983 
L 327.658568 -223.104991 
L 328.791633 -220.444999 
L 329.727692 -217.785007 
L 330.478229 -215.125015 
L 331.036445 -212.465023 
L 331.375768 -209.805031 
L 331.457143 -207.145039 
L 331.241406 -204.485047 
L 330.707135 -201.825055 
L 329.868867 -199.165063 
L 328.783085 -196.505071 
L 327.534524 -193.845079 
L 326.211393 -191.185087 
L 324.887102 -188.525095 
L 323.617092 -185.865103 
L 322.442636 -183.205111 
L 321.388232 -180.545119 
L 320.450581 -177.885127 
L 319.591052 -175.225135 
L 318.744294 -172.565143 
L 317.842702 -169.905151 
L 316.843183 -167.245159 
L 315.740924 -164.585167 
L 314.564693 -161.925175 
L 313.360226 -159.265183 
L 312.173416 -156.605191 
L 311.041394 -153.945199 
L 309.991422 -151.285207 
L 309.041748 -148.625215 
L 308.199354 -145.965223 
L 307.455613 -143.305231 
L 306.785976 -140.645239 
L 306.158185 -137.985247 
L 305.545841 -135.325255 
L 304.93843 -132.665263 
L 304.341445 -130.005271 
L 303.768711 -127.345279 
L 303.234487 -124.685287 
L 302.750502 -122.025295 
L 302.326494 -119.365303 
L 301.969533 -116.705311 
L 301.680153 -114.045319 
L 301.448531 -111.385327 
L 301.255649 -108.725335 
L 301.080418 -106.065343 
L 300.907969 -103.405351 
L 300.733138 -100.745359 
L 300.557913 -98.085367 
L 300.386837 -95.425375 
L 300.224512 -92.765383 
L 300.075543 -90.105391 
L 299.944623 -87.445399 
L 299.835464 -84.785407 
L 299.74947 -82.125415 
L 299.685423 -79.465423 
L 299.640292 -76.805431 
L 299.610319 -74.145439 
L 299.591739 -71.485447 
L 299.581131 -68.825455 
z
" id="m22db84d480" style="stroke:#4b4b4b;stroke-width:1.5;"/>
    </defs>
    <g clip-path="url(#p2a32b6bac1)">
     <use style="fill:#df9c20;stroke:#4b4b4b;stroke-width:1.5;" x="0" xlink:href="#m22db84d480" y="432"/>
    </g>
   </g>
   <g id="line2d_15">
    <path clip-path="url(#p2a32b6bac1)" d="M 219.857143 268.777947 
L 219.857143 78.970928 
" style="fill:none;stroke:#4b4b4b;stroke-linecap:square;stroke-width:1.5;"/>
   </g>
   <g id="line2d_16">
    <path clip-path="url(#p2a32b6bac1)" d="M 219.857143 194.923011 
L 219.857143 145.57424 
" style="fill:none;stroke:#4b4b4b;stroke-linecap:square;stroke-width:4.5;"/>
   </g>
   <g id="line2d_17">
    <path clip-path="url(#p2a32b6bac1)" d="M 299.571429 323.009405 
L 299.571429 136.047953 
" style="fill:none;stroke:#4b4b4b;stroke-linecap:square;stroke-width:1.5;"/>
   </g>
   <g id="line2d_18">
    <path clip-path="url(#p2a32b6bac1)" d="M 299.571429 252.728578 
L 299.571429 205.799099 
" style="fill:none;stroke:#4b4b4b;stroke-linecap:square;stroke-width:4.5;"/>
   </g>
   <g id="patch_3">
    <path d="M 180 378 
L 180 51.84 
" style="fill:none;stroke:#000000;stroke-linecap:square;stroke-linejoin:miter;stroke-width:0.8;"/>
   </g>
   <g id="patch_4">
    <path d="M 339.428571 378 
L 339.428571 51.84 
" style="fill:none;stroke:#000000;stroke-linecap:square;stroke-linejoin:miter;stroke-width:0.8;"/>
   </g>
   <g id="patch_5">
    <path d="M 180 378 
L 339.428571 378 
" style="fill:none;stroke:#000000;stroke-linecap:square;stroke-linejoin:miter;stroke-width:0.8;"/>
   </g>
   <g id="patch_6">
    <path d="M 180 51.84 
L 339.428571 51.84 
" style="fill:none;stroke:#000000;stroke-linecap:square;stroke-linejoin:miter;stroke-width:0.8;"/>
   </g>
   <g id="PathCollection_1">
    <defs>
     <path d="M 0 1.5 
C 0.397805 1.5 0.77937 1.341951 1.06066 1.06066 
C 1.341951 0.77937 1.5 0.397805 1.5 0 
C 1.5 -0.397805 1.341951 -0.77937 1.06066 -1.06066 
C 0.77937 -1.341951 0.397805 -1.5 0 -1.5 
C -0.397805 -1.5 -0.77937 -1.341951 -1.06066 -1.06066 
C -1.341951 -0.77937 -1.5 -0.397805 -1.5 0 
C -1.5 0.397805 -1.341951 0.77937 -1.06066 1.06066 
C -0.77937 1.341951 -0.397805 1.5 0 1.5 
z
" id="m90cbced724" style="stroke:#4b4b4b;"/>
    </defs>
    <g clip-path="url(#p2a32b6bac1)">
     <use style="fill:#ffffff;stroke:#4b4b4b;" x="219.857143" xlink:href="#m90cbced724" y="167.584811"/>
    </g>
   </g>
   <g id="PathCollection_2">
    <g clip-path="url(#p2a32b6bac1)">
     <use style="fill:#ffffff;stroke:#4b4b4b;" x="299.571429" xlink:href="#m90cbced724" y="227.478999"/>
    </g>
   </g>
   <g id="text_10">
    <!-- P $&lt;$ 5e-324 -->
    <g transform="translate(217.784286 68.148)">
     <text>
      <tspan style="font-family:DejaVu Sans;font-size:14px;font-style:book;font-weight:book;" x="0 8.442383 15.620117 30.078125 34.52832 43.435547 52.048828 57.100586 66.007812 74.915039" y="-0.609375">P &lt; 5e-324</tspan>
     </text>
    </g>
   </g>
   <g id="text_11">
    <text style="font-family:DejaVu Sans;font-size:14px;font-stretch:normal;font-style:normal;font-weight:normal;text-anchor:middle;" transform="rotate(-0, 259.714286, 81.1944)" x="259.714286" y="81.1944">d = 0.76</text>
   </g>
  </g>
  <g id="axes_2">
   <g id="patch_7">
    <path d="M 419.142857 378 
L 578.571429 378 
L 578.571429 51.84 
L 419.142857 51.84 
z
" style="fill:#ffffff;"/>
   </g>
   <g id="matplotlib.axis_3">
    <g id="xtick_3">
     <g id="line2d_19">
      <g>
       <use style="stroke:#000000;stroke-width:0.8;" x="459" xlink:href="#mbf156ea8a6" y="378"/>
      </g>
     </g>
     <g id="text_12">
      <text style="font-family:DejaVu Sans;font-size:15px;font-stretch:normal;font-style:normal;font-weight:normal;" transform="translate(429.932813 396.397656)">Healthy</text>
      <text style="font-family:DejaVu Sans;font-size:15px;font-stretch:normal;font-style:normal;font-weight:normal;" transform="translate(431.676562 413.194375)"> (5547)</text>
     </g>
    </g>
    <g id="xtick_4">
     <g id="line2d_20">
      <g>
       <use style="stroke:#000000;stroke-width:0.8;" x="538.714286" xlink:href="#mbf156ea8a6" y="378"/>
      </g>
     </g>
     <g id="text_13">
      <text style="font-family:DejaVu Sans;font-size:15px;font-stretch:normal;font-style:normal;font-weight:normal;" transform="translate(495.581083 396.397656)">Nonhealthy</text>
      <text style="font-family:DejaVu Sans;font-size:15px;font-stretch:normal;font-style:normal;font-weight:normal;" transform="translate(511.390848 413.194375)"> (2522)</text>
     </g>
    </g>
   </g>
   <g id="matplotlib.axis_4">
    <g id="ytick_7">
     <g id="line2d_21">
      <path clip-path="url(#p3ef9892f7d)" d="M 419.142857 371.566988 
L 578.571429 371.566988 
" style="fill:none;stroke:#b0b0b0;stroke-dasharray:2.775,1.2;stroke-dashoffset:0;stroke-width:0.75;"/>
     </g>
     <g id="line2d_22">
      <g>
       <use style="stroke:#000000;stroke-width:0.8;" x="419.142857" xlink:href="#maadfbac407" y="371.566988"/>
      </g>
     </g>
     <g id="text_14">
      <text style="font-family:DejaVu Sans;font-size:12px;font-stretch:normal;font-style:normal;font-weight:normal;text-anchor:end;" transform="rotate(-0, 412.142857, 376.12605)" x="412.142857" y="376.12605">−6</text>
     </g>
    </g>
    <g id="ytick_8">
     <g id="line2d_23">
      <path clip-path="url(#p3ef9892f7d)" d="M 419.142857 318.56261 
L 578.571429 318.56261 
" style="fill:none;stroke:#b0b0b0;stroke-dasharray:2.775,1.2;stroke-dashoffset:0;stroke-width:0.75;"/>
     </g>
     <g id="line2d_24">
      <g>
       <use style="stroke:#000000;stroke-width:0.8;" x="419.142857" xlink:href="#maadfbac407" y="318.56261"/>
      </g>
     </g>
     <g id="text_15">
      <text style="font-family:DejaVu Sans;font-size:12px;font-stretch:normal;font-style:normal;font-weight:normal;text-anchor:end;" transform="rotate(-0, 412.142857, 323.121672)" x="412.142857" y="323.121672">−4</text>
     </g>
    </g>
    <g id="ytick_9">
     <g id="line2d_25">
      <path clip-path="url(#p3ef9892f7d)" d="M 419.142857 265.558232 
L 578.571429 265.558232 
" style="fill:none;stroke:#b0b0b0;stroke-dasharray:2.775,1.2;stroke-dashoffset:0;stroke-width:0.75;"/>
     </g>
     <g id="line2d_26">
      <g>
       <use style="stroke:#000000;stroke-width:0.8;" x="419.142857" xlink:href="#maadfbac407" y="265.558232"/>
      </g>
     </g>
     <g id="text_16">
      <text style="font-family:DejaVu Sans;font-size:12px;font-stretch:normal;font-style:normal;font-weight:normal;text-anchor:end;" transform="rotate(-0, 412.142857, 270.117294)" x="412.142857" y="270.117294">−2</text>
     </g>
    </g>
    <g id="ytick_10">
     <g id="line2d_27">
      <path clip-path="url(#p3ef9892f7d)" d="M 419.142857 212.553854 
L 578.571429 212.553854 
" style="fill:none;stroke:#b0b0b0;stroke-dasharray:2.775,1.2;stroke-dashoffset:0;stroke-width:0.75;"/>
     </g>
     <g id="line2d_28">
      <g>
       <use style="stroke:#000000;stroke-width:0.8;" x="419.142857" xlink:href="#maadfbac407" y="212.553854"/>
      </g>
     </g>
     <g id="text_17">
      <text style="font-family:DejaVu Sans;font-size:12px;font-stretch:normal;font-style:normal;font-weight:normal;text-anchor:end;" transform="rotate(-0, 412.142857, 217.112917)" x="412.142857" y="217.112917">0</text>
     </g>
    </g>
    <g id="ytick_11">
     <g id="line2d_29">
      <path clip-path="url(#p3ef9892f7d)" d="M 419.142857 159.549476 
L 578.571429 159.549476 
" style="fill:none;stroke:#b0b0b0;stroke-dasharray:2.775,1.2;stroke-dashoffset:0;stroke-width:0.75;"/>
     </g>
     <g id="line2d_30">
      <g>
       <use style="stroke:#000000;stroke-width:0.8;" x="419.142857" xlink:href="#maadfbac407" y="159.549476"/>
      </g>
     </g>
     <g id="text_18">
      <text style="font-family:DejaVu Sans;font-size:12px;font-stretch:normal;font-style:normal;font-weight:normal;text-anchor:end;" transform="rotate(-0, 412.142857, 164.108539)" x="412.142857" y="164.108539">2</text>
     </g>
    </g>
    <g id="ytick_12">
     <g id="line2d_31">
      <path clip-path="url(#p3ef9892f7d)" d="M 419.142857 106.545098 
L 578.571429 106.545098 
" style="fill:none;stroke:#b0b0b0;stroke-dasharray:2.775,1.2;stroke-dashoffset:0;stroke-width:0.75;"/>
     </g>
     <g id="line2d_32">
      <g>
       <use style="stroke:#000000;stroke-width:0.8;" x="419.142857" xlink:href="#maadfbac407" y="106.545098"/>
      </g>
     </g>
     <g id="text_19">
      <text style="font-family:DejaVu Sans;font-size:12px;font-stretch:normal;font-style:normal;font-weight:normal;text-anchor:end;" transform="rotate(-0, 412.142857, 111.104161)" x="412.142857" y="111.104161">4</text>
     </g>
    </g>
    <g id="ytick_13">
     <g id="line2d_33">
      <path clip-path="url(#p3ef9892f7d)" d="M 419.142857 53.54072 
L 578.571429 53.54072 
" style="fill:none;stroke:#b0b0b0;stroke-dasharray:2.775,1.2;stroke-dashoffset:0;stroke-width:0.75;"/>
     </g>
     <g id="line2d_34">
      <g>
       <use style="stroke:#000000;stroke-width:0.8;" x="419.142857" xlink:href="#maadfbac407" y="53.54072"/>
      </g>
     </g>
     <g id="text_20">
      <text style="font-family:DejaVu Sans;font-size:12px;font-stretch:normal;font-style:normal;font-weight:normal;text-anchor:end;" transform="rotate(-0, 412.142857, 58.099783)" x="412.142857" y="58.099783">6</text>
     </g>
    </g>
    <g id="text_21">
     <text style="font-family:DejaVu Sans;font-size:20px;font-stretch:normal;font-style:normal;font-weight:normal;text-anchor:middle;" transform="rotate(-90, 386.292857, 214.92)" x="386.292857" y="214.92">GMHI</text>
    </g>
   </g>
   <g id="PolyCollection_3">
    <defs>
     <path d="M 459.01245 -79.940539 
L 458.98755 -79.940539 
L 458.972725 -82.823306 
L 458.945632 -85.706074 
L 458.900876 -88.588842 
L 458.83357 -91.47161 
L 458.740453 -94.354377 
L 458.620199 -97.237145 
L 458.472806 -100.119913 
L 458.299063 -103.002681 
L 458.101636 -105.885448 
L 457.888027 -108.768216 
L 457.673218 -111.650984 
L 457.478608 -114.533752 
L 457.325796 -117.416519 
L 457.227923 -120.299287 
L 457.183822 -123.182055 
L 457.178731 -126.064823 
L 457.191055 -128.94759 
L 457.200959 -131.830358 
L 457.196063 -134.713126 
L 457.171809 -137.595893 
L 457.127691 -140.478661 
L 457.06328 -143.361429 
L 456.97789 -146.244197 
L 456.874041 -149.126964 
L 456.760273 -152.009732 
L 456.647973 -154.8925 
L 456.542005 -157.775268 
L 456.432006 -160.658035 
L 456.292901 -163.540803 
L 456.096268 -166.423571 
L 455.824485 -169.306339 
L 455.476429 -172.189106 
L 455.060742 -175.071874 
L 454.583782 -177.954642 
L 454.043696 -180.83741 
L 453.435184 -183.720177 
L 452.75867 -186.602945 
L 452.023983 -189.485713 
L 451.245436 -192.368481 
L 450.434178 -195.251248 
L 449.595179 -198.134016 
L 448.729899 -201.016784 
L 447.839421 -203.899552 
L 446.923082 -206.782319 
L 445.973229 -209.665087 
L 444.971906 -212.547855 
L 443.894676 -215.430623 
L 442.720677 -218.31339 
L 441.441979 -221.196158 
L 440.066004 -224.078926 
L 438.611917 -226.961694 
L 437.107347 -229.844461 
L 435.588723 -232.727229 
L 434.101199 -235.609997 
L 432.692859 -238.492765 
L 431.405571 -241.375532 
L 430.271304 -244.2583 
L 429.31768 -247.141068 
L 428.574375 -250.023836 
L 428.068088 -252.906603 
L 427.805769 -255.789371 
L 427.761081 -258.672139 
L 427.879477 -261.554907 
L 428.100975 -264.437674 
L 428.384334 -267.320442 
L 428.717299 -270.20321 
L 429.111317 -273.085978 
L 429.589641 -275.968745 
L 430.176625 -278.851513 
L 430.889591 -281.734281 
L 431.732456 -284.617049 
L 432.692667 -287.499816 
L 433.74312 -290.382584 
L 434.846695 -293.265352 
L 435.958864 -296.14812 
L 437.028044 -299.030887 
L 437.999003 -301.913655 
L 438.823377 -304.796423 
L 439.473324 -307.679191 
L 439.948291 -310.561958 
L 440.268958 -313.444726 
L 440.464112 -316.327494 
L 440.564304 -319.210262 
L 440.611439 -322.093029 
L 440.678378 -324.975797 
L 440.880661 -327.858565 
L 441.36449 -330.741332 
L 442.269631 -333.6241 
L 443.680821 -336.506868 
L 445.587578 -339.389636 
L 447.869474 -342.272403 
L 450.315954 -345.155171 
L 452.677992 -348.037939 
L 454.734868 -350.920707 
L 456.349718 -353.803474 
L 457.491274 -356.686242 
L 458.216748 -359.56901 
L 458.6306 -362.451778 
L 458.842234 -365.334545 
L 459.157766 -365.334545 
L 459.157766 -365.334545 
L 459.3694 -362.451778 
L 459.783252 -359.56901 
L 460.508726 -356.686242 
L 461.650282 -353.803474 
L 463.265132 -350.920707 
L 465.322008 -348.037939 
L 467.684046 -345.155171 
L 470.130526 -342.272403 
L 472.412422 -339.389636 
L 474.319179 -336.506868 
L 475.730369 -333.6241 
L 476.63551 -330.741332 
L 477.119339 -327.858565 
L 477.321622 -324.975797 
L 477.388561 -322.093029 
L 477.435696 -319.210262 
L 477.535888 -316.327494 
L 477.731042 -313.444726 
L 478.051709 -310.561958 
L 478.526676 -307.679191 
L 479.176623 -304.796423 
L 480.000997 -301.913655 
L 480.971956 -299.030887 
L 482.041136 -296.14812 
L 483.153305 -293.265352 
L 484.25688 -290.382584 
L 485.307333 -287.499816 
L 486.267544 -284.617049 
L 487.110409 -281.734281 
L 487.823375 -278.851513 
L 488.410359 -275.968745 
L 488.888683 -273.085978 
L 489.282701 -270.20321 
L 489.615666 -267.320442 
L 489.899025 -264.437674 
L 490.120523 -261.554907 
L 490.238919 -258.672139 
L 490.194231 -255.789371 
L 489.931912 -252.906603 
L 489.425625 -250.023836 
L 488.68232 -247.141068 
L 487.728696 -244.2583 
L 486.594429 -241.375532 
L 485.307141 -238.492765 
L 483.898801 -235.609997 
L 482.411277 -232.727229 
L 480.892653 -229.844461 
L 479.388083 -226.961694 
L 477.933996 -224.078926 
L 476.558021 -221.196158 
L 475.279323 -218.31339 
L 474.105324 -215.430623 
L 473.028094 -212.547855 
L 472.026771 -209.665087 
L 471.076918 -206.782319 
L 470.160579 -203.899552 
L 469.270101 -201.016784 
L 468.404821 -198.134016 
L 467.565822 -195.251248 
L 466.754564 -192.368481 
L 465.976017 -189.485713 
L 465.24133 -186.602945 
L 464.564816 -183.720177 
L 463.956304 -180.83741 
L 463.416218 -177.954642 
L 462.939258 -175.071874 
L 462.523571 -172.189106 
L 462.175515 -169.306339 
L 461.903732 -166.423571 
L 461.707099 -163.540803 
L 461.567994 -160.658035 
L 461.457995 -157.775268 
L 461.352027 -154.8925 
L 461.239727 -152.009732 
L 461.125959 -149.126964 
L 461.02211 -146.244197 
L 460.93672 -143.361429 
L 460.872309 -140.478661 
L 460.828191 -137.595893 
L 460.803937 -134.713126 
L 460.799041 -131.830358 
L 460.808945 -128.94759 
L 460.821269 -126.064823 
L 460.816178 -123.182055 
L 460.772077 -120.299287 
L 460.674204 -117.416519 
L 460.521392 -114.533752 
L 460.326782 -111.650984 
L 460.111973 -108.768216 
L 459.898364 -105.885448 
L 459.700937 -103.002681 
L 459.527194 -100.119913 
L 459.379801 -97.237145 
L 459.259547 -94.354377 
L 459.16643 -91.47161 
L 459.099124 -88.588842 
L 459.054368 -85.706074 
L 459.027275 -82.823306 
L 459.01245 -79.940539 
z
" id="m81755d6a4f" style="stroke:#4b4b4b;stroke-width:1.5;"/>
    </defs>
    <g clip-path="url(#p3ef9892f7d)">
     <use style="fill:#5481a6;stroke:#4b4b4b;stroke-width:1.5;" x="0" xlink:href="#m81755d6a4f" y="432"/>
    </g>
   </g>
   <g id="PolyCollection_4">
    <defs>
     <path d="M 538.778885 -68.825455 
L 538.649686 -68.825455 
L 538.578975 -71.812421 
L 538.449294 -74.799388 
L 538.227914 -77.786354 
L 537.875734 -80.773321 
L 537.353381 -83.760287 
L 536.631337 -86.747254 
L 535.702453 -89.734221 
L 534.593059 -92.721187 
L 533.367471 -95.708154 
L 532.12165 -98.69512 
L 530.965571 -101.682087 
L 529.999214 -104.669053 
L 529.290608 -107.65602 
L 528.863643 -110.642987 
L 528.698599 -113.629953 
L 528.742843 -116.61692 
L 528.926251 -119.603886 
L 529.176382 -122.590853 
L 529.430431 -125.57782 
L 529.64247 -128.564786 
L 529.785085 -131.551753 
L 529.845305 -134.538719 
L 529.81659 -137.525686 
L 529.690779 -140.512652 
L 529.454434 -143.499619 
L 529.091464 -146.486586 
L 528.589606 -149.473552 
L 527.945479 -152.460519 
L 527.164371 -155.447485 
L 526.255592 -158.434452 
L 525.228027 -161.421418 
L 524.089856 -164.408385 
L 522.852227 -167.395352 
L 521.533141 -170.382318 
L 520.158079 -173.369285 
L 518.757135 -176.356251 
L 517.360891 -179.343218 
L 515.997091 -182.330184 
L 514.688418 -185.317151 
L 513.450985 -188.304118 
L 512.294102 -191.291084 
L 511.222695 -194.278051 
L 510.242334 -197.265017 
L 509.364019 -200.251984 
L 508.604531 -203.238951 
L 507.980591 -206.225917 
L 507.500134 -209.212884 
L 507.157524 -212.19985 
L 506.937787 -215.186817 
L 506.828571 -218.173783 
L 506.832301 -221.16075 
L 506.970233 -224.147717 
L 507.275749 -227.134683 
L 507.781748 -230.12165 
L 508.510269 -233.108616 
L 509.469239 -236.095583 
L 510.654869 -239.082549 
L 512.054364 -242.069516 
L 513.644927 -245.056483 
L 515.389637 -248.043449 
L 517.23447 -251.030416 
L 519.111062 -254.017382 
L 520.946779 -257.004349 
L 522.679397 -259.991315 
L 524.270389 -262.978282 
L 525.710445 -265.965249 
L 527.014128 -268.952215 
L 528.206229 -271.939182 
L 529.30714 -274.926148 
L 530.325024 -277.913115 
L 531.2579 -280.900082 
L 532.102264 -283.887048 
L 532.86115 -286.874015 
L 533.546149 -289.860981 
L 534.172948 -292.847948 
L 534.754301 -295.834914 
L 535.295104 -298.821881 
L 535.791879 -301.808848 
L 536.236038 -304.795814 
L 536.618725 -307.782781 
L 536.93508 -310.769747 
L 537.186588 -313.756714 
L 537.381019 -316.74368 
L 537.53035 -319.730647 
L 537.647783 -322.717614 
L 537.745262 -325.70458 
L 537.832363 -328.691547 
L 537.916373 -331.678513 
L 538.00264 -334.66548 
L 538.094366 -337.652447 
L 538.191912 -340.639413 
L 538.292397 -343.62638 
L 538.390338 -346.613346 
L 538.479356 -349.600313 
L 538.554206 -352.587279 
L 538.612205 -355.574246 
L 538.653554 -358.561213 
L 538.680659 -361.548179 
L 538.696992 -364.535146 
L 538.731579 -364.535146 
L 538.731579 -364.535146 
L 538.747913 -361.548179 
L 538.775017 -358.561213 
L 538.816366 -355.574246 
L 538.874366 -352.587279 
L 538.949216 -349.600313 
L 539.038234 -346.613346 
L 539.136174 -343.62638 
L 539.236659 -340.639413 
L 539.334206 -337.652447 
L 539.425932 -334.66548 
L 539.512199 -331.678513 
L 539.596209 -328.691547 
L 539.683309 -325.70458 
L 539.780789 -322.717614 
L 539.898222 -319.730647 
L 540.047553 -316.74368 
L 540.241984 -313.756714 
L 540.493492 -310.769747 
L 540.809847 -307.782781 
L 541.192533 -304.795814 
L 541.636693 -301.808848 
L 542.133468 -298.821881 
L 542.67427 -295.834914 
L 543.255623 -292.847948 
L 543.882422 -289.860981 
L 544.567422 -286.874015 
L 545.326308 -283.887048 
L 546.170671 -280.900082 
L 547.103547 -277.913115 
L 548.121432 -274.926148 
L 549.222343 -271.939182 
L 550.414443 -268.952215 
L 551.718126 -265.965249 
L 553.158183 -262.978282 
L 554.749175 -259.991315 
L 556.481793 -257.004349 
L 558.317509 -254.017382 
L 560.194101 -251.030416 
L 562.038935 -248.043449 
L 563.783645 -245.056483 
L 565.374208 -242.069516 
L 566.773702 -239.082549 
L 567.959332 -236.095583 
L 568.918302 -233.108616 
L 569.646823 -230.12165 
L 570.152822 -227.134683 
L 570.458339 -224.147717 
L 570.59627 -221.16075 
L 570.6 -218.173783 
L 570.490784 -215.186817 
L 570.271048 -212.19985 
L 569.928438 -209.212884 
L 569.447981 -206.225917 
L 568.82404 -203.238951 
L 568.064553 -200.251984 
L 567.186237 -197.265017 
L 566.205876 -194.278051 
L 565.13447 -191.291084 
L 563.977587 -188.304118 
L 562.740153 -185.317151 
L 561.431481 -182.330184 
L 560.06768 -179.343218 
L 558.671436 -176.356251 
L 557.270492 -173.369285 
L 555.895431 -170.382318 
L 554.576344 -167.395352 
L 553.338716 -164.408385 
L 552.200544 -161.421418 
L 551.172979 -158.434452 
L 550.264201 -155.447485 
L 549.483092 -152.460519 
L 548.838966 -149.473552 
L 548.337107 -146.486586 
L 547.974137 -143.499619 
L 547.737792 -140.512652 
L 547.611982 -137.525686 
L 547.583266 -134.538719 
L 547.643487 -131.551753 
L 547.786101 -128.564786 
L 547.99814 -125.57782 
L 548.252189 -122.590853 
L 548.50232 -119.603886 
L 548.685728 -116.61692 
L 548.729972 -113.629953 
L 548.564929 -110.642987 
L 548.137963 -107.65602 
L 547.429357 -104.669053 
L 546.463 -101.682087 
L 545.306922 -98.69512 
L 544.0611 -95.708154 
L 542.835513 -92.721187 
L 541.726118 -89.734221 
L 540.797235 -86.747254 
L 540.07519 -83.760287 
L 539.552838 -80.773321 
L 539.200658 -77.786354 
L 538.979278 -74.799388 
L 538.849596 -71.812421 
L 538.778885 -68.825455 
z
" id="mdf0a13db9d" style="stroke:#4b4b4b;stroke-width:1.5;"/>
    </defs>
    <g clip-path="url(#p3ef9892f7d)">
     <use style="fill:#df9c20;stroke:#4b4b4b;stroke-width:1.5;" x="0" xlink:href="#mdf0a13db9d" y="432"/>
    </g>
   </g>
   <g id="line2d_35">
    <path clip-path="url(#p3ef9892f7d)" d="M 459 287.627066 
L 459 83.355521 
" style="fill:none;stroke:#4b4b4b;stroke-linecap:square;stroke-width:1.5;"/>
   </g>
   <g id="line2d_36">
    <path clip-path="url(#p3ef9892f7d)" d="M 459 196.176992 
L 459 134.998031 
" style="fill:none;stroke:#4b4b4b;stroke-linecap:square;stroke-width:4.5;"/>
   </g>
   <g id="line2d_37">
    <path clip-path="url(#p3ef9892f7d)" d="M 538.714286 343.190556 
L 538.714286 104.116257 
" style="fill:none;stroke:#4b4b4b;stroke-linecap:square;stroke-width:1.5;"/>
   </g>
   <g id="line2d_38">
    <path clip-path="url(#p3ef9892f7d)" d="M 538.714286 255.835319 
L 538.714286 194.559923 
" style="fill:none;stroke:#4b4b4b;stroke-linecap:square;stroke-width:4.5;"/>
   </g>
   <g id="patch_8">
    <path d="M 419.142857 378 
L 419.142857 51.84 
" style="fill:none;stroke:#000000;stroke-linecap:square;stroke-linejoin:miter;stroke-width:0.8;"/>
   </g>
   <g id="patch_9">
    <path d="M 578.571429 378 
L 578.571429 51.84 
" style="fill:none;stroke:#000000;stroke-linecap:square;stroke-linejoin:miter;stroke-width:0.8;"/>
   </g>
   <g id="patch_10">
    <path d="M 419.142857 378 
L 578.571429 378 
" style="fill:none;stroke:#000000;stroke-linecap:square;stroke-linejoin:miter;stroke-width:0.8;"/>
   </g>
   <g id="patch_11">
    <path d="M 419.142857 51.84 
L 578.571429 51.84 
" style="fill:none;stroke:#000000;stroke-linecap:square;stroke-linejoin:miter;stroke-width:0.8;"/>
   </g>
   <g id="PathCollection_3">
    <g clip-path="url(#p3ef9892f7d)">
     <use style="fill:#ffffff;stroke:#4b4b4b;" x="459" xlink:href="#m90cbced724" y="166.575961"/>
    </g>
   </g>
   <g id="PathCollection_4">
    <g clip-path="url(#p3ef9892f7d)">
     <use style="fill:#ffffff;stroke:#4b4b4b;" x="538.714286" xlink:href="#m90cbced724" y="222.744164"/>
    </g>
   </g>
   <g id="text_22">
    <!-- P $&lt;$ 5e-324 -->
    <g transform="translate(456.927143 68.148)">
     <text>
      <tspan style="font-family:DejaVu Sans;font-size:14px;font-style:book;font-weight:book;" x="0 8.442383 15.620117 30.078125 34.52832 43.435547 52.048828 57.100586 66.007812 74.915039" y="-0.609375">P &lt; 5e-324</tspan>
     </text>
    </g>
   </g>
   <g id="text_23">
    <text style="font-family:DejaVu Sans;font-size:14px;font-stretch:normal;font-style:normal;font-weight:normal;text-anchor:middle;" transform="rotate(-0, 498.857143, 81.1944)" x="498.857143" y="81.1944">d = 0.63</text>
   </g>
  </g>
  <g id="axes_3">
   <g id="patch_12">
    <path d="M 658.285714 378 
L 817.714286 378 
L 817.714286 51.84 
L 658.285714 51.84 
z
" style="fill:#ffffff;"/>
   </g>
   <g id="matplotlib.axis_5">
    <g id="xtick_5">
     <g id="line2d_39">
      <g>
       <use style="stroke:#000000;stroke-width:0.8;" x="698.142857" xlink:href="#mbf156ea8a6" y="378"/>
      </g>
     </g>
     <g id="text_24">
      <text style="font-family:DejaVu Sans;font-size:15px;font-stretch:normal;font-style:normal;font-weight:normal;" transform="translate(669.07567 396.397656)">Healthy</text>
      <text style="font-family:DejaVu Sans;font-size:15px;font-stretch:normal;font-style:normal;font-weight:normal;" transform="translate(670.81942 413.194375)"> (5547)</text>
     </g>
    </g>
    <g id="xtick_6">
     <g id="line2d_40">
      <g>
       <use style="stroke:#000000;stroke-width:0.8;" x="777.857143" xlink:href="#mbf156ea8a6" y="378"/>
      </g>
     </g>
     <g id="text_25">
      <text style="font-family:DejaVu Sans;font-size:15px;font-stretch:normal;font-style:normal;font-weight:normal;" transform="translate(734.72394 396.397656)">Nonhealthy</text>
      <text style="font-family:DejaVu Sans;font-size:15px;font-stretch:normal;font-style:normal;font-weight:normal;" transform="translate(750.533705 413.194375)"> (2522)</text>
     </g>
    </g>
   </g>
   <g id="matplotlib.axis_6">
    <g id="ytick_14">
     <g id="line2d_41">
      <path clip-path="url(#p962f35d2a8)" d="M 658.285714 360.825582 
L 817.714286 360.825582 
" style="fill:none;stroke:#b0b0b0;stroke-dasharray:2.775,1.2;stroke-dashoffset:0;stroke-width:0.75;"/>
     </g>
     <g id="line2d_42">
      <g>
       <use style="stroke:#000000;stroke-width:0.8;" x="658.285714" xlink:href="#maadfbac407" y="360.825582"/>
      </g>
     </g>
     <g id="text_26">
      <text style="font-family:DejaVu Sans;font-size:12px;font-stretch:normal;font-style:normal;font-weight:normal;text-anchor:end;" transform="rotate(-0, 651.285714, 365.384645)" x="651.285714" y="365.384645">0</text>
     </g>
    </g>
    <g id="ytick_15">
     <g id="line2d_43">
      <path clip-path="url(#p962f35d2a8)" d="M 658.285714 290.916672 
L 817.714286 290.916672 
" style="fill:none;stroke:#b0b0b0;stroke-dasharray:2.775,1.2;stroke-dashoffset:0;stroke-width:0.75;"/>
     </g>
     <g id="line2d_44">
      <g>
       <use style="stroke:#000000;stroke-width:0.8;" x="658.285714" xlink:href="#maadfbac407" y="290.916672"/>
      </g>
     </g>
     <g id="text_27">
      <text style="font-family:DejaVu Sans;font-size:12px;font-stretch:normal;font-style:normal;font-weight:normal;text-anchor:end;" transform="rotate(-0, 651.285714, 295.475735)" x="651.285714" y="295.475735">1</text>
     </g>
    </g>
    <g id="ytick_16">
     <g id="line2d_45">
      <path clip-path="url(#p962f35d2a8)" d="M 658.285714 221.007762 
L 817.714286 221.007762 
" style="fill:none;stroke:#b0b0b0;stroke-dasharray:2.775,1.2;stroke-dashoffset:0;stroke-width:0.75;"/>
     </g>
     <g id="line2d_46">
      <g>
       <use style="stroke:#000000;stroke-width:0.8;" x="658.285714" xlink:href="#maadfbac407" y="221.007762"/>
      </g>
     </g>
     <g id="text_28">
      <text style="font-family:DejaVu Sans;font-size:12px;font-stretch:normal;font-style:normal;font-weight:normal;text-anchor:end;" transform="rotate(-0, 651.285714, 225.566825)" x="651.285714" y="225.566825">2</text>
     </g>
    </g>
    <g id="ytick_17">
     <g id="line2d_47">
      <path clip-path="url(#p962f35d2a8)" d="M 658.285714 151.098852 
L 817.714286 151.098852 
" style="fill:none;stroke:#b0b0b0;stroke-dasharray:2.775,1.2;stroke-dashoffset:0;stroke-width:0.75;"/>
     </g>
     <g id="line2d_48">
      <g>
       <use style="stroke:#000000;stroke-width:0.8;" x="658.285714" xlink:href="#maadfbac407" y="151.098852"/>
      </g>
     </g>
     <g id="text_29">
      <text style="font-family:DejaVu Sans;font-size:12px;font-stretch:normal;font-style:normal;font-weight:normal;text-anchor:end;" transform="rotate(-0, 651.285714, 155.657915)" x="651.285714" y="155.657915">3</text>
     </g>
    </g>
    <g id="ytick_18">
     <g id="line2d_49">
      <path clip-path="url(#p962f35d2a8)" d="M 658.285714 81.189942 
L 817.714286 81.189942 
" style="fill:none;stroke:#b0b0b0;stroke-dasharray:2.775,1.2;stroke-dashoffset:0;stroke-width:0.75;"/>
     </g>
     <g id="line2d_50">
      <g>
       <use style="stroke:#000000;stroke-width:0.8;" x="658.285714" xlink:href="#maadfbac407" y="81.189942"/>
      </g>
     </g>
     <g id="text_30">
      <text style="font-family:DejaVu Sans;font-size:12px;font-stretch:normal;font-style:normal;font-weight:normal;text-anchor:end;" transform="rotate(-0, 651.285714, 85.749005)" x="651.285714" y="85.749005">4</text>
     </g>
    </g>
    <g id="text_31">
     <text style="font-family:DejaVu Sans;font-size:20px;font-stretch:normal;font-style:normal;font-weight:normal;text-anchor:middle;" transform="rotate(-90, 635.491339, 214.92)" x="635.491339" y="214.92">Shannon Diversity</text>
    </g>
   </g>
   <g id="PolyCollection_5">
    <defs>
     <path d="M 698.147062 -68.825455 
L 698.138652 -68.825455 
L 698.13327 -71.817688 
L 698.124418 -74.80992 
L 698.112837 -77.802153 
L 698.10125 -80.794386 
L 698.093159 -83.786619 
L 698.090086 -86.778852 
L 698.089303 -89.771085 
L 698.084451 -92.763318 
L 698.069401 -95.755551 
L 698.042686 -98.747784 
L 698.008804 -101.740017 
L 697.975114 -104.73225 
L 697.946729 -107.724483 
L 697.922839 -110.716716 
L 697.895759 -113.708949 
L 697.852873 -116.701182 
L 697.782259 -119.693415 
L 697.680821 -122.685648 
L 697.559084 -125.677881 
L 697.43712 -128.670114 
L 697.334064 -131.662347 
L 697.259601 -134.65458 
L 697.211605 -137.646813 
L 697.177522 -140.639046 
L 697.137795 -143.631279 
L 697.072162 -146.623512 
L 696.966854 -149.615745 
L 696.818896 -152.607978 
L 696.637709 -155.600211 
L 696.44572 -158.592444 
L 696.274621 -161.584676 
L 696.152238 -164.576909 
L 696.08388 -167.569142 
L 696.043959 -170.561375 
L 695.992065 -173.553608 
L 695.905127 -176.545841 
L 695.794547 -179.538074 
L 695.686371 -182.530307 
L 695.580772 -185.52254 
L 695.431218 -188.514773 
L 695.165509 -191.507006 
L 694.733037 -194.499239 
L 694.144513 -197.491472 
L 693.479777 -200.483705 
L 692.857184 -203.475938 
L 692.375868 -206.468171 
L 692.061513 -209.460404 
L 691.851612 -212.452637 
L 691.631065 -215.44487 
L 691.292479 -218.437103 
L 690.781758 -221.429336 
L 690.104465 -224.421569 
L 689.297435 -227.413802 
L 688.395015 -230.406035 
L 687.416259 -233.398268 
L 686.369444 -236.390501 
L 685.256776 -239.382734 
L 684.081327 -242.374967 
L 682.86394 -245.3672 
L 681.651694 -248.359432 
L 680.495178 -251.351665 
L 679.411156 -254.343898 
L 678.37121 -257.336131 
L 677.329135 -260.328364 
L 676.26223 -263.320597 
L 675.194916 -266.31283 
L 674.187026 -269.305063 
L 673.290081 -272.297296 
L 672.499767 -275.289529 
L 671.741445 -278.281762 
L 670.904383 -281.273995 
L 669.909197 -284.266228 
L 668.772897 -287.258461 
L 667.633162 -290.250694 
L 666.714462 -293.242927 
L 666.257143 -296.23516 
L 666.45328 -299.227393 
L 667.414658 -302.219626 
L 669.162572 -305.211859 
L 671.621675 -308.204092 
L 674.622674 -311.196325 
L 677.930876 -314.188558 
L 681.299464 -317.180791 
L 684.521891 -320.173024 
L 687.456985 -323.165257 
L 690.023841 -326.15749 
L 692.18502 -329.149723 
L 693.934708 -332.141956 
L 695.2927 -335.134188 
L 696.298151 -338.126421 
L 697.002663 -341.118654 
L 697.465657 -344.110887 
L 697.75045 -347.10312 
L 697.917141 -350.095353 
L 698.013646 -353.087586 
L 698.070932 -356.079819 
L 698.105435 -359.072052 
L 698.125343 -362.064285 
L 698.135689 -365.056518 
L 698.150025 -365.056518 
L 698.150025 -365.056518 
L 698.160371 -362.064285 
L 698.180279 -359.072052 
L 698.214782 -356.079819 
L 698.272068 -353.087586 
L 698.368574 -350.095353 
L 698.535265 -347.10312 
L 698.820057 -344.110887 
L 699.283051 -341.118654 
L 699.987563 -338.126421 
L 700.993014 -335.134188 
L 702.351007 -332.141956 
L 704.100694 -329.149723 
L 706.261873 -326.15749 
L 708.82873 -323.165257 
L 711.763823 -320.173024 
L 714.986251 -317.180791 
L 718.354838 -314.188558 
L 721.66304 -311.196325 
L 724.664039 -308.204092 
L 727.123142 -305.211859 
L 728.871056 -302.219626 
L 729.832435 -299.227393 
L 730.028571 -296.23516 
L 729.571252 -293.242927 
L 728.652552 -290.250694 
L 727.512817 -287.258461 
L 726.376517 -284.266228 
L 725.381331 -281.273995 
L 724.54427 -278.281762 
L 723.785947 -275.289529 
L 722.995633 -272.297296 
L 722.098689 -269.305063 
L 721.090798 -266.31283 
L 720.023484 -263.320597 
L 718.95658 -260.328364 
L 717.914504 -257.336131 
L 716.874559 -254.343898 
L 715.790536 -251.351665 
L 714.634021 -248.359432 
L 713.421775 -245.3672 
L 712.204387 -242.374967 
L 711.028938 -239.382734 
L 709.91627 -236.390501 
L 708.869455 -233.398268 
L 707.890699 -230.406035 
L 706.98828 -227.413802 
L 706.181249 -224.421569 
L 705.503956 -221.429336 
L 704.993235 -218.437103 
L 704.65465 -215.44487 
L 704.434103 -212.452637 
L 704.224201 -209.460404 
L 703.909846 -206.468171 
L 703.428531 -203.475938 
L 702.805937 -200.483705 
L 702.141201 -197.491472 
L 701.552677 -194.499239 
L 701.120206 -191.507006 
L 700.854497 -188.514773 
L 700.704942 -185.52254 
L 700.599343 -182.530307 
L 700.491168 -179.538074 
L 700.380588 -176.545841 
L 700.293649 -173.553608 
L 700.241755 -170.561375 
L 700.201835 -167.569142 
L 700.133476 -164.576909 
L 700.011094 -161.584676 
L 699.839994 -158.592444 
L 699.648005 -155.600211 
L 699.466818 -152.607978 
L 699.31886 -149.615745 
L 699.213552 -146.623512 
L 699.147919 -143.631279 
L 699.108192 -140.639046 
L 699.074109 -137.646813 
L 699.026113 -134.65458 
L 698.951651 -131.662347 
L 698.848595 -128.670114 
L 698.72663 -125.677881 
L 698.604893 -122.685648 
L 698.503455 -119.693415 
L 698.432841 -116.701182 
L 698.389955 -113.708949 
L 698.362875 -110.716716 
L 698.338986 -107.724483 
L 698.310601 -104.73225 
L 698.27691 -101.740017 
L 698.243028 -98.747784 
L 698.216313 -95.755551 
L 698.201264 -92.763318 
L 698.196412 -89.771085 
L 698.195628 -86.778852 
L 698.192555 -83.786619 
L 698.184464 -80.794386 
L 698.172877 -77.802153 
L 698.161297 -74.80992 
L 698.152445 -71.817688 
L 698.147062 -68.825455 
z
" id="m20d2c7cf68" style="stroke:#4b4b4b;stroke-width:1.5;"/>
    </defs>
    <g clip-path="url(#p962f35d2a8)">
     <use style="fill:#5481a6;stroke:#4b4b4b;stroke-width:1.5;" x="0" xlink:href="#m20d2c7cf68" y="432"/>
    </g>
   </g>
   <g id="PolyCollection_6">
    <defs>
     <path d="M 777.869676 -85.976161 
L 777.84461 -85.976161 
L 777.832928 -88.797963 
L 777.815712 -91.619765 
L 777.794153 -94.441567 
L 777.771458 -97.263368 
L 777.751388 -100.08517 
L 777.735577 -102.906972 
L 777.721416 -105.728774 
L 777.702551 -108.550576 
L 777.672347 -111.372378 
L 777.628218 -114.19418 
L 777.573696 -117.015982 
L 777.516321 -119.837783 
L 777.462128 -122.659585 
L 777.409886 -125.481387 
L 777.349016 -128.303189 
L 777.263697 -131.124991 
L 777.142151 -133.946793 
L 776.985994 -136.768595 
L 776.812774 -139.590396 
L 776.648018 -142.412198 
L 776.510365 -145.234 
L 776.399644 -148.055802 
L 776.296971 -150.877604 
L 776.177667 -153.699406 
L 776.028205 -156.521208 
L 775.85537 -159.343009 
L 775.68155 -162.164811 
L 775.529902 -164.986613 
L 775.409712 -167.808415 
L 775.311059 -170.630217 
L 775.210259 -173.452019 
L 775.080062 -176.273821 
L 774.89723 -179.095623 
L 774.645189 -181.917424 
L 774.314673 -184.739226 
L 773.905461 -187.561028 
L 773.427848 -190.38283 
L 772.899051 -193.204632 
L 772.332359 -196.026434 
L 771.724783 -198.848236 
L 771.054589 -201.670037 
L 770.295424 -204.491839 
L 769.439721 -207.313641 
L 768.512989 -210.135443 
L 767.564381 -212.957245 
L 766.636992 -215.779047 
L 765.739051 -218.600849 
L 764.838925 -221.42265 
L 763.889926 -224.244452 
L 762.868557 -227.066254 
L 761.799594 -229.888056 
L 760.750351 -232.709858 
L 759.796814 -235.53166 
L 758.982082 -238.353462 
L 758.291902 -241.175263 
L 757.661672 -243.997065 
L 757.010726 -246.818867 
L 756.284405 -249.640669 
L 755.480895 -252.462471 
L 754.649283 -255.284273 
L 753.862038 -258.106075 
L 753.179645 -260.927877 
L 752.628574 -263.749678 
L 752.20333 -266.57148 
L 751.88587 -269.393282 
L 751.664821 -272.215084 
L 751.541336 -275.036886 
L 751.522299 -277.858688 
L 751.611215 -280.68049 
L 751.806144 -283.502291 
L 752.107756 -286.324093 
L 752.534308 -289.145895 
L 753.133925 -291.967697 
L 753.98046 -294.789499 
L 755.146013 -297.611301 
L 756.66155 -300.433103 
L 758.491215 -303.254904 
L 760.539133 -306.076706 
L 762.683987 -308.898508 
L 764.817998 -311.72031 
L 766.868186 -314.542112 
L 768.793905 -317.363914 
L 770.570328 -320.185716 
L 772.172926 -323.007518 
L 773.572925 -325.829319 
L 774.744063 -328.651121 
L 775.673666 -331.472923 
L 776.369962 -334.294725 
L 776.86169 -337.116527 
L 777.191116 -339.938329 
L 777.404232 -342.760131 
L 777.541982 -345.581932 
L 777.63494 -348.403734 
L 777.702101 -351.225536 
L 777.752988 -354.047338 
L 777.79137 -356.86914 
L 777.818791 -359.690942 
L 777.836749 -362.512744 
L 777.847338 -365.334545 
L 777.866948 -365.334545 
L 777.866948 -365.334545 
L 777.877536 -362.512744 
L 777.895495 -359.690942 
L 777.922915 -356.86914 
L 777.961298 -354.047338 
L 778.012185 -351.225536 
L 778.079346 -348.403734 
L 778.172304 -345.581932 
L 778.310054 -342.760131 
L 778.523169 -339.938329 
L 778.852595 -337.116527 
L 779.344324 -334.294725 
L 780.040619 -331.472923 
L 780.970223 -328.651121 
L 782.141361 -325.829319 
L 783.54136 -323.007518 
L 785.143958 -320.185716 
L 786.92038 -317.363914 
L 788.846099 -314.542112 
L 790.896288 -311.72031 
L 793.030299 -308.898508 
L 795.175153 -306.076706 
L 797.223071 -303.254904 
L 799.052735 -300.433103 
L 800.568273 -297.611301 
L 801.733826 -294.789499 
L 802.580361 -291.967697 
L 803.179977 -289.145895 
L 803.60653 -286.324093 
L 803.908142 -283.502291 
L 804.103071 -280.68049 
L 804.191987 -277.858688 
L 804.17295 -275.036886 
L 804.049464 -272.215084 
L 803.828415 -269.393282 
L 803.510956 -266.57148 
L 803.085712 -263.749678 
L 802.534641 -260.927877 
L 801.852248 -258.106075 
L 801.065003 -255.284273 
L 800.23339 -252.462471 
L 799.429881 -249.640669 
L 798.70356 -246.818867 
L 798.052614 -243.997065 
L 797.422384 -241.175263 
L 796.732204 -238.353462 
L 795.917471 -235.53166 
L 794.963935 -232.709858 
L 793.914691 -229.888056 
L 792.845729 -227.066254 
L 791.824359 -224.244452 
L 790.875361 -221.42265 
L 789.975235 -218.600849 
L 789.077294 -215.779047 
L 788.149905 -212.957245 
L 787.201297 -210.135443 
L 786.274565 -207.313641 
L 785.418862 -204.491839 
L 784.659696 -201.670037 
L 783.989503 -198.848236 
L 783.381926 -196.026434 
L 782.815235 -193.204632 
L 782.286438 -190.38283 
L 781.808825 -187.561028 
L 781.399613 -184.739226 
L 781.069097 -181.917424 
L 780.817056 -179.095623 
L 780.634224 -176.273821 
L 780.504026 -173.452019 
L 780.403227 -170.630217 
L 780.304573 -167.808415 
L 780.184384 -164.986613 
L 780.032735 -162.164811 
L 779.858915 -159.343009 
L 779.686081 -156.521208 
L 779.536619 -153.699406 
L 779.417315 -150.877604 
L 779.314642 -148.055802 
L 779.20392 -145.234 
L 779.066268 -142.412198 
L 778.901512 -139.590396 
L 778.728292 -136.768595 
L 778.572134 -133.946793 
L 778.450589 -131.124991 
L 778.36527 -128.303189 
L 778.304399 -125.481387 
L 778.252157 -122.659585 
L 778.197965 -119.837783 
L 778.14059 -117.015982 
L 778.086068 -114.19418 
L 778.041939 -111.372378 
L 778.011735 -108.550576 
L 777.99287 -105.728774 
L 777.978708 -102.906972 
L 777.962898 -100.08517 
L 777.942828 -97.263368 
L 777.920132 -94.441567 
L 777.898574 -91.619765 
L 777.881357 -88.797963 
L 777.869676 -85.976161 
z
" id="mab4269a19c" style="stroke:#4b4b4b;stroke-width:1.5;"/>
    </defs>
    <g clip-path="url(#p962f35d2a8)">
     <use style="fill:#df9c20;stroke:#4b4b4b;stroke-width:1.5;" x="0" xlink:href="#mab4269a19c" y="432"/>
    </g>
   </g>
   <g id="line2d_51">
    <path clip-path="url(#p962f35d2a8)" d="M 698.142857 253.505725 
L 698.142857 80.84963 
" style="fill:none;stroke:#4b4b4b;stroke-linecap:square;stroke-width:1.5;"/>
   </g>
   <g id="line2d_52">
    <path clip-path="url(#p962f35d2a8)" d="M 698.142857 181.039626 
L 698.142857 132.562399 
" style="fill:none;stroke:#4b4b4b;stroke-linecap:square;stroke-width:4.5;"/>
   </g>
   <g id="line2d_53">
    <path clip-path="url(#p962f35d2a8)" d="M 777.857143 272.46391 
L 777.857143 82.641652 
" style="fill:none;stroke:#4b4b4b;stroke-linecap:square;stroke-width:1.5;"/>
   </g>
   <g id="line2d_54">
    <path clip-path="url(#p962f35d2a8)" d="M 777.857143 195.383288 
L 777.857143 143.858875 
" style="fill:none;stroke:#4b4b4b;stroke-linecap:square;stroke-width:4.5;"/>
   </g>
   <g id="patch_13">
    <path d="M 658.285714 378 
L 658.285714 51.84 
" style="fill:none;stroke:#000000;stroke-linecap:square;stroke-linejoin:miter;stroke-width:0.8;"/>
   </g>
   <g id="patch_14">
    <path d="M 817.714286 378 
L 817.714286 51.84 
" style="fill:none;stroke:#000000;stroke-linecap:square;stroke-linejoin:miter;stroke-width:0.8;"/>
   </g>
   <g id="patch_15">
    <path d="M 658.285714 378 
L 817.714286 378 
" style="fill:none;stroke:#000000;stroke-linecap:square;stroke-linejoin:miter;stroke-width:0.8;"/>
   </g>
   <g id="patch_16">
    <path d="M 658.285714 51.84 
L 817.714286 51.84 
" style="fill:none;stroke:#000000;stroke-linecap:square;stroke-linejoin:miter;stroke-width:0.8;"/>
   </g>
   <g id="PathCollection_5">
    <g clip-path="url(#p962f35d2a8)">
     <use style="fill:#ffffff;stroke:#4b4b4b;" x="698.142857" xlink:href="#m90cbced724" y="153.30417"/>
    </g>
   </g>
   <g id="PathCollection_6">
    <g clip-path="url(#p962f35d2a8)">
     <use style="fill:#ffffff;stroke:#4b4b4b;" x="777.857143" xlink:href="#m90cbced724" y="167.266826"/>
    </g>
   </g>
   <g id="text_32">
    <text style="font-family:DejaVu Sans;font-size:14px;font-stretch:normal;font-style:normal;font-weight:normal;text-anchor:middle;" transform="rotate(-0, 738, 68.148)" x="738" y="68.148">P = 7.79e-45</text>
   </g>
   <g id="text_33">
    <text style="font-family:DejaVu Sans;font-size:14px;font-stretch:normal;font-style:normal;font-weight:normal;text-anchor:middle;" transform="rotate(-0, 738, 81.1944)" x="738" y="81.1944">d = 0.19</text>
   </g>
  </g>
  <g id="axes_4">
   <g id="patch_17">
    <path d="M 897.428571 378 
L 1056.857143 378 
L 1056.857143 51.84 
L 897.428571 51.84 
z
" style="fill:#ffffff;"/>
   </g>
   <g id="matplotlib.axis_7">
    <g id="xtick_7">
     <g id="line2d_55">
      <g>
       <use style="stroke:#000000;stroke-width:0.8;" x="937.285714" xlink:href="#mbf156ea8a6" y="378"/>
      </g>
     </g>
     <g id="text_34">
      <text style="font-family:DejaVu Sans;font-size:15px;font-stretch:normal;font-style:normal;font-weight:normal;" transform="translate(908.218527 396.397656)">Healthy</text>
      <text style="font-family:DejaVu Sans;font-size:15px;font-stretch:normal;font-style:normal;font-weight:normal;" transform="translate(909.962277 413.194375)"> (5547)</text>
     </g>
    </g>
    <g id="xtick_8">
     <g id="line2d_56">
      <g>
       <use style="stroke:#000000;stroke-width:0.8;" x="1017" xlink:href="#mbf156ea8a6" y="378"/>
      </g>
     </g>
     <g id="text_35">
      <text style="font-family:DejaVu Sans;font-size:15px;font-stretch:normal;font-style:normal;font-weight:normal;" transform="translate(973.866797 396.397656)">Nonhealthy</text>
      <text style="font-family:DejaVu Sans;font-size:15px;font-stretch:normal;font-style:normal;font-weight:normal;" transform="translate(989.676563 413.194375)"> (2522)</text>
     </g>
    </g>
   </g>
   <g id="matplotlib.axis_8">
    <g id="ytick_19">
     <g id="line2d_57">
      <path clip-path="url(#p4632c6c53d)" d="M 897.428571 371.581427 
L 1056.857143 371.581427 
" style="fill:none;stroke:#b0b0b0;stroke-dasharray:2.775,1.2;stroke-dashoffset:0;stroke-width:0.75;"/>
     </g>
     <g id="line2d_58">
      <g>
       <use style="stroke:#000000;stroke-width:0.8;" x="897.428571" xlink:href="#maadfbac407" y="371.581427"/>
      </g>
     </g>
     <g id="text_36">
      <text style="font-family:DejaVu Sans;font-size:12px;font-stretch:normal;font-style:normal;font-weight:normal;text-anchor:end;" transform="rotate(-0, 890.428571, 376.14049)" x="890.428571" y="376.14049">0</text>
     </g>
    </g>
    <g id="ytick_20">
     <g id="line2d_59">
      <path clip-path="url(#p4632c6c53d)" d="M 897.428571 319.031608 
L 1056.857143 319.031608 
" style="fill:none;stroke:#b0b0b0;stroke-dasharray:2.775,1.2;stroke-dashoffset:0;stroke-width:0.75;"/>
     </g>
     <g id="line2d_60">
      <g>
       <use style="stroke:#000000;stroke-width:0.8;" x="897.428571" xlink:href="#maadfbac407" y="319.031608"/>
      </g>
     </g>
     <g id="text_37">
      <text style="font-family:DejaVu Sans;font-size:12px;font-stretch:normal;font-style:normal;font-weight:normal;text-anchor:end;" transform="rotate(-0, 890.428571, 323.59067)" x="890.428571" y="323.59067">50</text>
     </g>
    </g>
    <g id="ytick_21">
     <g id="line2d_61">
      <path clip-path="url(#p4632c6c53d)" d="M 897.428571 266.481788 
L 1056.857143 266.481788 
" style="fill:none;stroke:#b0b0b0;stroke-dasharray:2.775,1.2;stroke-dashoffset:0;stroke-width:0.75;"/>
     </g>
     <g id="line2d_62">
      <g>
       <use style="stroke:#000000;stroke-width:0.8;" x="897.428571" xlink:href="#maadfbac407" y="266.481788"/>
      </g>
     </g>
     <g id="text_38">
      <text style="font-family:DejaVu Sans;font-size:12px;font-stretch:normal;font-style:normal;font-weight:normal;text-anchor:end;" transform="rotate(-0, 890.428571, 271.04085)" x="890.428571" y="271.04085">100</text>
     </g>
    </g>
    <g id="ytick_22">
     <g id="line2d_63">
      <path clip-path="url(#p4632c6c53d)" d="M 897.428571 213.931968 
L 1056.857143 213.931968 
" style="fill:none;stroke:#b0b0b0;stroke-dasharray:2.775,1.2;stroke-dashoffset:0;stroke-width:0.75;"/>
     </g>
     <g id="line2d_64">
      <g>
       <use style="stroke:#000000;stroke-width:0.8;" x="897.428571" xlink:href="#maadfbac407" y="213.931968"/>
      </g>
     </g>
     <g id="text_39">
      <text style="font-family:DejaVu Sans;font-size:12px;font-stretch:normal;font-style:normal;font-weight:normal;text-anchor:end;" transform="rotate(-0, 890.428571, 218.491031)" x="890.428571" y="218.491031">150</text>
     </g>
    </g>
    <g id="ytick_23">
     <g id="line2d_65">
      <path clip-path="url(#p4632c6c53d)" d="M 897.428571 161.382148 
L 1056.857143 161.382148 
" style="fill:none;stroke:#b0b0b0;stroke-dasharray:2.775,1.2;stroke-dashoffset:0;stroke-width:0.75;"/>
     </g>
     <g id="line2d_66">
      <g>
       <use style="stroke:#000000;stroke-width:0.8;" x="897.428571" xlink:href="#maadfbac407" y="161.382148"/>
      </g>
     </g>
     <g id="text_40">
      <text style="font-family:DejaVu Sans;font-size:12px;font-stretch:normal;font-style:normal;font-weight:normal;text-anchor:end;" transform="rotate(-0, 890.428571, 165.941211)" x="890.428571" y="165.941211">200</text>
     </g>
    </g>
    <g id="ytick_24">
     <g id="line2d_67">
      <path clip-path="url(#p4632c6c53d)" d="M 897.428571 108.832329 
L 1056.857143 108.832329 
" style="fill:none;stroke:#b0b0b0;stroke-dasharray:2.775,1.2;stroke-dashoffset:0;stroke-width:0.75;"/>
     </g>
     <g id="line2d_68">
      <g>
       <use style="stroke:#000000;stroke-width:0.8;" x="897.428571" xlink:href="#maadfbac407" y="108.832329"/>
      </g>
     </g>
     <g id="text_41">
      <text style="font-family:DejaVu Sans;font-size:12px;font-stretch:normal;font-style:normal;font-weight:normal;text-anchor:end;" transform="rotate(-0, 890.428571, 113.391391)" x="890.428571" y="113.391391">250</text>
     </g>
    </g>
    <g id="ytick_25">
     <g id="line2d_69">
      <path clip-path="url(#p4632c6c53d)" d="M 897.428571 56.282509 
L 1056.857143 56.282509 
" style="fill:none;stroke:#b0b0b0;stroke-dasharray:2.775,1.2;stroke-dashoffset:0;stroke-width:0.75;"/>
     </g>
     <g id="line2d_70">
      <g>
       <use style="stroke:#000000;stroke-width:0.8;" x="897.428571" xlink:href="#maadfbac407" y="56.282509"/>
      </g>
     </g>
     <g id="text_42">
      <text style="font-family:DejaVu Sans;font-size:12px;font-stretch:normal;font-style:normal;font-weight:normal;text-anchor:end;" transform="rotate(-0, 890.428571, 60.841571)" x="890.428571" y="60.841571">300</text>
     </g>
    </g>
    <g id="text_43">
     <text style="font-family:DejaVu Sans;font-size:20px;font-stretch:normal;font-style:normal;font-weight:normal;text-anchor:middle;" transform="rotate(-90, 859.364196, 214.92)" x="859.364196" y="214.92">Species Richness</text>
    </g>
   </g>
   <g id="PolyCollection_7">
    <defs>
     <path d="M 937.301977 -84.464471 
L 937.269451 -84.464471 
L 937.224635 -87.301543 
L 937.112713 -90.138614 
L 936.883909 -92.975686 
L 936.463659 -95.812757 
L 935.762768 -98.649829 
L 934.771732 -101.4869 
L 933.677051 -104.323972 
L 932.738895 -107.161043 
L 931.975379 -109.998115 
L 931.183544 -112.835186 
L 930.254148 -115.672257 
L 929.211545 -118.509329 
L 928.019986 -121.3464 
L 926.489634 -124.183472 
L 924.373753 -127.020543 
L 921.664422 -129.857615 
L 918.83947 -132.694686 
L 916.602756 -135.531758 
L 915.213072 -138.368829 
L 914.117198 -141.205901 
L 912.462814 -144.042972 
L 910.124393 -146.880043 
L 907.86544 -149.717115 
L 906.345879 -152.554186 
L 905.574627 -155.391258 
L 905.4 -158.228329 
L 905.929811 -161.065401 
L 907.35169 -163.902472 
L 909.615152 -166.739544 
L 912.31018 -169.576615 
L 914.874461 -172.413687 
L 917.039822 -175.250758 
L 918.984497 -178.087829 
L 921.030221 -180.924901 
L 923.272694 -183.761972 
L 925.504693 -186.599044 
L 927.502283 -189.436115 
L 929.220386 -192.273187 
L 930.628084 -195.110258 
L 931.703986 -197.94733 
L 932.599892 -200.784401 
L 933.469996 -203.621473 
L 934.291603 -206.458544 
L 934.985418 -209.295615 
L 935.498699 -212.132687 
L 935.832974 -214.969758 
L 936.065115 -217.80683 
L 936.25845 -220.643901 
L 936.42237 -223.480973 
L 936.560864 -226.318044 
L 936.688917 -229.155116 
L 936.816655 -231.992187 
L 936.92939 -234.829259 
L 937.000626 -237.66633 
L 937.035028 -240.503401 
L 937.066512 -243.340473 
L 937.11189 -246.177544 
L 937.15872 -249.014616 
L 937.196075 -251.851687 
L 937.223644 -254.688759 
L 937.240137 -257.52583 
L 937.249986 -260.362902 
L 937.261714 -263.199973 
L 937.274244 -266.037045 
L 937.281876 -268.874116 
L 937.283513 -271.711187 
L 937.279621 -274.548259 
L 937.269923 -277.38533 
L 937.259013 -280.222402 
L 937.25668 -283.059473 
L 937.265421 -285.896545 
L 937.276597 -288.733616 
L 937.283082 -291.570688 
L 937.285226 -294.407759 
L 937.285656 -297.244831 
L 937.28571 -300.081902 
L 937.285714 -302.918973 
L 937.285713 -305.756045 
L 937.2857 -308.593116 
L 937.285557 -311.430188 
L 937.284604 -314.267259 
L 937.280537 -317.104331 
L 937.269372 -319.941402 
L 937.24928 -322.778474 
L 937.225544 -325.615545 
L 937.210535 -328.452617 
L 937.216376 -331.289688 
L 937.240732 -334.126759 
L 937.266017 -336.963831 
L 937.280027 -339.800902 
L 937.28453 -342.637974 
L 937.284709 -345.475045 
L 937.2816 -348.312117 
L 937.273369 -351.149188 
L 937.261848 -353.98626 
L 937.256056 -356.823331 
L 937.262024 -359.660403 
L 937.273551 -362.497474 
L 937.2817 -365.334545 
L 937.289728 -365.334545 
L 937.289728 -365.334545 
L 937.297877 -362.497474 
L 937.309404 -359.660403 
L 937.315373 -356.823331 
L 937.309581 -353.98626 
L 937.298059 -351.149188 
L 937.289828 -348.312117 
L 937.28672 -345.475045 
L 937.286898 -342.637974 
L 937.291402 -339.800902 
L 937.305411 -336.963831 
L 937.330697 -334.126759 
L 937.355052 -331.289688 
L 937.360894 -328.452617 
L 937.345884 -325.615545 
L 937.322149 -322.778474 
L 937.302057 -319.941402 
L 937.290892 -317.104331 
L 937.286825 -314.267259 
L 937.285871 -311.430188 
L 937.285729 -308.593116 
L 937.285715 -305.756045 
L 937.285715 -302.918973 
L 937.285719 -300.081902 
L 937.285773 -297.244831 
L 937.286203 -294.407759 
L 937.288347 -291.570688 
L 937.294831 -288.733616 
L 937.306008 -285.896545 
L 937.314748 -283.059473 
L 937.312415 -280.222402 
L 937.301505 -277.38533 
L 937.291808 -274.548259 
L 937.287915 -271.711187 
L 937.289553 -268.874116 
L 937.297185 -266.037045 
L 937.309714 -263.199973 
L 937.321443 -260.362902 
L 937.331291 -257.52583 
L 937.347784 -254.688759 
L 937.375354 -251.851687 
L 937.412709 -249.014616 
L 937.459538 -246.177544 
L 937.504916 -243.340473 
L 937.536401 -240.503401 
L 937.570802 -237.66633 
L 937.642038 -234.829259 
L 937.754774 -231.992187 
L 937.882512 -229.155116 
L 938.010565 -226.318044 
L 938.149058 -223.480973 
L 938.312979 -220.643901 
L 938.506313 -217.80683 
L 938.738454 -214.969758 
L 939.072729 -212.132687 
L 939.586011 -209.295615 
L 940.279826 -206.458544 
L 941.101433 -203.621473 
L 941.971536 -200.784401 
L 942.867442 -197.94733 
L 943.943344 -195.110258 
L 945.351042 -192.273187 
L 947.069145 -189.436115 
L 949.066736 -186.599044 
L 951.298735 -183.761972 
L 953.541207 -180.924901 
L 955.586932 -178.087829 
L 957.531606 -175.250758 
L 959.696968 -172.413687 
L 962.261248 -169.576615 
L 964.956277 -166.739544 
L 967.219739 -163.902472 
L 968.641618 -161.065401 
L 969.171429 -158.228329 
L 968.996802 -155.391258 
L 968.22555 -152.554186 
L 966.705989 -149.717115 
L 964.447036 -146.880043 
L 962.108615 -144.042972 
L 960.454231 -141.205901 
L 959.358357 -138.368829 
L 957.968672 -135.531758 
L 955.731958 -132.694686 
L 952.907006 -129.857615 
L 950.197675 -127.020543 
L 948.081794 -124.183472 
L 946.551442 -121.3464 
L 945.359884 -118.509329 
L 944.317281 -115.672257 
L 943.387885 -112.835186 
L 942.596049 -109.998115 
L 941.832534 -107.161043 
L 940.894377 -104.323972 
L 939.799697 -101.4869 
L 938.80866 -98.649829 
L 938.10777 -95.812757 
L 937.68752 -92.975686 
L 937.458716 -90.138614 
L 937.346794 -87.301543 
L 937.301977 -84.464471 
z
" id="m7a33ad6735" style="stroke:#4b4b4b;stroke-width:1.5;"/>
    </defs>
    <g clip-path="url(#p4632c6c53d)">
     <use style="fill:#5481a6;stroke:#4b4b4b;stroke-width:1.5;" x="0" xlink:href="#m7a33ad6735" y="432"/>
    </g>
   </g>
   <g id="PolyCollection_8">
    <defs>
     <path d="M 1017.006016 -68.825455 
L 1016.993984 -68.825455 
L 1016.987158 -71.458276 
L 1016.976605 -74.091097 
L 1016.962738 -76.723918 
L 1016.945145 -79.356739 
L 1016.917561 -81.98956 
L 1016.860832 -84.622381 
L 1016.737325 -87.255202 
L 1016.49036 -89.888023 
L 1016.05144 -92.520844 
L 1015.35731 -95.153665 
L 1014.375046 -97.786486 
L 1013.124642 -100.419307 
L 1011.683172 -103.052128 
L 1010.164136 -105.684949 
L 1008.684378 -108.31777 
L 1007.337382 -110.950591 
L 1006.177973 -113.583412 
L 1005.211667 -116.216234 
L 1004.391537 -118.849055 
L 1003.637967 -121.481876 
L 1002.881945 -124.114697 
L 1002.100917 -126.747518 
L 1001.311596 -129.380339 
L 1000.524282 -132.01316 
L 999.709394 -134.645981 
L 998.821413 -137.278802 
L 997.862556 -139.911623 
L 996.916224 -142.544444 
L 996.104653 -145.177265 
L 995.502726 -147.810086 
L 995.084332 -150.442907 
L 994.748349 -153.075728 
L 994.407746 -155.708549 
L 994.079839 -158.34137 
L 993.907142 -160.974191 
L 994.074784 -163.607013 
L 994.67198 -166.239834 
L 995.613465 -168.872655 
L 996.701974 -171.505476 
L 997.781606 -174.138297 
L 998.840694 -176.771118 
L 999.974885 -179.403939 
L 1001.256228 -182.03676 
L 1002.634228 -184.669581 
L 1003.957159 -187.302402 
L 1005.091405 -189.935223 
L 1006.027646 -192.568044 
L 1006.875856 -195.200865 
L 1007.760807 -197.833686 
L 1008.723765 -200.466507 
L 1009.712719 -203.099328 
L 1010.643436 -205.732149 
L 1011.459301 -208.36497 
L 1012.149534 -210.997792 
L 1012.737368 -213.630613 
L 1013.262348 -216.263434 
L 1013.763342 -218.896255 
L 1014.259988 -221.529076 
L 1014.740622 -224.161897 
L 1015.170094 -226.794718 
L 1015.514921 -229.427539 
L 1015.764982 -232.06036 
L 1015.935339 -234.693181 
L 1016.052342 -237.326002 
L 1016.139803 -239.958823 
L 1016.214929 -242.591644 
L 1016.291104 -245.224465 
L 1016.378705 -247.857286 
L 1016.480611 -250.490107 
L 1016.588599 -253.122928 
L 1016.687854 -255.75575 
L 1016.767076 -258.388571 
L 1016.824687 -261.021392 
L 1016.866459 -263.654213 
L 1016.89891 -266.287034 
L 1016.924788 -268.919855 
L 1016.942827 -271.552676 
L 1016.950328 -274.185497 
L 1016.946151 -276.818318 
L 1016.932222 -279.451139 
L 1016.913039 -282.08396 
L 1016.894117 -284.716781 
L 1016.880319 -287.349602 
L 1016.874184 -289.982423 
L 1016.874795 -292.615244 
L 1016.878848 -295.248065 
L 1016.883977 -297.880886 
L 1016.890993 -300.513707 
L 1016.902044 -303.146529 
L 1016.916713 -305.77935 
L 1016.931012 -308.412171 
L 1016.940787 -311.044992 
L 1016.945688 -313.677813 
L 1016.949339 -316.310634 
L 1016.955744 -318.943455 
L 1016.965857 -321.576276 
L 1016.977407 -324.209097 
L 1016.987336 -326.841918 
L 1016.994018 -329.474739 
L 1017.005982 -329.474739 
L 1017.005982 -329.474739 
L 1017.012664 -326.841918 
L 1017.022593 -324.209097 
L 1017.034143 -321.576276 
L 1017.044256 -318.943455 
L 1017.050661 -316.310634 
L 1017.054312 -313.677813 
L 1017.059213 -311.044992 
L 1017.068988 -308.412171 
L 1017.083287 -305.77935 
L 1017.097956 -303.146529 
L 1017.109007 -300.513707 
L 1017.116023 -297.880886 
L 1017.121152 -295.248065 
L 1017.125205 -292.615244 
L 1017.125816 -289.982423 
L 1017.119681 -287.349602 
L 1017.105883 -284.716781 
L 1017.086961 -282.08396 
L 1017.067778 -279.451139 
L 1017.053849 -276.818318 
L 1017.049672 -274.185497 
L 1017.057173 -271.552676 
L 1017.075212 -268.919855 
L 1017.10109 -266.287034 
L 1017.133541 -263.654213 
L 1017.175313 -261.021392 
L 1017.232924 -258.388571 
L 1017.312146 -255.75575 
L 1017.411401 -253.122928 
L 1017.519389 -250.490107 
L 1017.621295 -247.857286 
L 1017.708896 -245.224465 
L 1017.785071 -242.591644 
L 1017.860197 -239.958823 
L 1017.947658 -237.326002 
L 1018.064661 -234.693181 
L 1018.235018 -232.06036 
L 1018.485079 -229.427539 
L 1018.829906 -226.794718 
L 1019.259378 -224.161897 
L 1019.740012 -221.529076 
L 1020.236658 -218.896255 
L 1020.737652 -216.263434 
L 1021.262632 -213.630613 
L 1021.850466 -210.997792 
L 1022.540699 -208.36497 
L 1023.356564 -205.732149 
L 1024.287281 -203.099328 
L 1025.276235 -200.466507 
L 1026.239193 -197.833686 
L 1027.124144 -195.200865 
L 1027.972354 -192.568044 
L 1028.908595 -189.935223 
L 1030.042841 -187.302402 
L 1031.365772 -184.669581 
L 1032.743772 -182.03676 
L 1034.025115 -179.403939 
L 1035.159306 -176.771118 
L 1036.218394 -174.138297 
L 1037.298026 -171.505476 
L 1038.386535 -168.872655 
L 1039.32802 -166.239834 
L 1039.925216 -163.607013 
L 1040.092858 -160.974191 
L 1039.920161 -158.34137 
L 1039.592254 -155.708549 
L 1039.251651 -153.075728 
L 1038.915668 -150.442907 
L 1038.497274 -147.810086 
L 1037.895347 -145.177265 
L 1037.083776 -142.544444 
L 1036.137444 -139.911623 
L 1035.178587 -137.278802 
L 1034.290606 -134.645981 
L 1033.475718 -132.01316 
L 1032.688404 -129.380339 
L 1031.899083 -126.747518 
L 1031.118055 -124.114697 
L 1030.362033 -121.481876 
L 1029.608463 -118.849055 
L 1028.788333 -116.216234 
L 1027.822027 -113.583412 
L 1026.662618 -110.950591 
L 1025.315622 -108.31777 
L 1023.835864 -105.684949 
L 1022.316828 -103.052128 
L 1020.875358 -100.419307 
L 1019.624954 -97.786486 
L 1018.64269 -95.153665 
L 1017.94856 -92.520844 
L 1017.50964 -89.888023 
L 1017.262675 -87.255202 
L 1017.139168 -84.622381 
L 1017.082439 -81.98956 
L 1017.054855 -79.356739 
L 1017.037262 -76.723918 
L 1017.023395 -74.091097 
L 1017.012842 -71.458276 
L 1017.006016 -68.825455 
z
" id="mc95e039d82" style="stroke:#4b4b4b;stroke-width:1.5;"/>
    </defs>
    <g clip-path="url(#p4632c6c53d)">
     <use style="fill:#df9c20;stroke:#4b4b4b;stroke-width:1.5;" x="0" xlink:href="#mc95e039d82" y="432"/>
    </g>
   </g>
   <g id="line2d_71">
    <path clip-path="url(#p4632c6c53d)" d="M 937.285714 336.898546 
L 937.285714 216.033961 
" style="fill:none;stroke:#4b4b4b;stroke-linecap:square;stroke-width:1.5;"/>
   </g>
   <g id="line2d_72">
    <path clip-path="url(#p4632c6c53d)" d="M 937.285714 291.705701 
L 937.285714 261.226806 
" style="fill:none;stroke:#4b4b4b;stroke-linecap:square;stroke-width:4.5;"/>
   </g>
   <g id="line2d_73">
    <path clip-path="url(#p4632c6c53d)" d="M 1017 350.561499 
L 1017 193.963037 
" style="fill:none;stroke:#4b4b4b;stroke-linecap:square;stroke-width:1.5;"/>
   </g>
   <g id="line2d_74">
    <path clip-path="url(#p4632c6c53d)" d="M 1017 295.909687 
L 1017 254.920827 
" style="fill:none;stroke:#4b4b4b;stroke-linecap:square;stroke-width:4.5;"/>
   </g>
   <g id="patch_18">
    <path d="M 897.428571 378 
L 897.428571 51.84 
" style="fill:none;stroke:#000000;stroke-linecap:square;stroke-linejoin:miter;stroke-width:0.8;"/>
   </g>
   <g id="patch_19">
    <path d="M 1056.857143 378 
L 1056.857143 51.84 
" style="fill:none;stroke:#000000;stroke-linecap:square;stroke-linejoin:miter;stroke-width:0.8;"/>
   </g>
   <g id="patch_20">
    <path d="M 897.428571 378 
L 1056.857143 378 
" style="fill:none;stroke:#000000;stroke-linecap:square;stroke-linejoin:miter;stroke-width:0.8;"/>
   </g>
   <g id="patch_21">
    <path d="M 897.428571 51.84 
L 1056.857143 51.84 
" style="fill:none;stroke:#000000;stroke-linecap:square;stroke-linejoin:miter;stroke-width:0.8;"/>
   </g>
   <g id="PathCollection_7">
    <g clip-path="url(#p4632c6c53d)">
     <use style="fill:#ffffff;stroke:#4b4b4b;" x="937.285714" xlink:href="#m90cbced724" y="275.940755"/>
    </g>
   </g>
   <g id="PathCollection_8">
    <g clip-path="url(#p4632c6c53d)">
     <use style="fill:#ffffff;stroke:#4b4b4b;" x="1017" xlink:href="#m90cbced724" y="274.889759"/>
    </g>
   </g>
   <g id="text_44">
    <text style="font-family:DejaVu Sans;font-size:14px;font-stretch:normal;font-style:normal;font-weight:normal;text-anchor:middle;" transform="rotate(-0, 977.142857, 68.148)" x="977.142857" y="68.148">P = 1.55e-01</text>
   </g>
   <g id="text_45">
    <text style="font-family:DejaVu Sans;font-size:14px;font-stretch:normal;font-style:normal;font-weight:normal;text-anchor:middle;" transform="rotate(-0, 977.142857, 81.1944)" x="977.142857" y="81.1944">d = -0.02</text>
   </g>
  </g>
  <g id="axes_5">
   <g id="patch_22">
    <path d="M 1136.571429 378 
L 1296 378 
L 1296 51.84 
L 1136.571429 51.84 
z
" style="fill:#ffffff;"/>
   </g>
   <g id="matplotlib.axis_9">
    <g id="xtick_9">
     <g id="line2d_75">
      <g>
       <use style="stroke:#000000;stroke-width:0.8;" x="1176.428571" xlink:href="#mbf156ea8a6" y="378"/>
      </g>
     </g>
     <g id="text_46">
      <text style="font-family:DejaVu Sans;font-size:15px;font-stretch:normal;font-style:normal;font-weight:normal;" transform="translate(1147.361384 396.397656)">Healthy</text>
      <text style="font-family:DejaVu Sans;font-size:15px;font-stretch:normal;font-style:normal;font-weight:normal;" transform="translate(1149.105134 413.194375)"> (5547)</text>
     </g>
    </g>
    <g id="xtick_10">
     <g id="line2d_76">
      <g>
       <use style="stroke:#000000;stroke-width:0.8;" x="1256.142857" xlink:href="#mbf156ea8a6" y="378"/>
      </g>
     </g>
     <g id="text_47">
      <text style="font-family:DejaVu Sans;font-size:15px;font-stretch:normal;font-style:normal;font-weight:normal;" transform="translate(1213.009654 396.397656)">Nonhealthy</text>
      <text style="font-family:DejaVu Sans;font-size:15px;font-stretch:normal;font-style:normal;font-weight:normal;" transform="translate(1228.81942 413.194375)"> (2522)</text>
     </g>
    </g>
   </g>
   <g id="matplotlib.axis_10">
    <g id="ytick_26">
     <g id="line2d_77">
      <path clip-path="url(#pe51acba3e8)" d="M 1136.571429 353.329629 
L 1296 353.329629 
" style="fill:none;stroke:#b0b0b0;stroke-dasharray:2.775,1.2;stroke-dashoffset:0;stroke-width:0.75;"/>
     </g>
     <g id="line2d_78">
      <g>
       <use style="stroke:#000000;stroke-width:0.8;" x="1136.571429" xlink:href="#maadfbac407" y="353.329629"/>
      </g>
     </g>
     <g id="text_48">
      <text style="font-family:DejaVu Sans;font-size:12px;font-stretch:normal;font-style:normal;font-weight:normal;text-anchor:end;" transform="rotate(-0, 1129.571429, 357.888691)" x="1129.571429" y="357.888691">0.0</text>
     </g>
    </g>
    <g id="ytick_27">
     <g id="line2d_79">
      <path clip-path="url(#pe51acba3e8)" d="M 1136.571429 295.739138 
L 1296 295.739138 
" style="fill:none;stroke:#b0b0b0;stroke-dasharray:2.775,1.2;stroke-dashoffset:0;stroke-width:0.75;"/>
     </g>
     <g id="line2d_80">
      <g>
       <use style="stroke:#000000;stroke-width:0.8;" x="1136.571429" xlink:href="#maadfbac407" y="295.739138"/>
      </g>
     </g>
     <g id="text_49">
      <text style="font-family:DejaVu Sans;font-size:12px;font-stretch:normal;font-style:normal;font-weight:normal;text-anchor:end;" transform="rotate(-0, 1129.571429, 300.2982)" x="1129.571429" y="300.2982">0.2</text>
     </g>
    </g>
    <g id="ytick_28">
     <g id="line2d_81">
      <path clip-path="url(#pe51acba3e8)" d="M 1136.571429 238.148647 
L 1296 238.148647 
" style="fill:none;stroke:#b0b0b0;stroke-dasharray:2.775,1.2;stroke-dashoffset:0;stroke-width:0.75;"/>
     </g>
     <g id="line2d_82">
      <g>
       <use style="stroke:#000000;stroke-width:0.8;" x="1136.571429" xlink:href="#maadfbac407" y="238.148647"/>
      </g>
     </g>
     <g id="text_50">
      <text style="font-family:DejaVu Sans;font-size:12px;font-stretch:normal;font-style:normal;font-weight:normal;text-anchor:end;" transform="rotate(-0, 1129.571429, 242.70771)" x="1129.571429" y="242.70771">0.4</text>
     </g>
    </g>
    <g id="ytick_29">
     <g id="line2d_83">
      <path clip-path="url(#pe51acba3e8)" d="M 1136.571429 180.558157 
L 1296 180.558157 
" style="fill:none;stroke:#b0b0b0;stroke-dasharray:2.775,1.2;stroke-dashoffset:0;stroke-width:0.75;"/>
     </g>
     <g id="line2d_84">
      <g>
       <use style="stroke:#000000;stroke-width:0.8;" x="1136.571429" xlink:href="#maadfbac407" y="180.558157"/>
      </g>
     </g>
     <g id="text_51">
      <text style="font-family:DejaVu Sans;font-size:12px;font-stretch:normal;font-style:normal;font-weight:normal;text-anchor:end;" transform="rotate(-0, 1129.571429, 185.117219)" x="1129.571429" y="185.117219">0.6</text>
     </g>
    </g>
    <g id="ytick_30">
     <g id="line2d_85">
      <path clip-path="url(#pe51acba3e8)" d="M 1136.571429 122.967666 
L 1296 122.967666 
" style="fill:none;stroke:#b0b0b0;stroke-dasharray:2.775,1.2;stroke-dashoffset:0;stroke-width:0.75;"/>
     </g>
     <g id="line2d_86">
      <g>
       <use style="stroke:#000000;stroke-width:0.8;" x="1136.571429" xlink:href="#maadfbac407" y="122.967666"/>
      </g>
     </g>
     <g id="text_52">
      <text style="font-family:DejaVu Sans;font-size:12px;font-stretch:normal;font-style:normal;font-weight:normal;text-anchor:end;" transform="rotate(-0, 1129.571429, 127.526728)" x="1129.571429" y="127.526728">0.8</text>
     </g>
    </g>
    <g id="ytick_31">
     <g id="line2d_87">
      <path clip-path="url(#pe51acba3e8)" d="M 1136.571429 65.377175 
L 1296 65.377175 
" style="fill:none;stroke:#b0b0b0;stroke-dasharray:2.775,1.2;stroke-dashoffset:0;stroke-width:0.75;"/>
     </g>
     <g id="line2d_88">
      <g>
       <use style="stroke:#000000;stroke-width:0.8;" x="1136.571429" xlink:href="#maadfbac407" y="65.377175"/>
      </g>
     </g>
     <g id="text_53">
      <text style="font-family:DejaVu Sans;font-size:12px;font-stretch:normal;font-style:normal;font-weight:normal;text-anchor:end;" transform="rotate(-0, 1129.571429, 69.936238)" x="1129.571429" y="69.936238">1.0</text>
     </g>
    </g>
    <g id="text_54">
     <text style="font-family:DejaVu Sans;font-size:20px;font-stretch:normal;font-style:normal;font-weight:normal;text-anchor:middle;" transform="rotate(-90, 1102.328304, 214.92)" x="1102.328304" y="214.92">Simpson Diversity</text>
    </g>
   </g>
   <g id="PolyCollection_9">
    <defs>
     <path d="M 1176.442025 -69.896084 
L 1176.415118 -69.896084 
L 1176.361102 -72.88031 
L 1176.142255 -75.864537 
L 1175.422866 -78.848764 
L 1173.53946 -81.832991 
L 1169.659784 -84.817218 
L 1163.440254 -87.801445 
L 1155.810293 -90.785672 
L 1148.922798 -93.769899 
L 1144.914766 -96.754126 
L 1144.542857 -99.738352 
L 1146.981579 -102.722579 
L 1150.730801 -105.706806 
L 1154.594927 -108.691033 
L 1158.042919 -111.67526 
L 1161.016411 -114.659487 
L 1163.584404 -117.643714 
L 1165.754649 -120.627941 
L 1167.495327 -123.612168 
L 1168.82318 -126.596394 
L 1169.822609 -129.580621 
L 1170.595005 -132.564848 
L 1171.212289 -135.549075 
L 1171.71799 -138.533302 
L 1172.152371 -141.517529 
L 1172.554517 -144.501756 
L 1172.946132 -147.485983 
L 1173.333275 -150.47021 
L 1173.714387 -153.454436 
L 1174.070495 -156.438663 
L 1174.365329 -159.42289 
L 1174.576982 -162.407117 
L 1174.723675 -165.391344 
L 1174.847202 -168.375571 
L 1174.975003 -171.359798 
L 1175.104849 -174.344025 
L 1175.22186 -177.328252 
L 1175.321086 -180.312478 
L 1175.411678 -183.296705 
L 1175.504349 -186.280932 
L 1175.599241 -189.265159 
L 1175.685719 -192.249386 
L 1175.751423 -195.233613 
L 1175.791623 -198.21784 
L 1175.812062 -201.202067 
L 1175.823347 -204.186293 
L 1175.832685 -207.17052 
L 1175.842006 -210.154747 
L 1175.853615 -213.138974 
L 1175.873336 -216.123201 
L 1175.903685 -219.107428 
L 1175.93723 -222.091655 
L 1175.962907 -225.075882 
L 1175.977203 -228.060109 
L 1175.986356 -231.044335 
L 1176.000916 -234.028562 
L 1176.02805 -237.012789 
L 1176.064564 -239.997016 
L 1176.097135 -242.981243 
L 1176.11236 -245.96547 
L 1176.108508 -248.949697 
L 1176.097435 -251.933924 
L 1176.094034 -254.918151 
L 1176.104697 -257.902377 
L 1176.12623 -260.886604 
L 1176.151632 -263.870831 
L 1176.174401 -266.855058 
L 1176.19064 -269.839285 
L 1176.200268 -272.823512 
L 1176.206726 -275.807739 
L 1176.214597 -278.791966 
L 1176.225792 -281.776193 
L 1176.238351 -284.760419 
L 1176.250525 -287.744646 
L 1176.263935 -290.728873 
L 1176.280709 -293.7131 
L 1176.300311 -296.697327 
L 1176.320928 -299.681554 
L 1176.341507 -302.665781 
L 1176.361168 -305.650008 
L 1176.377877 -308.634235 
L 1176.388818 -311.618461 
L 1176.392443 -314.602688 
L 1176.390164 -317.586915 
L 1176.386155 -320.571142 
L 1176.385495 -323.555369 
L 1176.391219 -326.539596 
L 1176.40196 -329.523823 
L 1176.412998 -332.50805 
L 1176.419996 -335.492277 
L 1176.421412 -338.476503 
L 1176.418215 -341.46073 
L 1176.412806 -344.444957 
L 1176.408048 -347.429184 
L 1176.406182 -350.413411 
L 1176.40804 -353.397638 
L 1176.412892 -356.381865 
L 1176.4188 -359.366092 
L 1176.423712 -362.350319 
L 1176.426676 -365.334545 
L 1176.430466 -365.334545 
L 1176.430466 -365.334545 
L 1176.433431 -362.350319 
L 1176.438343 -359.366092 
L 1176.444251 -356.381865 
L 1176.449102 -353.397638 
L 1176.450961 -350.413411 
L 1176.449095 -347.429184 
L 1176.444337 -344.444957 
L 1176.438928 -341.46073 
L 1176.435731 -338.476503 
L 1176.437147 -335.492277 
L 1176.444145 -332.50805 
L 1176.455183 -329.523823 
L 1176.465924 -326.539596 
L 1176.471648 -323.555369 
L 1176.470988 -320.571142 
L 1176.466978 -317.586915 
L 1176.4647 -314.602688 
L 1176.468325 -311.618461 
L 1176.479266 -308.634235 
L 1176.495975 -305.650008 
L 1176.515636 -302.665781 
L 1176.536215 -299.681554 
L 1176.556831 -296.697327 
L 1176.576434 -293.7131 
L 1176.593208 -290.728873 
L 1176.606617 -287.744646 
L 1176.618791 -284.760419 
L 1176.631351 -281.776193 
L 1176.642546 -278.791966 
L 1176.650417 -275.807739 
L 1176.656874 -272.823512 
L 1176.666503 -269.839285 
L 1176.682742 -266.855058 
L 1176.705511 -263.870831 
L 1176.730912 -260.886604 
L 1176.752446 -257.902377 
L 1176.763109 -254.918151 
L 1176.759708 -251.933924 
L 1176.748635 -248.949697 
L 1176.744783 -245.96547 
L 1176.760008 -242.981243 
L 1176.792579 -239.997016 
L 1176.829092 -237.012789 
L 1176.856227 -234.028562 
L 1176.870787 -231.044335 
L 1176.87994 -228.060109 
L 1176.894236 -225.075882 
L 1176.919913 -222.091655 
L 1176.953458 -219.107428 
L 1176.983807 -216.123201 
L 1177.003528 -213.138974 
L 1177.015137 -210.154747 
L 1177.024458 -207.17052 
L 1177.033796 -204.186293 
L 1177.045081 -201.202067 
L 1177.06552 -198.21784 
L 1177.10572 -195.233613 
L 1177.171423 -192.249386 
L 1177.257902 -189.265159 
L 1177.352794 -186.280932 
L 1177.445465 -183.296705 
L 1177.536057 -180.312478 
L 1177.635283 -177.328252 
L 1177.752294 -174.344025 
L 1177.88214 -171.359798 
L 1178.00994 -168.375571 
L 1178.133468 -165.391344 
L 1178.280161 -162.407117 
L 1178.491814 -159.42289 
L 1178.786647 -156.438663 
L 1179.142756 -153.454436 
L 1179.523868 -150.47021 
L 1179.911011 -147.485983 
L 1180.302626 -144.501756 
L 1180.704772 -141.517529 
L 1181.139153 -138.533302 
L 1181.644854 -135.549075 
L 1182.262138 -132.564848 
L 1183.034534 -129.580621 
L 1184.033962 -126.596394 
L 1185.361816 -123.612168 
L 1187.102494 -120.627941 
L 1189.272739 -117.643714 
L 1191.840732 -114.659487 
L 1194.814224 -111.67526 
L 1198.262216 -108.691033 
L 1202.126341 -105.706806 
L 1205.875564 -102.722579 
L 1208.314286 -99.738352 
L 1207.942376 -96.754126 
L 1203.934345 -93.769899 
L 1197.046849 -90.785672 
L 1189.416889 -87.801445 
L 1183.197359 -84.817218 
L 1179.317683 -81.832991 
L 1177.434277 -78.848764 
L 1176.714888 -75.864537 
L 1176.496041 -72.88031 
L 1176.442025 -69.896084 
z
" id="m3354ba50bd" style="stroke:#4b4b4b;stroke-width:1.5;"/>
    </defs>
    <g clip-path="url(#pe51acba3e8)">
     <use style="fill:#5481a6;stroke:#4b4b4b;stroke-width:1.5;" x="0" xlink:href="#m3354ba50bd" y="432"/>
    </g>
   </g>
   <g id="PolyCollection_10">
    <defs>
     <path d="M 1256.16227 -68.825455 
L 1256.123444 -68.825455 
L 1256.076406 -71.600939 
L 1255.939314 -74.376424 
L 1255.588109 -77.151908 
L 1254.803325 -79.927393 
L 1253.283311 -82.702877 
L 1250.74495 -85.478362 
L 1247.109094 -88.253846 
L 1242.671429 -91.029331 
L 1238.105597 -93.804815 
L 1234.232421 -96.5803 
L 1231.677477 -99.355784 
L 1230.645726 -102.131269 
L 1230.94456 -104.906753 
L 1232.184204 -107.682238 
L 1233.979778 -110.457722 
L 1236.043395 -113.233207 
L 1238.178885 -116.008691 
L 1240.248637 -118.784176 
L 1242.157194 -121.55966 
L 1243.852437 -124.335145 
L 1245.326136 -127.110629 
L 1246.600784 -129.886114 
L 1247.706094 -132.661598 
L 1248.662522 -135.437083 
L 1249.484452 -138.212567 
L 1250.193345 -140.988052 
L 1250.819267 -143.763536 
L 1251.386295 -146.539021 
L 1251.901122 -149.314506 
L 1252.360851 -152.08999 
L 1252.769578 -154.865475 
L 1253.141003 -157.640959 
L 1253.483497 -160.416444 
L 1253.787961 -163.191928 
L 1254.034992 -165.967413 
L 1254.214291 -168.742897 
L 1254.337375 -171.518382 
L 1254.434188 -174.293866 
L 1254.538001 -177.069351 
L 1254.668371 -179.844835 
L 1254.82126 -182.62032 
L 1254.97277 -185.395804 
L 1255.09559 -188.171289 
L 1255.176966 -190.946773 
L 1255.224381 -193.722258 
L 1255.255715 -196.497742 
L 1255.284244 -199.273227 
L 1255.311675 -202.048711 
L 1255.333026 -204.824196 
L 1255.346124 -207.59968 
L 1255.355635 -210.375165 
L 1255.368761 -213.150649 
L 1255.38878 -215.926134 
L 1255.413606 -218.701618 
L 1255.439858 -221.477103 
L 1255.467652 -224.252587 
L 1255.501845 -227.028072 
L 1255.548542 -229.803556 
L 1255.608977 -232.579041 
L 1255.675874 -235.354526 
L 1255.736556 -238.13001 
L 1255.78094 -240.905495 
L 1255.807312 -243.680979 
L 1255.820865 -246.456464 
L 1255.827545 -249.231948 
L 1255.830285 -252.007433 
L 1255.831126 -254.782917 
L 1255.835201 -257.558402 
L 1255.850203 -260.333886 
L 1255.880818 -263.109371 
L 1255.924027 -265.884855 
L 1255.970294 -268.66034 
L 1256.009308 -271.435824 
L 1256.035221 -274.211309 
L 1256.048154 -276.986793 
L 1256.052352 -279.762278 
L 1256.052853 -282.537762 
L 1256.052563 -285.313247 
L 1256.051234 -288.088731 
L 1256.046853 -290.864216 
L 1256.038454 -293.6397 
L 1256.028379 -296.415185 
L 1256.022179 -299.190669 
L 1256.025631 -301.966154 
L 1256.040589 -304.741638 
L 1256.063052 -307.517123 
L 1256.085379 -310.292607 
L 1256.100974 -313.068092 
L 1256.107699 -315.843576 
L 1256.107792 -318.619061 
L 1256.105256 -321.394546 
L 1256.103337 -324.17003 
L 1256.103735 -326.945515 
L 1256.107073 -329.720999 
L 1256.113207 -332.496484 
L 1256.121086 -335.271968 
L 1256.128964 -338.047453 
L 1256.135259 -340.822937 
L 1256.139329 -343.598422 
L 1256.146385 -343.598422 
L 1256.146385 -343.598422 
L 1256.150455 -340.822937 
L 1256.156751 -338.047453 
L 1256.164628 -335.271968 
L 1256.172507 -332.496484 
L 1256.178641 -329.720999 
L 1256.181979 -326.945515 
L 1256.182378 -324.17003 
L 1256.180458 -321.394546 
L 1256.177922 -318.619061 
L 1256.178015 -315.843576 
L 1256.18474 -313.068092 
L 1256.200336 -310.292607 
L 1256.222662 -307.517123 
L 1256.245125 -304.741638 
L 1256.260084 -301.966154 
L 1256.263535 -299.190669 
L 1256.257336 -296.415185 
L 1256.247261 -293.6397 
L 1256.238862 -290.864216 
L 1256.23448 -288.088731 
L 1256.233151 -285.313247 
L 1256.232861 -282.537762 
L 1256.233362 -279.762278 
L 1256.23756 -276.986793 
L 1256.250494 -274.211309 
L 1256.276406 -271.435824 
L 1256.315421 -268.66034 
L 1256.361687 -265.884855 
L 1256.404896 -263.109371 
L 1256.435511 -260.333886 
L 1256.450513 -257.558402 
L 1256.454588 -254.782917 
L 1256.45543 -252.007433 
L 1256.458169 -249.231948 
L 1256.464849 -246.456464 
L 1256.478402 -243.680979 
L 1256.504774 -240.905495 
L 1256.549159 -238.13001 
L 1256.60984 -235.354526 
L 1256.676738 -232.579041 
L 1256.737172 -229.803556 
L 1256.783869 -227.028072 
L 1256.818062 -224.252587 
L 1256.845856 -221.477103 
L 1256.872108 -218.701618 
L 1256.896934 -215.926134 
L 1256.916953 -213.150649 
L 1256.93008 -210.375165 
L 1256.939591 -207.59968 
L 1256.952688 -204.824196 
L 1256.974039 -202.048711 
L 1257.00147 -199.273227 
L 1257.03 -196.497742 
L 1257.061333 -193.722258 
L 1257.108749 -190.946773 
L 1257.190124 -188.171289 
L 1257.312944 -185.395804 
L 1257.464455 -182.62032 
L 1257.617344 -179.844835 
L 1257.747713 -177.069351 
L 1257.851526 -174.293866 
L 1257.948339 -171.518382 
L 1258.071424 -168.742897 
L 1258.250722 -165.967413 
L 1258.497754 -163.191928 
L 1258.802218 -160.416444 
L 1259.144712 -157.640959 
L 1259.516136 -154.865475 
L 1259.924863 -152.08999 
L 1260.384592 -149.314506 
L 1260.899419 -146.539021 
L 1261.466447 -143.763536 
L 1262.092369 -140.988052 
L 1262.801262 -138.212567 
L 1263.623192 -135.437083 
L 1264.57962 -132.661598 
L 1265.68493 -129.886114 
L 1266.959578 -127.110629 
L 1268.433277 -124.335145 
L 1270.128521 -121.55966 
L 1272.037078 -118.784176 
L 1274.106829 -116.008691 
L 1276.242319 -113.233207 
L 1278.305936 -110.457722 
L 1280.10151 -107.682238 
L 1281.341155 -104.906753 
L 1281.639988 -102.131269 
L 1280.608237 -99.355784 
L 1278.053293 -96.5803 
L 1274.180117 -93.804815 
L 1269.614285 -91.029331 
L 1265.176621 -88.253846 
L 1261.540764 -85.478362 
L 1259.002403 -82.702877 
L 1257.482389 -79.927393 
L 1256.697605 -77.151908 
L 1256.3464 -74.376424 
L 1256.209308 -71.600939 
L 1256.16227 -68.825455 
z
" id="m361609b829" style="stroke:#4b4b4b;stroke-width:1.5;"/>
    </defs>
    <g clip-path="url(#pe51acba3e8)">
     <use style="fill:#df9c20;stroke:#4b4b4b;stroke-width:1.5;" x="0" xlink:href="#m361609b829" y="432"/>
    </g>
   </g>
   <g id="line2d_89">
    <path clip-path="url(#pe51acba3e8)" d="M 1176.428571 350.644119 
L 1176.428571 275.778258 
" style="fill:none;stroke:#4b4b4b;stroke-linecap:square;stroke-width:1.5;"/>
   </g>
   <g id="line2d_90">
    <path clip-path="url(#pe51acba3e8)" d="M 1176.428571 335.158528 
L 1176.428571 311.398402 
" style="fill:none;stroke:#4b4b4b;stroke-linecap:square;stroke-width:4.5;"/>
   </g>
   <g id="line2d_91">
    <path clip-path="url(#pe51acba3e8)" d="M 1256.142857 349.948727 
L 1256.142857 261.98327 
" style="fill:none;stroke:#4b4b4b;stroke-linecap:square;stroke-width:1.5;"/>
   </g>
   <g id="line2d_92">
    <path clip-path="url(#pe51acba3e8)" d="M 1256.142857 331.239984 
L 1256.142857 303.41826 
" style="fill:none;stroke:#4b4b4b;stroke-linecap:square;stroke-width:4.5;"/>
   </g>
   <g id="patch_23">
    <path d="M 1136.571429 378 
L 1136.571429 51.84 
" style="fill:none;stroke:#000000;stroke-linecap:square;stroke-linejoin:miter;stroke-width:0.8;"/>
   </g>
   <g id="patch_24">
    <path d="M 1296 378 
L 1296 51.84 
" style="fill:none;stroke:#000000;stroke-linecap:square;stroke-linejoin:miter;stroke-width:0.8;"/>
   </g>
   <g id="patch_25">
    <path d="M 1136.571429 378 
L 1296 378 
" style="fill:none;stroke:#000000;stroke-linecap:square;stroke-linejoin:miter;stroke-width:0.8;"/>
   </g>
   <g id="patch_26">
    <path d="M 1136.571429 51.84 
L 1296 51.84 
" style="fill:none;stroke:#000000;stroke-linecap:square;stroke-linejoin:miter;stroke-width:0.8;"/>
   </g>
   <g id="PathCollection_9">
    <g clip-path="url(#pe51acba3e8)">
     <use style="fill:#ffffff;stroke:#4b4b4b;" x="1176.428571" xlink:href="#m90cbced724" y="327.107942"/>
    </g>
   </g>
   <g id="PathCollection_10">
    <g clip-path="url(#pe51acba3e8)">
     <use style="fill:#ffffff;stroke:#4b4b4b;" x="1256.142857" xlink:href="#m90cbced724" y="321.198651"/>
    </g>
   </g>
   <g id="text_55">
    <text style="font-family:DejaVu Sans;font-size:14px;font-stretch:normal;font-style:normal;font-weight:normal;text-anchor:middle;" transform="rotate(-0, 1216.285714, 68.148)" x="1216.285714" y="68.148">P = 1.27e-34</text>
   </g>
   <g id="text_56">
    <text style="font-family:DejaVu Sans;font-size:14px;font-stretch:normal;font-style:normal;font-weight:normal;text-anchor:middle;" transform="rotate(-0, 1216.285714, 81.1944)" x="1216.285714" y="81.1944">d = -0.17</text>
   </g>
  </g>
 </g>
 <defs>
  <clipPath id="p2a32b6bac1">
   <rect height="326.16" width="159.428571" x="180" y="51.84"/>
  </clipPath>
  <clipPath id="p3ef9892f7d">
   <rect height="326.16" width="159.428571" x="419.142857" y="51.84"/>
  </clipPath>
  <clipPath id="p962f35d2a8">
   <rect height="326.16" width="159.428571" x="658.285714" y="51.84"/>
  </clipPath>
  <clipPath id="p4632c6c53d">
   <rect height="326.16" width="159.428571" x="897.428571" y="51.84"/>
  </clipPath>
  <clipPath id="pe51acba3e8">
   <rect height="326.16" width="159.428571" x="1136.571429" y="51.84"/>
  </clipPath>
 </defs>
</svg>
